#N canvas 299 162 450 300 10;
#X floatatom 227 36 5 0 0 0 - - -;
#X obj 227 74 bng 15 250 50 0 empty empty empty 17 7 0 10 -262144 -1
-1;
#X floatatom 255 56 5 0 0 0 - - -;
#X floatatom 284 75 5 0 0 0 - - -;
#X obj 227 138 list prepend;
#X msg 356 117 send;
#X obj 356 96 loadbang;
#X obj 206 158 list;
#X obj 206 179 list trim;
#X obj 143 139 metro 25;
#X obj 143 120 tgl 15 0 empty empty empty 17 7 0 10 -262144 -1 -1 1
1;
#X obj 39 225 netsend;
#X floatatom 39 249 5 0 0 0 - - -;
#X obj 97 224 spigot;
#X obj 39 167 spigot;
#X obj 72 144 != 1;
#X msg 39 192 connect localhost 6000;
#X obj 227 95 pack f f f f;
#X floatatom 321 66 5 0 0 0 - - -;
#X connect 0 0 17 0;
#X connect 1 0 17 0;
#X connect 2 0 1 0;
#X connect 2 0 17 1;
#X connect 3 0 1 0;
#X connect 3 0 17 2;
#X connect 4 0 7 1;
#X connect 5 0 4 1;
#X connect 6 0 5 0;
#X connect 6 0 3 0;
#X connect 6 0 2 0;
#X connect 6 0 0 0;
#X connect 6 0 18 0;
#X connect 7 0 8 0;
#X connect 8 0 13 0;
#X connect 9 0 7 0;
#X connect 9 0 14 0;
#X connect 10 0 9 0;
#X connect 11 0 12 0;
#X connect 12 0 13 1;
#X connect 12 0 15 0;
#X connect 13 0 11 0;
#X connect 14 0 16 0;
#X connect 15 0 14 1;
#X connect 16 0 11 0;
#X connect 17 0 4 0;
#X connect 18 0 17 3;
#X connect 18 0 1 0;
