#N canvas 643 28 809 632 10;
#N canvas 1019 371 603 431 kick 0;
#X obj 20 20 osc~;
#X obj 20 -23 loadbang;
#X obj 20 290 *~;
#X obj 35 78 bng 15 250 50 0 empty empty empty 17 7 0 10 -262144 -1
-1;
#X obj 20 551 *~;
#X obj 38 533 hsl 128 15 0 1 0 0 empty empty empty -2 -8 0 10 -262144
-1 -1 5100 1;
#X obj 20 572 outlet~;
#X msg 35 512 0.7;
#X obj 35 491 loadbang;
#X obj 35 55 inlet;
#X obj 20 363 reverberacion;
#X obj 35 125 proenv;
#X msg 35 100 5;
#X msg 20 -2 60;
#X connect 0 0 2 0;
#X connect 1 0 13 0;
#X connect 2 0 10 0;
#X connect 3 0 12 0;
#X connect 4 0 6 0;
#X connect 5 0 4 1;
#X connect 7 0 5 0;
#X connect 8 0 7 0;
#X connect 9 0 3 0;
#X connect 10 0 4 0;
#X connect 11 0 2 1;
#X connect 12 0 11 0;
#X connect 13 0 0 0;
#X restore 19 221 pd kick;
#X obj 331 466 *~;
#X obj 349 446 hsl 128 15 0 1 0 0 empty empty empty -2 -8 0 10 -258113
-1 -1 11800 1;
#X obj 331 486 dac~;
#X obj 19 203 bng 15 250 50 0 empty empty empty 17 7 0 10 -262144 -1
-1;
#X obj 5 -69 tgl 15 0 empty empty empty 17 7 0 10 -262144 -1 -1 1 1
;
#X obj 57 -22 unpack f f f;
#X floatatom 57 -1 5 0 0 0 - - -;
#X floatatom 91 -1 5 0 0 0 - - -;
#X floatatom 126 -1 5 0 0 0 - - -;
#N canvas 440 295 578 506 kick_notes 1;
#X obj 27 189 outlet;
#X obj 408 88 outlet;
#X obj 25 21 loadbang;
#X obj 26 63 t b;
#X obj 34 41 bng 15 250 50 0 empty empty empty 17 7 0 10 -262144 -1
-1;
#X text 53 39 Update bang;
#X obj 27 168 frame-const;
#X msg 27 105 1 2 3 4 5 6 7 8;
#X msg 57 129 1 3;
#X msg 90 146 1 9;
#X obj 145 168 frame-const;
#X msg 145 104 2 4 8;
#X msg 176 128 3;
#X msg 208 145 5;
#X connect 2 0 3 0;
#X connect 3 0 9 0;
#X connect 3 0 8 0;
#X connect 3 0 7 0;
#X connect 3 0 13 0;
#X connect 3 0 12 0;
#X connect 3 0 11 0;
#X connect 4 0 1 0;
#X connect 4 0 3 0;
#X connect 6 0 0 0;
#X connect 7 0 6 0;
#X connect 8 0 6 1;
#X connect 9 0 6 2;
#X connect 10 0 0 0;
#X connect 11 0 10 0;
#X connect 12 0 10 1;
#X connect 13 0 10 2;
#X restore 53 160 pd kick_notes;
#X obj 34 488 pysend;
#X obj 34 466 tgl 15 0 empty empty empty 17 7 0 10 -262144 -1 -1 1
1;
#X obj 88 204 tgl 15 0 empty empty empty 17 7 0 10 -262144 -1 -1 0
1;
#N canvas 368 402 450 300 hihat 0;
#X obj 36 3 noise~;
#X obj 36 204 *~;
#X obj 51 183 line~;
#X obj 51 97 bng 15 250 50 0 empty empty empty 17 7 0 10 -262144 -1
-1;
#X obj 36 242 *~;
#X obj 54 224 hsl 128 15 0 1 0 0 empty empty empty -2 -8 0 10 -262144
-1 -1 700 1;
#X obj 36 262 outlet~;
#X obj 82 73 inlet;
#X obj 124 54 inlet;
#X msg 123 145 set 0 \$1;
#X obj 123 125 line;
#X obj 124 74 bng 15 250 50 0 empty empty empty 17 7 0 10 -262144 -1
-1;
#X msg 68 162 0 20;
#X msg 132 108 20 100;
#X msg 124 90 100 0;
#X obj 36 55 bp~ 5000;
#X msg 81 35 2;
#X floatatom 45 24 5 0 0 0 - - -;
#X msg 51 119 1 15;
#X obj 68 140 del 15;
#X connect 0 0 15 0;
#X connect 1 0 4 0;
#X connect 2 0 1 1;
#X connect 3 0 18 0;
#X connect 3 0 19 0;
#X connect 4 0 6 0;
#X connect 5 0 4 1;
#X connect 7 0 3 0;
#X connect 8 0 11 0;
#X connect 9 0 12 0;
#X connect 10 0 9 0;
#X connect 11 0 14 0;
#X connect 11 0 13 0;
#X connect 12 0 2 0;
#X connect 13 0 10 0;
#X connect 14 0 10 0;
#X connect 15 0 1 0;
#X connect 16 0 15 2;
#X connect 17 0 15 1;
#X connect 18 0 2 0;
#X connect 19 0 12 0;
#X restore 441 196 pd hihat;
#N canvas 1411 263 450 300 hihat-notes 0;
#X obj 27 227 outlet;
#X obj 367 50 outlet;
#X obj 27 33 t b;
#X obj 27 7 loadbang;
#X obj 89 8 bng 15 250 50 0 empty empty empty 17 7 0 10 -262144 -1
-1;
#X obj 27 200 frame-const;
#X msg 27 125 1 2 3 4 5 6 7 8;
#X msg 90 173 1 9;
#X msg 126 199 4 4 4;
#X msg 58 147 1 2 3 4;
#X connect 2 0 1 0;
#X connect 2 0 7 0;
#X connect 2 0 9 0;
#X connect 2 0 6 0;
#X connect 2 0 8 0;
#X connect 3 0 2 0;
#X connect 4 0 2 0;
#X connect 5 0 0 0;
#X connect 6 0 5 0;
#X connect 7 0 5 2;
#X connect 8 0 0 0;
#X connect 9 0 5 1;
#X restore 475 150 pd hihat-notes;
#X obj 510 195 tgl 15 0 empty empty empty 17 7 0 10 -262144 -1 -1 0
1;
#X obj 532 173 frame-finder;
#X obj 601 193 tgl 15 0 empty empty empty 17 7 0 10 -262144 -1 -1 0
1;
#N canvas 530 290 450 300 hihat-notes 0;
#X obj 27 227 outlet;
#X obj 367 50 outlet;
#X obj 27 33 t b;
#X obj 27 7 loadbang;
#X obj 89 8 bng 15 250 50 0 empty empty empty 17 7 0 10 -262144 -1
-1;
#X msg 90 170 1;
#X obj 27 200 frame-const;
#X msg 27 125 5 6 7 8;
#X msg 58 147 1;
#X connect 2 0 1 0;
#X connect 2 0 5 0;
#X connect 2 0 8 0;
#X connect 2 0 7 0;
#X connect 3 0 2 0;
#X connect 4 0 2 0;
#X connect 5 0 6 2;
#X connect 6 0 0 0;
#X connect 7 0 6 0;
#X connect 8 0 6 1;
#X restore 566 150 pd hihat-notes;
#X obj 19 182 frame-finder;
#X obj 441 174 frame-finder;
#X obj 8 443 loadbang;
#X obj 19 241 s~ kick;
#X obj 331 382 r~ kick;
#X obj 340 404 r~ hihat;
#X obj 5 -22 s frame;
#X obj 19 139 r frame;
#X obj 88 222 s ktrigger;
#X obj 67 362 r ktrigger;
#X obj 441 129 r frame;
#X obj 441 216 s~ hihat;
#X obj 510 213 s htrigger;
#X obj 601 211 s hopen;
#X obj 80 382 r htrigger;
#X obj 93 403 r hopen;
#X floatatom 159 -23 5 0 0 0 - - -;
#N canvas 1396 359 720 529 snare 0;
#X obj 32 71 noise~;
#X obj 32 162 bp~;
#X floatatom 39 107 5 0 0 0 - - -;
#X obj 32 353 *~;
#X obj 47 189 proenv;
#X msg 62 162 5;
#X obj 85 137 bng 15 250 50 0 empty empty empty 17 7 0 10 -262144 -1
-1;
#X obj 32 440 *~;
#X obj 50 419 hsl 128 15 0 1 0 0 empty empty empty -2 -8 0 10 -262144
-1 -1 1300 1;
#X obj 32 462 outlet~;
#X msg 47 137 2;
#X obj 85 96 inlet;
#X obj 32 384 compressor~;
#X floatatom 95 363 5 0 0 0 - - -;
#X connect 0 0 1 0;
#X connect 1 0 3 0;
#X connect 2 0 1 1;
#X connect 3 0 12 0;
#X connect 4 0 3 1;
#X connect 5 0 4 0;
#X connect 6 0 5 0;
#X connect 7 0 9 0;
#X connect 8 0 7 1;
#X connect 10 0 1 2;
#X connect 11 0 6 0;
#X connect 12 0 7 0;
#X connect 13 0 12 1;
#X restore 192 221 pd snare;
#X obj 192 241 s~ snare;
#X obj 350 425 r~ snare;
#X obj 192 188 frame-finder;
#X obj 261 210 tgl 15 0 empty empty empty 17 7 0 10 -262144 -1 -1 0
1;
#X obj 261 228 s strigger;
#X obj 67 443 bondo 4;
#X obj 67 466 pack f f f f;
#X obj 106 423 r strigger;
#X obj 192 142 r frame;
#N canvas 1094 339 450 300 snare_notes 0;
#X obj 26 146 outlet;
#X obj 357 48 outlet;
#X obj 26 8 loadbang;
#X obj 26 31 t b;
#X obj 82 9 bng 15 250 50 0 empty empty empty 17 7 0 10 -262144 -1
-1;
#X obj 26 119 frame-const;
#X msg 26 66 1 2 3 4 5 6 7 8;
#X msg 57 89 2 4;
#X msg 138 119 8 4 15;
#X msg 89 90 1;
#X obj 193 119 frame-const;
#X msg 193 65 4 8;
#X msg 224 86 3;
#X msg 256 97 2 5 6 12 14 15;
#X connect 2 0 3 0;
#X connect 3 0 1 0;
#X connect 3 0 9 0;
#X connect 3 0 7 0;
#X connect 3 0 6 0;
#X connect 3 0 8 0;
#X connect 3 0 13 0;
#X connect 3 0 12 0;
#X connect 3 0 11 0;
#X connect 4 0 3 0;
#X connect 5 0 0 0;
#X connect 6 0 5 0;
#X connect 7 0 5 1;
#X connect 8 0 0 0;
#X connect 9 0 5 2;
#X connect 10 0 0 0;
#X connect 11 0 10 0;
#X connect 12 0 10 1;
#X connect 13 0 10 2;
#X restore 226 164 pd snare_notes;
#X obj 5 -46 metronome 70 3/4 16 8;
#X connect 0 0 23 0;
#X connect 1 0 3 0;
#X connect 1 0 3 1;
#X connect 2 0 1 1;
#X connect 4 0 0 0;
#X connect 5 0 48 0;
#X connect 6 0 7 0;
#X connect 6 1 8 0;
#X connect 6 2 9 0;
#X connect 10 0 20 1;
#X connect 10 1 20 2;
#X connect 12 0 11 0;
#X connect 13 0 28 0;
#X connect 14 0 31 0;
#X connect 15 0 21 1;
#X connect 15 1 21 2;
#X connect 16 0 32 0;
#X connect 17 0 14 1;
#X connect 17 1 18 0;
#X connect 18 0 33 0;
#X connect 19 0 17 1;
#X connect 19 1 17 2;
#X connect 20 0 4 0;
#X connect 20 1 13 0;
#X connect 21 0 14 0;
#X connect 21 1 16 0;
#X connect 22 0 12 0;
#X connect 24 0 1 0;
#X connect 25 0 1 0;
#X connect 27 0 20 0;
#X connect 29 0 43 0;
#X connect 30 0 21 0;
#X connect 30 0 17 0;
#X connect 34 0 43 1;
#X connect 35 0 43 2;
#X connect 37 0 38 0;
#X connect 39 0 1 0;
#X connect 40 0 37 0;
#X connect 40 1 41 0;
#X connect 41 0 42 0;
#X connect 43 0 44 0;
#X connect 43 1 44 1;
#X connect 43 2 44 2;
#X connect 43 3 44 3;
#X connect 44 0 11 1;
#X connect 45 0 43 3;
#X connect 46 0 40 0;
#X connect 47 0 40 1;
#X connect 47 1 40 2;
#X connect 48 0 6 0;
#X connect 48 0 26 0;
#X connect 48 1 36 0;
