#N canvas 255 23 1210 780 10;
#X obj 811 546 dac~;
#X obj 5 -69 tgl 15 0 empty empty empty 17 7 0 10 -262144 -1 -1 0 1
;
#X obj 57 -22 unpack f f f;
#X floatatom 57 -1 5 0 0 0 - - -;
#X floatatom 91 -1 5 0 0 0 - - -;
#X floatatom 126 -1 5 0 0 0 - - -;
#X obj 5 -22 s frame;
#X floatatom 159 -23 5 0 0 0 - - -;
#X obj 811 520 *~;
#X obj 852 520 *~;
#X obj 940 417 vsl 30 100 0 1 0 0 empty empty empty 0 -9 0 10 -262144
-1 -1 4100 1;
#X obj 10 123 s~ p1l;
#X obj 85 122 s~ p1r;
#X obj 811 216 r~ p1l;
#X obj 852 356 r~ p1r;
#X obj 208 122 s~ p2l;
#X obj 283 121 s~ p2r;
#X obj 818 235 r~ p2l;
#X obj 859 375 r~ p2r;
#X obj 404 120 s~ mrl;
#X obj 479 120 s~ mrr;
#X obj 600 120 s~ m1l;
#X obj 681 120 s~ m1r;
#X obj 802 120 s~ m2l;
#X obj 883 120 s~ m2r;
#X obj 1007 120 s~ mel;
#X obj 1088 120 s~ mer;
#X obj 825 254 r~ mrl;
#X obj 832 273 r~ m1l;
#X obj 837 292 r~ m2l;
#X obj 843 311 r~ mel;
#X obj 865 394 r~ mrr;
#X obj 871 413 r~ m1r;
#X obj 877 432 r~ m2r;
#X obj 883 451 r~ mer;
#X obj 10 103 instrument percussive-fx-1;
#X obj 163 122 s p1a;
#X obj 361 121 s p2a;
#X obj 557 119 s mra;
#X obj 759 119 s m1a;
#X obj 961 119 s m2a;
#X obj 1166 119 s mea;
#N canvas 23 471 397 579 percussive-fx-1-actions 1;
#X obj 5 -17 inlet;
#N canvas 493 102 922 292 action-arrangement 0;
#X obj 6 6 inlet;
#X text 44 6 vel;
#X msg 204 148 0;
#X msg 251 148 0;
#X msg 301 148 0;
#X msg 351 148 0;
#X msg 534 148 0;
#X msg 586 148 0;
#X obj 6 230 outlet;
#X obj 53 230 outlet;
#X obj 100 230 outlet~;
#X obj 152 229 outlet~;
#X obj 204 228 outlet;
#X obj 251 228 outlet~;
#X obj 301 228 outlet~;
#X obj 351 228 outlet~;
#X obj 401 228 outlet;
#X obj 445 228 outlet;
#X obj 490 228 outlet;
#X obj 534 228 outlet~;
#X obj 586 228 outlet~;
#X obj 638 228 outlet;
#X obj 685 228 outlet;
#X obj 730 228 outlet;
#X obj 774 228 outlet~;
#X obj 826 228 outlet~;
#X text 99 247 freq;
#X text 6 248 vel;
#X text 149 248 oscType;
#X text 251 248 FMRatio;
#X text 302 248 FMQ;
#X text 354 248 FMType;
#X text 407 248 Comp;
#X text 454 247 Hip;
#X text 491 246 Lop;
#X text 535 246 DelT;
#X text 584 247 DelQ;
#X text 641 246 Damp;
#X text 685 246 Room;
#X text 727 247 DW;
#X text 776 247 Vol;
#X text 843 248 Bal;
#X text 202 249 GlissT;
#X text 55 248 env;
#X obj 99 207 sig~;
#X obj 151 207 sig~;
#X obj 251 205 sig~;
#X obj 301 205 sig~;
#X obj 351 204 sig~;
#X obj 534 205 sig~;
#X obj 586 205 sig~;
#X obj 774 205 sig~;
#X obj 826 204 sig~;
#X obj 826 78 bng 15 250 50 0 empty empty empty 17 7 0 10 -262144 -1
-1;
#X obj 14 27 > 0;
#X obj 826 55 loadbang;
#X msg 826 147 0;
#X msg 445 148 0;
#X msg 401 148 0.3;
#X msg 99 148 38;
#X msg 490 148 20000;
#X msg 151 148 1.02;
#X msg 53 119 1 65 1 0.3 20 0 0 0 80 0 0 0;
#X msg 774 147 1;
#X msg 638 148 1;
#X msg 685 148 0.7;
#X msg 730 147 0;
#X connect 0 0 8 0;
#X connect 0 0 54 0;
#X connect 2 0 12 0;
#X connect 3 0 46 0;
#X connect 4 0 47 0;
#X connect 5 0 48 0;
#X connect 6 0 49 0;
#X connect 7 0 50 0;
#X connect 44 0 10 0;
#X connect 45 0 11 0;
#X connect 46 0 13 0;
#X connect 47 0 14 0;
#X connect 48 0 15 0;
#X connect 49 0 19 0;
#X connect 50 0 20 0;
#X connect 51 0 24 0;
#X connect 52 0 25 0;
#X connect 53 0 56 0;
#X connect 53 0 63 0;
#X connect 53 0 66 0;
#X connect 53 0 65 0;
#X connect 53 0 64 0;
#X connect 53 0 7 0;
#X connect 53 0 6 0;
#X connect 53 0 60 0;
#X connect 53 0 57 0;
#X connect 53 0 58 0;
#X connect 53 0 5 0;
#X connect 53 0 4 0;
#X connect 53 0 3 0;
#X connect 53 0 2 0;
#X connect 53 0 61 0;
#X connect 53 0 59 0;
#X connect 53 0 62 0;
#X connect 54 0 53 0;
#X connect 55 0 53 0;
#X connect 56 0 52 0;
#X connect 57 0 17 0;
#X connect 58 0 16 0;
#X connect 59 0 44 0;
#X connect 60 0 18 0;
#X connect 61 0 45 0;
#X connect 62 0 9 0;
#X connect 63 0 51 0;
#X connect 64 0 21 0;
#X connect 65 0 22 0;
#X connect 66 0 23 0;
#X restore 5 124 pd action-arrangement kick_basic;
#X obj 5 81 *;
#X obj 5 61 bondo;
#X obj 5 207 outlet;
#X obj 16 227 outlet;
#X obj 27 247 outlet~;
#X obj 38 267 outlet~;
#X obj 49 287 outlet;
#X obj 71 327 outlet~;
#X obj 82 347 outlet~;
#X obj 60 307 outlet~;
#X obj 93 367 outlet;
#X obj 105 387 outlet;
#X obj 127 427 outlet~;
#X obj 116 407 outlet;
#X obj 138 447 outlet~;
#X obj 149 467 outlet;
#X obj 160 487 outlet;
#X obj 171 507 outlet;
#X obj 182 527 outlet~;
#X obj 194 547 outlet~;
#X msg 5 39 127;
#N canvas 491 116 578 506 notes 0;
#X obj 26 189 outlet;
#X obj 408 88 outlet;
#X obj 25 21 loadbang;
#X obj 26 63 t b;
#X obj 34 41 bng 15 250 50 0 empty empty empty 17 7 0 10 -262144 -1
-1;
#X text 53 39 Update bang;
#X obj 26 167 frame-const;
#X msg 89 142 1 9;
#X msg 57 121 1 3;
#X msg 26 101 1 2 3 4 5 6 7 8;
#X connect 2 0 3 0;
#X connect 3 0 7 0;
#X connect 3 0 8 0;
#X connect 3 0 9 0;
#X connect 4 0 1 0;
#X connect 4 0 3 0;
#X connect 6 0 0 0;
#X connect 7 0 6 2;
#X connect 8 0 6 1;
#X connect 9 0 6 0;
#X restore 41 -3 pd notes;
#X obj 5 102 change;
#X obj 5 19 frame-finder;
#X connect 0 0 25 0;
#X connect 1 0 4 0;
#X connect 1 1 5 0;
#X connect 1 2 6 0;
#X connect 1 3 7 0;
#X connect 1 4 8 0;
#X connect 1 5 11 0;
#X connect 1 6 9 0;
#X connect 1 7 10 0;
#X connect 1 8 12 0;
#X connect 1 9 13 0;
#X connect 1 10 15 0;
#X connect 1 11 14 0;
#X connect 1 12 16 0;
#X connect 1 13 17 0;
#X connect 1 14 18 0;
#X connect 1 15 19 0;
#X connect 1 16 20 0;
#X connect 1 17 21 0;
#X connect 2 0 24 0;
#X connect 3 0 2 0;
#X connect 3 1 2 1;
#X connect 22 0 3 0;
#X connect 23 0 25 1;
#X connect 23 1 25 2;
#X connect 24 0 1 0;
#X connect 25 0 22 0;
#X connect 25 1 3 1;
#X restore 10 66 pd percussive-fx-1-actions;
#X obj 10 44 r frame;
#X obj 208 45 r frame;
#N canvas 495 192 293 591 percussive-fx-2-actions 0;
#X obj 5 3 inlet;
#N canvas 559 161 922 292 action-arrangement 0;
#X obj 6 6 inlet;
#X text 44 6 vel;
#X msg 251 148 0;
#X msg 301 148 0;
#X msg 351 148 0;
#X msg 401 148 0;
#X msg 445 148 0;
#X msg 490 148 20000;
#X msg 534 148 0;
#X msg 586 148 0;
#X msg 638 148 0.3;
#X msg 685 148 0.3;
#X msg 826 147 0;
#X obj 6 230 outlet;
#X obj 53 230 outlet;
#X obj 100 230 outlet~;
#X obj 152 229 outlet~;
#X obj 204 228 outlet;
#X obj 251 228 outlet~;
#X obj 301 228 outlet~;
#X obj 351 228 outlet~;
#X obj 401 228 outlet;
#X obj 445 228 outlet;
#X obj 490 228 outlet;
#X obj 534 228 outlet~;
#X obj 586 228 outlet~;
#X obj 638 228 outlet;
#X obj 685 228 outlet;
#X obj 730 228 outlet;
#X obj 774 228 outlet~;
#X obj 826 228 outlet~;
#X text 99 247 freq;
#X text 6 248 vel;
#X text 149 248 oscType;
#X text 251 248 FMRatio;
#X text 302 248 FMQ;
#X text 354 248 FMType;
#X text 407 248 Comp;
#X text 454 247 Hip;
#X text 491 246 Lop;
#X text 535 246 DelT;
#X text 584 247 DelQ;
#X text 641 246 Damp;
#X text 685 246 Room;
#X text 727 247 DW;
#X text 776 247 Vol;
#X text 843 248 Bal;
#X text 202 249 GlissT;
#X text 55 248 env;
#X obj 99 207 sig~;
#X obj 151 207 sig~;
#X obj 251 205 sig~;
#X obj 301 205 sig~;
#X obj 351 204 sig~;
#X obj 534 205 sig~;
#X obj 586 205 sig~;
#X obj 774 205 sig~;
#X obj 826 204 sig~;
#X obj 826 78 bng 15 250 50 0 empty empty empty 17 7 0 10 -262144 -1
-1;
#X obj 14 27 > 0;
#X obj 826 55 loadbang;
#X msg 151 148 1;
#X msg 730 147 0.1;
#X msg 53 119 1 15 1 0.3 50 1 0 0 80 0 0 0;
#X msg 99 148 60;
#X msg 774 147 1;
#X msg 204 148 0;
#X connect 0 0 13 0;
#X connect 0 0 59 0;
#X connect 2 0 51 0;
#X connect 3 0 52 0;
#X connect 4 0 53 0;
#X connect 5 0 21 0;
#X connect 6 0 22 0;
#X connect 7 0 23 0;
#X connect 8 0 54 0;
#X connect 9 0 55 0;
#X connect 10 0 26 0;
#X connect 11 0 27 0;
#X connect 12 0 57 0;
#X connect 49 0 15 0;
#X connect 50 0 16 0;
#X connect 51 0 18 0;
#X connect 52 0 19 0;
#X connect 53 0 20 0;
#X connect 54 0 24 0;
#X connect 55 0 25 0;
#X connect 56 0 29 0;
#X connect 57 0 30 0;
#X connect 58 0 12 0;
#X connect 58 0 65 0;
#X connect 58 0 62 0;
#X connect 58 0 11 0;
#X connect 58 0 10 0;
#X connect 58 0 9 0;
#X connect 58 0 8 0;
#X connect 58 0 7 0;
#X connect 58 0 6 0;
#X connect 58 0 5 0;
#X connect 58 0 4 0;
#X connect 58 0 3 0;
#X connect 58 0 2 0;
#X connect 58 0 66 0;
#X connect 58 0 61 0;
#X connect 58 0 63 0;
#X connect 58 0 64 0;
#X connect 59 0 58 0;
#X connect 60 0 58 0;
#X connect 61 0 50 0;
#X connect 62 0 28 0;
#X connect 63 0 14 0;
#X connect 64 0 49 0;
#X connect 65 0 56 0;
#X connect 66 0 17 0;
#X restore 5 124 pd action-arrangement kick_basic;
#X obj 5 101 *;
#X obj 5 81 bondo;
#X obj 5 207 outlet;
#X obj 16 227 outlet;
#X obj 27 247 outlet~;
#X obj 38 267 outlet~;
#X obj 49 287 outlet;
#X obj 71 327 outlet~;
#X obj 82 347 outlet~;
#X obj 60 307 outlet~;
#X obj 93 367 outlet;
#X obj 105 387 outlet;
#X obj 127 427 outlet~;
#X obj 116 407 outlet;
#X obj 138 447 outlet~;
#X obj 149 467 outlet;
#X obj 160 487 outlet;
#X obj 171 507 outlet;
#X obj 182 527 outlet~;
#X obj 194 547 outlet~;
#N canvas 440 295 578 506 kick 0;
#X obj 27 193 outlet;
#X obj 408 88 outlet;
#X obj 25 21 loadbang;
#X obj 26 63 t b;
#X obj 34 41 bng 15 250 50 0 empty empty empty 17 7 0 10 -262144 -1
-1;
#X text 53 39 Update bang;
#X connect 2 0 3 0;
#X connect 4 0 1 0;
#X connect 4 0 3 0;
#X restore 41 17 pd kick notes;
#X msg 5 59 127;
#X obj 5 39 frame-finder;
#X connect 0 0 24 0;
#X connect 1 0 4 0;
#X connect 1 1 5 0;
#X connect 1 2 6 0;
#X connect 1 3 7 0;
#X connect 1 4 8 0;
#X connect 1 5 11 0;
#X connect 1 6 9 0;
#X connect 1 7 10 0;
#X connect 1 8 12 0;
#X connect 1 9 13 0;
#X connect 1 10 15 0;
#X connect 1 11 14 0;
#X connect 1 12 16 0;
#X connect 1 13 17 0;
#X connect 1 14 18 0;
#X connect 1 15 19 0;
#X connect 1 16 20 0;
#X connect 1 17 21 0;
#X connect 2 0 1 0;
#X connect 3 0 2 0;
#X connect 3 1 2 1;
#X connect 22 0 24 1;
#X connect 22 1 24 2;
#X connect 23 0 3 0;
#X connect 24 0 23 0;
#X connect 24 1 3 1;
#X restore 208 67 pd percussive-fx-2-actions;
#X obj 404 45 r frame;
#N canvas 585 49 1227 793 harmony-perc-fx-actions 0;
#X obj 5 3 inlet;
#X obj 5 311 *;
#X obj 5 261 bondo;
#X obj 5 437 outlet;
#X obj 16 457 outlet;
#X obj 27 477 outlet~;
#X obj 38 497 outlet~;
#X obj 49 517 outlet;
#X obj 71 557 outlet~;
#X obj 82 577 outlet~;
#X obj 60 537 outlet~;
#X obj 93 597 outlet;
#X obj 105 617 outlet;
#X obj 127 657 outlet~;
#X obj 116 637 outlet;
#X obj 138 677 outlet~;
#X obj 149 697 outlet;
#X obj 160 717 outlet;
#X obj 171 737 outlet;
#X obj 182 757 outlet~;
#X obj 194 757 outlet~;
#X msg 5 239 127;
#X obj 67 311 mtof;
#X msg 39 239 60;
#N canvas 440 295 578 506 notes 0;
#X obj 27 204 outlet;
#X obj 408 88 outlet;
#X obj 25 21 loadbang;
#X obj 26 63 t b;
#X obj 34 41 bng 15 250 50 0 empty empty empty 17 7 0 10 -262144 -1
-1;
#X text 53 39 Update bang;
#X msg 90 154 1;
#X msg 58 131 1 3;
#X msg 27 110 1 2 3 4;
#X obj 27 175 frame-const;
#X connect 2 0 3 0;
#X connect 3 0 6 0;
#X connect 3 0 7 0;
#X connect 3 0 8 0;
#X connect 4 0 1 0;
#X connect 4 0 3 0;
#X connect 6 0 9 2;
#X connect 7 0 9 1;
#X connect 8 0 9 0;
#X connect 9 0 0 0;
#X restore 41 197 pd notes;
#X obj 15 26 list-idx 0;
#X obj 15 46 change;
#X obj 15 66 == 1;
#X obj 15 106 counter;
#X floatatom 15 126 5 0 0 0 - - -;
#X obj 15 87 sel 1;
#X obj 51 87 bng 15 250 50 0 empty empty empty 17 7 0 10 -262144 -1
-1;
#X obj 58 46 r start;
#X obj 51 67 sel 0;
#X msg 77 238 2;
#X obj 125 261 bondo;
#X msg 125 239 127;
#X msg 156 239 60;
#N canvas 440 295 578 506 notes 0;
#X obj 27 204 outlet;
#X obj 408 88 outlet;
#X obj 25 21 loadbang;
#X obj 26 63 t b;
#X obj 34 41 bng 15 250 50 0 empty empty empty 17 7 0 10 -262144 -1
-1;
#X text 53 39 Update bang;
#X msg 90 154 1;
#X msg 58 131 1 3;
#X msg 27 110 5 6 7 8;
#X obj 27 175 frame-const;
#X connect 2 0 3 0;
#X connect 3 0 6 0;
#X connect 3 0 7 0;
#X connect 3 0 8 0;
#X connect 4 0 1 0;
#X connect 4 0 3 0;
#X connect 6 0 9 2;
#X connect 7 0 9 1;
#X connect 8 0 9 0;
#X connect 9 0 0 0;
#X restore 161 197 pd notes;
#X msg 234 239 1.6;
#N canvas 316 231 922 292 action-arrangement 0;
#X obj 6 6 inlet;
#X text 44 6 vel;
#X msg 445 148 0;
#X msg 638 148 0.3;
#X obj 6 230 outlet;
#X obj 53 230 outlet;
#X obj 100 230 outlet~;
#X obj 152 229 outlet~;
#X obj 204 228 outlet;
#X obj 251 228 outlet~;
#X obj 301 228 outlet~;
#X obj 351 228 outlet~;
#X obj 401 228 outlet;
#X obj 445 228 outlet;
#X obj 490 228 outlet;
#X obj 534 228 outlet~;
#X obj 586 228 outlet~;
#X obj 638 228 outlet;
#X obj 685 228 outlet;
#X obj 730 228 outlet;
#X obj 774 228 outlet~;
#X obj 826 228 outlet~;
#X text 99 247 freq;
#X text 6 248 vel;
#X text 149 248 oscType;
#X text 251 248 FMRatio;
#X text 302 248 FMQ;
#X text 354 248 FMType;
#X text 407 248 Comp;
#X text 454 247 Hip;
#X text 491 246 Lop;
#X text 535 246 DelT;
#X text 584 247 DelQ;
#X text 641 246 Damp;
#X text 685 246 Room;
#X text 727 247 DW;
#X text 776 247 Vol;
#X text 843 248 Bal;
#X text 202 249 GlissT;
#X text 55 248 env;
#X obj 99 207 sig~;
#X obj 151 207 sig~;
#X obj 251 205 sig~;
#X obj 301 205 sig~;
#X obj 351 204 sig~;
#X obj 586 205 sig~;
#X obj 774 205 sig~;
#X obj 826 78 bng 15 250 50 0 empty empty empty 17 7 0 10 -262144 -1
-1;
#X obj 14 27 > 0;
#X obj 826 55 loadbang;
#X msg 99 148 261.626;
#X msg 730 147 0.5;
#X msg 685 148 0.8;
#X obj 71 5 inlet;
#X text 111 7 freq;
#X msg 99 95 set \$1;
#X msg 204 148 10;
#X msg 251 148 1.8;
#X msg 151 148 1.7;
#X msg 53 119 1 35 1 0.6 300 0 200 0 800 0 0 0;
#X msg 826 146 -0.5;
#X obj 826 204 sig~;
#X msg 586 148 0.3;
#X msg 534 148 100;
#X msg 301 148 100;
#X msg 351 148 1.3;
#X msg 490 148 300;
#X msg 401 148 2;
#X msg 401 91 set \$1;
#X obj 146 5 inlet;
#X msg 774 147 0.3;
#X connect 0 0 4 0;
#X connect 0 0 48 0;
#X connect 2 0 13 0;
#X connect 3 0 17 0;
#X connect 40 0 6 0;
#X connect 41 0 7 0;
#X connect 42 0 9 0;
#X connect 43 0 10 0;
#X connect 44 0 11 0;
#X connect 45 0 16 0;
#X connect 46 0 20 0;
#X connect 47 0 70 0;
#X connect 47 0 51 0;
#X connect 47 0 52 0;
#X connect 47 0 3 0;
#X connect 47 0 62 0;
#X connect 47 0 66 0;
#X connect 47 0 2 0;
#X connect 47 0 67 0;
#X connect 47 0 65 0;
#X connect 47 0 64 0;
#X connect 47 0 57 0;
#X connect 47 0 56 0;
#X connect 47 0 58 0;
#X connect 47 0 50 0;
#X connect 47 0 59 0;
#X connect 47 0 60 0;
#X connect 47 0 63 0;
#X connect 48 0 47 0;
#X connect 49 0 47 0;
#X connect 50 0 40 0;
#X connect 51 0 19 0;
#X connect 52 0 18 0;
#X connect 53 0 55 0;
#X connect 55 0 50 0;
#X connect 56 0 8 0;
#X connect 57 0 42 0;
#X connect 58 0 41 0;
#X connect 59 0 5 0;
#X connect 60 0 61 0;
#X connect 61 0 21 0;
#X connect 62 0 45 0;
#X connect 63 0 15 0;
#X connect 64 0 43 0;
#X connect 65 0 44 0;
#X connect 66 0 14 0;
#X connect 67 0 12 0;
#X connect 68 0 67 0;
#X connect 69 0 68 0;
#X connect 70 0 46 0;
#X restore 5 354 pd action-arrangement harmonyped;
#X obj 5 332 change;
#X obj 5 219 frame-finder;
#X obj 125 219 frame-finder;
#X connect 0 0 25 0;
#X connect 0 0 42 0;
#X connect 0 0 43 0;
#X connect 1 0 41 0;
#X connect 2 0 1 0;
#X connect 2 1 1 1;
#X connect 21 0 2 0;
#X connect 22 0 40 1;
#X connect 23 0 22 0;
#X connect 24 0 42 1;
#X connect 24 1 42 2;
#X connect 25 0 26 0;
#X connect 26 0 27 0;
#X connect 27 0 30 0;
#X connect 28 0 29 0;
#X connect 30 0 28 0;
#X connect 31 0 28 3;
#X connect 32 0 33 0;
#X connect 33 0 31 0;
#X connect 34 0 40 2;
#X connect 35 0 1 0;
#X connect 35 1 1 1;
#X connect 36 0 35 0;
#X connect 37 0 22 0;
#X connect 38 0 43 1;
#X connect 38 1 43 2;
#X connect 39 0 40 2;
#X connect 40 0 3 0;
#X connect 40 1 4 0;
#X connect 40 2 5 0;
#X connect 40 3 6 0;
#X connect 40 4 7 0;
#X connect 40 5 10 0;
#X connect 40 6 8 0;
#X connect 40 7 9 0;
#X connect 40 8 11 0;
#X connect 40 9 12 0;
#X connect 40 10 14 0;
#X connect 40 11 13 0;
#X connect 40 12 15 0;
#X connect 40 13 16 0;
#X connect 40 14 17 0;
#X connect 40 15 18 0;
#X connect 40 16 19 0;
#X connect 40 17 20 0;
#X connect 41 0 40 0;
#X connect 42 0 21 0;
#X connect 42 0 23 0;
#X connect 42 0 34 0;
#X connect 42 1 2 1;
#X connect 43 0 36 0;
#X connect 43 0 37 0;
#X connect 43 0 39 0;
#X connect 43 1 35 1;
#X restore 404 67 pd harmony-perc-fx-actions;
#X obj 600 45 r frame;
#N canvas 46 90 900 794 multifacet_harm_1-action 0;
#X obj 5 3 inlet;
#N canvas 352 144 922 292 action-arrangement 0;
#X obj 6 6 inlet;
#X text 44 6 vel;
#X msg 99 148 391.995;
#X msg 204 148 0;
#X msg 445 148 0;
#X msg 534 148 0;
#X msg 586 148 0;
#X msg 638 148 0.3;
#X msg 685 148 0.3;
#X obj 6 230 outlet;
#X obj 53 230 outlet;
#X obj 100 230 outlet~;
#X obj 152 229 outlet~;
#X obj 204 228 outlet;
#X obj 251 228 outlet~;
#X obj 301 228 outlet~;
#X obj 351 228 outlet~;
#X obj 401 228 outlet;
#X obj 445 228 outlet;
#X obj 490 228 outlet;
#X obj 534 228 outlet~;
#X obj 586 228 outlet~;
#X obj 638 228 outlet;
#X obj 685 228 outlet;
#X obj 730 228 outlet;
#X obj 774 228 outlet~;
#X obj 826 228 outlet~;
#X text 99 247 freq;
#X text 6 248 vel;
#X text 149 248 oscType;
#X text 251 248 FMRatio;
#X text 302 248 FMQ;
#X text 354 248 FMType;
#X text 407 248 Comp;
#X text 454 247 Hip;
#X text 491 246 Lop;
#X text 535 246 DelT;
#X text 584 247 DelQ;
#X text 641 246 Damp;
#X text 685 246 Room;
#X text 727 247 DW;
#X text 776 247 Vol;
#X text 843 248 Bal;
#X text 202 249 GlissT;
#X text 55 248 env;
#X obj 99 207 sig~;
#X obj 151 207 sig~;
#X obj 251 205 sig~;
#X obj 301 205 sig~;
#X obj 351 204 sig~;
#X obj 534 205 sig~;
#X obj 586 205 sig~;
#X obj 774 205 sig~;
#X obj 826 204 sig~;
#X obj 826 78 bng 15 250 50 0 empty empty empty 17 7 0 10 -262144 -1
-1;
#X obj 14 27 > 0;
#X obj 826 55 loadbang;
#X msg 99 94 set \$1;
#X obj 76 8 inlet;
#X msg 53 119 0.4 200 0 0.8 2000 0 10 0 80 0 0 0;
#X msg 730 147 0.8;
#X msg 826 147 0.5;
#X msg 490 148 2000;
#X msg 251 148 1;
#X msg 351 148 1;
#X msg 301 148 0;
#X msg 401 148 0;
#X msg 151 148 0.3;
#X msg 774 147 0.5;
#X connect 0 0 9 0;
#X connect 0 0 55 0;
#X connect 2 0 45 0;
#X connect 3 0 13 0;
#X connect 4 0 18 0;
#X connect 5 0 50 0;
#X connect 6 0 51 0;
#X connect 7 0 22 0;
#X connect 8 0 23 0;
#X connect 45 0 11 0;
#X connect 46 0 12 0;
#X connect 47 0 14 0;
#X connect 48 0 15 0;
#X connect 49 0 16 0;
#X connect 50 0 20 0;
#X connect 51 0 21 0;
#X connect 52 0 25 0;
#X connect 53 0 26 0;
#X connect 54 0 61 0;
#X connect 54 0 68 0;
#X connect 54 0 60 0;
#X connect 54 0 8 0;
#X connect 54 0 7 0;
#X connect 54 0 6 0;
#X connect 54 0 5 0;
#X connect 54 0 62 0;
#X connect 54 0 4 0;
#X connect 54 0 66 0;
#X connect 54 0 64 0;
#X connect 54 0 65 0;
#X connect 54 0 63 0;
#X connect 54 0 3 0;
#X connect 54 0 67 0;
#X connect 54 0 2 0;
#X connect 54 0 59 0;
#X connect 55 0 54 0;
#X connect 56 0 54 0;
#X connect 57 0 2 0;
#X connect 58 0 57 0;
#X connect 59 0 10 0;
#X connect 60 0 24 0;
#X connect 61 0 53 0;
#X connect 62 0 19 0;
#X connect 63 0 47 0;
#X connect 64 0 49 0;
#X connect 65 0 48 0;
#X connect 66 0 17 0;
#X connect 67 0 46 0;
#X connect 68 0 52 0;
#X restore 5 364 pd action-arrangement kick_basic;
#X obj 5 321 *;
#X obj 5 301 bondo;
#X obj 5 447 outlet;
#X obj 16 467 outlet;
#X obj 27 487 outlet~;
#X obj 38 507 outlet~;
#X obj 49 527 outlet;
#X obj 71 567 outlet~;
#X obj 82 587 outlet~;
#X obj 60 547 outlet~;
#X obj 93 607 outlet;
#X obj 105 627 outlet;
#X obj 127 667 outlet~;
#X obj 116 647 outlet;
#X obj 138 687 outlet~;
#X obj 149 707 outlet;
#X obj 160 727 outlet;
#X obj 171 747 outlet;
#X obj 182 767 outlet~;
#X obj 194 787 outlet~;
#X msg 5 279 127;
#X obj 25 36 list-idx 0;
#X obj 25 56 change;
#X obj 25 76 == 1;
#X obj 25 116 counter;
#X floatatom 25 136 5 0 0 0 - - -;
#X obj 25 97 sel 1;
#X obj 61 97 bng 15 250 50 0 empty empty empty 17 7 0 10 -262144 -1
-1;
#X obj 68 56 r start;
#X obj 61 77 sel 0;
#X obj 5 208 spigot;
#X obj 194 323 mtof;
#X msg 43 248 68;
#X obj 5 229 list-compare;
#X msg 74 209 1 1 1;
#X obj 5 248 sel 1;
#X obj 86 229 list-compare;
#X obj 86 248 sel 1;
#X msg 126 249 67;
#X msg 155 209 2 1 1;
#X obj 168 230 list-compare;
#X obj 168 249 sel 1;
#X obj 249 230 list-compare;
#X obj 249 249 sel 1;
#X msg 206 249 62;
#X msg 289 250 60;
#X msg 237 210 3 1 1;
#X msg 318 210 4 1 1;
#X msg 367 249 68;
#X obj 329 230 list-compare;
#X obj 329 249 sel 1;
#X obj 410 230 list-compare;
#X obj 410 249 sel 1;
#X msg 450 250 67;
#X obj 492 231 list-compare;
#X obj 492 250 sel 1;
#X obj 573 231 list-compare;
#X obj 573 250 sel 1;
#X msg 398 210 5 1 1;
#X msg 479 210 6 1 1;
#X msg 561 211 7 1 1;
#X msg 642 211 8 1 1;
#X msg 530 250 72;
#X msg 613 251 70;
#X obj 74 189 loadbang;
#X obj 38 184 > 1;
#X obj 5 342 change;
#X connect 0 0 23 0;
#X connect 0 0 32 0;
#X connect 1 0 4 0;
#X connect 1 1 5 0;
#X connect 1 2 6 0;
#X connect 1 3 7 0;
#X connect 1 4 8 0;
#X connect 1 5 11 0;
#X connect 1 6 9 0;
#X connect 1 7 10 0;
#X connect 1 8 12 0;
#X connect 1 9 13 0;
#X connect 1 10 15 0;
#X connect 1 11 14 0;
#X connect 1 12 16 0;
#X connect 1 13 17 0;
#X connect 1 14 18 0;
#X connect 1 15 19 0;
#X connect 1 16 20 0;
#X connect 1 17 21 0;
#X connect 2 0 68 0;
#X connect 3 0 2 0;
#X connect 3 1 2 1;
#X connect 22 0 3 0;
#X connect 23 0 24 0;
#X connect 24 0 25 0;
#X connect 25 0 28 0;
#X connect 26 0 27 0;
#X connect 27 0 67 0;
#X connect 28 0 26 0;
#X connect 29 0 26 3;
#X connect 30 0 31 0;
#X connect 31 0 29 0;
#X connect 32 0 35 0;
#X connect 32 0 38 0;
#X connect 32 0 42 0;
#X connect 32 0 44 0;
#X connect 32 0 51 0;
#X connect 32 0 53 0;
#X connect 32 0 56 0;
#X connect 32 0 58 0;
#X connect 33 0 1 1;
#X connect 34 0 33 0;
#X connect 35 0 37 0;
#X connect 35 0 3 1;
#X connect 36 0 35 1;
#X connect 37 0 22 0;
#X connect 37 0 34 0;
#X connect 38 0 39 0;
#X connect 38 0 3 1;
#X connect 39 0 22 0;
#X connect 39 0 40 0;
#X connect 40 0 33 0;
#X connect 41 0 38 1;
#X connect 42 0 43 0;
#X connect 42 0 3 1;
#X connect 43 0 46 0;
#X connect 43 0 22 0;
#X connect 44 0 45 0;
#X connect 44 0 3 1;
#X connect 45 0 47 0;
#X connect 45 0 22 0;
#X connect 46 0 33 0;
#X connect 47 0 33 0;
#X connect 48 0 42 1;
#X connect 49 0 44 1;
#X connect 50 0 33 0;
#X connect 51 0 52 0;
#X connect 51 0 3 1;
#X connect 52 0 50 0;
#X connect 52 0 22 0;
#X connect 53 0 54 0;
#X connect 53 0 3 1;
#X connect 54 0 55 0;
#X connect 54 0 22 0;
#X connect 55 0 33 0;
#X connect 56 0 57 0;
#X connect 56 0 3 1;
#X connect 57 0 64 0;
#X connect 57 0 22 0;
#X connect 58 0 59 0;
#X connect 58 0 3 1;
#X connect 59 0 65 0;
#X connect 59 0 22 0;
#X connect 60 0 51 1;
#X connect 61 0 53 1;
#X connect 62 0 56 1;
#X connect 63 0 58 1;
#X connect 64 0 33 0;
#X connect 65 0 33 0;
#X connect 66 0 36 0;
#X connect 66 0 41 0;
#X connect 66 0 48 0;
#X connect 66 0 49 0;
#X connect 66 0 60 0;
#X connect 66 0 61 0;
#X connect 66 0 62 0;
#X connect 66 0 63 0;
#X connect 67 0 32 1;
#X connect 68 0 1 0;
#X restore 600 67 pd multifacet_harm_1-action;
#X obj 802 45 r frame;
#N canvas 456 107 635 479 multifacet_harm_2-action 0;
#X obj 5 3 inlet;
#N canvas 546 132 922 292 action-arrangement 0;
#X obj 6 6 inlet;
#X text 44 6 vel;
#X msg 53 119 1 15 0 0.3 20 0 10 0 80 0 0 0;
#X msg 99 148 60;
#X msg 204 148 0;
#X msg 251 148 0;
#X msg 301 148 0;
#X msg 351 148 0;
#X msg 401 148 0;
#X msg 445 148 0;
#X msg 490 148 20000;
#X msg 534 148 0;
#X msg 586 148 0;
#X msg 638 148 0.3;
#X msg 685 148 0.3;
#X msg 774 147 1;
#X msg 826 147 0;
#X obj 6 230 outlet;
#X obj 53 230 outlet;
#X obj 100 230 outlet~;
#X obj 152 229 outlet~;
#X obj 204 228 outlet;
#X obj 251 228 outlet~;
#X obj 301 228 outlet~;
#X obj 351 228 outlet~;
#X obj 401 228 outlet;
#X obj 445 228 outlet;
#X obj 490 228 outlet;
#X obj 534 228 outlet~;
#X obj 586 228 outlet~;
#X obj 638 228 outlet;
#X obj 685 228 outlet;
#X obj 730 228 outlet;
#X obj 774 228 outlet~;
#X obj 826 228 outlet~;
#X text 99 247 freq;
#X text 6 248 vel;
#X text 149 248 oscType;
#X text 251 248 FMRatio;
#X text 302 248 FMQ;
#X text 354 248 FMType;
#X text 407 248 Comp;
#X text 454 247 Hip;
#X text 491 246 Lop;
#X text 535 246 DelT;
#X text 584 247 DelQ;
#X text 641 246 Damp;
#X text 685 246 Room;
#X text 727 247 DW;
#X text 776 247 Vol;
#X text 843 248 Bal;
#X text 202 249 GlissT;
#X text 55 248 env;
#X obj 99 207 sig~;
#X obj 151 207 sig~;
#X obj 251 205 sig~;
#X obj 301 205 sig~;
#X obj 351 204 sig~;
#X obj 534 205 sig~;
#X obj 586 205 sig~;
#X obj 774 205 sig~;
#X obj 826 204 sig~;
#X obj 826 78 bng 15 250 50 0 empty empty empty 17 7 0 10 -262144 -1
-1;
#X obj 14 27 > 0;
#X obj 826 55 loadbang;
#X msg 151 148 4;
#X msg 730 147 0.2;
#X connect 0 0 17 0;
#X connect 0 0 63 0;
#X connect 2 0 18 0;
#X connect 3 0 53 0;
#X connect 4 0 21 0;
#X connect 5 0 55 0;
#X connect 6 0 56 0;
#X connect 7 0 57 0;
#X connect 8 0 25 0;
#X connect 9 0 26 0;
#X connect 10 0 27 0;
#X connect 11 0 58 0;
#X connect 12 0 59 0;
#X connect 13 0 30 0;
#X connect 14 0 31 0;
#X connect 15 0 60 0;
#X connect 16 0 61 0;
#X connect 53 0 19 0;
#X connect 54 0 20 0;
#X connect 55 0 22 0;
#X connect 56 0 23 0;
#X connect 57 0 24 0;
#X connect 58 0 28 0;
#X connect 59 0 29 0;
#X connect 60 0 33 0;
#X connect 61 0 34 0;
#X connect 62 0 16 0;
#X connect 62 0 15 0;
#X connect 62 0 66 0;
#X connect 62 0 14 0;
#X connect 62 0 13 0;
#X connect 62 0 12 0;
#X connect 62 0 11 0;
#X connect 62 0 10 0;
#X connect 62 0 9 0;
#X connect 62 0 8 0;
#X connect 62 0 7 0;
#X connect 62 0 6 0;
#X connect 62 0 5 0;
#X connect 62 0 4 0;
#X connect 62 0 65 0;
#X connect 62 0 3 0;
#X connect 62 0 2 0;
#X connect 63 0 62 0;
#X connect 64 0 62 0;
#X connect 65 0 54 0;
#X connect 66 0 32 0;
#X restore 5 124 pd action-arrangement kick_basic;
#X obj 5 101 *;
#X obj 5 81 bondo;
#X obj 5 207 outlet;
#X obj 16 227 outlet;
#X obj 27 247 outlet~;
#X obj 38 267 outlet~;
#X obj 49 287 outlet;
#X obj 71 327 outlet~;
#X obj 82 347 outlet~;
#X obj 60 307 outlet~;
#X obj 93 367 outlet;
#X obj 105 387 outlet;
#X obj 127 427 outlet~;
#X obj 116 407 outlet;
#X obj 138 447 outlet~;
#X obj 149 467 outlet;
#X obj 160 487 outlet;
#X obj 171 507 outlet;
#X obj 182 527 outlet~;
#X obj 194 547 outlet~;
#N canvas 440 295 578 506 kick 0;
#X obj 27 189 outlet;
#X obj 408 88 outlet;
#X obj 25 21 loadbang;
#X obj 26 63 t b;
#X obj 34 41 bng 15 250 50 0 empty empty empty 17 7 0 10 -262144 -1
-1;
#X text 53 39 Update bang;
#X connect 2 0 3 0;
#X connect 4 0 1 0;
#X connect 4 0 3 0;
#X restore 41 17 pd kick notes;
#X msg 5 59 127;
#X obj 5 39 frame-finder;
#X connect 0 0 24 0;
#X connect 1 0 4 0;
#X connect 1 1 5 0;
#X connect 1 2 6 0;
#X connect 1 3 7 0;
#X connect 1 4 8 0;
#X connect 1 5 11 0;
#X connect 1 6 9 0;
#X connect 1 7 10 0;
#X connect 1 8 12 0;
#X connect 1 9 13 0;
#X connect 1 10 15 0;
#X connect 1 11 14 0;
#X connect 1 12 16 0;
#X connect 1 13 17 0;
#X connect 1 14 18 0;
#X connect 1 15 19 0;
#X connect 1 16 20 0;
#X connect 1 17 21 0;
#X connect 2 0 1 0;
#X connect 3 0 2 0;
#X connect 3 1 2 1;
#X connect 22 0 24 1;
#X connect 22 1 24 2;
#X connect 23 0 3 0;
#X connect 24 0 23 0;
#X connect 24 1 3 1;
#X restore 802 67 pd multifacet_harm_2-action;
#X obj 1007 45 r frame;
#N canvas 378 153 1057 592 multifacet_melody-action 0;
#X obj 5 3 inlet;
#X obj 5 371 *;
#X obj 5 351 bondo;
#X obj 5 497 outlet;
#X obj 16 517 outlet;
#X obj 27 537 outlet~;
#X obj 38 557 outlet~;
#X obj 49 577 outlet;
#X obj 71 617 outlet~;
#X obj 82 637 outlet~;
#X obj 60 597 outlet~;
#X obj 93 657 outlet;
#X obj 105 677 outlet;
#X obj 127 697 outlet~;
#X obj 116 677 outlet;
#X obj 138 717 outlet~;
#X obj 149 737 outlet;
#X obj 160 757 outlet;
#X obj 171 777 outlet;
#X obj 182 677 outlet~;
#X obj 194 697 outlet~;
#X msg 5 329 127;
#N canvas 392 104 922 292 action-arrangement 0;
#X obj 6 6 inlet;
#X text 44 6 vel;
#X msg 100 148 391.995;
#X msg 445 148 0;
#X obj 6 230 outlet;
#X obj 53 230 outlet;
#X obj 100 230 outlet~;
#X obj 152 229 outlet~;
#X obj 204 228 outlet;
#X obj 251 228 outlet~;
#X obj 301 228 outlet~;
#X obj 351 228 outlet~;
#X obj 401 228 outlet;
#X obj 445 228 outlet;
#X obj 490 228 outlet;
#X obj 534 228 outlet~;
#X obj 586 228 outlet~;
#X obj 638 228 outlet;
#X obj 685 228 outlet;
#X obj 730 228 outlet;
#X obj 774 228 outlet~;
#X obj 826 228 outlet~;
#X text 99 247 freq;
#X text 6 248 vel;
#X text 149 248 oscType;
#X text 251 248 FMRatio;
#X text 302 248 FMQ;
#X text 354 248 FMType;
#X text 407 248 Comp;
#X text 454 247 Hip;
#X text 491 246 Lop;
#X text 535 246 DelT;
#X text 584 247 DelQ;
#X text 641 246 Damp;
#X text 685 246 Room;
#X text 727 247 DW;
#X text 776 247 Vol;
#X text 843 248 Bal;
#X text 202 249 GlissT;
#X text 55 248 env;
#X obj 100 207 sig~;
#X obj 151 207 sig~;
#X obj 251 205 sig~;
#X obj 301 205 sig~;
#X obj 351 204 sig~;
#X obj 534 205 sig~;
#X obj 586 205 sig~;
#X obj 826 78 bng 15 250 50 0 empty empty empty 17 7 0 10 -262144 -1
-1;
#X obj 14 27 > 0;
#X obj 826 55 loadbang;
#X msg 99 95 set \$1;
#X obj 70 7 inlet;
#X msg 586 148 0.6;
#X msg 204 148 5;
#X msg 351 148 0;
#X msg 53 120 1 100 0 0.6 70 0 100 0 120 0 0 0;
#X msg 730 147 1;
#X msg 685 148 0.7;
#X msg 638 148 0.7;
#X msg 534 148 300;
#X msg 251 148 2.02;
#X msg 401 148 1;
#X msg 490 148 800;
#X msg 301 148 0;
#X msg 151 148 1;
#X msg 826 147 0;
#X msg 774 147 0.13;
#X connect 0 0 4 0;
#X connect 0 0 48 0;
#X connect 2 0 40 0;
#X connect 3 0 13 0;
#X connect 40 0 6 0;
#X connect 41 0 7 0;
#X connect 42 0 9 0;
#X connect 43 0 10 0;
#X connect 44 0 11 0;
#X connect 45 0 15 0;
#X connect 46 0 16 0;
#X connect 47 0 65 0;
#X connect 47 0 56 0;
#X connect 47 0 57 0;
#X connect 47 0 58 0;
#X connect 47 0 52 0;
#X connect 47 0 59 0;
#X connect 47 0 62 0;
#X connect 47 0 3 0;
#X connect 47 0 61 0;
#X connect 47 0 54 0;
#X connect 47 0 63 0;
#X connect 47 0 60 0;
#X connect 47 0 53 0;
#X connect 47 0 64 0;
#X connect 47 0 2 0;
#X connect 47 0 55 0;
#X connect 47 0 66 0;
#X connect 48 0 47 0;
#X connect 49 0 47 0;
#X connect 50 0 2 0;
#X connect 51 0 50 0;
#X connect 52 0 46 0;
#X connect 53 0 8 0;
#X connect 54 0 44 0;
#X connect 55 0 5 0;
#X connect 56 0 19 0;
#X connect 57 0 18 0;
#X connect 58 0 17 0;
#X connect 59 0 45 0;
#X connect 60 0 42 0;
#X connect 61 0 12 0;
#X connect 62 0 14 0;
#X connect 63 0 43 0;
#X connect 64 0 41 0;
#X connect 65 0 21 0;
#X connect 66 0 20 0;
#X restore 5 414 pd action-arrangement melody-arp;
#N canvas 440 295 578 506 notes 0;
#X obj 26 189 outlet;
#X obj 408 88 outlet;
#X obj 25 21 loadbang;
#X obj 26 63 t b;
#X obj 34 41 bng 15 250 50 0 empty empty empty 17 7 0 10 -262144 -1
-1;
#X text 53 39 Update bang;
#X msg 26 100 1 2 3 4 5 6;
#X msg 57 122 1 3;
#X msg 89 144 1;
#X obj 26 164 frame-const;
#X connect 2 0 3 0;
#X connect 3 0 8 0;
#X connect 3 0 7 0;
#X connect 3 0 6 0;
#X connect 4 0 1 0;
#X connect 4 0 3 0;
#X connect 6 0 9 0;
#X connect 7 0 9 1;
#X connect 8 0 9 2;
#X connect 9 0 0 0;
#X restore 41 287 pd notes;
#X msg 85 329 127;
#N canvas 440 295 578 506 notes 0;
#X obj 26 189 outlet;
#X obj 408 88 outlet;
#X obj 25 21 loadbang;
#X obj 26 63 t b;
#X obj 34 41 bng 15 250 50 0 empty empty empty 17 7 0 10 -262144 -1
-1;
#X text 53 39 Update bang;
#X msg 26 89 1 2 3 4 5 6;
#X msg 57 115 1 3;
#X msg 89 141 9;
#X obj 26 165 frame-const;
#X connect 2 0 3 0;
#X connect 3 0 8 0;
#X connect 3 0 7 0;
#X connect 3 0 6 0;
#X connect 4 0 1 0;
#X connect 4 0 3 0;
#X connect 6 0 9 0;
#X connect 7 0 9 1;
#X connect 8 0 9 2;
#X connect 9 0 0 0;
#X restore 121 287 pd notes;
#X msg 37 328 75;
#X obj 194 373 mtof;
#X msg 116 329 74;
#X msg 165 329 127;
#N canvas 440 295 578 506 notes 0;
#X obj 26 189 outlet;
#X obj 408 88 outlet;
#X obj 25 21 loadbang;
#X obj 26 63 t b;
#X obj 34 41 bng 15 250 50 0 empty empty empty 17 7 0 10 -262144 -1
-1;
#X text 53 39 Update bang;
#X msg 57 115 2 4;
#X msg 26 89 1 5;
#X msg 89 141 1;
#X obj 26 165 frame-const;
#X connect 2 0 3 0;
#X connect 3 0 8 0;
#X connect 3 0 6 0;
#X connect 3 0 7 0;
#X connect 4 0 1 0;
#X connect 4 0 3 0;
#X connect 6 0 9 1;
#X connect 7 0 9 0;
#X connect 8 0 9 2;
#X connect 9 0 0 0;
#X restore 201 287 pd notes;
#X msg 196 329 72;
#X msg 245 329 127;
#N canvas 440 295 578 506 notes 0;
#X obj 26 189 outlet;
#X obj 408 88 outlet;
#X obj 25 21 loadbang;
#X obj 26 63 t b;
#X obj 34 41 bng 15 250 50 0 empty empty empty 17 7 0 10 -262144 -1
-1;
#X text 53 39 Update bang;
#X msg 57 115 2 4;
#X msg 26 89 1 5;
#X msg 89 141 9;
#X msg 134 116 2 4;
#X msg 103 90 3;
#X msg 166 142 1;
#X obj 26 165 frame-const;
#X obj 103 166 frame-const;
#X connect 2 0 3 0;
#X connect 3 0 8 0;
#X connect 3 0 6 0;
#X connect 3 0 7 0;
#X connect 3 0 11 0;
#X connect 3 0 9 0;
#X connect 3 0 10 0;
#X connect 4 0 1 0;
#X connect 4 0 3 0;
#X connect 6 0 12 1;
#X connect 7 0 12 0;
#X connect 8 0 12 2;
#X connect 9 0 13 1;
#X connect 10 0 13 0;
#X connect 11 0 13 2;
#X connect 12 0 0 0;
#X connect 13 0 0 0;
#X restore 281 287 pd notes;
#X msg 276 329 68;
#X msg 325 329 127;
#N canvas 440 295 578 506 notes 0;
#X obj 26 189 outlet;
#X obj 408 88 outlet;
#X obj 25 21 loadbang;
#X obj 26 63 t b;
#X obj 34 41 bng 15 250 50 0 empty empty empty 17 7 0 10 -262144 -1
-1;
#X text 53 39 Update bang;
#X msg 57 115 2 4;
#X msg 89 141 1;
#X msg 26 89 2 6;
#X obj 26 165 frame-const;
#X connect 2 0 3 0;
#X connect 3 0 7 0;
#X connect 3 0 6 0;
#X connect 3 0 8 0;
#X connect 4 0 1 0;
#X connect 4 0 3 0;
#X connect 6 0 9 1;
#X connect 7 0 9 2;
#X connect 8 0 9 0;
#X connect 9 0 0 0;
#X restore 361 287 pd notes;
#X msg 405 329 127;
#N canvas 440 295 578 506 notes 0;
#X obj 26 189 outlet;
#X obj 408 88 outlet;
#X obj 25 21 loadbang;
#X obj 26 63 t b;
#X obj 34 41 bng 15 250 50 0 empty empty empty 17 7 0 10 -262144 -1
-1;
#X text 53 39 Update bang;
#X msg 57 115 2 4;
#X msg 89 141 9;
#X msg 26 89 2 6;
#X msg 113 91 4;
#X msg 144 112 2 4;
#X msg 176 142 1;
#X obj 26 165 frame-const;
#X obj 113 166 frame-const;
#X connect 2 0 3 0;
#X connect 3 0 7 0;
#X connect 3 0 6 0;
#X connect 3 0 8 0;
#X connect 3 0 11 0;
#X connect 3 0 10 0;
#X connect 3 0 9 0;
#X connect 4 0 1 0;
#X connect 4 0 3 0;
#X connect 6 0 12 1;
#X connect 7 0 12 2;
#X connect 8 0 12 0;
#X connect 9 0 13 0;
#X connect 10 0 13 1;
#X connect 11 0 13 2;
#X connect 12 0 0 0;
#X connect 13 0 0 0;
#X restore 441 287 pd notes;
#X msg 356 329 70;
#X msg 436 329 67;
#X msg 485 329 127;
#N canvas 440 295 578 506 notes 0;
#X obj 26 189 outlet;
#X obj 408 88 outlet;
#X obj 25 21 loadbang;
#X obj 26 63 t b;
#X obj 34 41 bng 15 250 50 0 empty empty empty 17 7 0 10 -262144 -1
-1;
#X text 53 39 Update bang;
#X msg 26 91 4;
#X msg 57 112 2 4;
#X msg 89 142 9;
#X obj 26 166 frame-const;
#X connect 2 0 3 0;
#X connect 3 0 8 0;
#X connect 3 0 7 0;
#X connect 3 0 6 0;
#X connect 4 0 1 0;
#X connect 4 0 3 0;
#X connect 6 0 9 0;
#X connect 7 0 9 1;
#X connect 8 0 9 2;
#X connect 9 0 0 0;
#X restore 521 287 pd notes;
#X msg 516 329 63;
#X msg 565 329 127;
#N canvas 1312 321 578 506 notes 0;
#X obj 26 189 outlet;
#X obj 408 88 outlet;
#X obj 25 21 loadbang;
#X obj 26 63 t b;
#X obj 34 41 bng 15 250 50 0 empty empty empty 17 7 0 10 -262144 -1
-1;
#X text 53 39 Update bang;
#X msg 57 115 2 4;
#X msg 26 89 3;
#X msg 89 141 9;
#X obj 26 165 frame-const;
#X connect 2 0 3 0;
#X connect 3 0 8 0;
#X connect 3 0 6 0;
#X connect 3 0 7 0;
#X connect 4 0 1 0;
#X connect 4 0 3 0;
#X connect 6 0 9 1;
#X connect 7 0 9 0;
#X connect 8 0 9 2;
#X connect 9 0 0 0;
#X restore 601 287 pd notes;
#X msg 596 329 65;
#X obj 25 30 list-idx 0;
#X obj 25 50 change;
#X obj 25 70 == 1;
#X obj 25 110 counter;
#X floatatom 25 130 5 0 0 0 - - -;
#X obj 25 91 sel 1;
#X obj 61 91 bng 15 250 50 0 empty empty empty 17 7 0 10 -262144 -1
-1;
#X obj 68 50 r start;
#X obj 61 71 sel 0;
#X obj 5 202 spigot;
#X obj 38 178 > 2;
#X obj 5 392 change;
#X obj 5 309 frame-finder;
#X obj 85 309 frame-finder;
#X obj 165 309 frame-finder;
#X obj 245 309 frame-finder;
#X obj 325 309 frame-finder;
#X obj 405 309 frame-finder;
#X obj 485 309 frame-finder;
#X obj 565 309 frame-finder;
#X connect 0 0 47 0;
#X connect 0 0 56 0;
#X connect 1 0 58 0;
#X connect 2 0 1 0;
#X connect 2 1 1 1;
#X connect 21 0 2 0;
#X connect 22 0 3 0;
#X connect 22 1 4 0;
#X connect 22 2 5 0;
#X connect 22 3 6 0;
#X connect 22 4 7 0;
#X connect 22 5 10 0;
#X connect 22 6 8 0;
#X connect 22 7 9 0;
#X connect 22 8 11 0;
#X connect 22 9 12 0;
#X connect 22 10 14 0;
#X connect 22 11 13 0;
#X connect 22 12 15 0;
#X connect 22 13 16 0;
#X connect 22 14 17 0;
#X connect 22 15 18 0;
#X connect 22 16 19 0;
#X connect 22 17 20 0;
#X connect 23 0 59 1;
#X connect 23 1 59 2;
#X connect 24 0 2 0;
#X connect 25 0 60 1;
#X connect 25 1 60 2;
#X connect 26 0 27 0;
#X connect 27 0 22 1;
#X connect 28 0 27 0;
#X connect 29 0 2 0;
#X connect 30 0 61 1;
#X connect 30 1 61 2;
#X connect 31 0 27 0;
#X connect 32 0 2 0;
#X connect 33 0 62 1;
#X connect 33 1 62 2;
#X connect 34 0 27 0;
#X connect 35 0 2 0;
#X connect 36 0 63 1;
#X connect 36 1 63 2;
#X connect 37 0 2 0;
#X connect 38 0 64 1;
#X connect 38 1 64 2;
#X connect 39 0 27 0;
#X connect 40 0 27 0;
#X connect 41 0 2 0;
#X connect 42 0 65 1;
#X connect 42 1 65 2;
#X connect 43 0 27 0;
#X connect 44 0 2 0;
#X connect 45 0 66 1;
#X connect 45 1 66 2;
#X connect 46 0 27 0;
#X connect 47 0 48 0;
#X connect 48 0 49 0;
#X connect 49 0 52 0;
#X connect 50 0 51 0;
#X connect 51 0 57 0;
#X connect 52 0 50 0;
#X connect 53 0 50 3;
#X connect 54 0 55 0;
#X connect 55 0 53 0;
#X connect 56 0 59 0;
#X connect 56 0 60 0;
#X connect 56 0 61 0;
#X connect 56 0 62 0;
#X connect 56 0 63 0;
#X connect 56 0 64 0;
#X connect 56 0 65 0;
#X connect 56 0 66 0;
#X connect 57 0 56 1;
#X connect 58 0 22 0;
#X connect 59 0 21 0;
#X connect 59 0 26 0;
#X connect 59 1 2 1;
#X connect 60 0 24 0;
#X connect 60 0 28 0;
#X connect 60 1 2 1;
#X connect 61 0 29 0;
#X connect 61 0 31 0;
#X connect 61 1 2 1;
#X connect 62 0 32 0;
#X connect 62 0 34 0;
#X connect 62 1 2 1;
#X connect 63 0 35 0;
#X connect 63 0 39 0;
#X connect 63 1 2 1;
#X connect 64 0 37 0;
#X connect 64 0 40 0;
#X connect 64 1 2 1;
#X connect 65 0 41 0;
#X connect 65 0 43 0;
#X connect 65 1 2 1;
#X connect 66 0 44 0;
#X connect 66 0 46 0;
#X connect 66 1 2 1;
#X restore 1007 67 pd multifacet_melody-action;
#X obj 29 -69 s start;
#X obj 208 102 instrument percussive-fx-2;
#X obj 404 100 instrument multifacet-perc;
#X obj 600 100 instrument multifacet-arm-1;
#X obj 1007 100 instrument multifacet-mel-1;
#X obj 802 100 instrument multifacet-arm-2;
#X obj 230 -26 list-random 0 29;
#X obj 230 -49 loadbang;
#X obj 230 -68 bng 15 250 50 0 empty empty empty 17 7 0 10 -262144
-1 -1;
#X obj 121 173 r p1a;
#X obj 106 216 bng 15 250 50 0 empty empty empty 17 7 0 10 -262144
-1 -1;
#X obj 106 195 r tt;
#X obj 230 -5 s placeholder;
#X obj 127 280 r tt;
#X obj 148 301 r placeholder;
#X obj 125 235 r placeholder;
#X obj 106 339 list;
#X obj 9 173 r p1a;
#X obj 17 194 r p2a;
#X obj 26 214 r mra;
#X obj 34 234 r m1a;
#X obj 42 254 r m2a;
#X obj 50 274 r mea;
#X obj 9 295 bng 15 250 50 0 empty empty empty 17 7 0 10 -262144 -1
-1;
#X obj 9 334 s tt;
#X obj 127 359 r tt;
#X obj 127 378 bng 15 250 50 0 empty empty empty 17 7 0 10 -262144
-1 -1;
#X obj 148 378 r placeholder;
#X obj 106 416 list;
#X obj 142 256 r p2a;
#X obj 142 339 r mra;
#X obj 127 436 r tt;
#X obj 127 455 bng 15 250 50 0 empty empty empty 17 7 0 10 -262144
-1 -1;
#X obj 148 455 r placeholder;
#X obj 106 493 list;
#X obj 127 513 r tt;
#X obj 127 532 bng 15 250 50 0 empty empty empty 17 7 0 10 -262144
-1 -1;
#X obj 148 532 r placeholder;
#X obj 106 570 list;
#X obj 142 416 r m1a;
#X obj 142 494 r m2a;
#X obj 127 590 r tt;
#X obj 127 609 bng 15 250 50 0 empty empty empty 17 7 0 10 -262144
-1 -1;
#X obj 148 609 r placeholder;
#X obj 106 647 list;
#X obj 142 571 r mea;
#X obj 73 670 pysend;
#X obj 73 651 tgl 15 0 empty empty empty 17 7 0 10 -262144 -1 -1 0
1;
#X obj 58 628 r start;
#X obj 127 320 l;
#X obj 106 256 l;
#X obj 127 397 l;
#X obj 127 474 l;
#X obj 127 551 l;
#X obj 127 628 l;
#X obj 127 301 bng 15 250 50 0 empty empty empty 17 7 0 10 -262144
-1 -1;
#X text 983 445 master volume;
#X text 282 -56 initialize an empty list as a placeholder for inactive
instruments;
#X floatatom 84 692 5 0 0 0 - - -;
#X obj 5 -46 metronome 75 4/4 16 8;
#X floatatom 195 -23 5 0 0 0 - - -;
#X obj 248 248 print;
#X obj 9 313 del 1;
#X connect 1 0 54 0;
#X connect 1 0 113 0;
#X connect 2 0 3 0;
#X connect 2 1 4 0;
#X connect 2 2 5 0;
#X connect 8 0 0 0;
#X connect 9 0 0 1;
#X connect 10 0 9 1;
#X connect 10 0 8 1;
#X connect 13 0 8 0;
#X connect 14 0 9 0;
#X connect 17 0 8 0;
#X connect 18 0 9 0;
#X connect 27 0 8 0;
#X connect 28 0 8 0;
#X connect 29 0 8 0;
#X connect 30 0 8 0;
#X connect 31 0 9 0;
#X connect 32 0 9 0;
#X connect 33 0 9 0;
#X connect 34 0 9 0;
#X connect 35 0 11 0;
#X connect 35 1 12 0;
#X connect 35 2 36 0;
#X connect 42 0 35 0;
#X connect 42 1 35 1;
#X connect 42 2 35 2;
#X connect 42 3 35 3;
#X connect 42 4 35 4;
#X connect 42 5 35 5;
#X connect 42 6 35 6;
#X connect 42 7 35 7;
#X connect 42 8 35 8;
#X connect 42 9 35 9;
#X connect 42 10 35 10;
#X connect 42 11 35 11;
#X connect 42 12 35 12;
#X connect 42 13 35 13;
#X connect 42 14 35 14;
#X connect 42 15 35 15;
#X connect 42 16 35 16;
#X connect 42 17 35 17;
#X connect 43 0 42 0;
#X connect 44 0 45 0;
#X connect 45 0 55 0;
#X connect 45 1 55 1;
#X connect 45 2 55 2;
#X connect 45 3 55 3;
#X connect 45 4 55 4;
#X connect 45 5 55 5;
#X connect 45 6 55 6;
#X connect 45 7 55 7;
#X connect 45 8 55 8;
#X connect 45 9 55 9;
#X connect 45 10 55 10;
#X connect 45 11 55 11;
#X connect 45 12 55 12;
#X connect 45 13 55 13;
#X connect 45 14 55 14;
#X connect 45 15 55 15;
#X connect 45 16 55 16;
#X connect 45 17 55 17;
#X connect 46 0 47 0;
#X connect 47 0 56 0;
#X connect 47 1 56 1;
#X connect 47 2 56 2;
#X connect 47 3 56 3;
#X connect 47 4 56 4;
#X connect 47 5 56 5;
#X connect 47 6 56 6;
#X connect 47 7 56 7;
#X connect 47 8 56 8;
#X connect 47 9 56 9;
#X connect 47 10 56 10;
#X connect 47 11 56 11;
#X connect 47 12 56 12;
#X connect 47 13 56 13;
#X connect 47 14 56 14;
#X connect 47 15 56 15;
#X connect 47 16 56 16;
#X connect 47 17 56 17;
#X connect 48 0 49 0;
#X connect 49 0 57 0;
#X connect 49 1 57 1;
#X connect 49 2 57 2;
#X connect 49 3 57 3;
#X connect 49 4 57 4;
#X connect 49 5 57 5;
#X connect 49 6 57 6;
#X connect 49 7 57 7;
#X connect 49 8 57 8;
#X connect 49 9 57 9;
#X connect 49 10 57 10;
#X connect 49 11 57 11;
#X connect 49 12 57 12;
#X connect 49 13 57 13;
#X connect 49 14 57 14;
#X connect 49 15 57 15;
#X connect 49 16 57 16;
#X connect 49 17 57 17;
#X connect 50 0 51 0;
#X connect 51 0 59 0;
#X connect 51 1 59 1;
#X connect 51 2 59 2;
#X connect 51 3 59 3;
#X connect 51 4 59 4;
#X connect 51 5 59 5;
#X connect 51 6 59 6;
#X connect 51 7 59 7;
#X connect 51 8 59 8;
#X connect 51 9 59 9;
#X connect 51 10 59 10;
#X connect 51 11 59 11;
#X connect 51 12 59 12;
#X connect 51 13 59 13;
#X connect 51 14 59 14;
#X connect 51 15 59 15;
#X connect 51 16 59 16;
#X connect 51 17 59 17;
#X connect 52 0 53 0;
#X connect 53 0 58 0;
#X connect 53 1 58 1;
#X connect 53 2 58 2;
#X connect 53 3 58 3;
#X connect 53 4 58 4;
#X connect 53 5 58 5;
#X connect 53 6 58 6;
#X connect 53 7 58 7;
#X connect 53 8 58 8;
#X connect 53 9 58 9;
#X connect 53 10 58 10;
#X connect 53 11 58 11;
#X connect 53 12 58 12;
#X connect 53 13 58 13;
#X connect 53 14 58 14;
#X connect 53 15 58 15;
#X connect 53 16 58 16;
#X connect 53 17 58 17;
#X connect 55 0 15 0;
#X connect 55 1 16 0;
#X connect 55 2 37 0;
#X connect 56 0 19 0;
#X connect 56 1 20 0;
#X connect 56 2 38 0;
#X connect 57 0 21 0;
#X connect 57 1 22 0;
#X connect 57 2 39 0;
#X connect 58 0 25 0;
#X connect 58 1 26 0;
#X connect 58 2 41 0;
#X connect 59 0 23 0;
#X connect 59 1 24 0;
#X connect 59 2 40 0;
#X connect 60 0 66 0;
#X connect 61 0 60 0;
#X connect 62 0 60 0;
#X connect 63 0 104 1;
#X connect 64 0 104 0;
#X connect 65 0 64 0;
#X connect 67 0 109 0;
#X connect 68 0 103 1;
#X connect 69 0 104 1;
#X connect 70 0 82 0;
#X connect 71 0 77 0;
#X connect 72 0 77 0;
#X connect 73 0 77 0;
#X connect 74 0 77 0;
#X connect 75 0 77 0;
#X connect 76 0 77 0;
#X connect 77 0 116 0;
#X connect 79 0 80 0;
#X connect 80 0 105 0;
#X connect 81 0 105 1;
#X connect 82 0 88 0;
#X connect 83 0 103 1;
#X connect 84 0 105 1;
#X connect 85 0 86 0;
#X connect 86 0 106 0;
#X connect 87 0 106 1;
#X connect 88 0 92 0;
#X connect 89 0 90 0;
#X connect 90 0 107 0;
#X connect 91 0 107 1;
#X connect 92 0 98 0;
#X connect 93 0 106 1;
#X connect 94 0 107 1;
#X connect 95 0 96 0;
#X connect 96 0 108 0;
#X connect 97 0 108 1;
#X connect 98 0 100 1;
#X connect 98 0 115 0;
#X connect 99 0 108 1;
#X connect 100 0 112 0;
#X connect 101 0 100 0;
#X connect 102 0 101 0;
#X connect 103 0 70 1;
#X connect 104 0 70 0;
#X connect 105 0 82 1;
#X connect 106 0 88 1;
#X connect 107 0 92 1;
#X connect 108 0 98 1;
#X connect 109 0 103 0;
#X connect 113 0 2 0;
#X connect 113 0 6 0;
#X connect 113 1 7 0;
#X connect 113 2 114 0;
#X connect 116 0 78 0;
