#N canvas 43 22 1920 1032 10;
#X obj 72 35 hsl 128 15 -1 1 0 0 empty empty empty -2 -8 0 10 -262144
-1 -1 1900 1;
#X floatatom 69 61 5 0 0 0 - - -;
#X msg 69 7 0;
#X obj 69 86 clip 0 1;
#X floatatom 69 112 5 0 0 0 - - -;
#X obj 69 138 * -1;
#X floatatom 69 161 5 0 0 0 - - -;
#X obj 69 185 + 1;
#X floatatom 69 212 5 0 0 0 - - -;
#X floatatom 132 112 5 0 0 0 - - -;
#X obj 132 86 clip -1 0;
#X obj 132 138 + 1;
#X floatatom 132 161 5 0 0 0 - - -;
#X obj 81 248 *~;
#X obj 39 247 *~;
#X obj 373 43 inlet~;
#X obj 323 151 *~;
#X obj 210 152 *~;
#X obj 259 73 clip~ 0 1;
#X obj 338 73 clip~ -1 0;
#X obj 259 100 *~ -1;
#X obj 338 100 +~ 1;
#X obj 259 128 +~ 1;
#X obj 210 128 inlet~;
#X obj 323 128 inlet~;
#X obj 44 325 dac~;
#X obj 210 178 outlet~;
#X obj 323 178 outlet~;
#X connect 0 0 1 0;
#X connect 1 0 3 0;
#X connect 1 0 10 0;
#X connect 2 0 0 0;
#X connect 3 0 4 0;
#X connect 4 0 5 0;
#X connect 5 0 6 0;
#X connect 6 0 7 0;
#X connect 7 0 8 0;
#X connect 8 0 14 1;
#X connect 9 0 11 0;
#X connect 10 0 9 0;
#X connect 11 0 12 0;
#X connect 12 0 13 1;
#X connect 13 0 25 1;
#X connect 14 0 25 0;
#X connect 15 0 18 0;
#X connect 15 0 19 0;
#X connect 16 0 27 0;
#X connect 17 0 26 0;
#X connect 18 0 20 0;
#X connect 19 0 21 0;
#X connect 20 0 22 0;
#X connect 21 0 16 1;
#X connect 22 0 17 1;
#X connect 23 0 17 0;
#X connect 24 0 16 0;
