#N canvas 893 347 564 401 10;
#X obj 22 16 inlet;
#X text 59 15 Trigger;
#X obj 243 15 inlet;
#X text 280 14 Time;
#X obj 315 15 inlet;
#X text 353 15 Curve Type;
#X obj 176 15 inlet;
#X obj 108 15 inlet;
#X text 215 15 Amp2;
#X text 148 15 Amp1;
#X obj 185 134 line~;
#X obj 226 201 exp~;
#X obj 226 178 *~ 7;
#X obj 300 37 i;
#X obj 300 58 clip 0 1;
#X obj 300 79 tgl 15 0 empty empty empty 17 7 0 10 -262144 -1 -1 0
1;
#X obj 300 119 tgl 15 0 empty empty empty 17 7 0 10 -262144 -1 -1 1
1;
#X obj 300 98 != 1;
#X msg 185 84 0 0;
#X obj 251 242 *~;
#X obj 187 279 +~;
#X obj 93 40 f;
#X obj 161 38 f;
#X obj 228 39 f;
#X obj 22 42 bng 15 250 50 0 empty empty empty 17 7 0 10 -262144 -1
-1;
#X msg 228 81 set 1 \$1;
#X msg 196 111 1 15;
#X obj 134 103 -;
#X obj 134 64 bondo;
#X obj 134 83 swap;
#X floatatom 134 123 5 0 0 0 - - -;
#X text 142 138 range;
#X obj 134 296 *~;
#X obj 93 313 +~;
#X obj 279 202 outlet;
#X obj 93 333 outlet~;
#X obj 427 15 inlet;
#X text 465 16 manual stop;
#X obj 279 182 bng 15 250 50 0 empty empty empty 17 7 0 10 -262144
-1 -1;
#X obj 427 37 bng 15 250 50 0 empty empty empty 17 7 0 10 -262144 -1
-1;
#X obj 279 162 del;
#X obj 147 156 abs;
#X obj 144 195 /;
#X obj 144 176 bondo;
#X obj 226 157 -~ 1;
#X obj 144 215 > 0;
#X obj 226 222 *~;
#X obj 186 156 *~ -7;
#X obj 186 176 exp~;
#X obj 186 216 +~ 1;
#X obj 187 236 *~;
#X obj 174 325 vtof;
#X floatatom 175 346 5 0 0 0 - - -;
#X obj 144 234 != 1;
#X obj 186 197 *~ -1;
#X floatatom 88 243 5 0 0 0 - - -;
#X obj 187 259 *~;
#X connect 0 0 24 0;
#X connect 2 0 23 1;
#X connect 4 0 13 1;
#X connect 6 0 22 1;
#X connect 7 0 21 1;
#X connect 10 0 19 0;
#X connect 10 0 44 0;
#X connect 10 0 47 0;
#X connect 11 0 46 0;
#X connect 12 0 11 0;
#X connect 13 0 14 0;
#X connect 14 0 15 0;
#X connect 15 0 17 0;
#X connect 15 0 56 1;
#X connect 16 0 19 1;
#X connect 17 0 16 0;
#X connect 18 0 10 0;
#X connect 19 0 20 1;
#X connect 20 0 32 1;
#X connect 21 0 28 0;
#X connect 21 0 33 0;
#X connect 22 0 28 1;
#X connect 23 0 25 0;
#X connect 23 0 40 1;
#X connect 24 0 18 0;
#X connect 24 0 13 0;
#X connect 24 0 23 0;
#X connect 24 0 22 0;
#X connect 24 0 21 0;
#X connect 24 0 26 0;
#X connect 24 0 40 0;
#X connect 25 0 26 0;
#X connect 26 0 10 0;
#X connect 27 0 30 0;
#X connect 28 0 29 0;
#X connect 28 1 29 1;
#X connect 29 0 27 0;
#X connect 29 1 27 1;
#X connect 30 0 32 0;
#X connect 30 0 41 0;
#X connect 30 0 43 0;
#X connect 32 0 33 1;
#X connect 33 0 35 0;
#X connect 36 0 39 0;
#X connect 38 0 34 0;
#X connect 39 0 18 0;
#X connect 40 0 38 0;
#X connect 41 0 43 1;
#X connect 42 0 45 0;
#X connect 43 0 42 0;
#X connect 43 1 42 1;
#X connect 44 0 12 0;
#X connect 45 0 46 1;
#X connect 45 0 53 0;
#X connect 45 0 55 0;
#X connect 46 0 56 0;
#X connect 47 0 48 0;
#X connect 48 0 54 0;
#X connect 49 0 50 0;
#X connect 50 0 56 0;
#X connect 51 0 52 0;
#X connect 53 0 50 1;
#X connect 54 0 49 0;
#X connect 56 0 20 0;
