#N canvas 84 45 1210 780 10;
#X obj 811 546 dac~;
#X obj 5 -69 tgl 15 0 empty empty empty 17 7 0 10 -262144 -1 -1 0 1
;
#X obj 57 -22 unpack f f f;
#X floatatom 57 -1 5 0 0 0 - - -;
#X floatatom 91 -1 5 0 0 0 - - -;
#X floatatom 126 -1 5 0 0 0 - - -;
#X obj 5 -22 s frame;
#X floatatom 159 -23 5 0 0 0 - - -;
#X obj 811 520 *~;
#X obj 852 520 *~;
#X obj 940 417 vsl 30 100 0 1 0 0 empty empty empty 0 -9 0 10 -262144
-1 -1 5940 1;
#X obj 10 123 s~ p1l;
#X obj 85 122 s~ p1r;
#X obj 811 216 r~ p1l;
#X obj 852 356 r~ p1r;
#X obj 208 122 s~ p2l;
#X obj 283 121 s~ p2r;
#X obj 818 235 r~ p2l;
#X obj 859 375 r~ p2r;
#X obj 404 120 s~ mrl;
#X obj 479 120 s~ mrr;
#X obj 600 120 s~ m1l;
#X obj 681 120 s~ m1r;
#X obj 802 120 s~ m2l;
#X obj 883 120 s~ m2r;
#X obj 1007 120 s~ mel;
#X obj 1088 120 s~ mer;
#X obj 825 254 r~ mrl;
#X obj 832 273 r~ m1l;
#X obj 837 292 r~ m2l;
#X obj 843 311 r~ mel;
#X obj 865 394 r~ mrr;
#X obj 871 413 r~ m1r;
#X obj 877 432 r~ m2r;
#X obj 883 451 r~ mer;
#X obj 10 103 instrument percussive-fx-1;
#X obj 163 122 s p1a;
#X obj 361 121 s p2a;
#X obj 557 119 s mra;
#X obj 759 119 s m1a;
#X obj 961 119 s m2a;
#X obj 1166 119 s mea;
#N canvas 52 132 397 579 percussive-fx-1-actions 0;
#X obj 5 -17 inlet;
#N canvas 493 102 922 292 action-arrangement 0;
#X obj 6 6 inlet;
#X text 44 6 vel;
#X msg 204 148 0;
#X msg 251 148 0;
#X msg 301 148 0;
#X msg 351 148 0;
#X msg 534 148 0;
#X msg 586 148 0;
#X obj 6 230 outlet;
#X obj 53 230 outlet;
#X obj 100 230 outlet~;
#X obj 152 229 outlet~;
#X obj 204 228 outlet;
#X obj 251 228 outlet~;
#X obj 301 228 outlet~;
#X obj 351 228 outlet~;
#X obj 401 228 outlet;
#X obj 445 228 outlet;
#X obj 490 228 outlet;
#X obj 534 228 outlet~;
#X obj 586 228 outlet~;
#X obj 638 228 outlet;
#X obj 685 228 outlet;
#X obj 730 228 outlet;
#X obj 774 228 outlet~;
#X obj 826 228 outlet~;
#X text 99 247 freq;
#X text 6 248 vel;
#X text 149 248 oscType;
#X text 251 248 FMRatio;
#X text 302 248 FMQ;
#X text 354 248 FMType;
#X text 407 248 Comp;
#X text 454 247 Hip;
#X text 491 246 Lop;
#X text 535 246 DelT;
#X text 584 247 DelQ;
#X text 641 246 Damp;
#X text 685 246 Room;
#X text 727 247 DW;
#X text 776 247 Vol;
#X text 843 248 Bal;
#X text 202 249 GlissT;
#X text 55 248 env;
#X obj 99 207 sig~;
#X obj 151 207 sig~;
#X obj 251 205 sig~;
#X obj 301 205 sig~;
#X obj 351 204 sig~;
#X obj 534 205 sig~;
#X obj 586 205 sig~;
#X obj 774 205 sig~;
#X obj 826 204 sig~;
#X obj 826 78 bng 15 250 50 0 empty empty empty 17 7 0 10 -262144 -1
-1;
#X obj 14 27 > 0;
#X obj 826 55 loadbang;
#X msg 826 147 0;
#X msg 445 148 0;
#X msg 401 148 0.3;
#X msg 99 148 38;
#X msg 490 148 20000;
#X msg 151 148 1.02;
#X msg 53 119 1 65 1 0.3 20 0 0 0 80 0 0 0;
#X msg 638 148 1;
#X msg 685 148 0.7;
#X msg 730 147 0;
#X msg 774 147 0;
#X connect 0 0 8 0;
#X connect 0 0 54 0;
#X connect 2 0 12 0;
#X connect 3 0 46 0;
#X connect 4 0 47 0;
#X connect 5 0 48 0;
#X connect 6 0 49 0;
#X connect 7 0 50 0;
#X connect 44 0 10 0;
#X connect 45 0 11 0;
#X connect 46 0 13 0;
#X connect 47 0 14 0;
#X connect 48 0 15 0;
#X connect 49 0 19 0;
#X connect 50 0 20 0;
#X connect 51 0 24 0;
#X connect 52 0 25 0;
#X connect 53 0 56 0;
#X connect 53 0 66 0;
#X connect 53 0 65 0;
#X connect 53 0 64 0;
#X connect 53 0 63 0;
#X connect 53 0 7 0;
#X connect 53 0 6 0;
#X connect 53 0 60 0;
#X connect 53 0 57 0;
#X connect 53 0 58 0;
#X connect 53 0 5 0;
#X connect 53 0 4 0;
#X connect 53 0 3 0;
#X connect 53 0 2 0;
#X connect 53 0 61 0;
#X connect 53 0 59 0;
#X connect 53 0 62 0;
#X connect 54 0 53 0;
#X connect 55 0 53 0;
#X connect 56 0 52 0;
#X connect 57 0 17 0;
#X connect 58 0 16 0;
#X connect 59 0 44 0;
#X connect 60 0 18 0;
#X connect 61 0 45 0;
#X connect 62 0 9 0;
#X connect 63 0 21 0;
#X connect 64 0 22 0;
#X connect 65 0 23 0;
#X connect 66 0 51 0;
#X restore 5 124 pd action-arrangement kick_basic;
#X obj 5 81 *;
#X obj 5 61 bondo;
#X obj 5 207 outlet;
#X obj 16 227 outlet;
#X obj 27 247 outlet~;
#X obj 38 267 outlet~;
#X obj 49 287 outlet;
#X obj 71 327 outlet~;
#X obj 82 347 outlet~;
#X obj 60 307 outlet~;
#X obj 93 367 outlet;
#X obj 105 387 outlet;
#X obj 127 427 outlet~;
#X obj 116 407 outlet;
#X obj 138 447 outlet~;
#X obj 149 467 outlet;
#X obj 160 487 outlet;
#X obj 171 507 outlet;
#X obj 182 527 outlet~;
#X obj 194 547 outlet~;
#X msg 5 39 127;
#N canvas 586 121 578 506 notes 0;
#X obj 26 189 outlet;
#X obj 408 88 outlet;
#X obj 25 21 loadbang;
#X obj 26 63 t b;
#X obj 34 41 bng 15 250 50 0 empty empty empty 17 7 0 10 -262144 -1
-1;
#X text 53 39 Update bang;
#X obj 26 167 frame-const;
#X connect 2 0 3 0;
#X connect 4 0 1 0;
#X connect 4 0 3 0;
#X connect 6 0 0 0;
#X restore 41 -3 pd notes;
#X obj 5 102 change;
#X obj 5 19 frame-finder;
#X connect 0 0 25 0;
#X connect 1 0 4 0;
#X connect 1 1 5 0;
#X connect 1 2 6 0;
#X connect 1 3 7 0;
#X connect 1 4 8 0;
#X connect 1 5 11 0;
#X connect 1 6 9 0;
#X connect 1 7 10 0;
#X connect 1 8 12 0;
#X connect 1 9 13 0;
#X connect 1 10 15 0;
#X connect 1 11 14 0;
#X connect 1 12 16 0;
#X connect 1 13 17 0;
#X connect 1 14 18 0;
#X connect 1 15 19 0;
#X connect 1 16 20 0;
#X connect 1 17 21 0;
#X connect 2 0 24 0;
#X connect 3 0 2 0;
#X connect 3 1 2 1;
#X connect 22 0 3 0;
#X connect 23 0 25 1;
#X connect 23 1 25 2;
#X connect 24 0 1 0;
#X connect 25 0 22 0;
#X connect 25 1 3 1;
#X restore 10 66 pd percussive-fx-1-actions;
#X obj 10 44 r frame;
#X obj 208 45 r frame;
#N canvas 197 23 665 629 percussive-fx-2-actions 0;
#X obj 5 3 inlet;
#N canvas 470 198 922 292 action-arrangement 0;
#X obj 6 6 inlet;
#X text 44 6 vel;
#X msg 251 148 0;
#X msg 301 148 0;
#X msg 351 148 0;
#X msg 826 147 0;
#X obj 6 230 outlet;
#X obj 53 230 outlet;
#X obj 100 230 outlet~;
#X obj 152 229 outlet~;
#X obj 204 228 outlet;
#X obj 251 228 outlet~;
#X obj 301 228 outlet~;
#X obj 351 228 outlet~;
#X obj 401 228 outlet;
#X obj 445 228 outlet;
#X obj 490 228 outlet;
#X obj 534 228 outlet~;
#X obj 586 228 outlet~;
#X obj 638 228 outlet;
#X obj 685 228 outlet;
#X obj 730 228 outlet;
#X obj 774 228 outlet~;
#X obj 826 228 outlet~;
#X text 99 247 freq;
#X text 6 248 vel;
#X text 149 248 oscType;
#X text 251 248 FMRatio;
#X text 302 248 FMQ;
#X text 354 248 FMType;
#X text 407 248 Comp;
#X text 454 247 Hip;
#X text 491 246 Lop;
#X text 535 246 DelT;
#X text 584 247 DelQ;
#X text 641 246 Damp;
#X text 685 246 Room;
#X text 727 247 DW;
#X text 776 247 Vol;
#X text 843 248 Bal;
#X text 202 249 GlissT;
#X text 55 248 env;
#X obj 99 207 sig~;
#X obj 151 207 sig~;
#X obj 251 205 sig~;
#X obj 301 205 sig~;
#X obj 351 204 sig~;
#X obj 534 205 sig~;
#X obj 586 205 sig~;
#X obj 774 205 sig~;
#X obj 826 204 sig~;
#X obj 826 78 bng 15 250 50 0 empty empty empty 17 7 0 10 -262144 -1
-1;
#X obj 14 27 > 0;
#X obj 826 55 loadbang;
#X msg 204 148 0;
#X msg 534 148 300;
#X msg 401 148 0;
#X msg 586 148 0.8;
#X msg 445 148 0;
#X msg 490 148 20000;
#X msg 151 148 0;
#X msg 638 148 0.4;
#X msg 730 147 0.7;
#X msg 53 118 1 40 0 0.5 100 1 0 0 200 0 0 0;
#X msg 99 148 46.2493;
#X obj 80 6 inlet;
#X msg 80 26 set \$1;
#X msg 685 148 0.6;
#X msg 774 147 0.25;
#X obj 586 6 inlet;
#X text 116 5 freq;
#X text 621 4 delQ;
#X obj 774 5 inlet;
#X text 814 6 vol;
#X msg 586 26 set \$1;
#X msg 774 25 set \$1;
#X connect 0 0 6 0;
#X connect 0 0 52 0;
#X connect 2 0 44 0;
#X connect 3 0 45 0;
#X connect 4 0 46 0;
#X connect 5 0 50 0;
#X connect 42 0 8 0;
#X connect 43 0 9 0;
#X connect 44 0 11 0;
#X connect 45 0 12 0;
#X connect 46 0 13 0;
#X connect 47 0 17 0;
#X connect 48 0 18 0;
#X connect 49 0 22 0;
#X connect 50 0 23 0;
#X connect 51 0 5 0;
#X connect 51 0 68 0;
#X connect 51 0 62 0;
#X connect 51 0 67 0;
#X connect 51 0 61 0;
#X connect 51 0 57 0;
#X connect 51 0 55 0;
#X connect 51 0 59 0;
#X connect 51 0 58 0;
#X connect 51 0 56 0;
#X connect 51 0 4 0;
#X connect 51 0 3 0;
#X connect 51 0 2 0;
#X connect 51 0 54 0;
#X connect 51 0 60 0;
#X connect 51 0 63 0;
#X connect 51 0 64 0;
#X connect 52 0 51 0;
#X connect 53 0 51 0;
#X connect 54 0 10 0;
#X connect 55 0 47 0;
#X connect 56 0 14 0;
#X connect 57 0 48 0;
#X connect 58 0 15 0;
#X connect 59 0 16 0;
#X connect 60 0 43 0;
#X connect 61 0 19 0;
#X connect 62 0 21 0;
#X connect 63 0 7 0;
#X connect 64 0 42 0;
#X connect 65 0 66 0;
#X connect 66 0 64 0;
#X connect 67 0 20 0;
#X connect 68 0 49 0;
#X connect 69 0 74 0;
#X connect 72 0 75 0;
#X connect 74 0 57 0;
#X connect 75 0 68 0;
#X restore 5 174 pd action-arrangement kick_basic;
#X obj 5 151 *;
#X obj 5 131 bondo;
#X obj 5 257 outlet;
#X obj 16 277 outlet;
#X obj 27 297 outlet~;
#X obj 38 317 outlet~;
#X obj 49 337 outlet;
#X obj 71 377 outlet~;
#X obj 82 397 outlet~;
#X obj 60 357 outlet~;
#X obj 93 417 outlet;
#X obj 105 437 outlet;
#X obj 127 477 outlet~;
#X obj 116 457 outlet;
#X obj 138 497 outlet~;
#X obj 149 517 outlet;
#X obj 160 537 outlet;
#X obj 171 557 outlet;
#X obj 182 577 outlet~;
#X obj 194 597 outlet~;
#X msg 5 109 127;
#N canvas 310 429 701 303 actions 0;
#X obj 5 5 inlet;
#X obj 6 284 outlet;
#X obj 116 283 outlet;
#X obj 209 282 outlet;
#X obj 5 25 s \$0-framep2-1;
#X obj 6 262 r \$0-triggerp2-1;
#X obj 116 262 r \$0-boolp2-1;
#X obj 209 262 r \$0-argp2-1;
#X connect 0 0 4 0;
#X connect 5 0 1 0;
#X connect 6 0 2 0;
#X connect 7 0 3 0;
#X restore 5 50 pd actions;
#X obj 68 154 mtof;
#X floatatom 68 136 5 0 0 0 - - -;
#N canvas 595 255 701 303 actions 0;
#X obj 5 5 inlet;
#X obj 6 284 outlet;
#X obj 116 283 outlet;
#X obj 209 282 outlet;
#X obj 5 25 s \$0-framep2-2;
#X obj 6 262 r \$0-triggerp2-2;
#X obj 116 262 r \$0-boolp2-2;
#X obj 209 262 r \$0-argp2-2;
#X connect 0 0 4 0;
#X connect 5 0 1 0;
#X connect 6 0 2 0;
#X connect 7 0 3 0;
#X restore 78 50 pd actions;
#X floatatom 102 136 5 0 0 0 - - -;
#X obj 68 111 unpack f f f;
#X floatatom 137 137 5 0 0 0 - - -;
#N canvas 594 255 701 303 actions 0;
#X obj 5 5 inlet;
#X obj 6 284 outlet;
#X obj 116 283 outlet;
#X obj 209 282 outlet;
#X obj 6 262 r \$0-triggerp2-3;
#X obj 116 262 r \$0-boolp2-3;
#X obj 209 262 r \$0-argp2-3;
#X obj 5 25 s \$0-framep2-3;
#X connect 0 0 7 0;
#X connect 4 0 1 0;
#X connect 5 0 2 0;
#X connect 6 0 3 0;
#X restore 155 50 pd actions;
#X obj 211 112 tgl 15 0 empty empty empty 17 7 0 10 -262144 -1 -1 0
1;
#N canvas 594 255 701 303 actions 0;
#X obj 5 5 inlet;
#X obj 6 284 outlet;
#X obj 116 283 outlet;
#X obj 209 282 outlet;
#X obj 5 25 s \$0-framep2-4;
#X obj 6 262 r \$0-triggerp2-4;
#X obj 116 262 r \$0-boolp2-4;
#X obj 209 262 r \$0-argp2-4;
#X connect 0 0 4 0;
#X connect 5 0 1 0;
#X connect 6 0 2 0;
#X connect 7 0 3 0;
#X restore 235 50 pd actions;
#X obj 78 24 loopsel 3 3;
#X obj 5 24 loopsel 2 3;
#X obj 155 24 loopsel 4 4;
#X obj 235 24 loopsel 4 4;
#X connect 0 0 33 0;
#X connect 0 0 34 0;
#X connect 0 0 35 0;
#X connect 1 0 4 0;
#X connect 1 1 5 0;
#X connect 1 2 6 0;
#X connect 1 3 7 0;
#X connect 1 4 8 0;
#X connect 1 5 11 0;
#X connect 1 6 9 0;
#X connect 1 7 10 0;
#X connect 1 8 12 0;
#X connect 1 9 13 0;
#X connect 1 10 15 0;
#X connect 1 11 14 0;
#X connect 1 12 16 0;
#X connect 1 13 17 0;
#X connect 1 14 18 0;
#X connect 1 15 19 0;
#X connect 1 16 20 0;
#X connect 1 17 21 0;
#X connect 2 0 1 0;
#X connect 3 0 2 0;
#X connect 3 1 2 1;
#X connect 22 0 3 0;
#X connect 23 0 22 0;
#X connect 23 1 3 1;
#X connect 23 2 28 0;
#X connect 24 0 1 1;
#X connect 25 0 24 0;
#X connect 26 0 22 0;
#X connect 26 1 3 1;
#X connect 26 2 28 0;
#X connect 27 0 1 2;
#X connect 28 0 25 0;
#X connect 28 1 27 0;
#X connect 28 2 29 0;
#X connect 29 0 1 3;
#X connect 30 0 22 0;
#X connect 30 1 3 1;
#X connect 30 1 31 0;
#X connect 30 2 28 0;
#X connect 33 0 26 0;
#X connect 34 0 23 0;
#X connect 35 0 30 0;
#X connect 36 0 32 0;
#X restore 208 67 pd percussive-fx-2-actions;
#X obj 404 45 r frame;
#N canvas 585 49 1227 793 harmony-perc-fx-actions 0;
#X obj 5 3 inlet;
#X obj 5 311 *;
#X obj 5 261 bondo;
#X obj 5 437 outlet;
#X obj 16 457 outlet;
#X obj 27 477 outlet~;
#X obj 38 497 outlet~;
#X obj 49 517 outlet;
#X obj 71 557 outlet~;
#X obj 82 577 outlet~;
#X obj 60 537 outlet~;
#X obj 93 597 outlet;
#X obj 105 617 outlet;
#X obj 127 657 outlet~;
#X obj 116 637 outlet;
#X obj 138 677 outlet~;
#X obj 149 697 outlet;
#X obj 160 717 outlet;
#X obj 171 737 outlet;
#X obj 182 757 outlet~;
#X obj 194 757 outlet~;
#X msg 5 239 127;
#X obj 15 26 list-idx 0;
#X obj 15 46 change;
#X obj 15 66 == 1;
#X obj 15 106 counter;
#X floatatom 15 126 5 0 0 0 - - -;
#X obj 15 87 sel 1;
#X obj 51 87 bng 15 250 50 0 empty empty empty 17 7 0 10 -262144 -1
-1;
#X obj 58 46 r start;
#X obj 51 67 sel 0;
#N canvas 211 53 922 292 action-arrangement 0;
#X obj 6 6 inlet;
#X text 44 6 vel;
#X msg 445 148 0;
#X msg 638 148 0.3;
#X obj 6 230 outlet;
#X obj 53 230 outlet;
#X obj 100 230 outlet~;
#X obj 152 229 outlet~;
#X obj 204 228 outlet;
#X obj 251 228 outlet~;
#X obj 301 228 outlet~;
#X obj 351 228 outlet~;
#X obj 401 228 outlet;
#X obj 445 228 outlet;
#X obj 490 228 outlet;
#X obj 534 228 outlet~;
#X obj 586 228 outlet~;
#X obj 638 228 outlet;
#X obj 685 228 outlet;
#X obj 730 228 outlet;
#X obj 774 228 outlet~;
#X obj 826 228 outlet~;
#X text 99 247 freq;
#X text 6 248 vel;
#X text 149 248 oscType;
#X text 251 248 FMRatio;
#X text 302 248 FMQ;
#X text 354 248 FMType;
#X text 407 248 Comp;
#X text 454 247 Hip;
#X text 491 246 Lop;
#X text 535 246 DelT;
#X text 584 247 DelQ;
#X text 641 246 Damp;
#X text 685 246 Room;
#X text 727 247 DW;
#X text 776 247 Vol;
#X text 843 248 Bal;
#X text 202 249 GlissT;
#X text 55 248 env;
#X obj 99 207 sig~;
#X obj 151 207 sig~;
#X obj 251 205 sig~;
#X obj 301 205 sig~;
#X obj 351 204 sig~;
#X obj 586 205 sig~;
#X obj 774 205 sig~;
#X obj 826 78 bng 15 250 50 0 empty empty empty 17 7 0 10 -262144 -1
-1;
#X obj 14 27 > 0;
#X obj 826 55 loadbang;
#X msg 99 148 261.626;
#X msg 730 147 0.5;
#X msg 685 148 0.8;
#X obj 71 5 inlet;
#X text 111 7 freq;
#X msg 99 95 set \$1;
#X msg 204 148 10;
#X msg 251 148 1.8;
#X msg 151 148 1.7;
#X msg 53 119 1 35 1 0.6 300 0 200 0 800 0 0 0;
#X msg 826 146 -0.5;
#X obj 826 204 sig~;
#X msg 586 148 0.3;
#X msg 534 148 100;
#X msg 301 148 100;
#X msg 351 148 1.3;
#X msg 490 148 300;
#X msg 401 148 2;
#X msg 401 91 set \$1;
#X obj 146 5 inlet;
#X msg 774 147 0.2;
#X connect 0 0 4 0;
#X connect 0 0 48 0;
#X connect 2 0 13 0;
#X connect 3 0 17 0;
#X connect 40 0 6 0;
#X connect 41 0 7 0;
#X connect 42 0 9 0;
#X connect 43 0 10 0;
#X connect 44 0 11 0;
#X connect 45 0 16 0;
#X connect 46 0 20 0;
#X connect 47 0 70 0;
#X connect 47 0 51 0;
#X connect 47 0 52 0;
#X connect 47 0 3 0;
#X connect 47 0 62 0;
#X connect 47 0 66 0;
#X connect 47 0 2 0;
#X connect 47 0 67 0;
#X connect 47 0 65 0;
#X connect 47 0 64 0;
#X connect 47 0 57 0;
#X connect 47 0 56 0;
#X connect 47 0 58 0;
#X connect 47 0 50 0;
#X connect 47 0 59 0;
#X connect 47 0 60 0;
#X connect 47 0 63 0;
#X connect 48 0 47 0;
#X connect 49 0 47 0;
#X connect 50 0 40 0;
#X connect 51 0 19 0;
#X connect 52 0 18 0;
#X connect 53 0 55 0;
#X connect 55 0 50 0;
#X connect 56 0 8 0;
#X connect 57 0 42 0;
#X connect 58 0 41 0;
#X connect 59 0 5 0;
#X connect 60 0 61 0;
#X connect 61 0 21 0;
#X connect 62 0 45 0;
#X connect 63 0 15 0;
#X connect 64 0 43 0;
#X connect 65 0 44 0;
#X connect 66 0 14 0;
#X connect 67 0 12 0;
#X connect 68 0 67 0;
#X connect 69 0 68 0;
#X connect 70 0 46 0;
#X restore 5 354 pd action-arrangement harmonyped;
#X obj 5 332 change;
#X msg 33 240 1;
#X obj 10 214 bng 15 250 50 0 empty empty empty 17 7 0 10 -262144 -1
-1;
#X floatatom 42 314 5 0 0 0 - - -;
#X msg 67 240 0;
#X obj 39 215 del 5;
#X connect 0 0 22 0;
#X connect 1 0 32 0;
#X connect 1 0 35 0;
#X connect 2 0 1 0;
#X connect 2 1 1 1;
#X connect 21 0 2 0;
#X connect 22 0 23 0;
#X connect 23 0 24 0;
#X connect 24 0 27 0;
#X connect 25 0 26 0;
#X connect 27 0 25 0;
#X connect 28 0 25 3;
#X connect 29 0 30 0;
#X connect 30 0 28 0;
#X connect 31 0 3 0;
#X connect 31 1 4 0;
#X connect 31 2 5 0;
#X connect 31 3 6 0;
#X connect 31 4 7 0;
#X connect 31 5 10 0;
#X connect 31 6 8 0;
#X connect 31 7 9 0;
#X connect 31 8 11 0;
#X connect 31 9 12 0;
#X connect 31 10 14 0;
#X connect 31 11 13 0;
#X connect 31 12 15 0;
#X connect 31 13 16 0;
#X connect 31 14 17 0;
#X connect 31 15 18 0;
#X connect 31 16 19 0;
#X connect 31 17 20 0;
#X connect 32 0 31 0;
#X connect 33 0 2 1;
#X connect 34 0 33 0;
#X connect 34 0 21 0;
#X connect 34 0 37 0;
#X connect 36 0 2 1;
#X connect 37 0 36 0;
#X restore 404 67 pd harmony-perc-fx-actions;
#X obj 600 45 r frame;
#N canvas 51 23 900 794 multifacet_harm_1-action 0;
#X obj 5 3 inlet;
#N canvas 278 220 922 292 action-arrangement 0;
#X obj 6 6 inlet;
#X text 44 6 vel;
#X msg 99 148 587.33;
#X msg 445 148 0;
#X msg 638 148 0.3;
#X msg 685 148 0.3;
#X obj 6 230 outlet;
#X obj 53 230 outlet;
#X obj 100 230 outlet~;
#X obj 152 229 outlet~;
#X obj 204 228 outlet;
#X obj 251 228 outlet~;
#X obj 301 228 outlet~;
#X obj 351 228 outlet~;
#X obj 401 228 outlet;
#X obj 445 228 outlet;
#X obj 490 228 outlet;
#X obj 534 228 outlet~;
#X obj 586 228 outlet~;
#X obj 638 228 outlet;
#X obj 685 228 outlet;
#X obj 730 228 outlet;
#X obj 774 228 outlet~;
#X obj 826 228 outlet~;
#X text 99 247 freq;
#X text 6 248 vel;
#X text 149 248 oscType;
#X text 251 248 FMRatio;
#X text 302 248 FMQ;
#X text 354 248 FMType;
#X text 407 248 Comp;
#X text 454 247 Hip;
#X text 491 246 Lop;
#X text 535 246 DelT;
#X text 584 247 DelQ;
#X text 641 246 Damp;
#X text 685 246 Room;
#X text 727 247 DW;
#X text 776 247 Vol;
#X text 843 248 Bal;
#X text 202 249 GlissT;
#X text 55 248 env;
#X obj 99 207 sig~;
#X obj 151 207 sig~;
#X obj 251 205 sig~;
#X obj 301 205 sig~;
#X obj 351 204 sig~;
#X obj 534 205 sig~;
#X obj 586 205 sig~;
#X obj 774 205 sig~;
#X obj 826 204 sig~;
#X obj 826 78 bng 15 250 50 0 empty empty empty 17 7 0 10 -262144 -1
-1;
#X obj 14 27 > 0;
#X obj 826 55 loadbang;
#X msg 99 94 set \$1;
#X obj 76 8 inlet;
#X msg 586 148 0.6;
#X text 111 9 freq;
#X msg 490 148 4000;
#X msg 401 148 0;
#X msg 251 148 1.5;
#X msg 351 148 1;
#X msg 301 148 8;
#X msg 151 148 0.1;
#X obj 149 10 inlet;
#X text 193 10 oscType;
#X msg 149 31 set \$1;
#X msg 53 119 0.7 900 0 0.8 20 0 40 0 10 0 0 0;
#X msg 204 148 174;
#X msg 826 147 0.5;
#X msg 534 148 666.6;
#X msg 730 147 0.1;
#X msg 774 147 0.04225;
#X connect 0 0 6 0;
#X connect 0 0 52 0;
#X connect 2 0 42 0;
#X connect 3 0 15 0;
#X connect 4 0 19 0;
#X connect 5 0 20 0;
#X connect 42 0 8 0;
#X connect 43 0 9 0;
#X connect 44 0 11 0;
#X connect 45 0 12 0;
#X connect 46 0 13 0;
#X connect 47 0 17 0;
#X connect 48 0 18 0;
#X connect 49 0 22 0;
#X connect 50 0 23 0;
#X connect 51 0 69 0;
#X connect 51 0 72 0;
#X connect 51 0 71 0;
#X connect 51 0 5 0;
#X connect 51 0 4 0;
#X connect 51 0 56 0;
#X connect 51 0 70 0;
#X connect 51 0 58 0;
#X connect 51 0 3 0;
#X connect 51 0 59 0;
#X connect 51 0 61 0;
#X connect 51 0 62 0;
#X connect 51 0 60 0;
#X connect 51 0 68 0;
#X connect 51 0 63 0;
#X connect 51 0 2 0;
#X connect 51 0 67 0;
#X connect 52 0 51 0;
#X connect 53 0 51 0;
#X connect 54 0 2 0;
#X connect 55 0 54 0;
#X connect 56 0 48 0;
#X connect 58 0 16 0;
#X connect 59 0 14 0;
#X connect 60 0 44 0;
#X connect 61 0 46 0;
#X connect 62 0 45 0;
#X connect 63 0 43 0;
#X connect 64 0 66 0;
#X connect 66 0 63 0;
#X connect 67 0 7 0;
#X connect 68 0 10 0;
#X connect 69 0 50 0;
#X connect 70 0 47 0;
#X connect 71 0 21 0;
#X connect 72 0 49 0;
#X restore 5 294 pd action-arrangement kick_basic;
#X obj 5 251 *;
#X obj 5 231 bondo;
#X obj 5 377 outlet;
#X obj 16 397 outlet;
#X obj 27 417 outlet~;
#X obj 38 437 outlet~;
#X obj 49 457 outlet;
#X obj 71 497 outlet~;
#X obj 82 517 outlet~;
#X obj 60 477 outlet~;
#X obj 93 537 outlet;
#X obj 105 557 outlet;
#X obj 127 597 outlet~;
#X obj 116 577 outlet;
#X obj 138 617 outlet~;
#X obj 149 637 outlet;
#X obj 160 657 outlet;
#X obj 171 677 outlet;
#X obj 182 697 outlet~;
#X obj 194 717 outlet~;
#X msg 5 209 127;
#X obj 99 273 mtof;
#X obj 5 272 change;
#X floatatom 54 271 5 0 0 0 - - -;
#N canvas 595 255 701 303 actions 0;
#X obj 5 5 inlet;
#X obj 6 284 outlet;
#X obj 116 283 outlet;
#X obj 209 282 outlet;
#X obj 5 25 s \$0-frameh1-1;
#X obj 6 262 r \$0-triggerh1-1;
#X obj 116 262 r \$0-boolh1-1;
#X obj 209 262 r \$0-argh1-1;
#N canvas 32 479 578 506 notes 0;
#X obj 36 199 outlet;
#X obj 418 98 outlet;
#X obj 35 31 loadbang;
#X obj 36 73 t b;
#X obj 44 51 bng 15 250 50 0 empty empty empty 17 7 0 10 -262144 -1
-1;
#X text 63 49 Update bang;
#X obj 36 177 frame-const;
#X msg 67 131 1 2 3 4;
#X msg 99 152 1 3;
#X msg 36 111 1 2;
#X connect 2 0 3 0;
#X connect 3 0 8 0;
#X connect 3 0 7 0;
#X connect 3 0 9 0;
#X connect 4 0 1 0;
#X connect 4 0 3 0;
#X connect 6 0 0 0;
#X connect 7 0 6 1;
#X connect 8 0 6 2;
#X connect 9 0 6 0;
#X restore 38 103 pd notes;
#X obj 4 125 frame-finder;
#X msg 42 145 74 0.1;
#X obj 4 83 r \$0-frameh1-1;
#X obj 4 168 s \$0-triggerh1-1;
#X obj 16 190 s \$0-boolh1-1;
#X obj 42 211 s \$0-argh1-1;
#X connect 0 0 4 0;
#X connect 5 0 1 0;
#X connect 6 0 2 0;
#X connect 7 0 3 0;
#X connect 8 0 9 1;
#X connect 8 1 9 2;
#X connect 9 0 10 0;
#X connect 9 0 12 0;
#X connect 9 1 13 0;
#X connect 10 0 14 0;
#X connect 11 0 9 0;
#X restore 5 169 pd actions;
#X floatatom 99 254 5 0 0 0 - - -;
#X obj 99 233 unpack f f;
#X floatatom 156 253 5 0 0 0 - - -;
#X obj 5 26 loopsel 1 1;
#N canvas 595 255 701 303 actions 0;
#X obj 5 5 inlet;
#X obj 6 284 outlet;
#X obj 116 283 outlet;
#X obj 209 282 outlet;
#N canvas 32 479 578 506 notes 0;
#X obj 36 199 outlet;
#X obj 418 98 outlet;
#X obj 35 31 loadbang;
#X obj 36 73 t b;
#X obj 44 51 bng 15 250 50 0 empty empty empty 17 7 0 10 -262144 -1
-1;
#X text 63 49 Update bang;
#X obj 36 177 frame-const;
#X msg 67 131 1 2 3 4;
#X msg 99 152 1 3;
#X msg 36 111 1 2;
#X connect 2 0 3 0;
#X connect 3 0 8 0;
#X connect 3 0 7 0;
#X connect 3 0 9 0;
#X connect 4 0 1 0;
#X connect 4 0 3 0;
#X connect 6 0 0 0;
#X connect 7 0 6 1;
#X connect 8 0 6 2;
#X connect 9 0 6 0;
#X restore 38 103 pd notes;
#X obj 4 125 frame-finder;
#X obj 5 25 s \$0-frameh1-2;
#X obj 4 83 r \$0-frameh1-2;
#X obj 4 168 s \$0-triggerh1-2;
#X obj 16 190 s \$0-boolh1-2;
#X obj 42 211 s \$0-argh1-2;
#X obj 6 262 r \$0-triggerh1-2;
#X obj 116 262 r \$0-boolh1-2;
#X obj 209 262 r \$0-argh1-2;
#X msg 42 145 73 0.1;
#X connect 0 0 6 0;
#X connect 4 0 5 1;
#X connect 4 1 5 2;
#X connect 5 0 14 0;
#X connect 5 0 8 0;
#X connect 5 1 9 0;
#X connect 7 0 5 0;
#X connect 11 0 1 0;
#X connect 12 0 2 0;
#X connect 13 0 3 0;
#X connect 14 0 10 0;
#X restore 155 169 pd actions;
#X obj 155 26 loopsel 2 2;
#X obj 15 46 loopsel 3 3;
#X obj 165 46 loopsel 4 4;
#N canvas 595 255 701 303 actions 0;
#X obj 5 5 inlet;
#X obj 6 284 outlet;
#X obj 116 283 outlet;
#X obj 209 282 outlet;
#N canvas 32 479 578 506 notes 0;
#X obj 36 199 outlet;
#X obj 418 98 outlet;
#X obj 35 31 loadbang;
#X obj 36 73 t b;
#X obj 44 51 bng 15 250 50 0 empty empty empty 17 7 0 10 -262144 -1
-1;
#X text 63 49 Update bang;
#X obj 36 177 frame-const;
#X msg 67 131 1 2 3 4;
#X msg 99 152 1 3;
#X msg 36 111 1 2;
#X connect 2 0 3 0;
#X connect 3 0 8 0;
#X connect 3 0 7 0;
#X connect 3 0 9 0;
#X connect 4 0 1 0;
#X connect 4 0 3 0;
#X connect 6 0 0 0;
#X connect 7 0 6 1;
#X connect 8 0 6 2;
#X connect 9 0 6 0;
#X restore 38 103 pd notes;
#X obj 4 125 frame-finder;
#X msg 42 145 75 0.1;
#X obj 5 25 s \$0-frameh1-3;
#X obj 4 83 r \$0-frameh1-3;
#X obj 4 168 s \$0-triggerh1-3;
#X obj 16 190 s \$0-boolh1-3;
#X obj 42 211 s \$0-argh1-3;
#X obj 6 262 r \$0-triggerh1-3;
#X obj 116 262 r \$0-boolh1-3;
#X obj 209 262 r \$0-argh1-3;
#X connect 0 0 7 0;
#X connect 4 0 5 1;
#X connect 4 1 5 2;
#X connect 5 0 6 0;
#X connect 5 0 9 0;
#X connect 5 1 10 0;
#X connect 6 0 11 0;
#X connect 8 0 5 0;
#X connect 12 0 1 0;
#X connect 13 0 2 0;
#X connect 14 0 3 0;
#X restore 285 169 pd actions;
#X obj 285 26 loopsel 12 12;
#X obj 25 66 loopsel 5 5;
#X obj 35 86 loopsel 7 7;
#X obj 175 66 loopsel 6 6;
#X obj 185 86 loopsel 8 8;
#X obj 45 106 loopsel 9 9;
#X obj 195 106 loopsel 10 10;
#X obj 55 126 loopsel 11 11;
#X connect 0 0 30 0;
#X connect 0 0 32 0;
#X connect 0 0 33 0;
#X connect 0 0 34 0;
#X connect 0 0 36 0;
#X connect 0 0 37 0;
#X connect 0 0 38 0;
#X connect 0 0 39 0;
#X connect 0 0 40 0;
#X connect 0 0 41 0;
#X connect 0 0 43 0;
#X connect 0 0 42 0;
#X connect 1 0 4 0;
#X connect 1 1 5 0;
#X connect 1 2 6 0;
#X connect 1 3 7 0;
#X connect 1 4 8 0;
#X connect 1 5 11 0;
#X connect 1 6 9 0;
#X connect 1 7 10 0;
#X connect 1 8 12 0;
#X connect 1 9 13 0;
#X connect 1 10 15 0;
#X connect 1 11 14 0;
#X connect 1 12 16 0;
#X connect 1 13 17 0;
#X connect 1 14 18 0;
#X connect 1 15 19 0;
#X connect 1 16 20 0;
#X connect 1 17 21 0;
#X connect 2 0 24 0;
#X connect 3 0 2 0;
#X connect 3 1 2 1;
#X connect 3 1 25 0;
#X connect 22 0 3 0;
#X connect 23 0 1 1;
#X connect 24 0 1 0;
#X connect 26 0 22 0;
#X connect 26 1 3 1;
#X connect 26 2 28 0;
#X connect 27 0 23 0;
#X connect 28 0 27 0;
#X connect 28 1 29 0;
#X connect 30 0 26 0;
#X connect 31 0 22 0;
#X connect 31 1 3 1;
#X connect 31 2 28 0;
#X connect 32 0 31 0;
#X connect 33 0 26 0;
#X connect 34 0 31 0;
#X connect 35 0 22 0;
#X connect 35 1 3 1;
#X connect 35 2 28 0;
#X connect 36 0 35 0;
#X connect 37 0 26 0;
#X connect 38 0 26 0;
#X connect 39 0 31 0;
#X connect 40 0 31 0;
#X connect 41 0 26 0;
#X connect 42 0 31 0;
#X connect 43 0 26 0;
#X restore 600 67 pd multifacet_harm_1-action;
#X obj 802 45 r frame;
#N canvas 328 23 505 720 multifacet_harm_2-action 0;
#X obj 5 3 inlet;
#N canvas 52 164 922 292 action-arrangement 0;
#X obj 6 6 inlet;
#X text 44 6 vel;
#X msg 99 148 783.991;
#X msg 401 148 0;
#X msg 445 148 0;
#X obj 6 230 outlet;
#X obj 53 230 outlet;
#X obj 100 230 outlet~;
#X obj 152 229 outlet~;
#X obj 204 228 outlet;
#X obj 251 228 outlet~;
#X obj 301 228 outlet~;
#X obj 351 228 outlet~;
#X obj 401 228 outlet;
#X obj 445 228 outlet;
#X obj 490 228 outlet;
#X obj 534 228 outlet~;
#X obj 586 228 outlet~;
#X obj 638 228 outlet;
#X obj 685 228 outlet;
#X obj 730 228 outlet;
#X obj 774 228 outlet~;
#X obj 826 228 outlet~;
#X text 99 247 freq;
#X text 6 248 vel;
#X text 149 248 oscType;
#X text 251 248 FMRatio;
#X text 302 248 FMQ;
#X text 354 248 FMType;
#X text 407 248 Comp;
#X text 454 247 Hip;
#X text 491 246 Lop;
#X text 535 246 DelT;
#X text 584 247 DelQ;
#X text 641 246 Damp;
#X text 685 246 Room;
#X text 727 247 DW;
#X text 776 247 Vol;
#X text 843 248 Bal;
#X text 202 249 GlissT;
#X text 55 248 env;
#X obj 99 207 sig~;
#X obj 151 207 sig~;
#X obj 251 205 sig~;
#X obj 301 205 sig~;
#X obj 351 204 sig~;
#X obj 534 205 sig~;
#X obj 586 205 sig~;
#X obj 774 205 sig~;
#X obj 826 204 sig~;
#X obj 826 78 bng 15 250 50 0 empty empty empty 17 7 0 10 -262144 -1
-1;
#X obj 14 27 > 0;
#X obj 826 55 loadbang;
#X obj 99 6 inlet;
#X text 137 7 freq;
#X msg 99 26 set \$1;
#X msg 586 148 0.5;
#X msg 638 148 0.8;
#X msg 685 148 0.8;
#X msg 490 148 200;
#X msg 251 148 0.01;
#X msg 301 148 3;
#X msg 151 148 1.2;
#X obj 177 7 inlet;
#X msg 177 27 set \$1;
#X msg 351 148 0.4;
#X msg 534 148 666.6;
#X msg 826 147 -0.5;
#X msg 204 148 174;
#X msg 730 147 0.1;
#X msg 774 147 0.2535;
#X msg 53 119 1 2000 0 0.7 200 0 20 0 100 0 0 0;
#X connect 0 0 5 0;
#X connect 0 0 51 0;
#X connect 2 0 41 0;
#X connect 3 0 13 0;
#X connect 4 0 14 0;
#X connect 41 0 7 0;
#X connect 42 0 8 0;
#X connect 43 0 10 0;
#X connect 44 0 11 0;
#X connect 45 0 12 0;
#X connect 46 0 16 0;
#X connect 47 0 17 0;
#X connect 48 0 21 0;
#X connect 49 0 22 0;
#X connect 50 0 67 0;
#X connect 50 0 69 0;
#X connect 50 0 58 0;
#X connect 50 0 57 0;
#X connect 50 0 56 0;
#X connect 50 0 66 0;
#X connect 50 0 59 0;
#X connect 50 0 4 0;
#X connect 50 0 3 0;
#X connect 50 0 65 0;
#X connect 50 0 61 0;
#X connect 50 0 60 0;
#X connect 50 0 68 0;
#X connect 50 0 62 0;
#X connect 50 0 2 0;
#X connect 50 0 71 0;
#X connect 50 0 70 0;
#X connect 51 0 50 0;
#X connect 52 0 50 0;
#X connect 53 0 55 0;
#X connect 55 0 2 0;
#X connect 56 0 47 0;
#X connect 57 0 18 0;
#X connect 58 0 19 0;
#X connect 59 0 15 0;
#X connect 60 0 43 0;
#X connect 61 0 44 0;
#X connect 62 0 42 0;
#X connect 63 0 64 0;
#X connect 64 0 68 0;
#X connect 65 0 45 0;
#X connect 66 0 46 0;
#X connect 67 0 49 0;
#X connect 68 0 9 0;
#X connect 69 0 20 0;
#X connect 70 0 48 0;
#X connect 71 0 6 0;
#X restore 5 206 pd action-arrangement kick_basic;
#X obj 5 183 *;
#X obj 5 163 bondo;
#X obj 5 289 outlet;
#X obj 16 309 outlet;
#X obj 27 329 outlet~;
#X obj 38 349 outlet~;
#X obj 49 369 outlet;
#X obj 71 409 outlet~;
#X obj 82 429 outlet~;
#X obj 60 389 outlet~;
#X obj 93 449 outlet;
#X obj 105 469 outlet;
#X obj 127 509 outlet~;
#X obj 116 489 outlet;
#X obj 138 529 outlet~;
#X obj 149 549 outlet;
#X obj 160 569 outlet;
#X obj 171 589 outlet;
#X obj 182 609 outlet~;
#X obj 194 629 outlet~;
#X msg 5 141 127;
#N canvas 78 303 701 303 actions 0;
#X obj 5 5 inlet;
#X obj 6 284 outlet;
#X obj 106 283 outlet;
#X obj 189 282 outlet;
#X obj 5 25 s \$0-frame-h1;
#X obj 6 262 r \$0-trigger-h1;
#X obj 106 262 r \$0-bool-h1;
#X obj 189 262 r \$0-arg-h1;
#N canvas 32 479 578 506 notes 0;
#X obj 36 199 outlet;
#X obj 418 98 outlet;
#X obj 35 31 loadbang;
#X obj 36 73 t b;
#X obj 44 51 bng 15 250 50 0 empty empty empty 17 7 0 10 -262144 -1
-1;
#X text 63 49 Update bang;
#X obj 36 177 frame-const;
#X msg 67 131 1 2 3 4;
#X msg 99 152 1 3;
#X msg 36 111 1 2;
#X connect 2 0 3 0;
#X connect 3 0 8 0;
#X connect 3 0 7 0;
#X connect 3 0 9 0;
#X connect 4 0 1 0;
#X connect 4 0 3 0;
#X connect 6 0 0 0;
#X connect 7 0 6 1;
#X connect 8 0 6 2;
#X connect 9 0 6 0;
#X restore 48 113 pd notes;
#X obj 14 135 frame-finder;
#X obj 14 93 r \$0-frame-h1;
#X obj 14 178 s \$0-trigger-h1;
#X obj 52 221 s \$0-arg-h1;
#X obj 26 200 s \$0-bool-h1;
#X msg 52 155 77 0.1;
#X connect 0 0 4 0;
#X connect 5 0 1 0;
#X connect 6 0 2 0;
#X connect 7 0 3 0;
#X connect 8 0 9 1;
#X connect 8 1 9 2;
#X connect 9 0 14 0;
#X connect 9 0 11 0;
#X connect 9 1 13 0;
#X connect 10 0 9 0;
#X connect 14 0 12 0;
#X restore 5 72 pd actions;
#X obj 99 183 mtof;
#X obj 99 144 unpack f f;
#X floatatom 99 164 5 0 0 0 - - -;
#X floatatom 156 163 5 0 0 0 - - -;
#X obj 5 24 loopsel 1 1;
#N canvas 78 303 701 303 actions 0;
#X obj 5 5 inlet;
#X obj 6 284 outlet;
#X obj 106 283 outlet;
#X obj 189 282 outlet;
#N canvas 32 479 578 506 notes 0;
#X obj 36 199 outlet;
#X obj 418 98 outlet;
#X obj 35 31 loadbang;
#X obj 36 73 t b;
#X obj 44 51 bng 15 250 50 0 empty empty empty 17 7 0 10 -262144 -1
-1;
#X text 63 49 Update bang;
#X obj 36 177 frame-const;
#X msg 67 131 1 2 3 4;
#X msg 99 152 1 3;
#X msg 36 111 1 2;
#X connect 2 0 3 0;
#X connect 3 0 8 0;
#X connect 3 0 7 0;
#X connect 3 0 9 0;
#X connect 4 0 1 0;
#X connect 4 0 3 0;
#X connect 6 0 0 0;
#X connect 7 0 6 1;
#X connect 8 0 6 2;
#X connect 9 0 6 0;
#X restore 48 113 pd notes;
#X obj 14 135 frame-finder;
#X obj 5 25 s \$0-frame-h12;
#X obj 14 93 r \$0-frame-h12;
#X obj 14 178 s \$0-trigger-h12;
#X obj 26 200 s \$0-bool-h12;
#X obj 52 221 s \$0-arg-h12;
#X obj 6 262 r \$0-trigger-h12;
#X obj 106 262 r \$0-bool-h12;
#X obj 189 262 r \$0-arg-h12;
#X msg 52 155 76 0.1;
#X connect 0 0 6 0;
#X connect 4 0 5 1;
#X connect 4 1 5 2;
#X connect 5 0 14 0;
#X connect 5 0 8 0;
#X connect 5 1 9 0;
#X connect 7 0 5 0;
#X connect 11 0 1 0;
#X connect 12 0 2 0;
#X connect 13 0 3 0;
#X connect 14 0 10 0;
#X restore 85 72 pd actions;
#X obj 85 24 loopsel 2 2;
#X obj 15 44 loopsel 3 3;
#X obj 95 44 loopsel 4 4;
#N canvas 78 303 701 303 actions 0;
#X obj 5 5 inlet;
#X obj 6 284 outlet;
#X obj 106 283 outlet;
#X obj 189 282 outlet;
#N canvas 32 479 578 506 notes 0;
#X obj 36 199 outlet;
#X obj 418 98 outlet;
#X obj 35 31 loadbang;
#X obj 36 73 t b;
#X obj 44 51 bng 15 250 50 0 empty empty empty 17 7 0 10 -262144 -1
-1;
#X text 63 49 Update bang;
#X obj 36 177 frame-const;
#X msg 67 131 1 2 3 4;
#X msg 99 152 1 3;
#X msg 36 111 1 2;
#X connect 2 0 3 0;
#X connect 3 0 8 0;
#X connect 3 0 7 0;
#X connect 3 0 9 0;
#X connect 4 0 1 0;
#X connect 4 0 3 0;
#X connect 6 0 0 0;
#X connect 7 0 6 1;
#X connect 8 0 6 2;
#X connect 9 0 6 0;
#X restore 48 113 pd notes;
#X obj 14 135 frame-finder;
#X obj 5 25 s \$0-frame-h13;
#X obj 14 93 r \$0-frame-h13;
#X obj 14 178 s \$0-trigger-h13;
#X obj 26 200 s \$0-bool-h13;
#X obj 52 221 s \$0-arg-h13;
#X obj 6 262 r \$0-trigger-h13;
#X obj 106 262 r \$0-bool-h13;
#X obj 189 262 r \$0-arg-h13;
#X msg 52 155 78 0.1;
#X connect 0 0 6 0;
#X connect 4 0 5 1;
#X connect 4 1 5 2;
#X connect 5 0 14 0;
#X connect 5 0 8 0;
#X connect 5 1 9 0;
#X connect 7 0 5 0;
#X connect 11 0 1 0;
#X connect 12 0 2 0;
#X connect 13 0 3 0;
#X connect 14 0 10 0;
#X restore 165 72 pd actions;
#N canvas 78 303 701 303 actions 0;
#X obj 5 5 inlet;
#X obj 6 284 outlet;
#X obj 106 283 outlet;
#X obj 189 282 outlet;
#N canvas 32 479 578 506 notes 0;
#X obj 36 199 outlet;
#X obj 418 98 outlet;
#X obj 35 31 loadbang;
#X obj 36 73 t b;
#X obj 44 51 bng 15 250 50 0 empty empty empty 17 7 0 10 -262144 -1
-1;
#X text 63 49 Update bang;
#X obj 36 177 frame-const;
#X msg 67 131 1 2 3 4;
#X msg 99 152 1 3;
#X msg 36 111 1 2;
#X connect 2 0 3 0;
#X connect 3 0 8 0;
#X connect 3 0 7 0;
#X connect 3 0 9 0;
#X connect 4 0 1 0;
#X connect 4 0 3 0;
#X connect 6 0 0 0;
#X connect 7 0 6 1;
#X connect 8 0 6 2;
#X connect 9 0 6 0;
#X restore 48 113 pd notes;
#X obj 14 135 frame-finder;
#X msg 52 155 76 0.1;
#X obj 5 25 s \$0-frame-h14;
#X obj 14 93 r \$0-frame-h14;
#X obj 14 178 s \$0-trigger-h14;
#X obj 26 200 s \$0-bool-h14;
#X obj 52 221 s \$0-arg-h14;
#X obj 6 262 r \$0-trigger-h14;
#X obj 106 262 r \$0-bool-h14;
#X obj 189 262 r \$0-arg-h14;
#X connect 0 0 7 0;
#X connect 4 0 5 1;
#X connect 4 1 5 2;
#X connect 5 0 6 0;
#X connect 5 0 9 0;
#X connect 5 1 10 0;
#X connect 6 0 11 0;
#X connect 8 0 5 0;
#X connect 12 0 1 0;
#X connect 13 0 2 0;
#X connect 14 0 3 0;
#X restore 245 72 pd actions;
#X obj 165 24 loopsel 5 5;
#X obj 245 24 loopsel 6 6;
#X obj 255 44 loopsel 8 8;
#X obj 175 44 loopsel 7 7;
#N canvas 78 303 701 303 actions 0;
#X obj 5 5 inlet;
#X obj 6 284 outlet;
#X obj 106 283 outlet;
#X obj 189 282 outlet;
#N canvas 32 479 578 506 notes 0;
#X obj 36 199 outlet;
#X obj 418 98 outlet;
#X obj 35 31 loadbang;
#X obj 36 73 t b;
#X obj 44 51 bng 15 250 50 0 empty empty empty 17 7 0 10 -262144 -1
-1;
#X text 63 49 Update bang;
#X obj 36 177 frame-const;
#X msg 67 131 1 2 3 4;
#X msg 99 152 1 3;
#X msg 36 111 1 2;
#X connect 2 0 3 0;
#X connect 3 0 8 0;
#X connect 3 0 7 0;
#X connect 3 0 9 0;
#X connect 4 0 1 0;
#X connect 4 0 3 0;
#X connect 6 0 0 0;
#X connect 7 0 6 1;
#X connect 8 0 6 2;
#X connect 9 0 6 0;
#X restore 48 113 pd notes;
#X obj 14 135 frame-finder;
#X obj 5 25 s \$0-frame-h15;
#X obj 14 93 r \$0-frame-h15;
#X obj 14 178 s \$0-trigger-h15;
#X obj 26 200 s \$0-bool-h15;
#X obj 52 221 s \$0-arg-h15;
#X obj 6 262 r \$0-trigger-h15;
#X obj 106 262 r \$0-bool-h15;
#X obj 189 262 r \$0-arg-h15;
#X msg 52 155 79 0.1;
#X connect 0 0 6 0;
#X connect 4 0 5 1;
#X connect 4 1 5 2;
#X connect 5 0 14 0;
#X connect 5 0 8 0;
#X connect 5 1 9 0;
#X connect 7 0 5 0;
#X connect 11 0 1 0;
#X connect 12 0 2 0;
#X connect 13 0 3 0;
#X connect 14 0 10 0;
#X restore 325 72 pd actions;
#N canvas 78 303 701 303 actions 0;
#X obj 5 5 inlet;
#X obj 6 284 outlet;
#X obj 106 283 outlet;
#X obj 189 282 outlet;
#N canvas 32 479 578 506 notes 0;
#X obj 36 199 outlet;
#X obj 418 98 outlet;
#X obj 35 31 loadbang;
#X obj 36 73 t b;
#X obj 44 51 bng 15 250 50 0 empty empty empty 17 7 0 10 -262144 -1
-1;
#X text 63 49 Update bang;
#X obj 36 177 frame-const;
#X msg 67 131 1 2 3 4;
#X msg 99 152 1 3;
#X msg 36 111 1 2;
#X connect 2 0 3 0;
#X connect 3 0 8 0;
#X connect 3 0 7 0;
#X connect 3 0 9 0;
#X connect 4 0 1 0;
#X connect 4 0 3 0;
#X connect 6 0 0 0;
#X connect 7 0 6 1;
#X connect 8 0 6 2;
#X connect 9 0 6 0;
#X restore 48 113 pd notes;
#X obj 14 135 frame-finder;
#X obj 5 25 s \$0-frame-h16;
#X obj 14 93 r \$0-frame-h16;
#X obj 14 178 s \$0-trigger-h16;
#X obj 26 200 s \$0-bool-h16;
#X obj 52 221 s \$0-arg-h16;
#X obj 6 262 r \$0-trigger-h16;
#X obj 106 262 r \$0-bool-h16;
#X obj 189 262 r \$0-arg-h16;
#X msg 52 155 78 0.1;
#X connect 0 0 6 0;
#X connect 4 0 5 1;
#X connect 4 1 5 2;
#X connect 5 0 14 0;
#X connect 5 0 8 0;
#X connect 5 1 9 0;
#X connect 7 0 5 0;
#X connect 11 0 1 0;
#X connect 12 0 2 0;
#X connect 13 0 3 0;
#X connect 14 0 10 0;
#X restore 405 72 pd actions;
#X obj 325 24 loopsel 9 9;
#X obj 405 24 loopsel 10 10;
#X obj 335 44 loopsel 11 11;
#X obj 415 44 loopsel 12 12;
#X connect 0 0 28 0;
#X connect 0 0 30 0;
#X connect 0 0 31 0;
#X connect 0 0 32 0;
#X connect 0 0 35 0;
#X connect 0 0 36 0;
#X connect 0 0 37 0;
#X connect 0 0 38 0;
#X connect 0 0 41 0;
#X connect 0 0 42 0;
#X connect 0 0 43 0;
#X connect 0 0 44 0;
#X connect 1 0 4 0;
#X connect 1 1 5 0;
#X connect 1 2 6 0;
#X connect 1 3 7 0;
#X connect 1 4 8 0;
#X connect 1 5 11 0;
#X connect 1 6 9 0;
#X connect 1 7 10 0;
#X connect 1 8 12 0;
#X connect 1 9 13 0;
#X connect 1 10 15 0;
#X connect 1 11 14 0;
#X connect 1 12 16 0;
#X connect 1 13 17 0;
#X connect 1 14 18 0;
#X connect 1 15 19 0;
#X connect 1 16 20 0;
#X connect 1 17 21 0;
#X connect 2 0 1 0;
#X connect 3 0 2 0;
#X connect 3 1 2 1;
#X connect 22 0 3 0;
#X connect 23 0 22 0;
#X connect 23 1 3 1;
#X connect 23 2 25 0;
#X connect 24 0 1 1;
#X connect 25 0 26 0;
#X connect 25 1 27 0;
#X connect 26 0 24 0;
#X connect 28 0 23 0;
#X connect 29 0 22 0;
#X connect 29 1 3 1;
#X connect 29 2 25 0;
#X connect 30 0 29 0;
#X connect 31 0 23 0;
#X connect 32 0 29 0;
#X connect 33 0 22 0;
#X connect 33 1 3 1;
#X connect 33 2 25 0;
#X connect 34 0 22 0;
#X connect 34 1 3 1;
#X connect 34 2 25 0;
#X connect 35 0 33 0;
#X connect 36 0 34 0;
#X connect 37 0 34 0;
#X connect 38 0 33 0;
#X connect 39 0 22 0;
#X connect 39 1 3 1;
#X connect 39 2 25 0;
#X connect 40 0 22 0;
#X connect 40 1 3 1;
#X connect 40 2 25 0;
#X connect 41 0 39 0;
#X connect 42 0 40 0;
#X connect 43 0 39 0;
#X connect 44 0 40 0;
#X restore 802 67 pd multifacet_harm_2-action;
#X obj 1007 45 r frame;
#N canvas 301 39 1057 592 multifacet_melody-action 1;
#X obj 5 3 inlet;
#X obj 5 237 outlet;
#X obj 16 257 outlet;
#X obj 27 277 outlet~;
#X obj 38 297 outlet~;
#X obj 49 317 outlet;
#X obj 71 357 outlet~;
#X obj 82 377 outlet~;
#X obj 60 337 outlet~;
#X obj 93 397 outlet;
#X obj 105 417 outlet;
#X obj 127 457 outlet~;
#X obj 116 437 outlet;
#X obj 138 477 outlet~;
#X obj 149 497 outlet;
#X obj 160 517 outlet;
#X obj 171 537 outlet;
#X obj 182 437 outlet~;
#X obj 194 457 outlet~;
#N canvas 386 137 927 358 action-arrangement 0;
#X obj 16 26 inlet;
#X text 54 26 vel;
#X obj 16 280 outlet;
#X obj 63 280 outlet;
#X obj 110 280 outlet~;
#X obj 162 279 outlet~;
#X obj 214 278 outlet;
#X obj 261 278 outlet~;
#X obj 311 278 outlet~;
#X obj 361 278 outlet~;
#X obj 411 278 outlet;
#X obj 455 278 outlet;
#X obj 500 278 outlet;
#X obj 544 278 outlet~;
#X obj 596 278 outlet~;
#X obj 648 278 outlet;
#X obj 695 278 outlet;
#X obj 740 278 outlet;
#X obj 784 278 outlet~;
#X obj 836 278 outlet~;
#X text 109 297 freq;
#X text 16 298 vel;
#X text 159 298 oscType;
#X text 261 298 FMRatio;
#X text 312 298 FMQ;
#X text 364 298 FMType;
#X text 417 298 Comp;
#X text 464 297 Hip;
#X text 501 296 Lop;
#X text 545 296 DelT;
#X text 594 297 DelQ;
#X text 651 296 Damp;
#X text 695 296 Room;
#X text 737 297 DW;
#X text 786 297 Vol;
#X text 853 298 Bal;
#X text 212 299 GlissT;
#X text 65 298 env;
#X obj 109 257 sig~;
#X obj 161 257 sig~;
#X obj 261 255 sig~;
#X obj 311 255 sig~;
#X obj 361 254 sig~;
#X obj 544 255 sig~;
#X obj 596 255 sig~;
#X obj 836 254 sig~;
#X obj 831 109 bng 15 250 50 0 empty empty empty 17 7 0 10 -262144
-1 -1;
#X obj 831 85 loadbang;
#X msg 648 198 1;
#X msg 109 218 1174.66;
#X msg 411 198 0;
#X obj 109 25 inlet;
#X text 146 24 freq;
#X msg 455 198 0;
#X msg 109 196 set \$1;
#X obj 22 45 sel 0;
#X obj 109 66 mtof;
#X obj 110 46 unpack f f;
#X obj 784 254 line~;
#X msg 544 198 666.6;
#X msg 695 198 0.5;
#X msg 361 198 0;
#X msg 63 169 1 1000 0 0.7 200 0 20 0 100 0 0 0;
#X msg 836 187 0;
#X msg 500 198 500;
#X msg 596 198 0.4;
#X msg 214 197 200;
#X msg 161 198 1;
#X msg 740 197 0.1;
#X msg 311 198 4;
#X msg 261 198 0.0025;
#X msg 784 187 0.22;
#X connect 0 0 2 0;
#X connect 0 0 55 0;
#X connect 38 0 4 0;
#X connect 39 0 5 0;
#X connect 40 0 7 0;
#X connect 41 0 8 0;
#X connect 42 0 9 0;
#X connect 43 0 13 0;
#X connect 44 0 14 0;
#X connect 45 0 19 0;
#X connect 46 0 63 0;
#X connect 46 0 68 0;
#X connect 46 0 60 0;
#X connect 46 0 48 0;
#X connect 46 0 65 0;
#X connect 46 0 59 0;
#X connect 46 0 64 0;
#X connect 46 0 53 0;
#X connect 46 0 50 0;
#X connect 46 0 61 0;
#X connect 46 0 69 0;
#X connect 46 0 70 0;
#X connect 46 0 66 0;
#X connect 46 0 67 0;
#X connect 46 0 49 0;
#X connect 46 0 62 0;
#X connect 46 0 71 0;
#X connect 47 0 46 0;
#X connect 48 0 15 0;
#X connect 49 0 38 0;
#X connect 50 0 10 0;
#X connect 51 0 57 0;
#X connect 53 0 11 0;
#X connect 54 0 49 0;
#X connect 55 1 46 0;
#X connect 56 0 54 0;
#X connect 57 0 56 0;
#X connect 58 0 18 0;
#X connect 59 0 43 0;
#X connect 60 0 16 0;
#X connect 61 0 42 0;
#X connect 62 0 3 0;
#X connect 63 0 45 0;
#X connect 64 0 12 0;
#X connect 65 0 44 0;
#X connect 66 0 6 0;
#X connect 67 0 39 0;
#X connect 68 0 17 0;
#X connect 69 0 41 0;
#X connect 70 0 40 0;
#X connect 71 0 58 0;
#X restore 5 154 pd action-arrangement melody-arp;
#X obj 5 111 *;
#X obj 5 91 bondo;
#X msg 5 69 127;
#X obj 5 132 change;
#N canvas 609 217 701 303 actions 0;
#X obj 5 5 inlet;
#X obj 6 284 outlet;
#X obj 106 283 outlet;
#X obj 188 282 outlet;
#N canvas 32 479 578 506 notes 0;
#X obj 36 199 outlet;
#X obj 418 98 outlet;
#X obj 35 31 loadbang;
#X obj 36 73 t b;
#X obj 44 51 bng 15 250 50 0 empty empty empty 17 7 0 10 -262144 -1
-1;
#X text 63 49 Update bang;
#X obj 36 177 frame-const;
#X msg 67 131 1 2 3 4;
#X msg 36 111 1;
#X obj 136 178 frame-const;
#X msg 136 111 2;
#X msg 167 131 3 4;
#X msg 99 152 1 3;
#X msg 199 152 1 3;
#X connect 2 0 3 0;
#X connect 3 0 12 0;
#X connect 3 0 7 0;
#X connect 3 0 8 0;
#X connect 3 0 13 0;
#X connect 3 0 11 0;
#X connect 3 0 10 0;
#X connect 4 0 1 0;
#X connect 4 0 3 0;
#X connect 6 0 0 0;
#X connect 7 0 6 1;
#X connect 8 0 6 0;
#X connect 9 0 0 0;
#X connect 10 0 9 0;
#X connect 11 0 9 1;
#X connect 12 0 6 2;
#X connect 13 0 9 2;
#X restore 38 103 pd notes;
#X obj 4 83 r \$0-frame-m1;
#X obj 4 168 s \$0-trigger-m1;
#X obj 16 190 s \$0-bool-m1;
#X obj 42 211 s \$0-arg-m1;
#X obj 6 262 r \$0-trigger-m1;
#X obj 106 262 r \$0-bool-m1;
#X obj 188 262 r \$0-arg-m1;
#X obj 5 25 s \$0-frame-m1;
#X obj 4 125 frame-finder;
#N canvas 32 479 578 506 notes 0;
#X obj 36 199 outlet;
#X obj 418 98 outlet;
#X obj 35 31 loadbang;
#X obj 36 73 t b;
#X obj 44 51 bng 15 250 50 0 empty empty empty 17 7 0 10 -262144 -1
-1;
#X text 63 49 Update bang;
#X obj 36 177 frame-const;
#X msg 67 131 1 2;
#X msg 99 152 1 3;
#X msg 36 111 2;
#X connect 2 0 3 0;
#X connect 3 0 8 0;
#X connect 3 0 7 0;
#X connect 3 0 9 0;
#X connect 4 0 1 0;
#X connect 4 0 3 0;
#X connect 6 0 0 0;
#X connect 7 0 6 1;
#X connect 8 0 6 2;
#X connect 9 0 6 0;
#X restore 138 103 pd notes;
#X obj 104 83 r \$0-frame-m1;
#X obj 104 168 s \$0-trigger-m1;
#X obj 116 190 s \$0-bool-m1;
#X obj 142 211 s \$0-arg-m1;
#X obj 104 125 frame-finder;
#X msg 42 145 81 0.1;
#X msg 142 145 83 0.1;
#X connect 0 0 12 0;
#X connect 4 0 13 1;
#X connect 4 1 13 2;
#X connect 5 0 13 0;
#X connect 9 0 1 0;
#X connect 10 0 2 0;
#X connect 11 0 3 0;
#X connect 13 0 20 0;
#X connect 13 0 6 0;
#X connect 13 1 7 0;
#X connect 14 0 19 1;
#X connect 14 1 19 2;
#X connect 15 0 19 0;
#X connect 19 0 21 0;
#X connect 19 0 16 0;
#X connect 19 1 17 0;
#X connect 20 0 8 0;
#X connect 21 0 18 0;
#X restore 5 47 pd actions;
#X obj 5 24 loopsel 1 1;
#N canvas 609 217 701 303 actions 0;
#X obj 5 5 inlet;
#X obj 6 284 outlet;
#X obj 106 283 outlet;
#X obj 188 282 outlet;
#N canvas 32 479 578 506 notes 0;
#X obj 36 199 outlet;
#X obj 418 98 outlet;
#X obj 35 31 loadbang;
#X obj 36 73 t b;
#X obj 44 51 bng 15 250 50 0 empty empty empty 17 7 0 10 -262144 -1
-1;
#X text 63 49 Update bang;
#X obj 36 177 frame-const;
#X msg 67 131 1 2 3 4;
#X msg 36 111 1;
#X msg 99 152 1 3;
#X connect 2 0 3 0;
#X connect 3 0 9 0;
#X connect 3 0 7 0;
#X connect 3 0 8 0;
#X connect 4 0 1 0;
#X connect 4 0 3 0;
#X connect 6 0 0 0;
#X connect 7 0 6 1;
#X connect 8 0 6 0;
#X connect 9 0 6 2;
#X restore 38 103 pd notes;
#X obj 4 125 frame-finder;
#N canvas 32 479 578 506 notes 0;
#X obj 36 199 outlet;
#X obj 418 98 outlet;
#X obj 35 31 loadbang;
#X obj 36 73 t b;
#X obj 44 51 bng 15 250 50 0 empty empty empty 17 7 0 10 -262144 -1
-1;
#X text 63 49 Update bang;
#X obj 36 177 frame-const;
#X msg 99 152 1 3;
#X msg 36 111 2;
#X msg 67 131 1 2 3;
#X connect 2 0 3 0;
#X connect 3 0 7 0;
#X connect 3 0 9 0;
#X connect 3 0 8 0;
#X connect 4 0 1 0;
#X connect 4 0 3 0;
#X connect 6 0 0 0;
#X connect 7 0 6 2;
#X connect 8 0 6 0;
#X connect 9 0 6 1;
#X restore 138 103 pd notes;
#X obj 104 125 frame-finder;
#X msg 42 145 83 0.1;
#X obj 4 83 r \$0-frame-m12;
#X obj 5 25 s \$0-frame-m12;
#X obj 103 83 r \$0-frame-m12;
#X obj 4 168 s \$0-trigger-m12;
#X obj 104 168 s \$0-trigger-m12;
#X obj 116 190 s \$0-bool-m12;
#X obj 16 190 s \$0-bool-m12;
#X obj 42 211 s \$0-arg-m12;
#X obj 142 211 s \$0-arg-m12;
#X obj 188 262 r \$0-arg-m12;
#X obj 106 262 r \$0-bool-m12;
#X obj 6 262 r \$0-trigger-m12;
#X msg 142 145 81 0.1;
#X connect 0 0 10 0;
#X connect 4 0 5 1;
#X connect 4 1 5 2;
#X connect 5 0 8 0;
#X connect 5 0 12 0;
#X connect 5 1 15 0;
#X connect 6 0 7 1;
#X connect 6 1 7 2;
#X connect 7 0 21 0;
#X connect 7 0 13 0;
#X connect 7 1 14 0;
#X connect 8 0 16 0;
#X connect 9 0 5 0;
#X connect 11 0 7 0;
#X connect 18 0 3 0;
#X connect 19 0 2 0;
#X connect 20 0 1 0;
#X connect 21 0 17 0;
#X restore 85 47 pd actions;
#X obj 85 24 loopsel 2 2;
#N canvas 609 217 701 303 actions 0;
#X obj 5 5 inlet;
#X obj 6 284 outlet;
#X obj 106 283 outlet;
#X obj 188 282 outlet;
#N canvas 32 479 578 506 notes 0;
#X obj 36 199 outlet;
#X obj 418 98 outlet;
#X obj 35 31 loadbang;
#X obj 36 73 t b;
#X obj 44 51 bng 15 250 50 0 empty empty empty 17 7 0 10 -262144 -1
-1;
#X text 63 49 Update bang;
#X obj 36 177 frame-const;
#X msg 67 131 1 2 3 4;
#X msg 36 111 1;
#X obj 136 178 frame-const;
#X msg 136 111 2;
#X msg 167 131 3 4;
#X msg 99 152 1 3;
#X msg 199 152 1 3;
#X connect 2 0 3 0;
#X connect 3 0 12 0;
#X connect 3 0 7 0;
#X connect 3 0 8 0;
#X connect 3 0 13 0;
#X connect 3 0 11 0;
#X connect 3 0 10 0;
#X connect 4 0 1 0;
#X connect 4 0 3 0;
#X connect 6 0 0 0;
#X connect 7 0 6 1;
#X connect 8 0 6 0;
#X connect 9 0 0 0;
#X connect 10 0 9 0;
#X connect 11 0 9 1;
#X connect 12 0 6 2;
#X connect 13 0 9 2;
#X restore 38 103 pd notes;
#X obj 4 125 frame-finder;
#X msg 42 145 81 0.1;
#N canvas 32 479 578 506 notes 0;
#X obj 36 199 outlet;
#X obj 418 98 outlet;
#X obj 35 31 loadbang;
#X obj 36 73 t b;
#X obj 44 51 bng 15 250 50 0 empty empty empty 17 7 0 10 -262144 -1
-1;
#X text 63 49 Update bang;
#X obj 36 177 frame-const;
#X msg 67 131 1 2;
#X msg 99 152 1 3;
#X msg 36 111 2;
#X connect 2 0 3 0;
#X connect 3 0 8 0;
#X connect 3 0 7 0;
#X connect 3 0 9 0;
#X connect 4 0 1 0;
#X connect 4 0 3 0;
#X connect 6 0 0 0;
#X connect 7 0 6 1;
#X connect 8 0 6 2;
#X connect 9 0 6 0;
#X restore 138 103 pd notes;
#X obj 116 190 s \$0-bool-m1;
#X obj 104 125 frame-finder;
#X msg 142 145 83 0.1;
#X obj 5 25 s \$0-frame-m13;
#X obj 4 83 r \$0-frame-m13;
#X obj 4 168 s \$0-trigger-m13;
#X obj 16 190 s \$0-bool-m13;
#X obj 42 211 s \$0-arg-m13;
#X obj 6 262 r \$0-trigger-m13;
#X obj 106 262 r \$0-bool-m13;
#X obj 188 262 r \$0-arg-m13;
#X obj 142 211 s \$0-arg-m13;
#X obj 104 168 s \$0-trigger-m13;
#X obj 104 83 r \$0-frame-m13;
#N canvas 32 479 578 506 notes 0;
#X obj 36 199 outlet;
#X obj 418 98 outlet;
#X obj 35 31 loadbang;
#X obj 36 73 t b;
#X obj 44 51 bng 15 250 50 0 empty empty empty 17 7 0 10 -262144 -1
-1;
#X text 63 49 Update bang;
#X obj 36 177 frame-const;
#X msg 99 152 1 3;
#X msg 67 131 3 4;
#X msg 36 111 2;
#X connect 2 0 3 0;
#X connect 3 0 7 0;
#X connect 3 0 8 0;
#X connect 3 0 9 0;
#X connect 4 0 1 0;
#X connect 4 0 3 0;
#X connect 6 0 0 0;
#X connect 7 0 6 2;
#X connect 8 0 6 1;
#X connect 9 0 6 0;
#X restore 248 103 pd notes;
#X obj 214 125 frame-finder;
#X obj 214 83 r \$0-frame-m13;
#X obj 214 168 s \$0-trigger-m13;
#X obj 226 190 s \$0-bool-m13;
#X obj 252 211 s \$0-arg-m13;
#X msg 252 145 84 0.1;
#X connect 0 0 11 0;
#X connect 4 0 5 1;
#X connect 4 1 5 2;
#X connect 5 0 6 0;
#X connect 5 0 13 0;
#X connect 5 1 14 0;
#X connect 6 0 15 0;
#X connect 7 0 9 1;
#X connect 7 1 9 2;
#X connect 9 0 10 0;
#X connect 9 0 20 0;
#X connect 9 1 8 0;
#X connect 10 0 19 0;
#X connect 12 0 5 0;
#X connect 16 0 1 0;
#X connect 17 0 2 0;
#X connect 18 0 3 0;
#X connect 21 0 9 0;
#X connect 22 0 23 1;
#X connect 22 1 23 2;
#X connect 23 0 28 0;
#X connect 23 0 25 0;
#X connect 23 1 26 0;
#X connect 24 0 23 0;
#X connect 28 0 27 0;
#X restore 165 47 pd actions;
#X obj 165 24 loopsel 3 3;
#N canvas 609 217 701 303 actions 0;
#X obj 5 5 inlet;
#X obj 6 284 outlet;
#X obj 106 283 outlet;
#X obj 188 282 outlet;
#N canvas 32 479 578 506 notes 0;
#X obj 36 199 outlet;
#X obj 418 98 outlet;
#X obj 35 31 loadbang;
#X obj 36 73 t b;
#X obj 44 51 bng 15 250 50 0 empty empty empty 17 7 0 10 -262144 -1
-1;
#X text 63 49 Update bang;
#X obj 36 177 frame-const;
#X msg 67 131 1 2 3 4;
#X msg 36 111 1;
#X msg 99 152 1 3;
#X connect 2 0 3 0;
#X connect 3 0 9 0;
#X connect 3 0 7 0;
#X connect 3 0 8 0;
#X connect 4 0 1 0;
#X connect 4 0 3 0;
#X connect 6 0 0 0;
#X connect 7 0 6 1;
#X connect 8 0 6 0;
#X connect 9 0 6 2;
#X restore 38 103 pd notes;
#X obj 4 125 frame-finder;
#N canvas 32 479 578 506 notes 0;
#X obj 36 199 outlet;
#X obj 418 98 outlet;
#X obj 35 31 loadbang;
#X obj 36 73 t b;
#X obj 44 51 bng 15 250 50 0 empty empty empty 17 7 0 10 -262144 -1
-1;
#X text 63 49 Update bang;
#X obj 36 177 frame-const;
#X msg 99 152 1 3;
#X msg 36 111 2;
#X msg 67 131 1 2 3;
#X connect 2 0 3 0;
#X connect 3 0 7 0;
#X connect 3 0 9 0;
#X connect 3 0 8 0;
#X connect 4 0 1 0;
#X connect 4 0 3 0;
#X connect 6 0 0 0;
#X connect 7 0 6 2;
#X connect 8 0 6 0;
#X connect 9 0 6 1;
#X restore 138 103 pd notes;
#X obj 104 125 frame-finder;
#X msg 42 145 83 0.1;
#X obj 4 83 r \$0-frame-m12;
#X obj 5 25 s \$0-frame-m12;
#X obj 103 83 r \$0-frame-m12;
#X obj 4 168 s \$0-trigger-m12;
#X obj 104 168 s \$0-trigger-m12;
#X obj 116 190 s \$0-bool-m12;
#X obj 16 190 s \$0-bool-m12;
#X obj 42 211 s \$0-arg-m12;
#X obj 142 211 s \$0-arg-m12;
#X obj 188 262 r \$0-arg-m12;
#X obj 106 262 r \$0-bool-m12;
#X obj 6 262 r \$0-trigger-m12;
#X msg 142 145 81 0.1;
#X connect 0 0 10 0;
#X connect 4 0 5 1;
#X connect 4 1 5 2;
#X connect 5 0 8 0;
#X connect 5 0 12 0;
#X connect 5 1 15 0;
#X connect 6 0 7 1;
#X connect 6 1 7 2;
#X connect 7 0 21 0;
#X connect 7 0 13 0;
#X connect 7 1 14 0;
#X connect 8 0 16 0;
#X connect 9 0 5 0;
#X connect 11 0 7 0;
#X connect 18 0 3 0;
#X connect 19 0 2 0;
#X connect 20 0 1 0;
#X connect 21 0 17 0;
#X restore 245 47 pd actions;
#X obj 245 24 loopsel 4 4;
#N canvas 609 217 701 303 actions 0;
#X obj 5 5 inlet;
#X obj 6 284 outlet;
#X obj 106 283 outlet;
#X obj 188 282 outlet;
#N canvas 32 479 578 506 notes 0;
#X obj 36 199 outlet;
#X obj 418 98 outlet;
#X obj 35 31 loadbang;
#X obj 36 73 t b;
#X obj 44 51 bng 15 250 50 0 empty empty empty 17 7 0 10 -262144 -1
-1;
#X text 63 49 Update bang;
#X obj 36 177 frame-const;
#X msg 67 131 1 2 3 4;
#X msg 36 111 1;
#X obj 136 178 frame-const;
#X msg 136 111 2;
#X msg 167 131 3 4;
#X msg 99 152 1 3;
#X msg 199 152 1 3;
#X connect 2 0 3 0;
#X connect 3 0 12 0;
#X connect 3 0 7 0;
#X connect 3 0 8 0;
#X connect 3 0 13 0;
#X connect 3 0 11 0;
#X connect 3 0 10 0;
#X connect 4 0 1 0;
#X connect 4 0 3 0;
#X connect 6 0 0 0;
#X connect 7 0 6 1;
#X connect 8 0 6 0;
#X connect 9 0 0 0;
#X connect 10 0 9 0;
#X connect 11 0 9 1;
#X connect 12 0 6 2;
#X connect 13 0 9 2;
#X restore 38 103 pd notes;
#X obj 4 125 frame-finder;
#N canvas 32 479 578 506 notes 0;
#X obj 36 199 outlet;
#X obj 418 98 outlet;
#X obj 35 31 loadbang;
#X obj 36 73 t b;
#X obj 44 51 bng 15 250 50 0 empty empty empty 17 7 0 10 -262144 -1
-1;
#X text 63 49 Update bang;
#X obj 36 177 frame-const;
#X msg 99 152 1 3;
#X msg 36 111 2;
#X msg 67 131 1 2;
#X connect 2 0 3 0;
#X connect 3 0 7 0;
#X connect 3 0 9 0;
#X connect 3 0 8 0;
#X connect 4 0 1 0;
#X connect 4 0 3 0;
#X connect 6 0 0 0;
#X connect 7 0 6 2;
#X connect 8 0 6 0;
#X connect 9 0 6 1;
#X restore 138 103 pd notes;
#X obj 104 125 frame-finder;
#X msg 42 145 85 0.1;
#X msg 142 145 86 0.1;
#X obj 5 25 s \$0-frame-m15;
#X obj 4 83 r \$0-frame-m15;
#X obj 4 168 s \$0-trigger-m15;
#X obj 16 190 s \$0-bool-m15;
#X obj 42 211 s \$0-arg-m15;
#X obj 6 262 r \$0-trigger-m15;
#X obj 104 83 r \$0-frame-m15;
#X obj 104 168 s \$0-trigger-m15;
#X obj 116 190 s \$0-bool-m15;
#X obj 142 211 s \$0-arg-m15;
#X obj 106 262 r \$0-bool-m15;
#X obj 188 262 r \$0-arg-m15;
#X connect 0 0 10 0;
#X connect 4 0 5 1;
#X connect 4 1 5 2;
#X connect 5 0 8 0;
#X connect 5 0 12 0;
#X connect 5 1 13 0;
#X connect 6 0 7 1;
#X connect 6 1 7 2;
#X connect 7 0 9 0;
#X connect 7 0 17 0;
#X connect 7 1 18 0;
#X connect 8 0 14 0;
#X connect 9 0 19 0;
#X connect 11 0 5 0;
#X connect 15 0 1 0;
#X connect 16 0 7 0;
#X connect 20 0 2 0;
#X connect 21 0 3 0;
#X restore 325 47 pd actions;
#X obj 325 24 loopsel 5 5;
#N canvas 609 217 701 303 actions 0;
#X obj 5 5 inlet;
#X obj 6 284 outlet;
#X obj 106 283 outlet;
#X obj 188 282 outlet;
#N canvas 32 479 578 506 notes 0;
#X obj 36 199 outlet;
#X obj 418 98 outlet;
#X obj 35 31 loadbang;
#X obj 36 73 t b;
#X obj 44 51 bng 15 250 50 0 empty empty empty 17 7 0 10 -262144 -1
-1;
#X text 63 49 Update bang;
#X obj 36 177 frame-const;
#X msg 67 131 1 2 3 4;
#X msg 36 111 1;
#X obj 136 178 frame-const;
#X msg 136 111 2;
#X msg 167 131 3 4;
#X msg 99 152 1 3;
#X msg 199 152 1 3;
#X connect 2 0 3 0;
#X connect 3 0 12 0;
#X connect 3 0 7 0;
#X connect 3 0 8 0;
#X connect 3 0 13 0;
#X connect 3 0 11 0;
#X connect 3 0 10 0;
#X connect 4 0 1 0;
#X connect 4 0 3 0;
#X connect 6 0 0 0;
#X connect 7 0 6 1;
#X connect 8 0 6 0;
#X connect 9 0 0 0;
#X connect 10 0 9 0;
#X connect 11 0 9 1;
#X connect 12 0 6 2;
#X connect 13 0 9 2;
#X restore 38 103 pd notes;
#X obj 4 125 frame-finder;
#N canvas 32 479 578 506 notes 0;
#X obj 36 199 outlet;
#X obj 418 98 outlet;
#X obj 35 31 loadbang;
#X obj 36 73 t b;
#X obj 44 51 bng 15 250 50 0 empty empty empty 17 7 0 10 -262144 -1
-1;
#X text 63 49 Update bang;
#X obj 36 177 frame-const;
#X msg 67 131 1 2;
#X msg 99 152 1 3;
#X msg 36 111 2;
#X connect 2 0 3 0;
#X connect 3 0 8 0;
#X connect 3 0 7 0;
#X connect 3 0 9 0;
#X connect 4 0 1 0;
#X connect 4 0 3 0;
#X connect 6 0 0 0;
#X connect 7 0 6 1;
#X connect 8 0 6 2;
#X connect 9 0 6 0;
#X restore 138 103 pd notes;
#X obj 104 125 frame-finder;
#X obj 5 25 s \$0-frame-m16;
#X obj 4 83 r \$0-frame-m16;
#X obj 4 168 s \$0-trigger-m16;
#X obj 16 190 s \$0-bool-m16;
#X obj 42 211 s \$0-arg-m16;
#X obj 104 83 r \$0-frame-m16;
#X obj 104 168 s \$0-trigger-m16;
#X obj 116 190 s \$0-bool-m16;
#X obj 142 211 s \$0-arg-m16;
#X obj 6 262 r \$0-trigger-m16;
#X obj 106 262 r \$0-bool-m16;
#X obj 188 262 r \$0-arg-m16;
#X msg 42 145 83 0.1;
#X msg 142 145 81 0.1;
#X connect 0 0 8 0;
#X connect 4 0 5 1;
#X connect 4 1 5 2;
#X connect 5 0 20 0;
#X connect 5 0 10 0;
#X connect 5 1 11 0;
#X connect 6 0 7 1;
#X connect 6 1 7 2;
#X connect 7 0 21 0;
#X connect 7 0 14 0;
#X connect 7 1 15 0;
#X connect 9 0 5 0;
#X connect 13 0 7 0;
#X connect 17 0 1 0;
#X connect 18 0 2 0;
#X connect 19 0 3 0;
#X connect 20 0 12 0;
#X connect 21 0 16 0;
#X restore 405 47 pd actions;
#X obj 405 24 loopsel 6 6;
#N canvas 609 217 701 303 actions 0;
#X obj 5 5 inlet;
#X obj 6 284 outlet;
#X obj 106 283 outlet;
#X obj 188 282 outlet;
#N canvas 32 479 578 506 notes 0;
#X obj 36 199 outlet;
#X obj 418 98 outlet;
#X obj 35 31 loadbang;
#X obj 36 73 t b;
#X obj 44 51 bng 15 250 50 0 empty empty empty 17 7 0 10 -262144 -1
-1;
#X text 63 49 Update bang;
#X obj 36 177 frame-const;
#X msg 67 131 1 2 3 4;
#X msg 36 111 1;
#X obj 136 178 frame-const;
#X msg 136 111 2;
#X msg 167 131 3 4;
#X msg 99 152 1 3;
#X msg 199 152 1 3;
#X connect 2 0 3 0;
#X connect 3 0 12 0;
#X connect 3 0 7 0;
#X connect 3 0 8 0;
#X connect 3 0 13 0;
#X connect 3 0 11 0;
#X connect 3 0 10 0;
#X connect 4 0 1 0;
#X connect 4 0 3 0;
#X connect 6 0 0 0;
#X connect 7 0 6 1;
#X connect 8 0 6 0;
#X connect 9 0 0 0;
#X connect 10 0 9 0;
#X connect 11 0 9 1;
#X connect 12 0 6 2;
#X connect 13 0 9 2;
#X restore 38 103 pd notes;
#X obj 4 125 frame-finder;
#N canvas 32 479 578 506 notes 0;
#X obj 36 199 outlet;
#X obj 418 98 outlet;
#X obj 35 31 loadbang;
#X obj 36 73 t b;
#X obj 44 51 bng 15 250 50 0 empty empty empty 17 7 0 10 -262144 -1
-1;
#X text 63 49 Update bang;
#X obj 36 177 frame-const;
#X msg 67 131 1 2;
#X msg 99 152 1 3;
#X msg 36 111 2;
#X connect 2 0 3 0;
#X connect 3 0 8 0;
#X connect 3 0 7 0;
#X connect 3 0 9 0;
#X connect 4 0 1 0;
#X connect 4 0 3 0;
#X connect 6 0 0 0;
#X connect 7 0 6 1;
#X connect 8 0 6 2;
#X connect 9 0 6 0;
#X restore 138 103 pd notes;
#X obj 116 190 s \$0-bool-m1;
#X obj 104 125 frame-finder;
#N canvas 32 479 578 506 notes 0;
#X obj 36 199 outlet;
#X obj 418 98 outlet;
#X obj 35 31 loadbang;
#X obj 36 73 t b;
#X obj 44 51 bng 15 250 50 0 empty empty empty 17 7 0 10 -262144 -1
-1;
#X text 63 49 Update bang;
#X obj 36 177 frame-const;
#X msg 99 152 1 3;
#X msg 67 131 3 4;
#X msg 36 111 2;
#X connect 2 0 3 0;
#X connect 3 0 7 0;
#X connect 3 0 8 0;
#X connect 3 0 9 0;
#X connect 4 0 1 0;
#X connect 4 0 3 0;
#X connect 6 0 0 0;
#X connect 7 0 6 2;
#X connect 8 0 6 1;
#X connect 9 0 6 0;
#X restore 248 103 pd notes;
#X obj 214 125 frame-finder;
#X msg 42 145 85 0.1;
#X msg 142 145 86 0.1;
#X msg 252 145 88 0.1;
#X obj 5 25 s \$0-frame-m17;
#X obj 4 83 r \$0-frame-m17;
#X obj 4 168 s \$0-trigger-m17;
#X obj 16 190 s \$0-bool-m17;
#X obj 42 211 s \$0-arg-m17;
#X obj 6 262 r \$0-trigger-m17;
#X obj 104 83 r \$0-frame-m17;
#X obj 104 168 s \$0-trigger-m17;
#X obj 142 211 s \$0-arg-m17;
#X obj 106 262 r \$0-bool-m17;
#X obj 188 262 r \$0-arg-m17;
#X obj 252 211 s \$0-arg-m17;
#X obj 226 190 s \$0-bool-m17;
#X obj 214 168 s \$0-trigger-m17;
#X obj 214 83 r \$0-frame-m17;
#X connect 0 0 14 0;
#X connect 4 0 5 1;
#X connect 4 1 5 2;
#X connect 5 0 11 0;
#X connect 5 0 16 0;
#X connect 5 1 17 0;
#X connect 6 0 8 1;
#X connect 6 1 8 2;
#X connect 8 0 12 0;
#X connect 8 0 21 0;
#X connect 8 1 7 0;
#X connect 9 0 10 1;
#X connect 9 1 10 2;
#X connect 10 0 13 0;
#X connect 10 0 27 0;
#X connect 10 1 26 0;
#X connect 11 0 18 0;
#X connect 12 0 22 0;
#X connect 13 0 25 0;
#X connect 15 0 5 0;
#X connect 19 0 1 0;
#X connect 20 0 8 0;
#X connect 23 0 2 0;
#X connect 24 0 3 0;
#X connect 28 0 10 0;
#X restore 485 47 pd actions;
#X obj 485 24 loopsel 7 7;
#N canvas 609 217 701 303 actions 0;
#X obj 5 5 inlet;
#X obj 6 284 outlet;
#X obj 106 283 outlet;
#X obj 188 282 outlet;
#N canvas 32 479 578 506 notes 0;
#X obj 36 199 outlet;
#X obj 418 98 outlet;
#X obj 35 31 loadbang;
#X obj 36 73 t b;
#X obj 44 51 bng 15 250 50 0 empty empty empty 17 7 0 10 -262144 -1
-1;
#X text 63 49 Update bang;
#X obj 36 177 frame-const;
#X msg 67 131 1 2 3 4;
#X msg 36 111 1;
#X msg 99 152 1 3;
#X connect 2 0 3 0;
#X connect 3 0 9 0;
#X connect 3 0 7 0;
#X connect 3 0 8 0;
#X connect 4 0 1 0;
#X connect 4 0 3 0;
#X connect 6 0 0 0;
#X connect 7 0 6 1;
#X connect 8 0 6 0;
#X connect 9 0 6 2;
#X restore 38 103 pd notes;
#X obj 4 125 frame-finder;
#N canvas 32 479 578 506 notes 0;
#X obj 36 199 outlet;
#X obj 418 98 outlet;
#X obj 35 31 loadbang;
#X obj 36 73 t b;
#X obj 44 51 bng 15 250 50 0 empty empty empty 17 7 0 10 -262144 -1
-1;
#X text 63 49 Update bang;
#X obj 36 177 frame-const;
#X msg 99 152 1 3;
#X msg 36 111 2;
#X msg 67 131 1 2 3;
#X connect 2 0 3 0;
#X connect 3 0 7 0;
#X connect 3 0 9 0;
#X connect 3 0 8 0;
#X connect 4 0 1 0;
#X connect 4 0 3 0;
#X connect 6 0 0 0;
#X connect 7 0 6 2;
#X connect 8 0 6 0;
#X connect 9 0 6 1;
#X restore 138 103 pd notes;
#X obj 104 125 frame-finder;
#X msg 142 145 81 0.1;
#X obj 5 25 s \$0-frame-m18;
#X obj 4 83 r \$0-frame-m18;
#X obj 4 168 s \$0-trigger-m18;
#X obj 16 190 s \$0-bool-m18;
#X obj 42 211 s \$0-arg-m18;
#X obj 6 262 r \$0-trigger-m18;
#X obj 106 262 r \$0-bool-m18;
#X obj 188 262 r \$0-arg-m18;
#X obj 142 211 s \$0-arg-m18;
#X obj 116 190 s \$0-bool-m18;
#X obj 104 168 s \$0-trigger-m18;
#X obj 104 83 r \$0-frame-m18;
#X msg 42 145 83 0.1;
#X connect 0 0 9 0;
#X connect 4 0 5 1;
#X connect 4 1 5 2;
#X connect 5 0 21 0;
#X connect 5 0 11 0;
#X connect 5 1 12 0;
#X connect 6 0 7 1;
#X connect 6 1 7 2;
#X connect 7 0 8 0;
#X connect 7 0 19 0;
#X connect 7 1 18 0;
#X connect 8 0 17 0;
#X connect 10 0 5 0;
#X connect 14 0 1 0;
#X connect 15 0 2 0;
#X connect 16 0 3 0;
#X connect 20 0 7 0;
#X connect 21 0 13 0;
#X restore 565 47 pd actions;
#X obj 565 24 loopsel 8 8;
#N canvas 609 217 701 303 actions 0;
#X obj 5 5 inlet;
#X obj 6 284 outlet;
#X obj 106 283 outlet;
#X obj 188 282 outlet;
#N canvas 32 479 578 506 notes 0;
#X obj 36 199 outlet;
#X obj 418 98 outlet;
#X obj 35 31 loadbang;
#X obj 36 73 t b;
#X obj 44 51 bng 15 250 50 0 empty empty empty 17 7 0 10 -262144 -1
-1;
#X text 63 49 Update bang;
#X obj 36 177 frame-const;
#X msg 67 131 1 2 3 4;
#X msg 36 111 1;
#X obj 136 178 frame-const;
#X msg 136 111 2;
#X msg 167 131 3 4;
#X msg 99 152 1 3;
#X msg 199 152 1 3;
#X connect 2 0 3 0;
#X connect 3 0 12 0;
#X connect 3 0 7 0;
#X connect 3 0 8 0;
#X connect 3 0 13 0;
#X connect 3 0 11 0;
#X connect 3 0 10 0;
#X connect 4 0 1 0;
#X connect 4 0 3 0;
#X connect 6 0 0 0;
#X connect 7 0 6 1;
#X connect 8 0 6 0;
#X connect 9 0 0 0;
#X connect 10 0 9 0;
#X connect 11 0 9 1;
#X connect 12 0 6 2;
#X connect 13 0 9 2;
#X restore 38 103 pd notes;
#X obj 4 125 frame-finder;
#N canvas 32 479 578 506 notes 0;
#X obj 36 199 outlet;
#X obj 418 98 outlet;
#X obj 35 31 loadbang;
#X obj 36 73 t b;
#X obj 44 51 bng 15 250 50 0 empty empty empty 17 7 0 10 -262144 -1
-1;
#X text 63 49 Update bang;
#X obj 36 177 frame-const;
#X msg 99 152 1 3;
#X msg 36 111 2;
#X msg 67 131 1 2;
#X connect 2 0 3 0;
#X connect 3 0 7 0;
#X connect 3 0 9 0;
#X connect 3 0 8 0;
#X connect 4 0 1 0;
#X connect 4 0 3 0;
#X connect 6 0 0 0;
#X connect 7 0 6 2;
#X connect 8 0 6 0;
#X connect 9 0 6 1;
#X restore 138 103 pd notes;
#X obj 104 125 frame-finder;
#X msg 42 145 85 0.1;
#X msg 142 145 86 0.1;
#X obj 5 25 s \$0-frame-m19;
#X obj 4 83 r \$0-frame-m19;
#X obj 4 168 s \$0-trigger-m19;
#X obj 16 190 s \$0-bool-m19;
#X obj 42 211 s \$0-arg-m19;
#X obj 6 262 r \$0-trigger-m19;
#X obj 104 83 r \$0-frame-m19;
#X obj 104 168 s \$0-trigger-m19;
#X obj 116 190 s \$0-bool-m19;
#X obj 142 211 s \$0-arg-m19;
#X obj 106 262 r \$0-bool-m19;
#X obj 188 262 r \$0-arg-m19;
#X connect 0 0 10 0;
#X connect 4 0 5 1;
#X connect 4 1 5 2;
#X connect 5 0 8 0;
#X connect 5 0 12 0;
#X connect 5 1 13 0;
#X connect 6 0 7 1;
#X connect 6 1 7 2;
#X connect 7 0 9 0;
#X connect 7 0 17 0;
#X connect 7 1 18 0;
#X connect 8 0 14 0;
#X connect 9 0 19 0;
#X connect 11 0 5 0;
#X connect 15 0 1 0;
#X connect 16 0 7 0;
#X connect 20 0 2 0;
#X connect 21 0 3 0;
#X restore 645 47 pd actions;
#N canvas 609 217 701 303 actions 1;
#X obj 5 5 inlet;
#X obj 6 284 outlet;
#X obj 116 283 outlet;
#X obj 218 282 outlet;
#N canvas 32 479 578 506 notes 1;
#X obj 36 199 outlet;
#X obj 418 98 outlet;
#X obj 35 31 loadbang;
#X obj 36 73 t b;
#X obj 44 51 bng 15 250 50 0 empty empty empty 17 7 0 10 -262144 -1
-1;
#X text 63 49 Update bang;
#X obj 36 177 frame-const;
#X msg 67 131 1 2 3 4;
#X msg 36 111 1;
#X msg 99 152 1 3;
#X connect 2 0 3 0;
#X connect 3 0 9 0;
#X connect 3 0 7 0;
#X connect 3 0 8 0;
#X connect 4 0 1 0;
#X connect 4 0 3 0;
#X connect 6 0 0 0;
#X connect 7 0 6 1;
#X connect 8 0 6 0;
#X connect 9 0 6 2;
#X restore 38 103 pd notes;
#X obj 4 125 frame-finder;
#N canvas 32 479 578 506 notes 0;
#X obj 36 199 outlet;
#X obj 418 98 outlet;
#X obj 35 31 loadbang;
#X obj 36 73 t b;
#X obj 44 51 bng 15 250 50 0 empty empty empty 17 7 0 10 -262144 -1
-1;
#X text 63 49 Update bang;
#X obj 36 177 frame-const;
#X msg 99 152 1 3;
#X msg 36 111 2;
#X msg 67 131 1 2;
#X connect 2 0 3 0;
#X connect 3 0 7 0;
#X connect 3 0 9 0;
#X connect 3 0 8 0;
#X connect 4 0 1 0;
#X connect 4 0 3 0;
#X connect 6 0 0 0;
#X connect 7 0 6 2;
#X connect 8 0 6 0;
#X connect 9 0 6 1;
#X restore 158 103 pd notes;
#X obj 124 125 frame-finder;
#X msg 162 145 81 0.1;
#X obj 5 25 s \$0-frame-m110;
#X obj 4 83 r \$0-frame-m110;
#X obj 4 168 s \$0-trigger-m110;
#X obj 16 190 s \$0-bool-m110;
#X obj 42 211 s \$0-arg-m110;
#X obj 124 83 r \$0-frame-m110;
#X obj 124 168 s \$0-trigger-m110;
#X obj 136 190 s \$0-bool-m110;
#X obj 162 211 s \$0-arg-m110;
#X obj 6 262 r \$0-trigger-m110;
#X obj 116 262 r \$0-bool-m110;
#X obj 218 262 r \$0-arg-m110;
#X msg 42 145 85 0.1;
#N canvas 32 479 578 506 notes 0;
#X obj 36 199 outlet;
#X obj 418 98 outlet;
#X obj 35 31 loadbang;
#X obj 36 73 t b;
#X obj 44 51 bng 15 250 50 0 empty empty empty 17 7 0 10 -262144 -1
-1;
#X text 63 49 Update bang;
#X obj 36 178 frame-const;
#X msg 36 111 2;
#X msg 67 131 3 4;
#X msg 99 152 1 3;
#X connect 2 0 3 0;
#X connect 3 0 9 0;
#X connect 3 0 8 0;
#X connect 3 0 7 0;
#X connect 4 0 1 0;
#X connect 4 0 3 0;
#X connect 6 0 0 0;
#X connect 7 0 6 0;
#X connect 8 0 6 1;
#X connect 9 0 6 2;
#X restore 268 103 pd notes;
#X obj 234 125 frame-finder;
#X obj 234 83 r \$0-frame-m110;
#X obj 234 168 s \$0-trigger-m110;
#X obj 246 190 s \$0-bool-m110;
#X obj 272 211 s \$0-arg-m110;
#X msg 272 145 83 0.1;
#X connect 0 0 9 0;
#X connect 4 0 5 1;
#X connect 4 1 5 2;
#X connect 5 0 21 0;
#X connect 5 0 11 0;
#X connect 5 1 12 0;
#X connect 6 0 7 1;
#X connect 6 1 7 2;
#X connect 7 0 8 0;
#X connect 7 0 15 0;
#X connect 7 1 16 0;
#X connect 8 0 17 0;
#X connect 10 0 5 0;
#X connect 14 0 7 0;
#X connect 18 0 1 0;
#X connect 19 0 2 0;
#X connect 20 0 3 0;
#X connect 21 0 13 0;
#X connect 22 0 23 1;
#X connect 22 1 23 2;
#X connect 23 0 28 0;
#X connect 23 0 25 0;
#X connect 23 1 26 0;
#X connect 24 0 23 0;
#X connect 28 0 27 0;
#X restore 725 47 pd actions;
#N canvas 609 217 701 303 actions 0;
#X obj 5 5 inlet;
#X obj 6 284 outlet;
#X obj 106 283 outlet;
#X obj 188 282 outlet;
#N canvas 32 479 578 506 notes 0;
#X obj 36 199 outlet;
#X obj 418 98 outlet;
#X obj 35 31 loadbang;
#X obj 36 73 t b;
#X obj 44 51 bng 15 250 50 0 empty empty empty 17 7 0 10 -262144 -1
-1;
#X text 63 49 Update bang;
#X obj 36 177 frame-const;
#X msg 67 131 1 2 3 4;
#X msg 36 111 1;
#X obj 136 178 frame-const;
#X msg 136 111 2;
#X msg 167 131 3 4;
#X msg 99 152 1 3;
#X msg 199 152 1 3;
#X connect 2 0 3 0;
#X connect 3 0 12 0;
#X connect 3 0 7 0;
#X connect 3 0 8 0;
#X connect 3 0 13 0;
#X connect 3 0 11 0;
#X connect 3 0 10 0;
#X connect 4 0 1 0;
#X connect 4 0 3 0;
#X connect 6 0 0 0;
#X connect 7 0 6 1;
#X connect 8 0 6 0;
#X connect 9 0 0 0;
#X connect 10 0 9 0;
#X connect 11 0 9 1;
#X connect 12 0 6 2;
#X connect 13 0 9 2;
#X restore 38 103 pd notes;
#X obj 4 125 frame-finder;
#N canvas 32 479 578 506 notes 0;
#X obj 36 199 outlet;
#X obj 418 98 outlet;
#X obj 35 31 loadbang;
#X obj 36 73 t b;
#X obj 44 51 bng 15 250 50 0 empty empty empty 17 7 0 10 -262144 -1
-1;
#X text 63 49 Update bang;
#X obj 36 177 frame-const;
#X msg 67 131 1 2;
#X msg 99 152 1 3;
#X msg 36 111 2;
#X connect 2 0 3 0;
#X connect 3 0 8 0;
#X connect 3 0 7 0;
#X connect 3 0 9 0;
#X connect 4 0 1 0;
#X connect 4 0 3 0;
#X connect 6 0 0 0;
#X connect 7 0 6 1;
#X connect 8 0 6 2;
#X connect 9 0 6 0;
#X restore 138 103 pd notes;
#X obj 116 190 s \$0-bool-m1;
#X obj 104 125 frame-finder;
#N canvas 32 479 578 506 notes 0;
#X obj 36 199 outlet;
#X obj 418 98 outlet;
#X obj 35 31 loadbang;
#X obj 36 73 t b;
#X obj 44 51 bng 15 250 50 0 empty empty empty 17 7 0 10 -262144 -1
-1;
#X text 63 49 Update bang;
#X obj 36 177 frame-const;
#X msg 99 152 1 3;
#X msg 67 131 3 4;
#X msg 36 111 2;
#X connect 2 0 3 0;
#X connect 3 0 7 0;
#X connect 3 0 8 0;
#X connect 3 0 9 0;
#X connect 4 0 1 0;
#X connect 4 0 3 0;
#X connect 6 0 0 0;
#X connect 7 0 6 2;
#X connect 8 0 6 1;
#X connect 9 0 6 0;
#X restore 248 103 pd notes;
#X obj 214 125 frame-finder;
#X msg 42 145 85 0.1;
#X msg 142 145 86 0.1;
#X msg 252 145 88 0.1;
#X obj 5 25 s \$0-frame-m17;
#X obj 4 83 r \$0-frame-m17;
#X obj 4 168 s \$0-trigger-m17;
#X obj 16 190 s \$0-bool-m17;
#X obj 42 211 s \$0-arg-m17;
#X obj 6 262 r \$0-trigger-m17;
#X obj 104 83 r \$0-frame-m17;
#X obj 104 168 s \$0-trigger-m17;
#X obj 142 211 s \$0-arg-m17;
#X obj 106 262 r \$0-bool-m17;
#X obj 188 262 r \$0-arg-m17;
#X obj 252 211 s \$0-arg-m17;
#X obj 226 190 s \$0-bool-m17;
#X obj 214 168 s \$0-trigger-m17;
#X obj 214 83 r \$0-frame-m17;
#X connect 0 0 14 0;
#X connect 4 0 5 1;
#X connect 4 1 5 2;
#X connect 5 0 11 0;
#X connect 5 0 16 0;
#X connect 5 1 17 0;
#X connect 6 0 8 1;
#X connect 6 1 8 2;
#X connect 8 0 12 0;
#X connect 8 0 21 0;
#X connect 8 1 7 0;
#X connect 9 0 10 1;
#X connect 9 1 10 2;
#X connect 10 0 13 0;
#X connect 10 0 27 0;
#X connect 10 1 26 0;
#X connect 11 0 18 0;
#X connect 12 0 22 0;
#X connect 13 0 25 0;
#X connect 15 0 5 0;
#X connect 19 0 1 0;
#X connect 20 0 8 0;
#X connect 23 0 2 0;
#X connect 24 0 3 0;
#X connect 28 0 10 0;
#X restore 815 47 pd actions;
#N canvas 609 217 701 303 actions 0;
#X obj 5 5 inlet;
#X obj 6 284 outlet;
#X obj 116 283 outlet;
#X obj 208 282 outlet;
#N canvas 32 479 578 506 notes 0;
#X obj 36 199 outlet;
#X obj 418 98 outlet;
#X obj 35 31 loadbang;
#X obj 36 73 t b;
#X obj 44 51 bng 15 250 50 0 empty empty empty 17 7 0 10 -262144 -1
-1;
#X text 63 49 Update bang;
#X obj 36 177 frame-const;
#X msg 67 131 1 2 3 4;
#X msg 36 111 1;
#X msg 99 152 1 3;
#X connect 2 0 3 0;
#X connect 3 0 9 0;
#X connect 3 0 7 0;
#X connect 3 0 8 0;
#X connect 4 0 1 0;
#X connect 4 0 3 0;
#X connect 6 0 0 0;
#X connect 7 0 6 1;
#X connect 8 0 6 0;
#X connect 9 0 6 2;
#X restore 38 103 pd notes;
#X obj 4 125 frame-finder;
#N canvas 32 479 578 506 notes 0;
#X obj 36 199 outlet;
#X obj 418 98 outlet;
#X obj 35 31 loadbang;
#X obj 36 73 t b;
#X obj 44 51 bng 15 250 50 0 empty empty empty 17 7 0 10 -262144 -1
-1;
#X text 63 49 Update bang;
#X obj 36 177 frame-const;
#X msg 99 152 1 3;
#X msg 36 111 2;
#X msg 67 131 1 2 3 4;
#X connect 2 0 3 0;
#X connect 3 0 7 0;
#X connect 3 0 9 0;
#X connect 3 0 8 0;
#X connect 4 0 1 0;
#X connect 4 0 3 0;
#X connect 6 0 0 0;
#X connect 7 0 6 2;
#X connect 8 0 6 0;
#X connect 9 0 6 1;
#X restore 148 103 pd notes;
#X obj 114 125 frame-finder;
#X obj 5 25 s \$0-frame-m112;
#X obj 4 83 r \$0-frame-m112;
#X obj 4 168 s \$0-trigger-m112;
#X obj 16 190 s \$0-bool-m112;
#X obj 42 211 s \$0-arg-m112;
#X obj 114 83 r \$0-frame-m112;
#X obj 114 168 s \$0-trigger-m112;
#X obj 126 190 s \$0-bool-m112;
#X obj 152 211 s \$0-arg-m112;
#X obj 6 262 r \$0-trigger-m112;
#X obj 116 262 r \$0-bool-m112;
#X obj 208 262 r \$0-arg-m112;
#X msg 42 145 85 0.1;
#X msg 152 145 83 0.1;
#X connect 0 0 8 0;
#X connect 4 0 5 1;
#X connect 4 1 5 2;
#X connect 5 0 20 0;
#X connect 5 0 10 0;
#X connect 5 1 11 0;
#X connect 6 0 7 1;
#X connect 6 1 7 2;
#X connect 7 0 21 0;
#X connect 7 0 14 0;
#X connect 7 1 15 0;
#X connect 9 0 5 0;
#X connect 13 0 7 0;
#X connect 17 0 1 0;
#X connect 18 0 2 0;
#X connect 19 0 3 0;
#X connect 20 0 12 0;
#X connect 21 0 16 0;
#X restore 905 47 pd actions;
#X obj 645 24 loopsel 9 9;
#X obj 725 24 loopsel 10 10;
#X obj 815 24 loopsel 11 11;
#X obj 905 24 loopsel 12 12;
#X connect 0 0 25 0;
#X connect 0 0 27 0;
#X connect 0 0 29 0;
#X connect 0 0 31 0;
#X connect 0 0 33 0;
#X connect 0 0 35 0;
#X connect 0 0 37 0;
#X connect 0 0 39 0;
#X connect 0 0 44 0;
#X connect 0 0 45 0;
#X connect 0 0 46 0;
#X connect 0 0 47 0;
#X connect 19 0 1 0;
#X connect 19 1 2 0;
#X connect 19 2 3 0;
#X connect 19 3 4 0;
#X connect 19 4 5 0;
#X connect 19 5 8 0;
#X connect 19 6 6 0;
#X connect 19 7 7 0;
#X connect 19 8 9 0;
#X connect 19 9 10 0;
#X connect 19 10 12 0;
#X connect 19 11 11 0;
#X connect 19 12 13 0;
#X connect 19 13 14 0;
#X connect 19 14 15 0;
#X connect 19 15 16 0;
#X connect 19 16 17 0;
#X connect 19 17 18 0;
#X connect 20 0 23 0;
#X connect 21 0 20 0;
#X connect 21 1 20 1;
#X connect 22 0 21 0;
#X connect 23 0 19 0;
#X connect 24 0 22 0;
#X connect 24 1 21 1;
#X connect 24 2 19 1;
#X connect 25 0 24 0;
#X connect 26 0 22 0;
#X connect 26 1 21 1;
#X connect 26 2 19 1;
#X connect 27 0 26 0;
#X connect 28 0 22 0;
#X connect 28 1 21 1;
#X connect 28 2 19 1;
#X connect 29 0 28 0;
#X connect 30 0 22 0;
#X connect 30 1 21 1;
#X connect 30 2 19 1;
#X connect 31 0 30 0;
#X connect 32 0 22 0;
#X connect 32 1 21 1;
#X connect 32 2 19 1;
#X connect 33 0 32 0;
#X connect 34 0 22 0;
#X connect 34 1 21 1;
#X connect 34 2 19 1;
#X connect 35 0 34 0;
#X connect 36 0 22 0;
#X connect 36 1 21 1;
#X connect 36 2 19 1;
#X connect 37 0 36 0;
#X connect 38 0 22 0;
#X connect 38 1 21 1;
#X connect 38 2 19 1;
#X connect 39 0 38 0;
#X connect 40 0 22 0;
#X connect 40 1 21 1;
#X connect 40 2 19 1;
#X connect 41 0 22 0;
#X connect 41 1 21 1;
#X connect 41 2 19 1;
#X connect 43 0 22 0;
#X connect 43 1 21 1;
#X connect 43 2 19 1;
#X connect 44 0 40 0;
#X connect 45 0 41 0;
#X connect 46 0 42 0;
#X connect 47 0 43 0;
#X restore 1007 67 pd multifacet_melody-action;
#X obj 29 -69 s start;
#X obj 208 102 instrument percussive-fx-2;
#X obj 404 100 instrument multifacet-perc;
#X obj 600 100 instrument multifacet-arm-1;
#X obj 1007 100 instrument multifacet-mel-1;
#X obj 802 100 instrument multifacet-arm-2;
#X obj 230 -26 list-random 0 29;
#X obj 230 -49 loadbang;
#X obj 230 -68 bng 15 250 50 0 empty empty empty 17 7 0 10 -262144
-1 -1;
#X obj 121 173 r p1a;
#X obj 106 216 bng 15 250 50 0 empty empty empty 17 7 0 10 -262144
-1 -1;
#X obj 106 195 r tt;
#X obj 230 -5 s placeholder;
#X obj 127 280 r tt;
#X obj 148 301 r placeholder;
#X obj 125 235 r placeholder;
#X obj 106 339 list;
#X obj 9 173 r p1a;
#X obj 17 194 r p2a;
#X obj 26 214 r mra;
#X obj 34 234 r m1a;
#X obj 42 254 r m2a;
#X obj 50 274 r mea;
#X obj 9 295 bng 15 250 50 0 empty empty empty 17 7 0 10 -262144 -1
-1;
#X obj 9 334 s tt;
#X obj 127 359 r tt;
#X obj 127 378 bng 15 250 50 0 empty empty empty 17 7 0 10 -262144
-1 -1;
#X obj 148 378 r placeholder;
#X obj 106 416 list;
#X obj 142 256 r p2a;
#X obj 142 339 r mra;
#X obj 127 436 r tt;
#X obj 127 455 bng 15 250 50 0 empty empty empty 17 7 0 10 -262144
-1 -1;
#X obj 148 455 r placeholder;
#X obj 106 493 list;
#X obj 127 513 r tt;
#X obj 127 532 bng 15 250 50 0 empty empty empty 17 7 0 10 -262144
-1 -1;
#X obj 148 532 r placeholder;
#X obj 106 570 list;
#X obj 142 416 r m1a;
#X obj 142 494 r m2a;
#X obj 127 590 r tt;
#X obj 127 609 bng 15 250 50 0 empty empty empty 17 7 0 10 -262144
-1 -1;
#X obj 148 609 r placeholder;
#X obj 106 647 list;
#X obj 142 571 r mea;
#X obj 73 670 pysend;
#X obj 73 651 tgl 15 0 empty empty empty 17 7 0 10 -262144 -1 -1 0
1;
#X obj 58 628 r start;
#X obj 127 320 l;
#X obj 106 256 l;
#X obj 127 397 l;
#X obj 127 474 l;
#X obj 127 551 l;
#X obj 127 628 l;
#X obj 127 301 bng 15 250 50 0 empty empty empty 17 7 0 10 -262144
-1 -1;
#X text 983 445 master volume;
#X text 282 -56 initialize an empty list as a placeholder for inactive
instruments;
#X floatatom 84 692 5 0 0 0 - - -;
#X floatatom 195 -23 5 0 0 0 - - -;
#X obj 187 484 print;
#X obj 9 313 del 0;
#X obj 334 230 key 32;
#X obj 334 260 == 32;
#X obj 334 281 sel 1;
#X obj 334 303 tgl 15 0 empty empty empty 17 7 0 10 -262144 -1 -1 0
1;
#X obj 790 565 writesf~ 2;
#X msg 752 486 start;
#X msg 714 529 stop;
#X obj 361 368 bng 15 250 50 0 empty empty empty 17 7 0 10 -262144
-1 -1;
#X obj 361 488 click~;
#X obj 372 386 counter;
#X obj 391 346 sel 0;
#X floatatom 372 407 5 0 0 0 - - -;
#X msg 391 367 1;
#X obj 372 427 <= 4;
#X obj 361 449 spigot;
#X obj 402 473 bng 15 250 50 0 empty empty empty 17 7 0 10 -262144
-1 -1;
#X obj 409 427 sel 5;
#X msg 409 447 1;
#X msg 420 366 0;
#X floatatom 945 527 5 0 0 0 - - -;
#X obj 940 373 loadbang;
#X msg 940 394 0.6;
#X msg 683 452 open deslizar.wav;
#X obj 5 -46 metronome 86 4/4 4 2;
#X obj 361 305 metronome 86 4/4 1 1;
#X connect 1 0 54 0;
#X connect 1 0 139 0;
#X connect 2 0 3 0;
#X connect 2 1 4 0;
#X connect 2 2 5 0;
#X connect 8 0 0 0;
#X connect 8 0 120 0;
#X connect 9 0 0 1;
#X connect 9 0 120 1;
#X connect 10 0 9 1;
#X connect 10 0 8 1;
#X connect 10 0 135 0;
#X connect 13 0 8 0;
#X connect 14 0 9 0;
#X connect 17 0 8 0;
#X connect 18 0 9 0;
#X connect 27 0 8 0;
#X connect 28 0 8 0;
#X connect 29 0 8 0;
#X connect 30 0 8 0;
#X connect 31 0 9 0;
#X connect 32 0 9 0;
#X connect 33 0 9 0;
#X connect 34 0 9 0;
#X connect 35 0 11 0;
#X connect 35 1 12 0;
#X connect 35 2 36 0;
#X connect 42 0 35 0;
#X connect 42 1 35 1;
#X connect 42 2 35 2;
#X connect 42 3 35 3;
#X connect 42 4 35 4;
#X connect 42 5 35 5;
#X connect 42 6 35 6;
#X connect 42 7 35 7;
#X connect 42 8 35 8;
#X connect 42 9 35 9;
#X connect 42 10 35 10;
#X connect 42 11 35 11;
#X connect 42 12 35 12;
#X connect 42 13 35 13;
#X connect 42 14 35 14;
#X connect 42 15 35 15;
#X connect 42 16 35 16;
#X connect 42 17 35 17;
#X connect 43 0 42 0;
#X connect 44 0 45 0;
#X connect 45 0 55 0;
#X connect 45 1 55 1;
#X connect 45 2 55 2;
#X connect 45 3 55 3;
#X connect 45 4 55 4;
#X connect 45 5 55 5;
#X connect 45 6 55 6;
#X connect 45 7 55 7;
#X connect 45 8 55 8;
#X connect 45 9 55 9;
#X connect 45 10 55 10;
#X connect 45 11 55 11;
#X connect 45 12 55 12;
#X connect 45 13 55 13;
#X connect 45 14 55 14;
#X connect 45 15 55 15;
#X connect 45 16 55 16;
#X connect 45 17 55 17;
#X connect 46 0 47 0;
#X connect 47 0 56 0;
#X connect 47 1 56 1;
#X connect 47 2 56 2;
#X connect 47 3 56 3;
#X connect 47 4 56 4;
#X connect 47 5 56 5;
#X connect 47 6 56 6;
#X connect 47 7 56 7;
#X connect 47 8 56 8;
#X connect 47 9 56 9;
#X connect 47 10 56 10;
#X connect 47 11 56 11;
#X connect 47 12 56 12;
#X connect 47 13 56 13;
#X connect 47 14 56 14;
#X connect 47 15 56 15;
#X connect 47 16 56 16;
#X connect 47 17 56 17;
#X connect 48 0 49 0;
#X connect 49 0 57 0;
#X connect 49 1 57 1;
#X connect 49 2 57 2;
#X connect 49 3 57 3;
#X connect 49 4 57 4;
#X connect 49 5 57 5;
#X connect 49 6 57 6;
#X connect 49 7 57 7;
#X connect 49 8 57 8;
#X connect 49 9 57 9;
#X connect 49 10 57 10;
#X connect 49 11 57 11;
#X connect 49 12 57 12;
#X connect 49 13 57 13;
#X connect 49 14 57 14;
#X connect 49 15 57 15;
#X connect 49 16 57 16;
#X connect 49 17 57 17;
#X connect 50 0 51 0;
#X connect 51 0 59 0;
#X connect 51 1 59 1;
#X connect 51 2 59 2;
#X connect 51 3 59 3;
#X connect 51 4 59 4;
#X connect 51 5 59 5;
#X connect 51 6 59 6;
#X connect 51 7 59 7;
#X connect 51 8 59 8;
#X connect 51 9 59 9;
#X connect 51 10 59 10;
#X connect 51 11 59 11;
#X connect 51 12 59 12;
#X connect 51 13 59 13;
#X connect 51 14 59 14;
#X connect 51 15 59 15;
#X connect 51 16 59 16;
#X connect 51 17 59 17;
#X connect 52 0 53 0;
#X connect 53 0 58 0;
#X connect 53 1 58 1;
#X connect 53 2 58 2;
#X connect 53 3 58 3;
#X connect 53 4 58 4;
#X connect 53 5 58 5;
#X connect 53 6 58 6;
#X connect 53 7 58 7;
#X connect 53 8 58 8;
#X connect 53 9 58 9;
#X connect 53 10 58 10;
#X connect 53 11 58 11;
#X connect 53 12 58 12;
#X connect 53 13 58 13;
#X connect 53 14 58 14;
#X connect 53 15 58 15;
#X connect 53 16 58 16;
#X connect 53 17 58 17;
#X connect 55 0 15 0;
#X connect 55 1 16 0;
#X connect 55 2 37 0;
#X connect 56 0 19 0;
#X connect 56 1 20 0;
#X connect 56 2 38 0;
#X connect 57 0 21 0;
#X connect 57 1 22 0;
#X connect 57 2 39 0;
#X connect 58 0 25 0;
#X connect 58 1 26 0;
#X connect 58 2 41 0;
#X connect 59 0 23 0;
#X connect 59 1 24 0;
#X connect 59 2 40 0;
#X connect 60 0 66 0;
#X connect 61 0 60 0;
#X connect 62 0 60 0;
#X connect 63 0 104 1;
#X connect 64 0 104 0;
#X connect 65 0 64 0;
#X connect 67 0 109 0;
#X connect 68 0 103 1;
#X connect 69 0 104 1;
#X connect 70 0 82 0;
#X connect 71 0 77 0;
#X connect 72 0 77 0;
#X connect 73 0 77 0;
#X connect 74 0 77 0;
#X connect 75 0 77 0;
#X connect 76 0 77 0;
#X connect 77 0 115 0;
#X connect 79 0 80 0;
#X connect 80 0 105 0;
#X connect 81 0 105 1;
#X connect 82 0 88 0;
#X connect 83 0 103 1;
#X connect 84 0 105 1;
#X connect 85 0 86 0;
#X connect 86 0 106 0;
#X connect 87 0 106 1;
#X connect 88 0 92 0;
#X connect 89 0 90 0;
#X connect 90 0 107 0;
#X connect 91 0 107 1;
#X connect 92 0 98 0;
#X connect 93 0 106 1;
#X connect 94 0 107 1;
#X connect 95 0 96 0;
#X connect 96 0 108 0;
#X connect 97 0 108 1;
#X connect 98 0 100 1;
#X connect 99 0 108 1;
#X connect 100 0 112 0;
#X connect 101 0 100 0;
#X connect 102 0 101 0;
#X connect 103 0 70 1;
#X connect 104 0 70 0;
#X connect 105 0 82 1;
#X connect 106 0 88 1;
#X connect 107 0 92 1;
#X connect 108 0 98 1;
#X connect 109 0 103 0;
#X connect 115 0 78 0;
#X connect 116 0 117 0;
#X connect 117 0 118 0;
#X connect 118 0 119 0;
#X connect 119 0 126 0;
#X connect 119 0 140 0;
#X connect 121 0 120 0;
#X connect 122 0 120 0;
#X connect 123 0 125 0;
#X connect 123 0 130 0;
#X connect 124 0 8 0;
#X connect 125 0 127 0;
#X connect 126 0 128 0;
#X connect 126 0 134 0;
#X connect 126 0 122 0;
#X connect 127 0 129 0;
#X connect 127 0 132 0;
#X connect 128 0 125 2;
#X connect 129 0 130 1;
#X connect 130 0 124 0;
#X connect 130 0 131 0;
#X connect 132 0 133 0;
#X connect 132 0 138 0;
#X connect 132 0 121 0;
#X connect 133 0 1 0;
#X connect 134 0 1 0;
#X connect 136 0 137 0;
#X connect 137 0 10 0;
#X connect 138 0 120 0;
#X connect 139 0 2 0;
#X connect 139 0 6 0;
#X connect 139 1 7 0;
#X connect 139 2 113 0;
#X connect 140 0 123 0;
