#N canvas 0 23 1364 799 10;
#X text 32 11 freq;
#X obj -26 288 +~;
#X obj -11 267 *~;
#X obj -11 246 vcsg~;
#X obj -81 247 loadbang;
#X msg -81 266 0;
#X obj -11 219 *~;
#X obj -26 182 +~;
#X obj 16 219 +~;
#X obj 1 293 +~;
#X obj 102 30 inlet~;
#X obj -26 365 hip~;
#X obj -26 389 lop~;
#X obj -26 341 compressor~;
#X obj 33 30 inlet~;
#X obj -26 317 vcsg~;
#X obj -118 30 inlet;
#X text -118 10 vel;
#X text 102 12 oscType;
#X obj 245 30 inlet~;
#X text 244 12 FMRatio;
#X obj 316 29 inlet~;
#X text 315 12 FMQ;
#X obj 378 29 inlet~;
#X text 379 12 FMType;
#X obj 442 28 inlet;
#X text 442 12 Comp;
#X obj 509 28 inlet;
#X text 509 11 Hip;
#X obj 573 28 inlet;
#X text 572 10 Lop;
#X obj -26 414 *~;
#X obj 87 254 proenv;
#X obj -26 566 +~;
#X obj -11 545 *~;
#X obj -26 596 reverberacion;
#X obj -26 703 *~;
#X obj 107 700 *~;
#X obj -26 725 balance;
#X obj -26 748 outlet~;
#X obj 13 769 outlet~;
#X obj 637 28 inlet~;
#X text 636 10 DelT;
#X text 705 11 DelQ;
#X obj 782 28 inlet;
#X text 782 10 Damp;
#X obj 846 28 inlet;
#X text 846 10 Room;
#X obj 909 28 inlet;
#X text 908 11 DW;
#X obj 969 28 inlet~;
#X text 967 11 Vol;
#X obj 1035 28 inlet~;
#X text 1034 12 Bal;
#X obj 122 671 clip~ 0 1;
#X obj 705 28 inlet~;
#X obj 4 524 clip~ 0 1;
#X obj -117 90 s \$0-vel;
#X obj 33 50 s~ \$0-freq;
#X obj 102 50 s~ \$0-osc;
#X obj 245 50 s~ \$0-FMR;
#X obj 316 50 s~ \$0-FMQ;
#X obj 378 50 s~ \$0-FMT;
#X obj 442 50 s \$0-Comp;
#X obj 509 49 s \$0-Hip;
#X obj 573 49 s \$0-Lop;
#X obj 637 49 s~ \$0-DelT;
#X obj 705 49 s~ \$0-DelQ;
#X obj 782 49 s \$0-Damp;
#X obj 846 49 s \$0-Room;
#X obj 909 49 s \$0-DW;
#X obj 969 49 s~ \$0-Vol;
#X obj 1035 48 s~ \$0-Bal;
#X obj 198 708 clip~ -1 1;
#X obj 87 155 r \$0-vel;
#X obj 16 269 r~ \$0-osc;
#X obj -26 74 r~ \$0-freq;
#X obj 4 177 r~ \$0-FMR;
#X obj 27 245 r~ \$0-FMQ;
#X obj 16 198 r~ \$0-FMT;
#X obj 16 317 r \$0-Comp;
#X obj 7 365 r \$0-Hip;
#X obj 7 389 r \$0-Lop;
#X obj -11 460 r~ \$0-DelT;
#X obj 4 504 r~ \$0-DelQ;
#X obj 18 547 r \$0-Damp;
#X obj 40 568 r \$0-Room;
#X obj 102 568 r \$0-DW;
#X obj 122 646 r~ \$0-Vol;
#X obj 198 686 r~ \$0-Bal;
#X obj -63 30 inlet;
#X obj -63 50 s \$0-EnvParams;
#X obj 143 205 unpack f f f f f f f f f f f f;
#X obj 143 183 r \$0-EnvParams;
#X msg 100 545 0;
#X obj 100 524 loadbang;
#X obj -11 480 vd~ \$0-del;
#X obj -174 598 delwrite~ \$0-del 10000;
#X msg -80 390 20000;
#X obj -80 369 loadbang;
#X obj 797 102 r~ \$0-freq;
#X obj 797 125 vtof;
#X obj 811 169 vtof;
#X obj 811 146 r~ \$0-osc;
#X obj -26 157 line~;
#X obj -26 96 vtof;
#X obj 19 96 r \$0-glissT;
#X obj -26 117 pack f f;
#X obj 165 29 inlet;
#X text 165 13 GlissT;
#X obj 165 49 s \$0-glissT;
#X obj 87 220 spigot;
#X obj 120 181 > 0;
#X obj 604 530 r \$0-vel;
#X obj 625 549 r \$0-EnvParams;
#X obj 797 647 pack f f f f f f f f f f f f f f f f;
#X obj 797 620 bondo 16 unused_param_to_ellongate_o;
#X obj 825 190 r \$0-glissT;
#X obj 839 211 r~ \$0-FMR;
#X obj 839 232 vtof;
#X obj 853 254 r~ \$0-FMQ;
#X obj 853 273 vtof;
#X obj 604 616 list;
#X msg 636 590 0 0 0 0 0 0 0 0 0 0 0 0;
#X obj 636 570 loadbang;
#X obj 868 293 r~ \$0-FMT;
#X obj 868 314 vtof;
#X obj 882 334 r \$0-Comp;
#X obj 896 354 r \$0-Hip;
#X obj 910 374 r \$0-Lop;
#X obj 924 395 r~ \$0-DelT;
#X obj 924 415 vtof;
#X obj 939 435 r~ \$0-DelQ;
#X obj 939 454 vtof;
#X obj 953 474 r \$0-Damp;
#X obj 967 496 r \$0-Romm;
#X obj 981 517 r \$0-DW;
#X obj 604 664 list;
#X obj 604 685 outlet;
#X obj 995 560 vtof;
#X obj 995 539 r~ \$0-Vol;
#X obj 1010 598 vtof;
#X obj 1010 579 r~ \$0-Bal;
#X obj -26 435 clip~ -1 1;
#X obj 172 234 > 0.5;
#X obj 243 234 > 0.5;
#X obj 296 234 > 0.5;
#X obj 438 234 > 0.5;
#X obj 355 234 > 0.5;
#X obj -117 49 i;
#X obj -147 384 vtof;
#X floatatom -147 405 5 0 0 0 - - -;
#X obj -117 69 change;
#X obj 399 232 > 0.5;
#X floatatom -156 27 5 0 0 0 - - -;
#X msg 151 115 45;
#X connect 1 0 15 0;
#X connect 2 0 1 1;
#X connect 3 0 2 0;
#X connect 4 0 5 0;
#X connect 5 0 3 1;
#X connect 5 0 15 1;
#X connect 6 0 3 0;
#X connect 7 0 1 0;
#X connect 7 0 6 0;
#X connect 8 0 3 2;
#X connect 9 0 15 2;
#X connect 10 0 59 0;
#X connect 11 0 12 0;
#X connect 12 0 31 0;
#X connect 13 0 11 0;
#X connect 14 0 58 0;
#X connect 15 0 13 0;
#X connect 16 0 149 0;
#X connect 19 0 60 0;
#X connect 21 0 61 0;
#X connect 23 0 62 0;
#X connect 25 0 63 0;
#X connect 27 0 64 0;
#X connect 29 0 65 0;
#X connect 31 0 143 0;
#X connect 32 0 31 1;
#X connect 32 0 150 0;
#X connect 33 0 35 0;
#X connect 33 0 35 1;
#X connect 33 0 97 0;
#X connect 34 0 33 1;
#X connect 35 0 36 0;
#X connect 35 1 37 0;
#X connect 36 0 38 0;
#X connect 37 0 38 1;
#X connect 38 0 39 0;
#X connect 38 1 40 0;
#X connect 41 0 66 0;
#X connect 44 0 68 0;
#X connect 46 0 69 0;
#X connect 48 0 70 0;
#X connect 50 0 71 0;
#X connect 52 0 72 0;
#X connect 54 0 37 1;
#X connect 54 0 36 1;
#X connect 55 0 67 0;
#X connect 56 0 34 1;
#X connect 73 0 38 2;
#X connect 74 0 112 0;
#X connect 74 0 111 0;
#X connect 75 0 9 1;
#X connect 76 0 105 0;
#X connect 77 0 6 1;
#X connect 78 0 2 1;
#X connect 79 0 8 0;
#X connect 80 0 13 1;
#X connect 81 0 11 1;
#X connect 82 0 12 1;
#X connect 83 0 96 0;
#X connect 84 0 56 0;
#X connect 85 0 35 2;
#X connect 86 0 35 3;
#X connect 87 0 35 4;
#X connect 88 0 54 0;
#X connect 89 0 73 0;
#X connect 90 0 91 0;
#X connect 92 0 32 1;
#X connect 92 1 32 2;
#X connect 92 2 144 0;
#X connect 92 3 32 4;
#X connect 92 4 32 5;
#X connect 92 5 145 0;
#X connect 92 6 32 7;
#X connect 92 7 146 0;
#X connect 92 8 32 9;
#X connect 92 9 148 0;
#X connect 92 10 153 0;
#X connect 92 11 147 0;
#X connect 93 0 92 0;
#X connect 94 0 35 4;
#X connect 95 0 94 0;
#X connect 96 0 34 0;
#X connect 98 0 12 1;
#X connect 99 0 98 0;
#X connect 100 0 101 0;
#X connect 101 0 116 0;
#X connect 102 0 116 1;
#X connect 103 0 102 0;
#X connect 104 0 7 0;
#X connect 105 0 107 0;
#X connect 106 0 107 1;
#X connect 107 0 104 0;
#X connect 108 0 110 0;
#X connect 111 0 32 0;
#X connect 112 0 111 1;
#X connect 113 0 122 0;
#X connect 114 0 122 1;
#X connect 115 0 137 1;
#X connect 116 0 115 0;
#X connect 116 1 115 1;
#X connect 116 2 115 2;
#X connect 116 3 115 3;
#X connect 116 4 115 4;
#X connect 116 5 115 5;
#X connect 116 6 115 6;
#X connect 116 7 115 7;
#X connect 116 8 115 8;
#X connect 116 9 115 9;
#X connect 116 10 115 10;
#X connect 116 11 115 11;
#X connect 116 12 115 12;
#X connect 116 13 115 13;
#X connect 116 14 115 14;
#X connect 116 15 115 15;
#X connect 117 0 116 2;
#X connect 118 0 119 0;
#X connect 119 0 116 3;
#X connect 120 0 121 0;
#X connect 121 0 116 4;
#X connect 122 0 137 0;
#X connect 123 0 122 1;
#X connect 124 0 123 0;
#X connect 125 0 126 0;
#X connect 126 0 116 5;
#X connect 127 0 116 6;
#X connect 128 0 116 7;
#X connect 129 0 116 8;
#X connect 130 0 131 0;
#X connect 131 0 116 9;
#X connect 132 0 133 0;
#X connect 133 0 116 10;
#X connect 134 0 116 11;
#X connect 135 0 116 12;
#X connect 136 0 116 13;
#X connect 137 0 138 0;
#X connect 139 0 116 14;
#X connect 140 0 139 0;
#X connect 141 0 116 15;
#X connect 142 0 141 0;
#X connect 143 0 33 0;
#X connect 144 0 32 3;
#X connect 145 0 32 6;
#X connect 146 0 32 8;
#X connect 147 0 32 12;
#X connect 148 0 32 10;
#X connect 149 0 152 0;
#X connect 150 0 151 0;
#X connect 152 0 57 0;
#X connect 153 0 32 11;
#X connect 154 0 149 0;
#X connect 155 0 32 0;
