#N canvas 440 27 1086 743 10;
#X obj 101 103 cnv 15 350 154 empty empty empty 20 12 0 14 -191407
-262144 0;
#X obj 110 118 cnv 15 280 70 empty empty empty 20 12 0 14 -262144 -66577
0;
#N canvas 0 22 450 278 (subpatch) 0;
#X array \$0-Envolvente 5 float 1;
#A 0 0 1 1 1 0;
#X coords 0 1 4 0 280 70 1 0 0;
#X restore 110 118 graph;
#X text 102 212 A;
#X text 101 234 T;
#N canvas 440 256 696 164 tabread 0;
#X obj 3 19 metro 5;
#X obj 3 2 tgl 15 0 empty empty empty 17 7 0 10 -262144 -1 -1 1 1;
#X msg 3 39 0;
#X floatatom 3 79 5 0 0 0 - - -;
#X obj 3 59 tabread \$0-Envolvente;
#X obj 3 98 change;
#X msg 3 117 0;
#X obj 3 137 tabwrite \$0-Envolvente;
#X obj 137 59 tabread \$0-Envolvente;
#X msg 137 39 1;
#X floatatom 137 79 5 0 0 0 - - -;
#X obj 137 98 outlet;
#X obj 270 59 tabread \$0-Envolvente;
#X floatatom 270 79 5 0 0 0 - - -;
#X obj 270 98 outlet;
#X msg 270 39 2;
#X obj 403 59 tabread \$0-Envolvente;
#X floatatom 403 79 5 0 0 0 - - -;
#X obj 403 98 outlet;
#X msg 403 39 3;
#X msg 536 39 4;
#X floatatom 536 79 5 0 0 0 - - -;
#X obj 536 59 tabread \$0-Envolvente;
#X obj 536 98 change;
#X obj 536 137 tabwrite \$0-Envolvente;
#X msg 536 118 0;
#X msg 665 118 4;
#X obj 69 2 loadbang;
#X connect 0 0 2 0;
#X connect 0 0 9 0;
#X connect 0 0 15 0;
#X connect 0 0 19 0;
#X connect 0 0 20 0;
#X connect 1 0 0 0;
#X connect 2 0 4 0;
#X connect 3 0 5 0;
#X connect 4 0 3 0;
#X connect 5 0 6 0;
#X connect 6 0 7 1;
#X connect 6 0 7 0;
#X connect 8 0 10 0;
#X connect 9 0 8 0;
#X connect 10 0 11 0;
#X connect 12 0 13 0;
#X connect 13 0 14 0;
#X connect 15 0 12 0;
#X connect 16 0 17 0;
#X connect 17 0 18 0;
#X connect 19 0 16 0;
#X connect 20 0 22 0;
#X connect 21 0 23 0;
#X connect 22 0 21 0;
#X connect 23 0 25 0;
#X connect 23 0 26 0;
#X connect 25 0 24 0;
#X connect 26 0 24 1;
#X connect 27 0 1 0;
#X restore -34 41 pd tabread;
#X floatatom -34 61 5 0 0 0 - - -;
#X floatatom -6 80 5 0 0 0 - - -;
#X floatatom 23 101 5 0 0 0 - - -;
#X obj 110 195 cnv 15 67 60 empty empty empty 20 12 0 14 -204800 -66577
0;
#X text 113 193 A;
#X floatatom 114 212 5 0 0 0 - - -;
#X floatatom 114 234 5 0 0 0 - - -;
#X obj 114 -93 inlet;
#X obj 124 -71 inlet;
#X obj 181 195 cnv 15 67 60 empty empty empty 20 12 0 14 -261234 -66577
0;
#X floatatom 183 213 5 0 0 0 - - -;
#X text 183 194 D;
#X floatatom 183 233 5 0 0 0 - - -;
#X obj 183 -93 inlet;
#X obj 190 -70 inlet;
#X obj 251 195 cnv 15 67 60 empty empty empty 20 12 0 14 -261682 -66577
0;
#X text 251 194 S;
#X floatatom 252 233 5 0 0 0 - - -;
#X obj 252 73 inlet;
#X obj 133 -50 inlet;
#X floatatom 133 -28 5 0 0 0 - - -;
#X floatatom 133 11 5 0 0 0 - - -;
#X obj 133 -10 change;
#X obj 133 34 == 0;
#X obj 141 54 == 1;
#X obj 157 210 tgl 15 0 empty empty Lin 0 -6 0 10 -262144 -1 -1 1 1
;
#X obj 156 238 tgl 15 0 empty empty Log 0 -6 0 10 -262144 -1 -1 0 1
;
#X obj 158 267 sel 1;
#X obj 195 267 sel 1;
#X msg 158 287 0;
#X msg 195 287 1;
#X obj 199 -49 inlet;
#X floatatom 199 -27 5 0 0 0 - - -;
#X floatatom 199 12 5 0 0 0 - - -;
#X obj 199 -9 change;
#X obj 199 35 == 0;
#X obj 207 55 == 1;
#X obj 227 210 tgl 15 0 empty empty Lin 0 -6 0 10 -262144 -1 -1 1 1
;
#X obj 226 238 tgl 15 0 empty empty Log 0 -6 0 10 -262144 -1 -1 0 1
;
#X obj 228 267 sel 1;
#X obj 265 267 sel 1;
#X msg 228 287 0;
#X msg 265 287 1;
#X obj 322 195 cnv 15 67 60 empty empty empty 20 12 0 14 -204786 -66577
0;
#X text 324 193 R;
#X floatatom 325 231 5 0 0 0 - - -;
#X obj 325 -76 inlet;
#X obj 339 -49 inlet;
#X floatatom 339 -27 5 0 0 0 - - -;
#X floatatom 339 12 5 0 0 0 - - -;
#X obj 339 -9 change;
#X obj 339 35 == 0;
#X obj 347 55 == 1;
#X obj 367 210 tgl 15 0 empty empty Lin 0 -6 0 10 -262144 -1 -1 1 1
;
#X obj 366 238 tgl 15 0 empty empty Log 0 -6 0 10 -262144 -1 -1 0 1
;
#X obj 368 267 sel 1;
#X obj 405 267 sel 1;
#X msg 368 287 0;
#X msg 405 287 1;
#X msg 269 -8 0;
#X obj 269 -30 loadbang;
#X obj 295 236 tgl 15 0 empty empty empty 17 7 0 10 -262144 -1 -1 0
1;
#X text 269 214 Note Off;
#N canvas 1194 394 295 244 tabwrite 0;
#N canvas 1216 533 450 300 staticVal 0;
#X obj 26 24 inlet;
#X obj 71 23 inlet;
#X msg 26 48 set \$1;
#X msg 26 90 1;
#X obj 26 112 outlet;
#X obj 35 70 bng 15 250 50 0 empty empty empty 17 7 0 10 -262144 -1
-1;
#X obj 71 48 change;
#X connect 0 0 2 0;
#X connect 1 0 6 0;
#X connect 2 0 3 0;
#X connect 2 0 5 0;
#X connect 3 0 4 0;
#X connect 5 0 3 0;
#X connect 6 0 5 0;
#X restore -80 82 pd staticVal;
#X floatatom -80 58 5 0 0 0 - - -;
#X floatatom -11 59 5 0 0 0 - - -;
#X floatatom -80 104 5 0 0 0 - - -;
#X obj -50 168 tabwrite \$0-Envolvente;
#X msg 79 147 3;
#X obj -11 0 inlet;
#X obj -80 3 inlet;
#X obj -152 2 inlet;
#X obj 79 124 loadbang;
#X obj -80 147 tabwrite \$0-Envolvente;
#X msg 49 127 2;
#X obj -152 216 tabwrite \$0-Envolvente;
#X msg -23 196 1;
#X connect 0 0 3 0;
#X connect 1 0 0 0;
#X connect 2 0 0 1;
#X connect 3 0 2 0;
#X connect 3 0 4 0;
#X connect 3 0 10 0;
#X connect 5 0 4 1;
#X connect 6 0 2 0;
#X connect 7 0 1 0;
#X connect 8 0 12 0;
#X connect 9 0 5 0;
#X connect 9 0 11 0;
#X connect 9 0 13 0;
#X connect 11 0 10 1;
#X connect 13 0 12 1;
#X restore 5 163 pd tabwrite;
#X obj -34 102 change;
#X obj -6 128 change;
#X obj 42 236 clip 0 1;
#X obj 42 216 change;
#X obj 80 299 clip 0 1;
#X obj 80 279 change;
#X obj 101 103 cnv 15 350 13 empty empty T_|Attack_ATC_|_Decay__ATC_|Sus_TT_|Rel_TC_|_V_|_R
2 8 0 12 -99865 -262144 0;
#X obj 38 13 loadbang;
#X obj 49 342 inlet;
#X obj 295 73 inlet;
#X obj 396 121 cnv 15 50 65 empty empty empty 20 16 0 14 -233017 -66577
0;
#X obj 400 130 tgl 15 0 empty empty Vel 17 7 1 15 -262144 -1 -1 0 1
;
#X obj 400 162 tgl 15 0 empty empty Rev 17 7 1 15 -262144 -1 -1 0 1
;
#X obj 400 -68 inlet;
#X obj 410 -41 inlet;
#X msg 53 51 1;
#X msg 69 73 0.3;
#N canvas 714 84 561 470 NormalEnvelope 0;
#X msg 37 70 0;
#X obj 37 50 loadbang;
#X obj 12 3 inlet;
#X obj 24 28 inlet;
#X obj 49 91 inlet;
#X obj 62 113 inlet;
#X obj 12 158 bng 15 250 50 0 empty empty empty 17 7 0 10 -262144 -1
-1;
#N canvas 74 87 600 469 curveGen 0;
#X obj 12 6 inlet;
#X text 49 5 Trigger;
#X obj 233 5 inlet;
#X text 270 4 Time;
#X obj 305 5 inlet;
#X text 343 5 Curve Type;
#X obj 305 54 tgl 15 0 empty empty empty 17 7 0 10 -262144 -1 -1 1
1;
#X obj 324 54 tgl 15 0 empty empty empty 17 7 0 10 -262144 -1 -1 0
1;
#X obj 324 32 != 1;
#X obj 233 27 f;
#X floatatom 233 47 5 0 0 0 - - -;
#X obj 166 5 inlet;
#X floatatom 166 27 5 0 0 0 - - -;
#X obj 98 5 inlet;
#X floatatom 98 27 5 0 0 0 - - -;
#X obj 98 49 -;
#X text 205 5 Amp2;
#X text 138 5 Amp1;
#X obj 166 46 bng 15 250 50 0 empty empty empty 17 7 0 10 -262144 -1
-1;
#X obj 233 69 pack f f;
#X msg 233 110 20 20;
#X msg 233 90 set \$1 \$2;
#X obj 233 131 line~;
#X obj 233 152 /~;
#X obj 233 202 *~;
#X obj 12 33 bng 15 250 50 0 empty empty empty 17 7 0 10 -262144 -1
-1;
#X obj 233 223 spigot~;
#X obj 233 314 outlet~;
#X obj 284 171 -~;
#X obj 284 211 exp~;
#X obj 323 274 *~;
#X obj 323 297 spigot~;
#X obj 299 149 /;
#X obj 284 129 /~;
#X obj 141 177 del;
#X obj 141 204 outlet;
#X msg 414 31 1;
#X obj 414 10 loadbang;
#X msg 52 92 set \$1;
#X msg 52 112 1;
#X obj 486 13 inlet;
#X msg 486 33 0;
#X obj 323 213 > 0;
#X obj 415 225 < 0;
#X obj 323 232 tgl 15 0 empty empty empty 17 7 0 10 -262144 -1 -1 0
1;
#X obj 415 244 tgl 15 0 empty empty empty 17 7 0 10 -262144 -1 -1 0
1;
#X obj 101 75 f;
#X obj 284 252 spigot~;
#X obj 376 261 spigot~;
#X obj 376 168 exp~;
#X obj 376 195 expr~ (1-$v1);
#X obj 376 148 *~ -10;
#X obj 284 191 *~ 10;
#X msg 492 54 stop;
#X connect 0 0 25 0;
#X connect 2 0 9 1;
#X connect 4 0 6 0;
#X connect 4 0 8 0;
#X connect 6 0 31 1;
#X connect 7 0 26 1;
#X connect 8 0 7 0;
#X connect 9 0 10 0;
#X connect 10 0 19 1;
#X connect 10 0 19 0;
#X connect 10 0 23 1;
#X connect 10 0 32 1;
#X connect 10 0 32 0;
#X connect 10 0 33 1;
#X connect 10 0 34 1;
#X connect 11 0 12 0;
#X connect 12 0 15 1;
#X connect 12 0 18 0;
#X connect 12 0 38 0;
#X connect 13 0 14 0;
#X connect 14 0 15 0;
#X connect 15 0 42 0;
#X connect 15 0 43 0;
#X connect 15 0 46 1;
#X connect 18 0 15 0;
#X connect 19 0 21 0;
#X connect 20 0 22 0;
#X connect 21 0 20 0;
#X connect 22 0 23 0;
#X connect 22 0 33 0;
#X connect 23 0 24 0;
#X connect 24 0 26 0;
#X connect 25 0 9 0;
#X connect 25 0 46 0;
#X connect 25 0 39 0;
#X connect 25 0 20 0;
#X connect 25 0 34 0;
#X connect 26 0 27 0;
#X connect 28 0 52 0;
#X connect 29 0 47 0;
#X connect 30 0 31 0;
#X connect 31 0 27 0;
#X connect 32 0 28 1;
#X connect 33 0 28 0;
#X connect 33 0 51 0;
#X connect 34 0 35 0;
#X connect 36 0 8 0;
#X connect 36 0 6 0;
#X connect 37 0 36 0;
#X connect 38 0 39 0;
#X connect 39 0 22 0;
#X connect 40 0 41 0;
#X connect 40 0 53 0;
#X connect 41 0 22 0;
#X connect 42 0 44 0;
#X connect 43 0 45 0;
#X connect 44 0 47 1;
#X connect 45 0 48 1;
#X connect 46 0 24 1;
#X connect 46 0 30 1;
#X connect 47 1 30 0;
#X connect 48 1 30 0;
#X connect 49 0 50 0;
#X connect 50 0 48 0;
#X connect 51 0 49 0;
#X connect 52 0 29 0;
#X connect 53 0 34 0;
#X restore 112 147 pd curveGen;
#X obj 124 38 inlet;
#X obj 149 101 inlet;
#X obj 162 123 inlet;
#X obj 112 168 bng 15 250 50 0 empty empty empty 17 7 0 10 -262144
-1 -1;
#N canvas 129 126 600 469 curveGen 0;
#X obj 12 6 inlet;
#X text 49 5 Trigger;
#X obj 233 5 inlet;
#X text 270 4 Time;
#X obj 305 5 inlet;
#X text 343 5 Curve Type;
#X obj 305 54 tgl 15 0 empty empty empty 17 7 0 10 -262144 -1 -1 1
1;
#X obj 324 54 tgl 15 0 empty empty empty 17 7 0 10 -262144 -1 -1 0
1;
#X obj 324 32 != 1;
#X obj 233 27 f;
#X floatatom 233 47 5 0 0 0 - - -;
#X obj 166 5 inlet;
#X floatatom 166 47 5 0 0 0 - - -;
#X obj 98 5 inlet;
#X floatatom 98 47 5 0 0 0 - - -;
#X obj 98 69 -;
#X floatatom 98 119 5 0 0 0 - - -;
#X text 205 5 Amp2;
#X text 138 5 Amp1;
#X obj 166 66 bng 15 250 50 0 empty empty empty 17 7 0 10 -262144 -1
-1;
#X obj 233 69 pack f f;
#X msg 233 110 600 600;
#X msg 233 90 set \$1 \$2;
#X obj 233 131 line~;
#X obj 342 131 line;
#X floatatom 342 151 5 0 0 0 - - -;
#X obj 342 171 /;
#X floatatom 342 191 5 0 0 0 - - -;
#X obj 233 152 /~;
#X obj 233 202 *~;
#X obj 342 210 *;
#X floatatom 342 230 5 0 0 0 - - -;
#X obj 342 250 spigot;
#X floatatom 342 270 5 0 0 0 - - -;
#X obj 12 33 bng 15 250 50 0 empty empty empty 17 7 0 10 -262144 -1
-1;
#X obj 391 182 -;
#X floatatom 391 233 5 0 0 0 - - -;
#X obj 391 252 exp;
#X floatatom 391 272 15 0 0 0 - - -;
#X obj 391 290 *;
#X obj 391 310 spigot;
#X obj 342 293 outlet;
#X obj 233 223 spigot~;
#X obj 233 304 outlet~;
#X obj 284 171 -~;
#X obj 284 211 exp~;
#X obj 284 231 *~;
#X obj 284 252 spigot~;
#X obj 406 159 /;
#X obj 391 138 /;
#X obj 299 149 /;
#X obj 273 132 /~;
#X obj 141 177 del;
#X obj 141 204 outlet;
#X msg 414 31 1;
#X obj 414 10 loadbang;
#X msg 52 122 set \$1;
#X msg 52 142 0;
#X obj 284 191 *~ 10;
#X obj 391 206 * 10;
#X obj 166 26 f;
#X obj 233 281 +~;
#X obj 98 25 f;
#X msg 502 64 stop;
#X connect 0 0 63 0;
#X connect 0 0 34 0;
#X connect 2 0 9 1;
#X connect 4 0 6 0;
#X connect 4 0 8 0;
#X connect 6 0 32 1;
#X connect 6 0 47 1;
#X connect 7 0 40 1;
#X connect 7 0 42 1;
#X connect 8 0 7 0;
#X connect 9 0 10 0;
#X connect 10 0 20 1;
#X connect 10 0 20 0;
#X connect 10 0 26 1;
#X connect 10 0 28 1;
#X connect 10 0 48 1;
#X connect 10 0 48 0;
#X connect 10 0 49 1;
#X connect 10 0 50 1;
#X connect 10 0 50 0;
#X connect 10 0 51 1;
#X connect 10 0 52 1;
#X connect 11 0 60 1;
#X connect 12 0 15 1;
#X connect 12 0 19 0;
#X connect 12 0 56 0;
#X connect 12 0 61 1;
#X connect 13 0 62 1;
#X connect 14 0 15 0;
#X connect 15 0 16 0;
#X connect 16 0 30 1;
#X connect 16 0 39 1;
#X connect 16 0 46 1;
#X connect 16 0 29 1;
#X connect 19 0 15 0;
#X connect 20 0 22 0;
#X connect 21 0 23 0;
#X connect 21 0 24 0;
#X connect 22 0 21 0;
#X connect 23 0 28 0;
#X connect 23 0 51 0;
#X connect 24 0 25 0;
#X connect 25 0 26 0;
#X connect 25 0 49 0;
#X connect 26 0 27 0;
#X connect 27 0 30 0;
#X connect 28 0 29 0;
#X connect 29 0 42 0;
#X connect 30 0 31 0;
#X connect 31 0 32 0;
#X connect 32 0 33 0;
#X connect 33 0 41 0;
#X connect 34 0 62 0;
#X connect 34 0 60 0;
#X connect 34 0 9 0;
#X connect 34 0 57 0;
#X connect 34 0 21 0;
#X connect 34 0 52 0;
#X connect 35 0 59 0;
#X connect 36 0 37 0;
#X connect 37 0 38 0;
#X connect 38 0 39 0;
#X connect 39 0 40 0;
#X connect 40 0 33 0;
#X connect 42 0 61 0;
#X connect 44 0 58 0;
#X connect 45 0 46 0;
#X connect 46 0 47 0;
#X connect 47 0 61 0;
#X connect 48 0 35 1;
#X connect 49 0 35 0;
#X connect 50 0 44 1;
#X connect 51 0 44 0;
#X connect 52 0 53 0;
#X connect 54 0 8 0;
#X connect 54 0 6 0;
#X connect 55 0 54 0;
#X connect 56 0 57 0;
#X connect 57 0 24 0;
#X connect 57 0 23 0;
#X connect 58 0 45 0;
#X connect 59 0 36 0;
#X connect 60 0 12 0;
#X connect 61 0 43 0;
#X connect 62 0 14 0;
#X connect 63 0 52 0;
#X restore 12 137 pd curveGen;
#X obj 69 221 +~;
#X text 182 6 BUG: si se presiona rapido \, hay click hacer que inicie
la envolvente en el valor que sonaba anteriormente;
#X obj 173 304 change;
#X obj 69 294 outlet~;
#X floatatom 173 283 15 0 0 0 - - -;
#X obj 173 261 vtof;
#X obj 221 144 del;
#X obj 236 106 inlet;
#X obj 221 165 bng 15 250 50 0 empty empty empty 17 7 0 10 -262144
-1 -1;
#N canvas 79 123 600 469 curveGen 0;
#X obj 12 6 inlet;
#X text 49 5 Trigger;
#X obj 233 5 inlet;
#X text 270 4 Time;
#X obj 305 5 inlet;
#X text 343 5 Curve Type;
#X obj 305 54 tgl 15 0 empty empty empty 17 7 0 10 -262144 -1 -1 1
1;
#X obj 324 54 tgl 15 0 empty empty empty 17 7 0 10 -262144 -1 -1 0
1;
#X obj 324 32 != 1;
#X obj 233 27 f;
#X floatatom 233 47 5 0 0 0 - - -;
#X obj 166 5 inlet;
#X floatatom 166 27 5 0 0 0 - - -;
#X obj 98 5 inlet;
#X floatatom 98 27 5 0 0 0 - - -;
#X obj 98 49 -;
#X text 205 5 Amp2;
#X text 138 5 Amp1;
#X obj 166 46 bng 15 250 50 0 empty empty empty 17 7 0 10 -262144 -1
-1;
#X obj 233 69 pack f f;
#X msg 233 110 800 800;
#X msg 233 90 set \$1 \$2;
#X obj 233 131 line~;
#X obj 233 152 /~;
#X obj 233 202 *~;
#X obj 12 33 bng 15 250 50 0 empty empty empty 17 7 0 10 -262144 -1
-1;
#X obj 233 223 spigot~;
#X obj 233 314 outlet~;
#X obj 284 171 -~;
#X obj 284 211 exp~;
#X obj 323 274 *~;
#X obj 323 297 spigot~;
#X obj 299 149 /;
#X obj 284 129 /~;
#X obj 141 177 del;
#X obj 141 204 outlet;
#X msg 414 31 1;
#X obj 414 10 loadbang;
#X msg 52 92 set \$1;
#X msg 52 112 1;
#X obj 486 13 inlet;
#X msg 486 43 0;
#X obj 323 213 > 0;
#X obj 415 225 < 0;
#X obj 323 232 tgl 15 0 empty empty empty 17 7 0 10 -262144 -1 -1 0
1;
#X obj 415 244 tgl 15 0 empty empty empty 17 7 0 10 -262144 -1 -1 1
1;
#X obj 101 75 f;
#X obj 284 252 spigot~;
#X obj 376 261 spigot~;
#X obj 376 168 exp~;
#X obj 376 195 expr~ (1-$v1);
#X obj 376 148 *~ -10;
#X obj 284 191 *~ 10;
#X msg 502 64 stop;
#X obj 532 35 bng 15 250 50 0 empty empty empty 17 7 0 10 -262144 -1
-1;
#X connect 0 0 25 0;
#X connect 2 0 9 1;
#X connect 4 0 6 0;
#X connect 4 0 8 0;
#X connect 6 0 31 1;
#X connect 7 0 26 1;
#X connect 8 0 7 0;
#X connect 9 0 10 0;
#X connect 10 0 19 1;
#X connect 10 0 19 0;
#X connect 10 0 23 1;
#X connect 10 0 32 1;
#X connect 10 0 32 0;
#X connect 10 0 33 1;
#X connect 10 0 34 1;
#X connect 11 0 12 0;
#X connect 12 0 15 1;
#X connect 12 0 18 0;
#X connect 12 0 38 0;
#X connect 13 0 14 0;
#X connect 14 0 15 0;
#X connect 15 0 42 0;
#X connect 15 0 43 0;
#X connect 15 0 46 1;
#X connect 18 0 15 0;
#X connect 19 0 21 0;
#X connect 20 0 22 0;
#X connect 21 0 20 0;
#X connect 22 0 23 0;
#X connect 22 0 33 0;
#X connect 23 0 24 0;
#X connect 24 0 26 0;
#X connect 25 0 9 0;
#X connect 25 0 46 0;
#X connect 25 0 39 0;
#X connect 25 0 20 0;
#X connect 25 0 34 0;
#X connect 26 0 27 0;
#X connect 28 0 52 0;
#X connect 29 0 47 0;
#X connect 30 0 31 0;
#X connect 31 0 27 0;
#X connect 32 0 28 1;
#X connect 33 0 28 0;
#X connect 33 0 51 0;
#X connect 34 0 35 0;
#X connect 36 0 8 0;
#X connect 36 0 6 0;
#X connect 37 0 36 0;
#X connect 38 0 39 0;
#X connect 39 0 22 0;
#X connect 40 0 53 0;
#X connect 40 0 41 0;
#X connect 40 0 54 0;
#X connect 41 0 22 0;
#X connect 42 0 44 0;
#X connect 43 0 45 0;
#X connect 44 0 47 1;
#X connect 45 0 48 1;
#X connect 46 0 24 1;
#X connect 46 0 30 1;
#X connect 47 1 30 0;
#X connect 48 1 30 0;
#X connect 49 0 50 0;
#X connect 50 0 48 0;
#X connect 51 0 49 0;
#X connect 52 0 29 0;
#X connect 53 0 34 0;
#X restore 260 158 pd curveGen;
#X msg 272 131 0;
#X obj 272 74 loadbang;
#X obj 297 97 inlet;
#X obj 310 118 inlet;
#X obj 69 249 +~;
#X obj 270 201 bng 15 250 50 0 empty empty empty 17 7 0 10 -262144
-1 -1;
#X msg 200 72 stop;
#X obj 473 88 inlet;
#X obj 440 130 spigot;
#X obj 473 108 != 1;
#X obj 390 130 spigot;
#X obj 386 84 inlet;
#X obj 79 22 bng 15 250 50 0 empty empty empty 17 7 0 10 -262144 -1
-1;
#X connect 0 0 12 2;
#X connect 1 0 0 0;
#X connect 2 0 12 0;
#X connect 2 0 29 0;
#X connect 2 0 22 5;
#X connect 2 0 7 5;
#X connect 2 0 35 0;
#X connect 3 0 12 1;
#X connect 3 0 7 2;
#X connect 4 0 12 3;
#X connect 5 0 12 4;
#X connect 6 0 7 0;
#X connect 7 0 11 0;
#X connect 7 1 13 1;
#X connect 8 0 7 1;
#X connect 8 0 22 2;
#X connect 9 0 7 3;
#X connect 10 0 7 4;
#X connect 11 0 31 0;
#X connect 12 0 6 0;
#X connect 12 1 13 0;
#X connect 13 0 27 0;
#X connect 15 0 12 2;
#X connect 17 0 15 0;
#X connect 18 0 17 0;
#X connect 19 0 21 0;
#X connect 20 0 19 1;
#X connect 21 0 22 0;
#X connect 22 0 28 0;
#X connect 22 1 27 1;
#X connect 23 0 22 1;
#X connect 24 0 23 0;
#X connect 25 0 22 3;
#X connect 26 0 22 4;
#X connect 27 0 16 0;
#X connect 27 0 18 0;
#X connect 29 0 19 0;
#X connect 30 0 32 0;
#X connect 30 0 33 1;
#X connect 31 0 19 0;
#X connect 32 0 31 1;
#X connect 33 0 21 0;
#X connect 34 0 33 0;
#X restore 49 502 pd NormalEnvelope;
#X obj 49 526 outlet~;
#X obj 49 362 > 0;
#X obj 49 384 sel 1;
#X text -32 358 Trigger bang;
#X obj 82 361 / 127;
#X msg 302 303 1;
#X obj 302 325 spigot;
#X floatatom 302 346 5 0 0 0 - - -;
#X obj 247 431 *;
#X obj 248 412 bng 15 250 50 0 empty empty empty 17 7 0 10 -262144
-1 -1;
#X floatatom 247 455 5 0 0 0 - - -;
#X obj 302 366 > 0;
#X obj 269 385 spigot;
#X floatatom 269 406 5 0 0 0 - - -;
#X obj 302 281 sel 0;
#X obj 277 451 *;
#X obj 278 432 bng 15 250 50 0 empty empty empty 17 7 0 10 -262144
-1 -1;
#X floatatom 277 475 5 0 0 0 - - -;
#X obj 471 167 bng 15 250 50 0 empty empty empty 17 7 0 10 -262144
-1 -1;
#X obj 157 566 vtof;
#X floatatom 162 591 5 0 0 0 - - -;
#X connect 5 0 6 0;
#X connect 5 1 7 0;
#X connect 5 2 8 0;
#X connect 6 0 70 0;
#X connect 7 0 71 0;
#X connect 8 0 69 2;
#X connect 11 0 69 0;
#X connect 11 0 73 0;
#X connect 11 0 96 0;
#X connect 12 0 87 2;
#X connect 13 0 11 0;
#X connect 14 0 12 0;
#X connect 16 0 69 1;
#X connect 16 0 75 0;
#X connect 16 0 103 0;
#X connect 18 0 87 5;
#X connect 19 0 16 0;
#X connect 20 0 18 0;
#X connect 23 0 87 7;
#X connect 24 0 23 0;
#X connect 25 0 26 0;
#X connect 26 0 28 0;
#X connect 27 0 29 0;
#X connect 27 0 30 0;
#X connect 28 0 27 0;
#X connect 29 0 31 0;
#X connect 30 0 32 0;
#X connect 31 0 33 0;
#X connect 31 0 87 3;
#X connect 32 0 34 0;
#X connect 33 0 35 0;
#X connect 34 0 36 0;
#X connect 35 0 28 0;
#X connect 36 0 28 0;
#X connect 37 0 38 0;
#X connect 38 0 40 0;
#X connect 39 0 41 0;
#X connect 39 0 42 0;
#X connect 40 0 39 0;
#X connect 41 0 43 0;
#X connect 42 0 44 0;
#X connect 43 0 45 0;
#X connect 43 0 87 6;
#X connect 44 0 46 0;
#X connect 45 0 47 0;
#X connect 46 0 48 0;
#X connect 47 0 40 0;
#X connect 48 0 40 0;
#X connect 51 0 87 8;
#X connect 52 0 51 0;
#X connect 53 0 54 0;
#X connect 54 0 56 0;
#X connect 55 0 57 0;
#X connect 55 0 58 0;
#X connect 56 0 55 0;
#X connect 57 0 59 0;
#X connect 58 0 60 0;
#X connect 59 0 61 0;
#X connect 59 0 87 9;
#X connect 60 0 62 0;
#X connect 61 0 63 0;
#X connect 62 0 64 0;
#X connect 63 0 56 0;
#X connect 64 0 56 0;
#X connect 65 0 27 0;
#X connect 65 0 39 0;
#X connect 65 0 55 0;
#X connect 65 0 67 0;
#X connect 65 0 81 0;
#X connect 65 0 82 0;
#X connect 66 0 65 0;
#X connect 67 0 87 11;
#X connect 70 0 72 0;
#X connect 71 0 74 0;
#X connect 72 0 11 0;
#X connect 73 0 72 0;
#X connect 74 0 16 0;
#X connect 75 0 74 0;
#X connect 77 0 85 0;
#X connect 77 0 86 0;
#X connect 78 0 89 0;
#X connect 78 0 92 0;
#X connect 79 0 67 0;
#X connect 81 0 94 1;
#X connect 81 0 102 0;
#X connect 81 0 106 0;
#X connect 83 0 81 0;
#X connect 84 0 82 0;
#X connect 85 0 6 0;
#X connect 86 0 7 0;
#X connect 87 0 88 0;
#X connect 87 0 107 0;
#X connect 89 0 90 0;
#X connect 90 0 87 0;
#X connect 90 1 87 10;
#X connect 92 0 94 0;
#X connect 93 0 96 1;
#X connect 93 0 97 0;
#X connect 93 0 103 1;
#X connect 93 0 104 0;
#X connect 94 0 95 0;
#X connect 95 0 99 0;
#X connect 95 0 100 0;
#X connect 96 0 98 0;
#X connect 97 0 96 0;
#X connect 98 0 87 1;
#X connect 99 0 100 1;
#X connect 100 0 101 0;
#X connect 101 0 96 1;
#X connect 101 0 97 0;
#X connect 101 0 103 1;
#X connect 101 0 104 0;
#X connect 102 0 93 0;
#X connect 103 0 105 0;
#X connect 104 0 103 0;
#X connect 105 0 87 4;
#X connect 106 0 16 0;
#X connect 106 0 11 0;
#X connect 107 0 108 0;
#X coords 0 -1 1 1 352 160 1 100 100;
