#N canvas 145 52 1086 743 10;
#X obj 101 103 cnv 15 350 154 empty empty empty 20 12 0 14 -191407
-262144 0;
#X obj 110 118 cnv 15 280 70 empty empty empty 20 12 0 14 -262144 -66577
0;
#N canvas 0 22 450 278 (subpatch) 0;
#X array \$0-Envolvente 5 float 1;
#A 0 0 1 0.4 0.4 0;
#X coords 0 1 4 0 280 70 1 0 0;
#X restore 110 118 graph;
#X text 102 212 A;
#X text 101 234 T;
#N canvas 440 256 696 164 tabread 0;
#X obj 3 19 metro 5;
#X obj 3 2 tgl 15 0 empty empty empty 17 7 0 10 -262144 -1 -1 1 1;
#X msg 3 39 0;
#X floatatom 3 79 5 0 0 0 - - -;
#X obj 3 59 tabread \$0-Envolvente;
#X obj 3 98 change;
#X msg 3 117 0;
#X obj 3 137 tabwrite \$0-Envolvente;
#X obj 137 59 tabread \$0-Envolvente;
#X msg 137 39 1;
#X floatatom 137 79 5 0 0 0 - - -;
#X obj 137 98 outlet;
#X obj 270 59 tabread \$0-Envolvente;
#X floatatom 270 79 5 0 0 0 - - -;
#X obj 270 98 outlet;
#X msg 270 39 2;
#X obj 403 59 tabread \$0-Envolvente;
#X floatatom 403 79 5 0 0 0 - - -;
#X obj 403 98 outlet;
#X msg 403 39 3;
#X msg 536 39 4;
#X floatatom 536 79 5 0 0 0 - - -;
#X obj 536 59 tabread \$0-Envolvente;
#X obj 536 98 change;
#X obj 536 137 tabwrite \$0-Envolvente;
#X msg 536 118 0;
#X msg 665 118 4;
#X obj 69 2 loadbang;
#X connect 0 0 2 0;
#X connect 0 0 9 0;
#X connect 0 0 15 0;
#X connect 0 0 19 0;
#X connect 0 0 20 0;
#X connect 1 0 0 0;
#X connect 2 0 4 0;
#X connect 3 0 5 0;
#X connect 4 0 3 0;
#X connect 5 0 6 0;
#X connect 6 0 7 1;
#X connect 6 0 7 0;
#X connect 8 0 10 0;
#X connect 9 0 8 0;
#X connect 10 0 11 0;
#X connect 12 0 13 0;
#X connect 13 0 14 0;
#X connect 15 0 12 0;
#X connect 16 0 17 0;
#X connect 17 0 18 0;
#X connect 19 0 16 0;
#X connect 20 0 22 0;
#X connect 21 0 23 0;
#X connect 22 0 21 0;
#X connect 23 0 25 0;
#X connect 23 0 26 0;
#X connect 25 0 24 0;
#X connect 26 0 24 1;
#X connect 27 0 1 0;
#X restore -124 41 pd tabread;
#X floatatom -124 61 5 0 0 0 - - -;
#X floatatom -96 80 5 0 0 0 - - -;
#X floatatom -67 101 5 0 0 0 - - -;
#X obj 110 195 cnv 15 67 60 empty empty empty 20 12 0 14 -204800 -66577
0;
#X text 113 193 A;
#X floatatom 114 212 5 0 0 0 - - -;
#X floatatom 114 234 5 0 0 0 - - -;
#X obj 181 195 cnv 15 67 60 empty empty empty 20 12 0 14 -261234 -66577
0;
#X floatatom 183 213 5 0 0 0 - - -;
#X text 183 194 D;
#X floatatom 183 233 5 0 0 0 - - -;
#X obj 251 195 cnv 15 67 60 empty empty empty 20 12 0 14 -261682 -66577
0;
#X text 251 194 S;
#X floatatom 252 233 5 0 0 0 - - -;
#X obj 157 210 tgl 15 0 empty empty Lin 0 -6 0 10 -262144 -1 -1 1 1
;
#X obj 156 238 tgl 15 0 empty empty Log 0 -6 0 10 -262144 -1 -1 0 1
;
#X obj 158 427 sel 1;
#X obj 195 427 sel 1;
#X msg 158 447 0;
#X msg 195 447 1;
#X obj 227 210 tgl 15 0 empty empty Lin 0 -6 0 10 -262144 -1 -1 0 1
;
#X obj 226 238 tgl 15 0 empty empty Log 0 -6 0 10 -262144 -1 -1 0 1
;
#X obj 228 427 sel 1;
#X obj 265 427 sel 1;
#X msg 228 447 0;
#X msg 265 447 1;
#X obj 322 195 cnv 15 67 60 empty empty empty 20 12 0 14 -204786 -66577
0;
#X text 324 193 R;
#X floatatom 325 231 5 0 0 0 - - -;
#X obj 367 210 tgl 15 0 empty empty Lin 0 -6 0 10 -262144 -1 -1 0 1
;
#X obj 366 238 tgl 15 0 empty empty Log 0 -6 0 10 -262144 -1 -1 0 1
;
#X obj 368 427 sel 1;
#X obj 405 427 sel 1;
#X msg 368 447 0;
#X msg 405 447 1;
#X obj 295 236 tgl 15 0 empty empty empty 17 7 0 10 -262144 -1 -1 0
1;
#X text 269 214 Note Off;
#N canvas 1194 394 295 244 tabwrite 0;
#N canvas 1216 533 450 300 staticVal 0;
#X obj 26 24 inlet;
#X obj 71 23 inlet;
#X msg 26 48 set \$1;
#X msg 26 90 0.4;
#X obj 26 112 outlet;
#X obj 35 70 bng 15 250 50 0 empty empty empty 17 7 0 10 -262144 -1
-1;
#X obj 71 48 change;
#X connect 0 0 2 0;
#X connect 1 0 6 0;
#X connect 2 0 3 0;
#X connect 2 0 5 0;
#X connect 3 0 4 0;
#X connect 5 0 3 0;
#X connect 6 0 5 0;
#X restore -80 82 pd staticVal;
#X floatatom -80 58 5 0 0 0 - - -;
#X floatatom -11 59 5 0 0 0 - - -;
#X floatatom -80 104 5 0 0 0 - - -;
#X obj -50 168 tabwrite \$0-Envolvente;
#X msg 79 147 3;
#X obj -11 0 inlet;
#X obj -80 3 inlet;
#X obj -152 2 inlet;
#X obj 79 124 loadbang;
#X obj -80 147 tabwrite \$0-Envolvente;
#X msg 49 127 2;
#X obj -152 216 tabwrite \$0-Envolvente;
#X msg -23 196 1;
#X connect 0 0 3 0;
#X connect 1 0 0 0;
#X connect 2 0 0 1;
#X connect 3 0 2 0;
#X connect 3 0 4 0;
#X connect 3 0 10 0;
#X connect 5 0 4 1;
#X connect 6 0 2 0;
#X connect 7 0 1 0;
#X connect 8 0 12 0;
#X connect 9 0 5 0;
#X connect 9 0 11 0;
#X connect 9 0 13 0;
#X connect 11 0 10 1;
#X connect 13 0 12 1;
#X restore -135 163 pd tabwrite;
#X obj -124 102 change;
#X obj -96 128 change;
#X obj 26 -56 clip 0 1;
#X obj 26 -76 change;
#X obj 80 459 clip 0 1;
#X obj 80 439 change;
#X obj 101 103 cnv 15 350 13 empty empty T_|Attack_ATC_|_Decay__ATC_|Sus_TT_|Rel_TC_|_V_|_R
2 8 0 12 -99865 -262144 0;
#X obj 396 121 cnv 15 50 65 empty empty empty 20 16 0 14 -233017 -66577
0;
#X obj 400 130 tgl 15 0 empty empty Vel 17 7 1 15 -262144 -1 -1 0 1
;
#X obj 400 162 tgl 15 0 empty empty Rev 17 7 1 15 -262144 -1 -1 0 1
;
#N canvas 1016 103 614 627 NormalEnvelope 0;
#X obj 12 45 inlet;
#X obj 84 148 inlet;
#X obj 93 168 inlet;
#X obj 117 213 inlet;
#X obj 129 293 inlet;
#X obj 138 315 inlet;
#X obj 82 758 change;
#X obj 102 423 del;
#X obj 152 382 inlet;
#X obj 194 583 inlet;
#X obj 203 602 inlet;
#X msg 102 382 stop;
#X obj 380 345 inlet;
#X obj 342 406 spigot;
#X obj 375 386 != 1;
#X obj 332 386 spigot;
#X obj 347 345 inlet;
#X obj 365 365 f;
#X obj 332 366 f;
#X obj 138 622 f;
#X obj 129 603 f;
#X obj 117 403 f;
#X obj 93 335 f;
#X obj 84 313 f;
#X obj 102 233 f;
#X obj 48 188 f;
#X obj 39 168 f;
#X obj 75 293 -;
#X obj 75 253 bondo;
#X obj 12 679 +~;
#X obj 12 704 outlet~;
#X floatatom 82 738 15 0 0 0 - - -;
#X obj 82 716 vtof;
#X obj 12 268 curveGen;
#X obj 75 273 swap;
#X obj 66 213 loadbang;
#X msg 66 234 0;
#X obj 172 503 inlet;
#X obj 147 523 f;
#X obj 120 583 -;
#X obj 120 543 bondo;
#X obj 120 563 swap;
#X obj 111 503 loadbang;
#X msg 111 524 0;
#X obj 72 68 inlet;
#X obj 57 88 f;
#X obj 30 148 -;
#X obj 30 108 bondo;
#X obj 30 128 swap;
#X obj 21 68 loadbang;
#X msg 21 89 0;
#X obj 57 355 curveGen;
#X obj 102 642 curveGen;
#X connect 0 0 33 5;
#X connect 0 0 11 0;
#X connect 0 0 17 0;
#X connect 0 0 18 0;
#X connect 0 0 38 0;
#X connect 0 0 19 0;
#X connect 0 0 20 0;
#X connect 0 0 22 0;
#X connect 0 0 23 0;
#X connect 0 0 24 0;
#X connect 0 0 25 0;
#X connect 0 0 26 0;
#X connect 0 0 45 0;
#X connect 0 0 33 0;
#X connect 0 0 51 5;
#X connect 0 0 52 5;
#X connect 1 0 26 1;
#X connect 2 0 25 1;
#X connect 3 0 24 1;
#X connect 4 0 23 1;
#X connect 5 0 22 1;
#X connect 7 0 52 0;
#X connect 8 0 21 1;
#X connect 9 0 20 1;
#X connect 10 0 19 1;
#X connect 11 0 7 0;
#X connect 12 0 17 1;
#X connect 13 0 7 0;
#X connect 14 0 13 1;
#X connect 15 0 52 0;
#X connect 16 0 18 1;
#X connect 17 0 14 0;
#X connect 17 0 15 1;
#X connect 18 0 15 0;
#X connect 19 0 52 4;
#X connect 20 0 52 3;
#X connect 21 0 7 1;
#X connect 22 0 51 4;
#X connect 23 0 51 3;
#X connect 24 0 28 1;
#X connect 25 0 33 4;
#X connect 26 0 33 3;
#X connect 27 0 51 2;
#X connect 28 0 34 0;
#X connect 28 1 34 1;
#X connect 29 0 30 0;
#X connect 31 0 6 0;
#X connect 32 0 31 0;
#X connect 33 0 29 0;
#X connect 33 1 51 0;
#X connect 34 0 27 0;
#X connect 34 1 27 1;
#X connect 35 0 36 0;
#X connect 36 0 51 1;
#X connect 37 0 38 1;
#X connect 38 0 40 1;
#X connect 39 0 52 2;
#X connect 40 0 41 0;
#X connect 40 1 41 1;
#X connect 41 0 39 0;
#X connect 41 1 39 1;
#X connect 42 0 43 0;
#X connect 43 0 52 1;
#X connect 44 0 45 1;
#X connect 45 0 47 1;
#X connect 46 0 33 2;
#X connect 47 0 48 0;
#X connect 47 1 48 1;
#X connect 48 0 46 0;
#X connect 48 1 46 1;
#X connect 49 0 50 0;
#X connect 50 0 47 0;
#X connect 50 0 33 1;
#X connect 51 0 29 0;
#X connect 51 1 7 0;
#X connect 52 0 29 0;
#X restore 49 662 pd NormalEnvelope;
#X obj 49 686 outlet~;
#X obj 94 505 / 127;
#X msg 302 463 1;
#X obj 302 485 spigot;
#X floatatom 302 506 5 0 0 0 - - -;
#X obj 247 591 *;
#X obj 248 572 bng 15 250 50 0 empty empty empty 17 7 0 10 -262144
-1 -1;
#X floatatom 247 615 5 0 0 0 - - -;
#X obj 302 526 > 0;
#X obj 269 545 spigot;
#X floatatom 269 566 5 0 0 0 - - -;
#X obj 302 441 sel 0;
#X obj 277 611 *;
#X obj 278 592 bng 15 250 50 0 empty empty empty 17 7 0 10 -262144
-1 -1;
#X floatatom 277 635 5 0 0 0 - - -;
#X obj 471 167 bng 15 250 50 0 empty empty empty 17 7 0 10 -262144
-1 -1;
#X obj 157 726 vtof;
#X floatatom 162 751 5 0 0 0 - - -;
#X obj 49 550 spigot;
#X obj 82 529 > 0;
#X obj 40 195 r \$0-raA;
#X obj 40 214 s \$0-saA;
#X obj 40 233 r \$0-rtA;
#X obj 40 252 s \$0-stA;
#X obj 26 -96 r \$0-saA;
#X obj 26 -36 s \$0-raA;
#X obj -35 -136 inlet;
#X text 1 -134 vel;
#X obj 26 -137 inlet;
#X text 63 -137 aA;
#X obj 85 -137 inlet;
#X obj 175 -137 inlet;
#X obj 236 -137 inlet;
#X obj 295 -137 inlet;
#X text 120 -136 tA;
#X text 211 -135 cA;
#X text 273 -137 aD;
#X text 330 -136 tD;
#X obj -35 -116 s \$0-vel;
#X obj 26 -117 s \$0-raA;
#X obj 85 -118 s \$0-rtA;
#X obj 86 -76 change;
#X obj 86 -96 r \$0-stA;
#X obj 86 -36 s \$0-rtA;
#X obj 86 -56 clip 0 10000;
#X obj 175 -100 s \$0-rcA;
#X obj 37 109 r \$0-rcA;
#X obj 32 355 s \$0-scA;
#X obj 175 -117 tgl 15 0 empty empty empty 17 7 0 10 -262144 -1 -1
0 1;
#X obj 175 -81 r \$0-scA;
#X obj 175 -61 tgl 15 0 empty empty empty 17 7 0 10 -262144 -1 -1 0
1;
#X obj 176 -44 change;
#X obj 37 130 sel 0;
#X msg 37 154 1;
#X msg 64 154 0;
#X msg 37 175 1;
#X msg 64 175 0;
#X obj 32 314 sel 1;
#X msg 32 335 0;
#X obj 40 274 sel 1;
#X msg 40 294 1;
#X obj 176 -25 s \$0-rcA;
#X obj 154 57 r \$0-raD;
#X obj 161 77 r \$0-rtD;
#X obj 170 263 s \$0-saD;
#X obj 177 282 s \$0-stD;
#X obj 218 11 r \$0-rcA;
#X obj 218 32 sel 0;
#X msg 218 56 1;
#X msg 245 56 0;
#X msg 218 77 1;
#X msg 245 77 0;
#X connect 5 0 6 0;
#X connect 5 1 7 0;
#X connect 5 2 8 0;
#X connect 6 0 44 0;
#X connect 7 0 45 0;
#X connect 11 0 76 0;
#X connect 12 0 78 0;
#X connect 14 0 119 0;
#X connect 16 0 120 0;
#X connect 20 0 112 0;
#X connect 21 0 114 0;
#X connect 22 0 24 0;
#X connect 23 0 25 0;
#X connect 28 0 30 0;
#X connect 29 0 31 0;
#X connect 37 0 39 0;
#X connect 38 0 40 0;
#X connect 46 0 80 0;
#X connect 47 0 46 0;
#X connect 49 0 48 0;
#X connect 56 0 58 0;
#X connect 57 0 60 1;
#X connect 57 0 61 0;
#X connect 57 0 67 1;
#X connect 57 0 68 0;
#X connect 58 0 59 0;
#X connect 59 0 63 0;
#X connect 59 0 64 0;
#X connect 60 0 62 0;
#X connect 61 0 60 0;
#X connect 63 0 64 1;
#X connect 64 0 65 0;
#X connect 65 0 60 1;
#X connect 65 0 61 0;
#X connect 65 0 67 1;
#X connect 65 0 68 0;
#X connect 66 0 57 0;
#X connect 67 0 69 0;
#X connect 68 0 67 0;
#X connect 71 0 72 0;
#X connect 74 0 73 1;
#X connect 75 0 11 0;
#X connect 77 0 12 0;
#X connect 79 0 47 0;
#X connect 81 0 93 0;
#X connect 83 0 94 0;
#X connect 85 0 95 0;
#X connect 86 0 103 0;
#X connect 96 0 99 0;
#X connect 97 0 96 0;
#X connect 99 0 98 0;
#X connect 101 0 107 0;
#X connect 103 0 100 0;
#X connect 104 0 105 0;
#X connect 105 0 106 0;
#X connect 106 0 116 0;
#X connect 107 0 108 0;
#X connect 107 0 111 0;
#X connect 107 1 109 0;
#X connect 107 1 110 0;
#X connect 108 0 20 0;
#X connect 109 0 20 0;
#X connect 110 0 21 0;
#X connect 111 0 21 0;
#X connect 112 0 113 0;
#X connect 113 0 102 0;
#X connect 114 0 115 0;
#X connect 115 0 102 0;
#X connect 117 0 14 0;
#X connect 118 0 16 0;
#X connect 121 0 122 0;
#X connect 122 0 123 0;
#X connect 122 0 126 0;
#X connect 122 1 124 0;
#X connect 122 1 125 0;
#X coords 0 -1 1 1 352 160 1 100 100;
