#N canvas 728 168 1057 767 10;
#X obj 339 213 phasor~;
#X obj 339 213 phasor~;
#X obj 408 212 phasor~;
#X obj 408 212 phasor~;
#X obj 339 240 *~ 2;
#X obj 408 241 *~ 2;
#X obj 336 270 -~ 1;
#X obj 410 267 -~ 1;
#X obj 336 354 +~;
#X obj 407 304 clip~ 0 1;
#X obj 335 308 clip~ 0 1;
#X obj 336 412 outlet~;
#X obj 352 102 inlet~;
#X obj 382 174 *~ -1;
#X obj 427 102 inlet;
#X connect 0 0 4 0;
#X connect 2 0 5 0;
#X connect 4 0 6 0;
#X connect 5 0 7 0;
#X connect 6 0 10 0;
#X connect 7 0 9 0;
#X connect 8 0 11 0;
#X connect 9 0 8 1;
#X connect 10 0 8 0;
#X connect 12 0 0 0;
#X connect 12 0 13 0;
#X connect 13 0 2 0;
#X connect 14 0 0 1;
#X connect 14 0 2 1;
