#N canvas 0 31 1440 799 10;
#X obj 811 546 dac~;
#X obj 5 -69 tgl 15 0 empty empty empty 17 7 0 10 -262144 -1 -1 0 1
;
#X obj 57 -22 unpack f f f;
#X floatatom 57 -1 5 0 0 0 - - -;
#X floatatom 91 -1 5 0 0 0 - - -;
#X floatatom 126 -1 5 0 0 0 - - -;
#X obj 5 -22 s frame;
#X floatatom 159 -23 5 0 0 0 - - -;
#X obj 811 520 *~;
#X obj 852 520 *~;
#X obj 940 417 vsl 30 100 0 1 0 0 empty empty empty 0 -9 0 10 -262144
-1 -1 5940 1;
#X obj 10 123 s~ p1l;
#X obj 85 122 s~ p1r;
#X obj 811 216 r~ p1l;
#X obj 852 356 r~ p1r;
#X obj 208 122 s~ p2l;
#X obj 283 121 s~ p2r;
#X obj 818 235 r~ p2l;
#X obj 859 375 r~ p2r;
#X obj 404 120 s~ mrl;
#X obj 479 120 s~ mrr;
#X obj 600 120 s~ m1l;
#X obj 681 120 s~ m1r;
#X obj 802 120 s~ m2l;
#X obj 883 120 s~ m2r;
#X obj 1007 120 s~ mel;
#X obj 1088 120 s~ mer;
#X obj 825 254 r~ mrl;
#X obj 832 273 r~ m1l;
#X obj 837 292 r~ m2l;
#X obj 843 311 r~ mel;
#X obj 865 394 r~ mrr;
#X obj 871 413 r~ m1r;
#X obj 877 432 r~ m2r;
#X obj 883 451 r~ mer;
#X obj 10 103 instrument percussive-fx-1;
#X obj 557 119 s mra;
#X obj 759 119 s m1a;
#X obj 961 119 s m2a;
#X obj 1166 119 s mea;
#N canvas 52 132 397 579 percussive-fx-1-actions 0;
#X obj 5 -17 inlet;
#N canvas 493 102 922 292 action-arrangement 0;
#X obj 6 6 inlet;
#X text 44 6 vel;
#X msg 204 148 0;
#X msg 251 148 0;
#X msg 301 148 0;
#X msg 351 148 0;
#X msg 534 148 0;
#X msg 586 148 0;
#X obj 6 230 outlet;
#X obj 53 230 outlet;
#X obj 100 230 outlet~;
#X obj 152 229 outlet~;
#X obj 204 228 outlet;
#X obj 251 228 outlet~;
#X obj 301 228 outlet~;
#X obj 351 228 outlet~;
#X obj 401 228 outlet;
#X obj 445 228 outlet;
#X obj 490 228 outlet;
#X obj 534 228 outlet~;
#X obj 586 228 outlet~;
#X obj 638 228 outlet;
#X obj 685 228 outlet;
#X obj 730 228 outlet;
#X obj 774 228 outlet~;
#X obj 826 228 outlet~;
#X text 99 247 freq;
#X text 6 248 vel;
#X text 149 248 oscType;
#X text 251 248 FMRatio;
#X text 302 248 FMQ;
#X text 354 248 FMType;
#X text 407 248 Comp;
#X text 454 247 Hip;
#X text 491 246 Lop;
#X text 535 246 DelT;
#X text 584 247 DelQ;
#X text 641 246 Damp;
#X text 685 246 Room;
#X text 727 247 DW;
#X text 776 247 Vol;
#X text 843 248 Bal;
#X text 202 249 GlissT;
#X text 55 248 env;
#X obj 99 207 sig~;
#X obj 151 207 sig~;
#X obj 251 205 sig~;
#X obj 301 205 sig~;
#X obj 351 204 sig~;
#X obj 534 205 sig~;
#X obj 586 205 sig~;
#X obj 774 205 sig~;
#X obj 826 204 sig~;
#X obj 826 78 bng 15 250 50 0 empty empty empty 17 7 0 10 -262144 -1
-1;
#X obj 14 27 > 0;
#X obj 826 55 loadbang;
#X msg 826 147 0;
#X msg 445 148 0;
#X msg 401 148 0.3;
#X msg 99 148 38;
#X msg 490 148 20000;
#X msg 151 148 1.02;
#X msg 53 119 1 65 1 0.3 20 0 0 0 80 0 0 0;
#X msg 638 148 1;
#X msg 685 148 0.7;
#X msg 730 147 0;
#X msg 774 147 0;
#X connect 0 0 8 0;
#X connect 0 0 54 0;
#X connect 2 0 12 0;
#X connect 3 0 46 0;
#X connect 4 0 47 0;
#X connect 5 0 48 0;
#X connect 6 0 49 0;
#X connect 7 0 50 0;
#X connect 44 0 10 0;
#X connect 45 0 11 0;
#X connect 46 0 13 0;
#X connect 47 0 14 0;
#X connect 48 0 15 0;
#X connect 49 0 19 0;
#X connect 50 0 20 0;
#X connect 51 0 24 0;
#X connect 52 0 25 0;
#X connect 53 0 56 0;
#X connect 53 0 66 0;
#X connect 53 0 65 0;
#X connect 53 0 64 0;
#X connect 53 0 63 0;
#X connect 53 0 7 0;
#X connect 53 0 6 0;
#X connect 53 0 60 0;
#X connect 53 0 57 0;
#X connect 53 0 58 0;
#X connect 53 0 5 0;
#X connect 53 0 4 0;
#X connect 53 0 3 0;
#X connect 53 0 2 0;
#X connect 53 0 61 0;
#X connect 53 0 59 0;
#X connect 53 0 62 0;
#X connect 54 0 53 0;
#X connect 55 0 53 0;
#X connect 56 0 52 0;
#X connect 57 0 17 0;
#X connect 58 0 16 0;
#X connect 59 0 44 0;
#X connect 60 0 18 0;
#X connect 61 0 45 0;
#X connect 62 0 9 0;
#X connect 63 0 21 0;
#X connect 64 0 22 0;
#X connect 65 0 23 0;
#X connect 66 0 51 0;
#X restore 5 124 pd action-arrangement kick_basic;
#X obj 5 81 *;
#X obj 5 61 bondo;
#X obj 5 207 outlet;
#X obj 16 227 outlet;
#X obj 27 247 outlet~;
#X obj 38 267 outlet~;
#X obj 49 287 outlet;
#X obj 71 327 outlet~;
#X obj 82 347 outlet~;
#X obj 60 307 outlet~;
#X obj 93 367 outlet;
#X obj 105 387 outlet;
#X obj 127 427 outlet~;
#X obj 116 407 outlet;
#X obj 138 447 outlet~;
#X obj 149 467 outlet;
#X obj 160 487 outlet;
#X obj 171 507 outlet;
#X obj 182 527 outlet~;
#X obj 194 547 outlet~;
#X msg 5 39 127;
#N canvas 586 121 578 506 notes 0;
#X obj 26 189 outlet;
#X obj 408 88 outlet;
#X obj 25 21 loadbang;
#X obj 26 63 t b;
#X obj 34 41 bng 15 250 50 0 empty empty empty 17 7 0 10 -262144 -1
-1;
#X text 53 39 Update bang;
#X obj 26 167 frame-const;
#X connect 2 0 3 0;
#X connect 4 0 1 0;
#X connect 4 0 3 0;
#X connect 6 0 0 0;
#X restore 41 -3 pd notes;
#X obj 5 102 change;
#X obj 5 19 frame-finder;
#X connect 1 0 4 0;
#X connect 1 1 5 0;
#X connect 1 2 6 0;
#X connect 1 3 7 0;
#X connect 1 4 8 0;
#X connect 1 5 11 0;
#X connect 1 6 9 0;
#X connect 1 7 10 0;
#X connect 1 8 12 0;
#X connect 1 9 13 0;
#X connect 1 10 15 0;
#X connect 1 11 14 0;
#X connect 1 12 16 0;
#X connect 1 13 17 0;
#X connect 1 14 18 0;
#X connect 1 15 19 0;
#X connect 1 16 20 0;
#X connect 1 17 21 0;
#X connect 2 0 24 0;
#X connect 3 0 2 0;
#X connect 3 1 2 1;
#X connect 22 0 3 0;
#X connect 23 0 25 1;
#X connect 23 1 25 2;
#X connect 24 0 1 0;
#X connect 25 0 22 0;
#X connect 25 1 3 1;
#X restore 10 66 pd percussive-fx-1-actions;
#X obj 10 44 r frame;
#X obj 208 45 r frame;
#N canvas 263 23 1093 733 percussive-fx-2-actions 0;
#X obj 5 3 inlet;
#N canvas 342 131 922 292 action-arrangement 0;
#X obj 6 6 inlet;
#X text 44 6 vel;
#X msg 826 147 0;
#X obj 6 230 outlet;
#X obj 53 230 outlet;
#X obj 100 230 outlet~;
#X obj 152 229 outlet~;
#X obj 204 228 outlet;
#X obj 251 228 outlet~;
#X obj 301 228 outlet~;
#X obj 351 228 outlet~;
#X obj 401 228 outlet;
#X obj 445 228 outlet;
#X obj 490 228 outlet;
#X obj 534 228 outlet~;
#X obj 586 228 outlet~;
#X obj 638 228 outlet;
#X obj 685 228 outlet;
#X obj 730 228 outlet;
#X obj 774 228 outlet~;
#X obj 826 228 outlet~;
#X text 99 247 freq;
#X text 6 248 vel;
#X text 149 248 oscType;
#X text 251 248 FMRatio;
#X text 302 248 FMQ;
#X text 354 248 FMType;
#X text 407 248 Comp;
#X text 454 247 Hip;
#X text 491 246 Lop;
#X text 535 246 DelT;
#X text 584 247 DelQ;
#X text 641 246 Damp;
#X text 685 246 Room;
#X text 727 247 DW;
#X text 776 247 Vol;
#X text 843 248 Bal;
#X text 202 249 GlissT;
#X text 55 248 env;
#X obj 99 207 sig~;
#X obj 151 207 sig~;
#X obj 251 205 sig~;
#X obj 301 205 sig~;
#X obj 351 204 sig~;
#X obj 534 205 sig~;
#X obj 586 205 sig~;
#X obj 774 205 sig~;
#X obj 826 204 sig~;
#X obj 826 78 bng 15 250 50 0 empty empty empty 17 7 0 10 -262144 -1
-1;
#X obj 14 27 > 0;
#X obj 826 55 loadbang;
#X msg 445 148 0;
#X obj 80 6 inlet;
#X msg 80 26 set \$1;
#X obj 306 6 inlet;
#X text 116 5 freq;
#X text 341 4 delQ;
#X obj 384 5 inlet;
#X text 424 6 vol;
#X msg 306 46 set \$1;
#X msg 384 45 set \$1;
#X msg 774 147 0.55;
#X msg 251 148 1.3;
#X msg 534 148 30;
#X msg 730 147 0.1;
#X msg 586 148 0;
#X msg 685 148 0.3;
#X msg 638 148 1;
#X msg 204 148 0;
#X msg 151 148 0.1;
#X obj 384 25 change;
#X obj 306 26 change;
#X msg 99 148 91.5948;
#X msg 351 148 4;
#X msg 301 147 10000;
#X msg 490 148 8000;
#X msg 401 148 1;
#X msg 53 118 1 12 1 0.2 50 0 0 0 80 0 0 0;
#X connect 0 0 3 0;
#X connect 0 0 49 0;
#X connect 2 0 47 0;
#X connect 39 0 5 0;
#X connect 40 0 6 0;
#X connect 41 0 8 0;
#X connect 42 0 9 0;
#X connect 43 0 10 0;
#X connect 44 0 14 0;
#X connect 45 0 15 0;
#X connect 46 0 19 0;
#X connect 47 0 20 0;
#X connect 48 0 2 0;
#X connect 48 0 61 0;
#X connect 48 0 64 0;
#X connect 48 0 66 0;
#X connect 48 0 67 0;
#X connect 48 0 65 0;
#X connect 48 0 63 0;
#X connect 48 0 75 0;
#X connect 48 0 51 0;
#X connect 48 0 76 0;
#X connect 48 0 73 0;
#X connect 48 0 74 0;
#X connect 48 0 62 0;
#X connect 48 0 68 0;
#X connect 48 0 69 0;
#X connect 48 0 77 0;
#X connect 48 0 72 0;
#X connect 49 0 48 0;
#X connect 50 0 48 0;
#X connect 51 0 12 0;
#X connect 52 0 53 0;
#X connect 53 0 72 0;
#X connect 54 0 71 0;
#X connect 57 0 70 0;
#X connect 59 0 74 0;
#X connect 60 0 73 0;
#X connect 61 0 46 0;
#X connect 62 0 41 0;
#X connect 63 0 44 0;
#X connect 64 0 18 0;
#X connect 65 0 45 0;
#X connect 66 0 17 0;
#X connect 67 0 16 0;
#X connect 68 0 7 0;
#X connect 69 0 40 0;
#X connect 70 0 60 0;
#X connect 71 0 59 0;
#X connect 72 0 39 0;
#X connect 73 0 43 0;
#X connect 74 0 42 0;
#X connect 75 0 13 0;
#X connect 76 0 11 0;
#X connect 77 0 4 0;
#X restore 5 625 pd action-arrangement kick_basic;
#X obj 5 502 *;
#X obj 5 482 bondo;
#X obj 5 708 outlet;
#X obj 16 728 outlet;
#X obj 27 748 outlet~;
#X obj 38 768 outlet~;
#X obj 49 788 outlet;
#X obj 71 828 outlet~;
#X obj 82 848 outlet~;
#X obj 60 808 outlet~;
#X obj 93 868 outlet;
#X obj 105 888 outlet;
#X obj 127 928 outlet~;
#X obj 116 908 outlet;
#X obj 138 948 outlet~;
#X obj 149 968 outlet;
#X obj 160 988 outlet;
#X obj 171 1008 outlet;
#X obj 182 1027 outlet~;
#X obj 194 1047 outlet~;
#X msg 5 460 127;
#X obj 68 505 mtof;
#X text 133 416 Tiene un rango de 3 octavas;
#X obj 68 396 bng 15 250 50 0 empty empty empty 17 7 0 10 -262144 -1
-1;
#X obj 91 373 r start;
#X text 103 438 settear rango mínimo relativo al centro;
#X text 100 458 definir el centro del rango;
#X floatatom 68 479 5 0 0 0 - - -;
#X obj 577 102 counter;
#X obj 577 82 bng 15 250 50 0 empty empty empty 17 7 0 10 -262144 -1
-1;
#X obj 656 64 r start;
#X obj 656 105 tgl 15 0 empty empty empty 17 7 0 10 -262144 -1 -1 0
1;
#X obj 629 165 %;
#X obj 532 201 list-idx;
#X floatatom 532 222 5 0 0 0 - - -;
#X obj 532 163 bng 15 250 50 0 empty empty empty 17 7 0 10 -262144
-1 -1;
#X obj 629 185 == 0;
#X obj 629 206 tgl 15 0 empty empty empty 17 7 0 10 -262144 -1 -1 1
1;
#X obj 577 125 - 1;
#X obj 577 146 mod 7;
#X obj 672 185 != 0;
#X obj 672 205 tgl 15 0 empty empty empty 17 7 0 10 -262144 -1 -1 0
1;
#X obj 597 246 &&;
#X obj 597 208 == 0;
#X obj 597 266 sel 1;
#X obj 597 286 counter;
#X obj 597 366 s trigger-change;
#X obj 708 83 r trigger-change;
#X obj 634 245 r start;
#X obj 656 125 expr $f1 + 2;
#X obj 606 82 bng 15 250 50 0 empty empty empty 17 7 0 10 -262144 -1
-1;
#X obj 606 60 r start;
#X obj 683 245 r trigger-change;
#X obj 629 225 s play;
#X obj 672 225 s sil;
#X obj 532 241 s seq-val;
#X obj 98 63 r play;
#X obj 142 63 r sil;
#X obj 38 63 r seq-val;
#X obj 38 88 spigot;
#X obj 280 88 spigot;
#X obj 280 108 expr if ($f1 < 3.5 \, 1 \, 2);
#X floatatom 280 128 5 0 0 0 - - -;
#X floatatom 38 108 5 0 0 0 - - -;
#X obj 629 145 bondo;
#X obj 38 133 == 1;
#X obj 70 133 == 2;
#X obj 102 133 == 3;
#X obj 134 132 == 4;
#X obj 166 131 == 5;
#X obj 198 130 == 6;
#X obj 229 129 == 7;
#X obj 38 154 tgl 15 0 empty empty empty 17 7 0 10 -262144 -1 -1 0
1;
#X obj 70 154 tgl 15 0 empty empty empty 17 7 0 10 -262144 -1 -1 0
1;
#X obj 102 154 tgl 15 0 empty empty empty 17 7 0 10 -262144 -1 -1 0
1;
#X obj 134 154 tgl 15 0 empty empty empty 17 7 0 10 -262144 -1 -1 1
1;
#X obj 166 154 tgl 15 0 empty empty empty 17 7 0 10 -262144 -1 -1 0
1;
#X obj 198 154 tgl 15 0 empty empty empty 17 7 0 10 -262144 -1 -1 0
1;
#X obj 229 154 tgl 15 0 empty empty empty 17 7 0 10 -262144 -1 -1 0
1;
#X obj 5 23 s frameframe;
#X obj 403 139 r frameframe;
#X obj 403 161 list-idx 2;
#X floatatom 403 182 5 0 0 0 - - -;
#X obj 403 242 counter;
#X obj 479 181 r start;
#X obj 479 202 bng 15 250 50 0 empty empty empty 17 7 0 10 -262144
-1 -1;
#X obj 403 222 sel 1;
#X obj 403 281 >;
#X msg 84 104 2;
#X obj 403 302 sel 1;
#X obj 404 332 s next-seq;
#X obj 577 36 r next-seq;
#X obj 403 262 bondo;
#X obj 5 174 spigot;
#X obj 37 194 spigot;
#X obj 69 174 spigot;
#X obj 101 194 spigot;
#X obj 133 174 spigot;
#X obj 165 194 spigot;
#X obj 196 174 spigot;
#X obj -37 110 r next-seq;
#X msg -37 129 0;
#X obj 340 168 s del-f;
#X obj -44 155 r del-f;
#X obj 280 149 - 1;
#X obj 348 262 s loopl;
#X obj -44 207 list-idx 2;
#X obj -44 227 sel 1;
#X obj -44 247 tgl 15 0 empty empty empty 17 7 0 10 -262144 -1 -1 1
1;
#X obj -92 207 r start;
#X msg -92 227 0;
#X obj -152 207 r next-seq;
#N canvas 726 298 450 300 variable-actions 0;
#X obj 9 12 inlet;
#X obj 87 12 inlet;
#X text 46 13 frame;
#X text 125 13 switcher;
#X obj 113 35 != 1;
#X obj 9 37 spigot;
#N canvas 309 263 701 303 actions 0;
#X obj 5 5 inlet;
#X obj 6 284 outlet;
#X obj 116 283 outlet;
#X obj 209 282 outlet;
#N canvas 9 206 578 506 notes 0;
#X obj 36 199 outlet;
#X obj 418 98 outlet;
#X obj 35 31 loadbang;
#X obj 36 73 t b;
#X obj 44 51 bng 15 250 50 0 empty empty empty 17 7 0 10 -262144 -1
-1;
#X text 63 49 Update bang;
#X obj 36 177 frame-const;
#X msg 36 111 1;
#X msg 67 131 1;
#X msg 98 152 3;
#X connect 2 0 3 0;
#X connect 3 0 9 0;
#X connect 3 0 8 0;
#X connect 3 0 7 0;
#X connect 4 0 1 0;
#X connect 4 0 3 0;
#X connect 6 0 0 0;
#X connect 7 0 6 0;
#X connect 8 0 6 1;
#X connect 9 0 6 2;
#X restore 48 113 pd notes;
#X obj 14 135 frame-finder;
#X msg 52 155 43 0.1;
#X connect 0 0 5 0;
#X connect 4 0 5 1;
#X connect 4 1 5 2;
#X connect 5 0 6 0;
#X connect 5 0 1 0;
#X connect 5 1 2 0;
#X connect 6 0 3 0;
#X restore 9 65 pd actions;
#X obj 9 112 outlet;
#X obj 56 113 outlet;
#X obj 103 112 outlet;
#X connect 0 0 5 0;
#X connect 1 0 4 0;
#X connect 1 0 5 1;
#X connect 5 0 6 0;
#X connect 6 0 7 0;
#X connect 6 1 8 0;
#X connect 6 2 9 0;
#X restore 5 316 pd variable-actions;
#N canvas 1132 119 450 300 variable-actions 0;
#X obj 9 12 inlet;
#X obj 87 12 inlet;
#X text 46 13 frame;
#X text 125 13 switcher;
#X obj 9 37 spigot;
#N canvas 309 264 701 303 actions 0;
#X obj 5 5 inlet;
#X obj 6 284 outlet;
#X obj 116 283 outlet;
#X obj 209 282 outlet;
#N canvas 9 206 578 506 notes 0;
#X obj 36 199 outlet;
#X obj 418 98 outlet;
#X obj 35 31 loadbang;
#X obj 36 73 t b;
#X obj 44 51 bng 15 250 50 0 empty empty empty 17 7 0 10 -262144 -1
-1;
#X text 63 49 Update bang;
#X obj 36 177 frame-const;
#X msg 99 152 1;
#X msg 67 131 1;
#X msg 36 111 1;
#X connect 2 0 3 0;
#X connect 3 0 7 0;
#X connect 3 0 8 0;
#X connect 3 0 9 0;
#X connect 4 0 1 0;
#X connect 4 0 3 0;
#X connect 6 0 0 0;
#X connect 7 0 6 2;
#X connect 8 0 6 1;
#X connect 9 0 6 0;
#X restore 48 113 pd notes;
#X obj 14 135 frame-finder;
#X msg 52 155 43 0.1;
#X connect 0 0 5 0;
#X connect 4 0 5 1;
#X connect 4 1 5 2;
#X connect 5 0 6 0;
#X connect 5 0 1 0;
#X connect 5 1 2 0;
#X connect 6 0 3 0;
#X restore 9 65 pd actions;
#X obj 9 112 outlet;
#X obj 56 113 outlet;
#X obj 103 112 outlet;
#X msg 66 35 1;
#X connect 0 0 4 0;
#X connect 1 0 9 0;
#X connect 4 0 5 0;
#X connect 5 0 6 0;
#X connect 5 1 7 0;
#X connect 5 2 8 0;
#X connect 9 0 4 1;
#X restore 37 296 pd variable-actions;
#X floatatom 447 260 5 0 0 0 - - -;
#X msg 447 185 1;
#X obj 403 201 change;
#N canvas 1132 119 450 300 variable-actions 0;
#X obj 9 12 inlet;
#X obj 87 12 inlet;
#X text 46 13 frame;
#X text 125 13 switcher;
#X obj 9 57 spigot;
#N canvas 309 264 701 303 actions 0;
#X obj 5 5 inlet;
#X obj 6 284 outlet;
#X obj 116 283 outlet;
#X obj 209 282 outlet;
#N canvas 9 206 578 506 notes 0;
#X obj 36 199 outlet;
#X obj 418 98 outlet;
#X obj 35 31 loadbang;
#X obj 36 73 t b;
#X obj 44 51 bng 15 250 50 0 empty empty empty 17 7 0 10 -262144 -1
-1;
#X text 63 49 Update bang;
#X obj 36 177 frame-const;
#X msg 67 131 1;
#X msg 36 111 1;
#X msg 99 152 1 7;
#X connect 2 0 3 0;
#X connect 3 0 9 0;
#X connect 3 0 7 0;
#X connect 3 0 8 0;
#X connect 4 0 1 0;
#X connect 4 0 3 0;
#X connect 6 0 0 0;
#X connect 7 0 6 1;
#X connect 8 0 6 0;
#X connect 9 0 6 2;
#X restore 48 113 pd notes;
#X obj 14 135 frame-finder;
#X msg 52 155 43 0.1;
#X connect 0 0 5 0;
#X connect 4 0 5 1;
#X connect 4 1 5 2;
#X connect 5 0 6 0;
#X connect 5 0 1 0;
#X connect 5 1 2 0;
#X connect 6 0 3 0;
#X restore 9 85 pd actions;
#X obj 9 132 outlet;
#X obj 56 133 outlet;
#X obj 103 132 outlet;
#X obj 89 57 spigot;
#N canvas 309 264 701 303 actions 0;
#X obj 5 5 inlet;
#X obj 6 284 outlet;
#X obj 116 283 outlet;
#X obj 209 282 outlet;
#N canvas 9 206 578 506 notes 0;
#X obj 36 199 outlet;
#X obj 418 98 outlet;
#X obj 35 31 loadbang;
#X obj 36 73 t b;
#X obj 44 51 bng 15 250 50 0 empty empty empty 17 7 0 10 -262144 -1
-1;
#X text 63 49 Update bang;
#X obj 36 177 frame-const;
#X msg 67 131 1;
#X msg 36 111 1;
#X msg 99 152 5;
#X connect 2 0 3 0;
#X connect 3 0 9 0;
#X connect 3 0 7 0;
#X connect 3 0 8 0;
#X connect 4 0 1 0;
#X connect 4 0 3 0;
#X connect 6 0 0 0;
#X connect 7 0 6 1;
#X connect 8 0 6 0;
#X connect 9 0 6 2;
#X restore 48 113 pd notes;
#X obj 14 135 frame-finder;
#X msg 52 155 43 0.1;
#X connect 0 0 5 0;
#X connect 4 0 5 1;
#X connect 4 1 5 2;
#X connect 5 0 6 0;
#X connect 5 0 1 0;
#X connect 5 1 2 0;
#X connect 6 0 3 0;
#X restore 89 85 pd actions;
#X obj 100 33 != 1;
#X connect 0 0 4 0;
#X connect 0 0 9 0;
#X connect 1 0 4 1;
#X connect 1 0 11 0;
#X connect 4 0 5 0;
#X connect 5 0 6 0;
#X connect 5 1 7 0;
#X connect 5 2 8 0;
#X connect 9 0 10 0;
#X connect 10 0 6 0;
#X connect 10 1 7 0;
#X connect 10 2 8 0;
#X connect 11 0 9 1;
#X restore 69 276 pd variable-actions;
#N canvas 465 121 450 300 variable-actions 0;
#X obj 19 22 inlet;
#X obj 97 22 inlet;
#X text 56 23 frame;
#X text 135 23 switcher;
#X obj 19 47 spigot;
#N canvas 309 264 701 303 actions 0;
#X obj 5 5 inlet;
#X obj 6 284 outlet;
#X obj 116 283 outlet;
#X obj 209 282 outlet;
#N canvas 9 206 578 506 notes 0;
#X obj 36 199 outlet;
#X obj 418 98 outlet;
#X obj 35 31 loadbang;
#X obj 36 73 t b;
#X obj 44 51 bng 15 250 50 0 empty empty empty 17 7 0 10 -262144 -1
-1;
#X text 63 49 Update bang;
#X obj 36 177 frame-const;
#X msg 67 131 1;
#X msg 36 111 1;
#X msg 99 152 3 5;
#X connect 2 0 3 0;
#X connect 3 0 9 0;
#X connect 3 0 7 0;
#X connect 3 0 8 0;
#X connect 4 0 1 0;
#X connect 4 0 3 0;
#X connect 6 0 0 0;
#X connect 7 0 6 1;
#X connect 8 0 6 0;
#X connect 9 0 6 2;
#X restore 48 113 pd notes;
#X obj 14 135 frame-finder;
#X msg 52 155 43 0.1;
#X connect 0 0 5 0;
#X connect 4 0 5 1;
#X connect 4 1 5 2;
#X connect 5 0 6 0;
#X connect 5 0 1 0;
#X connect 5 1 2 0;
#X connect 6 0 3 0;
#X restore 19 75 pd actions;
#X obj 19 122 outlet;
#X obj 66 123 outlet;
#X obj 113 122 outlet;
#X obj 112 43 != 1;
#X obj 99 67 spigot;
#N canvas 309 264 701 303 actions 0;
#X obj 5 5 inlet;
#X obj 6 284 outlet;
#X obj 116 283 outlet;
#X obj 209 282 outlet;
#N canvas 9 206 578 506 notes 0;
#X obj 36 199 outlet;
#X obj 418 98 outlet;
#X obj 35 31 loadbang;
#X obj 36 73 t b;
#X obj 44 51 bng 15 250 50 0 empty empty empty 17 7 0 10 -262144 -1
-1;
#X text 63 49 Update bang;
#X obj 36 177 frame-const;
#X msg 67 131 1;
#X msg 36 111 1;
#X msg 99 152 3 7;
#X connect 2 0 3 0;
#X connect 3 0 9 0;
#X connect 3 0 7 0;
#X connect 3 0 8 0;
#X connect 4 0 1 0;
#X connect 4 0 3 0;
#X connect 6 0 0 0;
#X connect 7 0 6 1;
#X connect 8 0 6 0;
#X connect 9 0 6 2;
#X restore 48 113 pd notes;
#X obj 14 135 frame-finder;
#X msg 52 155 43 0.1;
#X connect 0 0 5 0;
#X connect 4 0 5 1;
#X connect 4 1 5 2;
#X connect 5 0 6 0;
#X connect 5 0 1 0;
#X connect 5 1 2 0;
#X connect 6 0 3 0;
#X restore 99 95 pd actions;
#X connect 0 0 4 0;
#X connect 0 0 10 0;
#X connect 1 0 9 0;
#X connect 1 0 4 1;
#X connect 4 0 5 0;
#X connect 5 0 6 0;
#X connect 5 1 7 0;
#X connect 5 2 8 0;
#X connect 9 0 10 1;
#X connect 10 0 11 0;
#X connect 11 0 6 0;
#X connect 11 1 7 0;
#X connect 11 2 8 0;
#X restore 101 256 pd variable-actions;
#N canvas 726 298 450 300 variable-actions 0;
#X obj 9 12 inlet;
#X obj 87 12 inlet;
#X text 46 13 frame;
#X text 125 13 switcher;
#X obj 124 36 != 1;
#X obj 9 37 spigot;
#N canvas 309 264 701 303 actions 0;
#X obj 5 5 inlet;
#X obj 6 284 outlet;
#X obj 116 283 outlet;
#X obj 209 282 outlet;
#N canvas 9 206 578 506 notes 0;
#X obj 36 199 outlet;
#X obj 418 98 outlet;
#X obj 35 31 loadbang;
#X obj 36 73 t b;
#X obj 44 51 bng 15 250 50 0 empty empty empty 17 7 0 10 -262144 -1
-1;
#X text 63 49 Update bang;
#X obj 36 177 frame-const;
#X msg 67 131 1;
#X msg 36 111 1;
#X msg 99 152 1 7;
#X connect 2 0 3 0;
#X connect 3 0 9 0;
#X connect 3 0 7 0;
#X connect 3 0 8 0;
#X connect 4 0 1 0;
#X connect 4 0 3 0;
#X connect 6 0 0 0;
#X connect 7 0 6 1;
#X connect 8 0 6 0;
#X connect 9 0 6 2;
#X restore 48 113 pd notes;
#X obj 14 135 frame-finder;
#X msg 52 155 43 0.1;
#X connect 0 0 5 0;
#X connect 4 0 5 1;
#X connect 4 1 5 2;
#X connect 5 0 6 0;
#X connect 5 0 1 0;
#X connect 5 1 2 0;
#X connect 6 0 3 0;
#X restore 9 65 pd actions;
#X obj 9 112 outlet;
#X obj 56 113 outlet;
#X obj 103 112 outlet;
#X obj 79 37 spigot;
#N canvas 309 264 701 303 actions 0;
#X obj 5 5 inlet;
#X obj 6 284 outlet;
#X obj 116 283 outlet;
#X obj 209 282 outlet;
#N canvas 9 206 578 506 notes 0;
#X obj 36 199 outlet;
#X obj 418 98 outlet;
#X obj 35 31 loadbang;
#X obj 36 73 t b;
#X obj 44 51 bng 15 250 50 0 empty empty empty 17 7 0 10 -262144 -1
-1;
#X text 63 49 Update bang;
#X obj 36 177 frame-const;
#X msg 67 131 1;
#X msg 36 111 1;
#X msg 99 152 1 3 5;
#X connect 2 0 3 0;
#X connect 3 0 9 0;
#X connect 3 0 7 0;
#X connect 3 0 8 0;
#X connect 4 0 1 0;
#X connect 4 0 3 0;
#X connect 6 0 0 0;
#X connect 7 0 6 1;
#X connect 8 0 6 0;
#X connect 9 0 6 2;
#X restore 48 113 pd notes;
#X obj 14 135 frame-finder;
#X msg 52 155 43 0.1;
#X connect 0 0 5 0;
#X connect 4 0 5 1;
#X connect 4 1 5 2;
#X connect 5 0 6 0;
#X connect 5 0 1 0;
#X connect 5 1 2 0;
#X connect 6 0 3 0;
#X restore 79 65 pd actions;
#X connect 0 0 5 0;
#X connect 0 0 10 0;
#X connect 1 0 4 0;
#X connect 1 0 5 1;
#X connect 4 0 10 1;
#X connect 5 0 6 0;
#X connect 6 0 7 0;
#X connect 6 1 8 0;
#X connect 6 2 9 0;
#X connect 10 0 11 0;
#X connect 11 0 7 0;
#X connect 11 1 8 0;
#X connect 11 2 9 0;
#X restore 125 316 pd variable-actions;
#N canvas 490 147 450 300 variable-actions 0;
#X obj 9 12 inlet;
#X obj 87 12 inlet;
#X text 46 13 frame;
#X text 125 13 switcher;
#X obj 9 37 spigot;
#N canvas 309 264 701 303 actions 0;
#X obj 5 5 inlet;
#X obj 6 284 outlet;
#X obj 116 283 outlet;
#X obj 209 282 outlet;
#N canvas 9 206 578 506 notes 0;
#X obj 36 199 outlet;
#X obj 418 98 outlet;
#X obj 35 31 loadbang;
#X obj 36 73 t b;
#X obj 44 51 bng 15 250 50 0 empty empty empty 17 7 0 10 -262144 -1
-1;
#X text 63 49 Update bang;
#X obj 36 177 frame-const;
#X msg 67 131 1;
#X msg 36 111 1;
#X msg 99 152 1 3 7;
#X connect 2 0 3 0;
#X connect 3 0 9 0;
#X connect 3 0 7 0;
#X connect 3 0 8 0;
#X connect 4 0 1 0;
#X connect 4 0 3 0;
#X connect 6 0 0 0;
#X connect 7 0 6 1;
#X connect 8 0 6 0;
#X connect 9 0 6 2;
#X restore 48 113 pd notes;
#X obj 14 135 frame-finder;
#X msg 52 155 43 0.1;
#X connect 0 0 5 0;
#X connect 4 0 5 1;
#X connect 4 1 5 2;
#X connect 5 0 6 0;
#X connect 5 0 1 0;
#X connect 5 1 2 0;
#X connect 6 0 3 0;
#X restore 9 65 pd actions;
#X obj 9 112 outlet;
#X obj 56 113 outlet;
#X obj 103 112 outlet;
#X obj 102 33 != 1;
#X obj 89 57 spigot;
#N canvas 309 264 701 303 actions 0;
#X obj 5 5 inlet;
#X obj 6 284 outlet;
#X obj 116 283 outlet;
#X obj 209 282 outlet;
#N canvas 9 206 578 506 notes 0;
#X obj 36 199 outlet;
#X obj 418 98 outlet;
#X obj 35 31 loadbang;
#X obj 36 73 t b;
#X obj 44 51 bng 15 250 50 0 empty empty empty 17 7 0 10 -262144 -1
-1;
#X text 63 49 Update bang;
#X obj 36 177 frame-const;
#X msg 67 131 1;
#X msg 36 111 1;
#X msg 99 152 1 3 7;
#X connect 2 0 3 0;
#X connect 3 0 9 0;
#X connect 3 0 7 0;
#X connect 3 0 8 0;
#X connect 4 0 1 0;
#X connect 4 0 3 0;
#X connect 6 0 0 0;
#X connect 7 0 6 1;
#X connect 8 0 6 0;
#X connect 9 0 6 2;
#X restore 48 113 pd notes;
#X obj 14 135 frame-finder;
#X msg 52 155 43 0.1;
#X connect 0 0 5 0;
#X connect 4 0 5 1;
#X connect 4 1 5 2;
#X connect 5 0 6 0;
#X connect 5 0 1 0;
#X connect 5 1 2 0;
#X connect 6 0 3 0;
#X restore 89 85 pd actions;
#X connect 0 0 4 0;
#X connect 0 0 10 0;
#X connect 1 0 9 0;
#X connect 1 0 4 1;
#X connect 4 0 5 0;
#X connect 5 0 6 0;
#X connect 5 1 7 0;
#X connect 5 2 8 0;
#X connect 9 0 10 1;
#X connect 10 0 11 0;
#X connect 11 0 6 0;
#X connect 11 1 7 0;
#X connect 11 2 8 0;
#X restore 157 296 pd variable-actions;
#N canvas 1132 119 450 300 variable-actions 1;
#X obj 9 12 inlet;
#X obj 87 12 inlet;
#X text 46 13 frame;
#X text 125 13 switcher;
#X obj 9 57 spigot;
#N canvas 309 264 701 303 actions 0;
#X obj 5 5 inlet;
#X obj 6 284 outlet;
#X obj 116 283 outlet;
#X obj 209 282 outlet;
#N canvas 9 206 578 506 notes 0;
#X obj 36 199 outlet;
#X obj 418 98 outlet;
#X obj 35 31 loadbang;
#X obj 36 73 t b;
#X obj 44 51 bng 15 250 50 0 empty empty empty 17 7 0 10 -262144 -1
-1;
#X text 63 49 Update bang;
#X obj 36 177 frame-const;
#X msg 67 131 1;
#X msg 36 111 1;
#X msg 99 152 1 3 7;
#X connect 2 0 3 0;
#X connect 3 0 9 0;
#X connect 3 0 7 0;
#X connect 3 0 8 0;
#X connect 4 0 1 0;
#X connect 4 0 3 0;
#X connect 6 0 0 0;
#X connect 7 0 6 1;
#X connect 8 0 6 0;
#X connect 9 0 6 2;
#X restore 48 113 pd notes;
#X obj 14 135 frame-finder;
#X msg 52 155 43 0.1;
#X connect 0 0 5 0;
#X connect 4 0 5 1;
#X connect 4 1 5 2;
#X connect 5 0 6 0;
#X connect 5 0 1 0;
#X connect 5 1 2 0;
#X connect 6 0 3 0;
#X restore 9 85 pd actions;
#X obj 9 132 outlet;
#X obj 56 133 outlet;
#X obj 103 132 outlet;
#X obj 89 57 spigot;
#N canvas 309 264 701 303 actions 0;
#X obj 5 5 inlet;
#X obj 6 284 outlet;
#X obj 116 283 outlet;
#X obj 209 282 outlet;
#N canvas 9 206 578 506 notes 0;
#X obj 36 199 outlet;
#X obj 418 98 outlet;
#X obj 35 31 loadbang;
#X obj 36 73 t b;
#X obj 44 51 bng 15 250 50 0 empty empty empty 17 7 0 10 -262144 -1
-1;
#X text 63 49 Update bang;
#X obj 36 177 frame-const;
#X msg 67 131 1;
#X msg 36 111 1;
#X msg 99 152 1 3 5 7;
#X connect 2 0 3 0;
#X connect 3 0 9 0;
#X connect 3 0 7 0;
#X connect 3 0 8 0;
#X connect 4 0 1 0;
#X connect 4 0 3 0;
#X connect 6 0 0 0;
#X connect 7 0 6 1;
#X connect 8 0 6 0;
#X connect 9 0 6 2;
#X restore 48 113 pd notes;
#X obj 14 135 frame-finder;
#X msg 52 155 43 0.1;
#X connect 0 0 5 0;
#X connect 4 0 5 1;
#X connect 4 1 5 2;
#X connect 5 0 6 0;
#X connect 5 0 1 0;
#X connect 5 1 2 0;
#X connect 6 0 3 0;
#X restore 89 85 pd actions;
#X obj 100 33 != 1;
#X connect 0 0 4 0;
#X connect 0 0 9 0;
#X connect 1 0 4 1;
#X connect 1 0 11 0;
#X connect 4 0 5 0;
#X connect 5 0 6 0;
#X connect 5 1 7 0;
#X connect 5 2 8 0;
#X connect 9 0 10 0;
#X connect 10 0 6 0;
#X connect 10 1 7 0;
#X connect 10 2 8 0;
#X connect 11 0 9 1;
#X restore 189 276 pd variable-actions;
#X obj 783 126 counter;
#X obj 784 168 s stop;
#X floatatom 668 167 5 0 0 0 - - -;
#X floatatom 831 169 5 0 0 0 - - -;
#X msg 657 86 1;
#X obj 782 105 change;
#X obj 662 304 bng 15 250 50 0 empty empty empty 17 7 0 10 -262144
-1 -1;
#X floatatom 706 287 5 0 0 0 - - -;
#X obj 635 265 sel 0;
#X obj 597 306 sel 2;
#X obj -112 339 tgl 15 0 empty empty empty 17 7 0 10 -262144 -1 -1
0 1;
#X obj -112 364 metro 300;
#X obj 68 417 random 300;
#X obj 68 438 / 100;
#X obj 116 478 i;
#X obj 116 499 sel 0 1 2;
#X msg 116 521 100;
#X msg 155 542 4;
#X msg 146 521 10000;
#X obj 68 462 + 10;
#X msg 196 521 50;
#X msg 240 544 40;
#X obj 784 147 sel 2;
#X msg 207 542 3.7;
#X msg 532 182 4 7 2 1 6 3 5;
#X msg 91 394 seed 4.72164e+11;
#X msg -34 430 1;
#X msg 125 542 20;
#X connect 0 0 81 0;
#X connect 1 0 4 0;
#X connect 1 1 5 0;
#X connect 1 2 6 0;
#X connect 1 3 7 0;
#X connect 1 4 8 0;
#X connect 1 5 11 0;
#X connect 1 6 9 0;
#X connect 1 7 10 0;
#X connect 1 8 12 0;
#X connect 1 9 13 0;
#X connect 1 10 15 0;
#X connect 1 11 14 0;
#X connect 1 12 16 0;
#X connect 1 13 17 0;
#X connect 1 14 18 0;
#X connect 1 15 19 0;
#X connect 1 16 20 0;
#X connect 1 17 21 0;
#X connect 2 0 1 0;
#X connect 3 0 2 0;
#X connect 3 1 2 1;
#X connect 22 0 3 0;
#X connect 23 0 1 1;
#X connect 25 0 22 0;
#X connect 25 0 136 0;
#X connect 26 0 149 0;
#X connect 29 0 23 0;
#X connect 30 0 40 0;
#X connect 31 0 30 0;
#X connect 32 0 124 3;
#X connect 32 0 128 0;
#X connect 33 0 51 0;
#X connect 33 0 129 0;
#X connect 34 0 38 0;
#X connect 34 0 42 0;
#X connect 34 0 126 0;
#X connect 35 0 36 0;
#X connect 36 0 57 0;
#X connect 37 0 148 0;
#X connect 38 0 39 0;
#X connect 39 0 44 1;
#X connect 39 0 55 0;
#X connect 40 0 66 0;
#X connect 40 0 41 0;
#X connect 41 0 35 1;
#X connect 41 0 37 0;
#X connect 41 0 45 0;
#X connect 42 0 43 0;
#X connect 43 0 56 0;
#X connect 44 0 46 0;
#X connect 45 0 44 0;
#X connect 46 0 47 0;
#X connect 47 0 131 0;
#X connect 47 0 133 0;
#X connect 49 0 33 0;
#X connect 50 0 132 0;
#X connect 51 0 66 1;
#X connect 52 0 30 3;
#X connect 53 0 52 0;
#X connect 53 0 31 0;
#X connect 58 0 61 1;
#X connect 59 0 62 1;
#X connect 60 0 62 0;
#X connect 60 0 61 0;
#X connect 61 0 65 0;
#X connect 61 0 90 0;
#X connect 62 0 63 0;
#X connect 63 0 64 0;
#X connect 64 0 106 0;
#X connect 65 0 67 0;
#X connect 65 0 68 0;
#X connect 65 0 69 0;
#X connect 65 0 70 0;
#X connect 65 0 71 0;
#X connect 65 0 72 0;
#X connect 65 0 73 0;
#X connect 66 0 34 0;
#X connect 66 1 34 1;
#X connect 67 0 74 0;
#X connect 68 0 75 0;
#X connect 69 0 76 0;
#X connect 70 0 77 0;
#X connect 71 0 78 0;
#X connect 72 0 79 0;
#X connect 73 0 80 0;
#X connect 74 0 95 1;
#X connect 75 0 96 1;
#X connect 76 0 97 1;
#X connect 77 0 98 1;
#X connect 78 0 99 1;
#X connect 79 0 100 1;
#X connect 80 0 101 1;
#X connect 82 0 83 0;
#X connect 82 0 104 0;
#X connect 83 0 84 0;
#X connect 84 0 118 0;
#X connect 85 0 94 0;
#X connect 85 0 107 0;
#X connect 85 0 116 0;
#X connect 86 0 117 0;
#X connect 86 0 87 0;
#X connect 87 0 85 3;
#X connect 88 0 85 0;
#X connect 89 0 91 0;
#X connect 90 0 64 0;
#X connect 91 0 87 0;
#X connect 91 0 92 0;
#X connect 93 0 31 0;
#X connect 94 0 89 0;
#X connect 94 1 89 1;
#X connect 95 0 114 0;
#X connect 96 0 115 0;
#X connect 97 0 119 0;
#X connect 98 0 120 0;
#X connect 99 0 121 0;
#X connect 100 0 122 0;
#X connect 101 0 123 0;
#X connect 102 0 103 0;
#X connect 103 0 74 0;
#X connect 103 0 75 0;
#X connect 103 0 76 0;
#X connect 103 0 77 0;
#X connect 103 0 78 0;
#X connect 103 0 79 0;
#X connect 103 0 80 0;
#X connect 105 0 108 0;
#X connect 105 0 95 0;
#X connect 105 0 96 0;
#X connect 105 0 97 0;
#X connect 105 0 98 0;
#X connect 105 0 99 0;
#X connect 105 0 100 0;
#X connect 105 0 101 0;
#X connect 106 0 94 1;
#X connect 108 0 109 0;
#X connect 109 0 110 0;
#X connect 110 0 114 1;
#X connect 110 0 115 1;
#X connect 110 0 119 1;
#X connect 110 0 121 1;
#X connect 110 0 122 1;
#X connect 110 0 123 1;
#X connect 110 0 120 1;
#X connect 111 0 112 0;
#X connect 112 0 110 0;
#X connect 113 0 112 0;
#X connect 114 1 3 1;
#X connect 114 2 25 0;
#X connect 115 1 3 1;
#X connect 115 2 25 0;
#X connect 117 0 84 0;
#X connect 118 0 88 0;
#X connect 119 1 3 1;
#X connect 119 2 25 0;
#X connect 120 1 3 1;
#X connect 120 2 25 0;
#X connect 121 1 3 1;
#X connect 121 2 25 0;
#X connect 122 1 3 1;
#X connect 122 2 25 0;
#X connect 123 1 3 1;
#X connect 123 2 25 0;
#X connect 124 0 127 0;
#X connect 124 0 146 0;
#X connect 128 0 33 0;
#X connect 129 0 124 0;
#X connect 132 0 47 3;
#X connect 133 0 130 0;
#X connect 133 0 48 0;
#X connect 134 0 135 0;
#X connect 135 0 25 0;
#X connect 136 0 137 0;
#X connect 137 0 138 0;
#X connect 137 0 143 0;
#X connect 138 0 139 0;
#X connect 139 0 140 0;
#X connect 139 0 151 0;
#X connect 139 1 142 0;
#X connect 139 1 141 0;
#X connect 139 2 144 0;
#X connect 139 2 147 0;
#X connect 139 2 145 0;
#X connect 140 0 1 2;
#X connect 141 0 1 3;
#X connect 142 0 1 2;
#X connect 143 0 29 0;
#X connect 144 0 1 2;
#X connect 145 0 143 1;
#X connect 146 0 125 0;
#X connect 147 0 1 3;
#X connect 148 0 35 0;
#X connect 149 0 136 0;
#X connect 150 0 3 1;
#X connect 151 0 1 3;
#X connect 151 0 143 1;
#X restore 208 67 pd percussive-fx-2-actions;
#X obj 404 45 r frame;
#N canvas 585 49 1227 793 harmony-perc-fx-actions 0;
#X obj 5 3 inlet;
#X obj 5 311 *;
#X obj 5 261 bondo;
#X obj 5 437 outlet;
#X obj 16 457 outlet;
#X obj 27 477 outlet~;
#X obj 38 497 outlet~;
#X obj 49 517 outlet;
#X obj 71 557 outlet~;
#X obj 82 577 outlet~;
#X obj 60 537 outlet~;
#X obj 93 597 outlet;
#X obj 105 617 outlet;
#X obj 127 657 outlet~;
#X obj 116 637 outlet;
#X obj 138 677 outlet~;
#X obj 149 697 outlet;
#X obj 160 717 outlet;
#X obj 171 737 outlet;
#X obj 182 757 outlet~;
#X obj 194 757 outlet~;
#X msg 5 239 127;
#N canvas 211 53 922 292 action-arrangement 0;
#X obj 6 6 inlet;
#X text 44 6 vel;
#X msg 445 148 0;
#X msg 638 148 0.3;
#X obj 6 230 outlet;
#X obj 53 230 outlet;
#X obj 100 230 outlet~;
#X obj 152 229 outlet~;
#X obj 204 228 outlet;
#X obj 251 228 outlet~;
#X obj 301 228 outlet~;
#X obj 351 228 outlet~;
#X obj 401 228 outlet;
#X obj 445 228 outlet;
#X obj 490 228 outlet;
#X obj 534 228 outlet~;
#X obj 586 228 outlet~;
#X obj 638 228 outlet;
#X obj 685 228 outlet;
#X obj 730 228 outlet;
#X obj 774 228 outlet~;
#X obj 826 228 outlet~;
#X text 99 247 freq;
#X text 6 248 vel;
#X text 149 248 oscType;
#X text 251 248 FMRatio;
#X text 302 248 FMQ;
#X text 354 248 FMType;
#X text 407 248 Comp;
#X text 454 247 Hip;
#X text 491 246 Lop;
#X text 535 246 DelT;
#X text 584 247 DelQ;
#X text 641 246 Damp;
#X text 685 246 Room;
#X text 727 247 DW;
#X text 776 247 Vol;
#X text 843 248 Bal;
#X text 202 249 GlissT;
#X text 55 248 env;
#X obj 99 207 sig~;
#X obj 151 207 sig~;
#X obj 251 205 sig~;
#X obj 301 205 sig~;
#X obj 351 204 sig~;
#X obj 586 205 sig~;
#X obj 774 205 sig~;
#X obj 826 78 bng 15 250 50 0 empty empty empty 17 7 0 10 -262144 -1
-1;
#X obj 14 27 > 0;
#X obj 826 55 loadbang;
#X msg 99 148 261.626;
#X msg 730 147 0.5;
#X msg 685 148 0.8;
#X obj 71 5 inlet;
#X text 111 7 freq;
#X msg 99 95 set \$1;
#X msg 204 148 10;
#X msg 251 148 1.8;
#X msg 151 148 1.7;
#X msg 53 119 1 35 1 0.6 300 0 200 0 800 0 0 0;
#X msg 826 146 -0.5;
#X obj 826 204 sig~;
#X msg 586 148 0.3;
#X msg 534 148 100;
#X msg 301 148 100;
#X msg 351 148 1.3;
#X msg 490 148 300;
#X msg 401 148 2;
#X msg 401 91 set \$1;
#X obj 146 5 inlet;
#X msg 774 147 0.2;
#X connect 0 0 4 0;
#X connect 0 0 48 0;
#X connect 2 0 13 0;
#X connect 3 0 17 0;
#X connect 40 0 6 0;
#X connect 41 0 7 0;
#X connect 42 0 9 0;
#X connect 43 0 10 0;
#X connect 44 0 11 0;
#X connect 45 0 16 0;
#X connect 46 0 20 0;
#X connect 47 0 70 0;
#X connect 47 0 51 0;
#X connect 47 0 52 0;
#X connect 47 0 3 0;
#X connect 47 0 62 0;
#X connect 47 0 66 0;
#X connect 47 0 2 0;
#X connect 47 0 67 0;
#X connect 47 0 65 0;
#X connect 47 0 64 0;
#X connect 47 0 57 0;
#X connect 47 0 56 0;
#X connect 47 0 58 0;
#X connect 47 0 50 0;
#X connect 47 0 59 0;
#X connect 47 0 60 0;
#X connect 47 0 63 0;
#X connect 48 0 47 0;
#X connect 49 0 47 0;
#X connect 50 0 40 0;
#X connect 51 0 19 0;
#X connect 52 0 18 0;
#X connect 53 0 55 0;
#X connect 55 0 50 0;
#X connect 56 0 8 0;
#X connect 57 0 42 0;
#X connect 58 0 41 0;
#X connect 59 0 5 0;
#X connect 60 0 61 0;
#X connect 61 0 21 0;
#X connect 62 0 45 0;
#X connect 63 0 15 0;
#X connect 64 0 43 0;
#X connect 65 0 44 0;
#X connect 66 0 14 0;
#X connect 67 0 12 0;
#X connect 68 0 67 0;
#X connect 69 0 68 0;
#X connect 70 0 46 0;
#X restore 5 354 pd action-arrangement harmonyped;
#X obj 5 332 change;
#X msg 33 240 1;
#X obj 10 214 bng 15 250 50 0 empty empty empty 17 7 0 10 -262144 -1
-1;
#X floatatom 42 314 5 0 0 0 - - -;
#X msg 67 240 0;
#X obj 39 215 del 5;
#X connect 1 0 23 0;
#X connect 1 0 26 0;
#X connect 2 0 1 0;
#X connect 2 1 1 1;
#X connect 21 0 2 0;
#X connect 22 0 3 0;
#X connect 22 1 4 0;
#X connect 22 2 5 0;
#X connect 22 3 6 0;
#X connect 22 4 7 0;
#X connect 22 5 10 0;
#X connect 22 6 8 0;
#X connect 22 7 9 0;
#X connect 22 8 11 0;
#X connect 22 9 12 0;
#X connect 22 10 14 0;
#X connect 22 11 13 0;
#X connect 22 12 15 0;
#X connect 22 13 16 0;
#X connect 22 14 17 0;
#X connect 22 15 18 0;
#X connect 22 16 19 0;
#X connect 22 17 20 0;
#X connect 23 0 22 0;
#X connect 24 0 2 1;
#X connect 25 0 24 0;
#X connect 25 0 21 0;
#X connect 25 0 28 0;
#X connect 27 0 2 1;
#X connect 28 0 27 0;
#X restore 404 67 pd harmony-perc-fx-actions;
#X obj 600 45 r frame;
#N canvas 51 23 900 794 multifacet_harm_1-action 0;
#X obj 5 3 inlet;
#N canvas 278 220 922 292 action-arrangement 1;
#X obj 6 6 inlet;
#X text 44 6 vel;
#X msg 99 148 48.9994;
#X msg 445 148 0;
#X msg 638 148 0.3;
#X msg 685 148 0.3;
#X obj 6 230 outlet;
#X obj 53 230 outlet;
#X obj 100 230 outlet~;
#X obj 152 229 outlet~;
#X obj 204 228 outlet;
#X obj 251 228 outlet~;
#X obj 301 228 outlet~;
#X obj 351 228 outlet~;
#X obj 401 228 outlet;
#X obj 445 228 outlet;
#X obj 490 228 outlet;
#X obj 534 228 outlet~;
#X obj 586 228 outlet~;
#X obj 638 228 outlet;
#X obj 685 228 outlet;
#X obj 730 228 outlet;
#X obj 774 228 outlet~;
#X obj 826 228 outlet~;
#X text 99 247 freq;
#X text 6 248 vel;
#X text 149 248 oscType;
#X text 251 248 FMRatio;
#X text 302 248 FMQ;
#X text 354 248 FMType;
#X text 407 248 Comp;
#X text 454 247 Hip;
#X text 491 246 Lop;
#X text 535 246 DelT;
#X text 584 247 DelQ;
#X text 641 246 Damp;
#X text 685 246 Room;
#X text 727 247 DW;
#X text 776 247 Vol;
#X text 843 248 Bal;
#X text 202 249 GlissT;
#X text 55 248 env;
#X obj 99 207 sig~;
#X obj 151 207 sig~;
#X obj 251 205 sig~;
#X obj 301 205 sig~;
#X obj 351 204 sig~;
#X obj 534 205 sig~;
#X obj 586 205 sig~;
#X obj 774 205 sig~;
#X obj 826 204 sig~;
#X obj 826 78 bng 15 250 50 0 empty empty empty 17 7 0 10 -262144 -1
-1;
#X obj 14 27 > 0;
#X obj 826 55 loadbang;
#X msg 99 94 set \$1;
#X obj 76 8 inlet;
#X text 111 9 freq;
#X msg 490 148 4000;
#X msg 401 148 0;
#X msg 351 148 1;
#X msg 151 148 0.1;
#X obj 149 10 inlet;
#X text 193 10 oscType;
#X msg 149 31 set \$1;
#X msg 730 147 0.1;
#X msg 251 148 0;
#X msg 301 148 0;
#X msg 774 147 0.5;
#X msg 826 147 0;
#X msg 586 148 0;
#X msg 534 148 0;
#X msg 53 119 0.7 1200 0 0.8 400 0 600 0 1080 0 0 0;
#X msg 204 148 0;
#X connect 0 0 6 0;
#X connect 0 0 52 0;
#X connect 2 0 42 0;
#X connect 3 0 15 0;
#X connect 4 0 19 0;
#X connect 5 0 20 0;
#X connect 42 0 8 0;
#X connect 43 0 9 0;
#X connect 44 0 11 0;
#X connect 45 0 12 0;
#X connect 46 0 13 0;
#X connect 47 0 17 0;
#X connect 48 0 18 0;
#X connect 49 0 22 0;
#X connect 50 0 23 0;
#X connect 51 0 68 0;
#X connect 51 0 67 0;
#X connect 51 0 64 0;
#X connect 51 0 5 0;
#X connect 51 0 4 0;
#X connect 51 0 69 0;
#X connect 51 0 70 0;
#X connect 51 0 57 0;
#X connect 51 0 3 0;
#X connect 51 0 58 0;
#X connect 51 0 59 0;
#X connect 51 0 66 0;
#X connect 51 0 65 0;
#X connect 51 0 72 0;
#X connect 51 0 60 0;
#X connect 51 0 2 0;
#X connect 51 0 71 0;
#X connect 52 0 51 0;
#X connect 53 0 51 0;
#X connect 54 0 2 0;
#X connect 55 0 54 0;
#X connect 57 0 16 0;
#X connect 58 0 14 0;
#X connect 59 0 46 0;
#X connect 60 0 43 0;
#X connect 61 0 63 0;
#X connect 63 0 60 0;
#X connect 64 0 21 0;
#X connect 65 0 44 0;
#X connect 66 0 45 0;
#X connect 67 0 49 0;
#X connect 68 0 50 0;
#X connect 69 0 48 0;
#X connect 70 0 47 0;
#X connect 71 0 7 0;
#X connect 72 0 10 0;
#X restore 5 194 pd action-arrangement kick_basic;
#X obj 5 131 *;
#X obj 5 111 bondo;
#X obj 5 277 outlet;
#X obj 16 297 outlet;
#X obj 27 317 outlet~;
#X obj 38 337 outlet~;
#X obj 49 357 outlet;
#X obj 71 397 outlet~;
#X obj 82 417 outlet~;
#X obj 60 377 outlet~;
#X obj 93 437 outlet;
#X obj 105 457 outlet;
#X obj 127 497 outlet~;
#X obj 116 477 outlet;
#X obj 138 517 outlet~;
#X obj 149 537 outlet;
#X obj 160 557 outlet;
#X obj 171 577 outlet;
#X obj 182 597 outlet~;
#X obj 194 617 outlet~;
#X msg 5 89 127;
#X obj 99 173 mtof;
#X obj 5 172 change;
#X floatatom 99 134 5 0 0 0 - - -;
#X obj 99 113 unpack f f;
#X floatatom 156 133 5 0 0 0 - - -;
#N canvas 108 193 929 317 actions 0;
#X obj 5 5 inlet;
#X obj 6 284 outlet;
#X obj 106 283 outlet;
#X obj 188 282 outlet;
#N canvas 9 206 578 506 notes 0;
#X obj 36 199 outlet;
#X obj 418 98 outlet;
#X obj 35 31 loadbang;
#X obj 36 73 t b;
#X obj 44 51 bng 15 250 50 0 empty empty empty 17 7 0 10 -262144 -1
-1;
#X text 63 49 Update bang;
#X obj 36 177 frame-const;
#X msg 99 152 1;
#X msg 67 131 1;
#X msg 36 111 1 3;
#X connect 2 0 3 0;
#X connect 3 0 7 0;
#X connect 3 0 8 0;
#X connect 3 0 9 0;
#X connect 4 0 1 0;
#X connect 4 0 3 0;
#X connect 6 0 0 0;
#X connect 7 0 6 2;
#X connect 8 0 6 1;
#X connect 9 0 6 0;
#X restore 38 103 pd notes;
#X obj 4 83 r \$0-frame-m1;
#X obj 4 168 s \$0-trigger-m1;
#X obj 16 190 s \$0-bool-m1;
#X obj 42 211 s \$0-arg-m1;
#X obj 6 262 r \$0-trigger-m1;
#X obj 106 262 r \$0-bool-m1;
#X obj 188 262 r \$0-arg-m1;
#X obj 5 25 s \$0-frame-m1;
#X obj 4 125 frame-finder;
#N canvas 9 206 578 506 notes 0;
#X obj 36 199 outlet;
#X obj 418 98 outlet;
#X obj 35 31 loadbang;
#X obj 36 73 t b;
#X obj 44 51 bng 15 250 50 0 empty empty empty 17 7 0 10 -262144 -1
-1;
#X text 63 49 Update bang;
#X obj 36 177 frame-const;
#X msg 99 152 1;
#X msg 36 111 1;
#X msg 67 131 4;
#X connect 2 0 3 0;
#X connect 3 0 7 0;
#X connect 3 0 9 0;
#X connect 3 0 8 0;
#X connect 4 0 1 0;
#X connect 4 0 3 0;
#X connect 6 0 0 0;
#X connect 7 0 6 2;
#X connect 8 0 6 0;
#X connect 9 0 6 1;
#X restore 138 103 pd notes;
#X obj 104 83 r \$0-frame-m1;
#X obj 104 168 s \$0-trigger-m1;
#X obj 116 190 s \$0-bool-m1;
#X obj 142 211 s \$0-arg-m1;
#X obj 104 125 frame-finder;
#N canvas 9 206 578 506 notes 0;
#X obj 36 199 outlet;
#X obj 418 98 outlet;
#X obj 35 31 loadbang;
#X obj 36 73 t b;
#X obj 44 51 bng 15 250 50 0 empty empty empty 17 7 0 10 -262144 -1
-1;
#X text 63 49 Update bang;
#X obj 36 177 frame-const;
#X msg 99 152 1;
#X msg 36 111 2;
#X msg 67 131 1;
#X connect 2 0 3 0;
#X connect 3 0 7 0;
#X connect 3 0 9 0;
#X connect 3 0 8 0;
#X connect 4 0 1 0;
#X connect 4 0 3 0;
#X connect 6 0 0 0;
#X connect 7 0 6 2;
#X connect 8 0 6 0;
#X connect 9 0 6 1;
#X restore 238 103 pd notes;
#X obj 204 83 r \$0-frame-m1;
#X obj 204 168 s \$0-trigger-m1;
#X obj 216 190 s \$0-bool-m1;
#X obj 242 211 s \$0-arg-m1;
#X obj 204 125 frame-finder;
#N canvas 9 206 578 506 notes 0;
#X obj 36 199 outlet;
#X obj 418 98 outlet;
#X obj 35 31 loadbang;
#X obj 36 73 t b;
#X obj 44 51 bng 15 250 50 0 empty empty empty 17 7 0 10 -262144 -1
-1;
#X text 63 49 Update bang;
#X obj 36 177 frame-const;
#X msg 99 152 1;
#X msg 36 111 2;
#X msg 67 131 4;
#X connect 2 0 3 0;
#X connect 3 0 7 0;
#X connect 3 0 9 0;
#X connect 3 0 8 0;
#X connect 4 0 1 0;
#X connect 4 0 3 0;
#X connect 6 0 0 0;
#X connect 7 0 6 2;
#X connect 8 0 6 0;
#X connect 9 0 6 1;
#X restore 338 103 pd notes;
#X obj 304 83 r \$0-frame-m1;
#X obj 304 168 s \$0-trigger-m1;
#X obj 316 190 s \$0-bool-m1;
#X obj 342 211 s \$0-arg-m1;
#X obj 304 125 frame-finder;
#X msg 42 145 43 0.1;
#X msg 142 145 41 0.1;
#X msg 242 145 44 0.1;
#X msg 342 145 46 0.1;
#N canvas 9 206 578 506 notes 0;
#X obj 36 199 outlet;
#X obj 418 98 outlet;
#X obj 35 31 loadbang;
#X obj 36 73 t b;
#X obj 44 51 bng 15 250 50 0 empty empty empty 17 7 0 10 -262144 -1
-1;
#X text 63 49 Update bang;
#X obj 36 177 frame-const;
#X msg 99 152 1;
#X msg 67 131 4;
#X msg 36 111 3;
#X connect 2 0 3 0;
#X connect 3 0 7 0;
#X connect 3 0 8 0;
#X connect 3 0 9 0;
#X connect 4 0 1 0;
#X connect 4 0 3 0;
#X connect 6 0 0 0;
#X connect 7 0 6 2;
#X connect 8 0 6 1;
#X connect 9 0 6 0;
#X restore 438 103 pd notes;
#X obj 404 83 r \$0-frame-m1;
#X obj 404 168 s \$0-trigger-m1;
#X obj 416 190 s \$0-bool-m1;
#X obj 442 211 s \$0-arg-m1;
#X obj 404 125 frame-finder;
#X msg 442 145 36 0.1;
#N canvas 9 206 578 506 notes 0;
#X obj 36 199 outlet;
#X obj 418 98 outlet;
#X obj 35 31 loadbang;
#X obj 36 73 t b;
#X obj 44 51 bng 15 250 50 0 empty empty empty 17 7 0 10 -262144 -1
-1;
#X text 63 49 Update bang;
#X obj 36 177 frame-const;
#X msg 99 152 1;
#X msg 36 111 4;
#X msg 67 131 1;
#X connect 2 0 3 0;
#X connect 3 0 7 0;
#X connect 3 0 9 0;
#X connect 3 0 8 0;
#X connect 4 0 1 0;
#X connect 4 0 3 0;
#X connect 6 0 0 0;
#X connect 7 0 6 2;
#X connect 8 0 6 0;
#X connect 9 0 6 1;
#X restore 538 103 pd notes;
#X obj 504 83 r \$0-frame-m1;
#X obj 504 168 s \$0-trigger-m1;
#X obj 516 190 s \$0-bool-m1;
#X obj 542 211 s \$0-arg-m1;
#X obj 504 125 frame-finder;
#N canvas 9 206 578 506 notes 0;
#X obj 36 199 outlet;
#X obj 418 98 outlet;
#X obj 35 31 loadbang;
#X obj 36 73 t b;
#X obj 44 51 bng 15 250 50 0 empty empty empty 17 7 0 10 -262144 -1
-1;
#X text 63 49 Update bang;
#X obj 36 177 frame-const;
#X msg 99 152 1;
#X msg 36 111 4;
#X msg 67 131 3;
#X connect 2 0 3 0;
#X connect 3 0 7 0;
#X connect 3 0 9 0;
#X connect 3 0 8 0;
#X connect 4 0 1 0;
#X connect 4 0 3 0;
#X connect 6 0 0 0;
#X connect 7 0 6 2;
#X connect 8 0 6 0;
#X connect 9 0 6 1;
#X restore 638 103 pd notes;
#X obj 604 83 r \$0-frame-m1;
#X obj 604 168 s \$0-trigger-m1;
#X obj 616 190 s \$0-bool-m1;
#X obj 642 211 s \$0-arg-m1;
#X obj 604 125 frame-finder;
#X msg 542 145 39 0.1;
#X msg 642 145 41 0.1;
#X connect 0 0 12 0;
#X connect 4 0 13 1;
#X connect 4 1 13 2;
#X connect 5 0 13 0;
#X connect 9 0 1 0;
#X connect 10 0 2 0;
#X connect 11 0 3 0;
#X connect 13 0 32 0;
#X connect 13 0 6 0;
#X connect 13 1 7 0;
#X connect 14 0 19 1;
#X connect 14 1 19 2;
#X connect 15 0 19 0;
#X connect 19 0 33 0;
#X connect 19 0 16 0;
#X connect 19 1 17 0;
#X connect 20 0 25 1;
#X connect 20 1 25 2;
#X connect 21 0 25 0;
#X connect 25 0 34 0;
#X connect 25 0 22 0;
#X connect 25 1 23 0;
#X connect 26 0 31 1;
#X connect 26 1 31 2;
#X connect 27 0 31 0;
#X connect 31 0 35 0;
#X connect 31 0 28 0;
#X connect 31 1 29 0;
#X connect 32 0 8 0;
#X connect 33 0 18 0;
#X connect 34 0 24 0;
#X connect 35 0 30 0;
#X connect 36 0 41 1;
#X connect 36 1 41 2;
#X connect 37 0 41 0;
#X connect 41 0 42 0;
#X connect 41 0 38 0;
#X connect 41 1 39 0;
#X connect 42 0 40 0;
#X connect 43 0 48 1;
#X connect 43 1 48 2;
#X connect 44 0 48 0;
#X connect 48 0 55 0;
#X connect 48 0 45 0;
#X connect 48 1 46 0;
#X connect 49 0 54 1;
#X connect 49 1 54 2;
#X connect 50 0 54 0;
#X connect 54 0 56 0;
#X connect 54 0 51 0;
#X connect 54 1 52 0;
#X connect 55 0 47 0;
#X connect 56 0 53 0;
#X restore 5 47 pd actions;
#N canvas 108 193 929 317 actions 0;
#X obj 5 5 inlet;
#X obj 6 284 outlet;
#X obj 116 283 outlet;
#X obj 208 282 outlet;
#N canvas 9 206 578 506 notes 0;
#X obj 36 199 outlet;
#X obj 418 98 outlet;
#X obj 35 31 loadbang;
#X obj 36 73 t b;
#X obj 44 51 bng 15 250 50 0 empty empty empty 17 7 0 10 -262144 -1
-1;
#X text 63 49 Update bang;
#X obj 36 177 frame-const;
#X msg 99 152 1;
#X msg 67 131 1;
#X msg 36 111 1;
#X connect 2 0 3 0;
#X connect 3 0 7 0;
#X connect 3 0 8 0;
#X connect 3 0 9 0;
#X connect 4 0 1 0;
#X connect 4 0 3 0;
#X connect 6 0 0 0;
#X connect 7 0 6 2;
#X connect 8 0 6 1;
#X connect 9 0 6 0;
#X restore 38 103 pd notes;
#X obj 4 125 frame-finder;
#N canvas 9 206 578 506 notes 0;
#X obj 36 199 outlet;
#X obj 418 98 outlet;
#X obj 35 31 loadbang;
#X obj 36 73 t b;
#X obj 44 51 bng 15 250 50 0 empty empty empty 17 7 0 10 -262144 -1
-1;
#X text 63 49 Update bang;
#X obj 36 177 frame-const;
#X msg 99 152 1;
#X msg 36 111 2;
#X msg 67 131 1;
#X connect 2 0 3 0;
#X connect 3 0 7 0;
#X connect 3 0 9 0;
#X connect 3 0 8 0;
#X connect 4 0 1 0;
#X connect 4 0 3 0;
#X connect 6 0 0 0;
#X connect 7 0 6 2;
#X connect 8 0 6 0;
#X connect 9 0 6 1;
#X restore 148 103 pd notes;
#X obj 114 125 frame-finder;
#N canvas 9 206 578 506 notes 0;
#X obj 36 199 outlet;
#X obj 418 98 outlet;
#X obj 35 31 loadbang;
#X obj 36 73 t b;
#X obj 44 51 bng 15 250 50 0 empty empty empty 17 7 0 10 -262144 -1
-1;
#X text 63 49 Update bang;
#X obj 36 177 frame-const;
#X msg 99 152 1;
#X msg 36 111 2;
#X msg 67 131 4;
#X connect 2 0 3 0;
#X connect 3 0 7 0;
#X connect 3 0 9 0;
#X connect 3 0 8 0;
#X connect 4 0 1 0;
#X connect 4 0 3 0;
#X connect 6 0 0 0;
#X connect 7 0 6 2;
#X connect 8 0 6 0;
#X connect 9 0 6 1;
#X restore 258 103 pd notes;
#X obj 224 125 frame-finder;
#X msg 42 145 43 0.1;
#X msg 152 145 44 0.1;
#X msg 262 145 46 0.1;
#N canvas 9 206 578 506 notes 0;
#X obj 36 199 outlet;
#X obj 418 98 outlet;
#X obj 35 31 loadbang;
#X obj 36 73 t b;
#X obj 44 51 bng 15 250 50 0 empty empty empty 17 7 0 10 -262144 -1
-1;
#X text 63 49 Update bang;
#X obj 36 177 frame-const;
#X msg 99 152 1;
#X msg 67 131 4;
#X msg 36 111 3;
#X msg 134 177 1 4 1;
#X connect 2 0 3 0;
#X connect 3 0 7 0;
#X connect 3 0 8 0;
#X connect 3 0 9 0;
#X connect 3 0 10 0;
#X connect 4 0 1 0;
#X connect 4 0 3 0;
#X connect 6 0 0 0;
#X connect 7 0 6 2;
#X connect 8 0 6 1;
#X connect 9 0 6 0;
#X connect 10 0 0 0;
#X restore 368 103 pd notes;
#X obj 334 125 frame-finder;
#X msg 372 145 36 0.1;
#N canvas 9 206 578 506 notes 0;
#X obj 36 199 outlet;
#X obj 418 98 outlet;
#X obj 35 31 loadbang;
#X obj 36 73 t b;
#X obj 44 51 bng 15 250 50 0 empty empty empty 17 7 0 10 -262144 -1
-1;
#X text 63 49 Update bang;
#X obj 36 177 frame-const;
#X msg 99 152 1;
#X msg 36 111 4;
#X msg 67 131 1;
#X connect 2 0 3 0;
#X connect 3 0 7 0;
#X connect 3 0 9 0;
#X connect 3 0 8 0;
#X connect 4 0 1 0;
#X connect 4 0 3 0;
#X connect 6 0 0 0;
#X connect 7 0 6 2;
#X connect 8 0 6 0;
#X connect 9 0 6 1;
#X restore 478 103 pd notes;
#X obj 444 125 frame-finder;
#N canvas 9 206 578 506 notes 0;
#X obj 36 199 outlet;
#X obj 418 98 outlet;
#X obj 35 31 loadbang;
#X obj 36 73 t b;
#X obj 44 51 bng 15 250 50 0 empty empty empty 17 7 0 10 -262144 -1
-1;
#X text 63 49 Update bang;
#X obj 36 177 frame-const;
#X msg 99 152 1;
#X msg 36 111 4;
#X msg 67 131 3;
#X connect 2 0 3 0;
#X connect 3 0 7 0;
#X connect 3 0 9 0;
#X connect 3 0 8 0;
#X connect 4 0 1 0;
#X connect 4 0 3 0;
#X connect 6 0 0 0;
#X connect 7 0 6 2;
#X connect 8 0 6 0;
#X connect 9 0 6 1;
#X restore 588 103 pd notes;
#X obj 554 125 frame-finder;
#X msg 482 145 39 0.1;
#X obj 5 25 s \$0-frame-m12;
#X obj 4 83 r \$0-frame-m12;
#X obj 4 168 s \$0-trigger-m12;
#X obj 16 190 s \$0-bool-m12;
#X obj 42 211 s \$0-arg-m12;
#X obj 6 262 r \$0-trigger-m12;
#X obj 116 262 r \$0-bool-m12;
#X obj 208 262 r \$0-arg-m12;
#X obj 114 83 r \$0-frame-m12;
#X obj 114 168 s \$0-trigger-m12;
#X obj 126 190 s \$0-bool-m12;
#X obj 152 211 s \$0-arg-m12;
#X obj 224 83 r \$0-frame-m12;
#X obj 224 168 s \$0-trigger-m12;
#X obj 236 190 s \$0-bool-m12;
#X obj 262 211 s \$0-arg-m12;
#X obj 334 83 r \$0-frame-m12;
#X obj 334 168 s \$0-trigger-m12;
#X obj 346 190 s \$0-bool-m12;
#X obj 372 211 s \$0-arg-m12;
#X obj 444 83 r \$0-frame-m12;
#X obj 444 168 s \$0-trigger-m12;
#X obj 456 190 s \$0-bool-m12;
#X obj 482 211 s \$0-arg-m12;
#X obj 554 83 r \$0-frame-m12;
#X obj 554 168 s \$0-trigger-m12;
#X obj 566 190 s \$0-bool-m12;
#X obj 592 211 s \$0-arg-m12;
#N canvas 9 206 578 506 notes 0;
#X obj 36 199 outlet;
#X obj 418 98 outlet;
#X obj 35 31 loadbang;
#X obj 36 73 t b;
#X obj 44 51 bng 15 250 50 0 empty empty empty 17 7 0 10 -262144 -1
-1;
#X text 63 49 Update bang;
#X obj 36 177 frame-const;
#X msg 99 152 1;
#X msg 36 111 3;
#X msg 67 131 1;
#X connect 2 0 3 0;
#X connect 3 0 7 0;
#X connect 3 0 9 0;
#X connect 3 0 8 0;
#X connect 4 0 1 0;
#X connect 4 0 3 0;
#X connect 6 0 0 0;
#X connect 7 0 6 2;
#X connect 8 0 6 0;
#X connect 9 0 6 1;
#X restore 698 103 pd notes;
#X obj 664 125 frame-finder;
#X obj 664 83 r \$0-frame-m12;
#X obj 664 168 s \$0-trigger-m12;
#X obj 676 190 s \$0-bool-m12;
#X obj 702 211 s \$0-arg-m12;
#X msg 702 145 48 0.1;
#X msg 592 145 38 0.1;
#X connect 0 0 21 0;
#X connect 4 0 5 1;
#X connect 4 1 5 2;
#X connect 5 0 10 0;
#X connect 5 0 23 0;
#X connect 5 1 24 0;
#X connect 6 0 7 1;
#X connect 6 1 7 2;
#X connect 7 0 11 0;
#X connect 7 0 30 0;
#X connect 7 1 31 0;
#X connect 8 0 9 1;
#X connect 8 1 9 2;
#X connect 9 0 12 0;
#X connect 9 0 34 0;
#X connect 9 1 35 0;
#X connect 10 0 25 0;
#X connect 11 0 32 0;
#X connect 12 0 36 0;
#X connect 13 0 14 1;
#X connect 13 1 14 2;
#X connect 14 0 15 0;
#X connect 14 0 38 0;
#X connect 14 1 39 0;
#X connect 15 0 40 0;
#X connect 16 0 17 1;
#X connect 16 1 17 2;
#X connect 17 0 20 0;
#X connect 17 0 42 0;
#X connect 17 1 43 0;
#X connect 18 0 19 1;
#X connect 18 1 19 2;
#X connect 19 0 56 0;
#X connect 19 0 46 0;
#X connect 19 1 47 0;
#X connect 20 0 44 0;
#X connect 22 0 5 0;
#X connect 26 0 1 0;
#X connect 27 0 2 0;
#X connect 28 0 3 0;
#X connect 29 0 7 0;
#X connect 33 0 9 0;
#X connect 37 0 14 0;
#X connect 41 0 17 0;
#X connect 45 0 19 0;
#X connect 49 0 50 1;
#X connect 49 1 50 2;
#X connect 50 0 55 0;
#X connect 50 0 52 0;
#X connect 50 1 53 0;
#X connect 51 0 50 0;
#X connect 55 0 54 0;
#X connect 56 0 48 0;
#X restore 85 47 pd actions;
#N canvas 72 161 929 317 actions 0;
#X obj 5 5 inlet;
#X obj 6 284 outlet;
#X obj 116 283 outlet;
#X obj 208 282 outlet;
#N canvas 9 206 578 506 notes 0;
#X obj 36 199 outlet;
#X obj 418 98 outlet;
#X obj 35 31 loadbang;
#X obj 36 73 t b;
#X obj 44 51 bng 15 250 50 0 empty empty empty 17 7 0 10 -262144 -1
-1;
#X text 63 49 Update bang;
#X obj 36 177 frame-const;
#X msg 99 152 1;
#X msg 67 131 1;
#X msg 36 111 1;
#X connect 2 0 3 0;
#X connect 3 0 7 0;
#X connect 3 0 8 0;
#X connect 3 0 9 0;
#X connect 4 0 1 0;
#X connect 4 0 3 0;
#X connect 6 0 0 0;
#X connect 7 0 6 2;
#X connect 8 0 6 1;
#X connect 9 0 6 0;
#X restore 38 103 pd notes;
#X obj 4 125 frame-finder;
#X obj 5 25 s \$0-frame-m13;
#X obj 4 83 r \$0-frame-m13;
#X obj 4 168 s \$0-trigger-m13;
#X obj 16 190 s \$0-bool-m13;
#X obj 42 211 s \$0-arg-m13;
#X obj 6 262 r \$0-trigger-m13;
#X obj 116 262 r \$0-bool-m13;
#X obj 208 262 r \$0-arg-m13;
#X msg 42 145 36 0.1;
#X connect 0 0 6 0;
#X connect 4 0 5 1;
#X connect 4 1 5 2;
#X connect 5 0 14 0;
#X connect 5 0 8 0;
#X connect 5 1 9 0;
#X connect 7 0 5 0;
#X connect 11 0 1 0;
#X connect 12 0 2 0;
#X connect 13 0 3 0;
#X connect 14 0 10 0;
#X restore 165 47 pd actions;
#X obj 165 24 loopsel 3 3;
#X obj 85 24 loopsel 2 2;
#X obj 5 24 loopsel 1 1;
#X obj 99 153 - 12;
#X connect 1 0 4 0;
#X connect 1 1 5 0;
#X connect 1 2 6 0;
#X connect 1 3 7 0;
#X connect 1 4 8 0;
#X connect 1 5 11 0;
#X connect 1 6 9 0;
#X connect 1 7 10 0;
#X connect 1 8 12 0;
#X connect 1 9 13 0;
#X connect 1 10 15 0;
#X connect 1 11 14 0;
#X connect 1 12 16 0;
#X connect 1 13 17 0;
#X connect 1 14 18 0;
#X connect 1 15 19 0;
#X connect 1 16 20 0;
#X connect 1 17 21 0;
#X connect 2 0 24 0;
#X connect 3 0 2 0;
#X connect 3 1 2 1;
#X connect 22 0 3 0;
#X connect 23 0 1 1;
#X connect 24 0 1 0;
#X connect 25 0 34 0;
#X connect 26 0 25 0;
#X connect 26 1 27 0;
#X connect 28 0 22 0;
#X connect 28 1 3 1;
#X connect 28 2 26 0;
#X connect 29 0 22 0;
#X connect 29 1 3 1;
#X connect 29 2 26 0;
#X connect 30 0 22 0;
#X connect 30 1 3 1;
#X connect 30 2 26 0;
#X connect 31 0 30 0;
#X connect 32 0 29 0;
#X connect 33 0 28 0;
#X connect 34 0 23 0;
#X restore 600 67 pd multifacet_harm_1-action;
#X obj 802 45 r frame;
#N canvas 328 23 505 720 multifacet_harm_2-action 0;
#X obj 5 3 inlet;
#N canvas 164 420 922 292 action-arrangement 0;
#X obj 6 6 inlet;
#X text 44 6 vel;
#X msg 99 148 195.998;
#X msg 445 148 0;
#X obj 6 230 outlet;
#X obj 53 230 outlet;
#X obj 100 230 outlet~;
#X obj 152 229 outlet~;
#X obj 204 228 outlet;
#X obj 251 228 outlet~;
#X obj 301 228 outlet~;
#X obj 351 228 outlet~;
#X obj 401 228 outlet;
#X obj 445 228 outlet;
#X obj 490 228 outlet;
#X obj 534 228 outlet~;
#X obj 586 228 outlet~;
#X obj 638 228 outlet;
#X obj 685 228 outlet;
#X obj 730 228 outlet;
#X obj 774 228 outlet~;
#X obj 826 228 outlet~;
#X text 99 247 freq;
#X text 6 248 vel;
#X text 149 248 oscType;
#X text 251 248 FMRatio;
#X text 302 248 FMQ;
#X text 354 248 FMType;
#X text 407 248 Comp;
#X text 454 247 Hip;
#X text 491 246 Lop;
#X text 535 246 DelT;
#X text 584 247 DelQ;
#X text 641 246 Damp;
#X text 685 246 Room;
#X text 727 247 DW;
#X text 776 247 Vol;
#X text 843 248 Bal;
#X text 202 249 GlissT;
#X text 55 248 env;
#X obj 99 207 sig~;
#X obj 151 207 sig~;
#X obj 251 205 sig~;
#X obj 301 205 sig~;
#X obj 351 204 sig~;
#X obj 534 205 sig~;
#X obj 586 205 sig~;
#X obj 774 205 sig~;
#X obj 826 204 sig~;
#X obj 826 78 bng 15 250 50 0 empty empty empty 17 7 0 10 -262144 -1
-1;
#X obj 14 27 > 0;
#X obj 826 55 loadbang;
#X obj 99 6 inlet;
#X text 137 7 freq;
#X msg 99 26 set \$1;
#X msg 638 148 0.8;
#X msg 685 148 0.8;
#X msg 301 148 3;
#X obj 177 7 inlet;
#X msg 177 27 set \$1;
#X msg 351 148 0.4;
#X msg 534 148 666.6;
#X msg 826 147 -0.5;
#X msg 730 147 0.1;
#X msg 151 148 3;
#X msg 586 148 0;
#X msg 204 148 0;
#X msg 251 148 10;
#X msg 401 148 2;
#X msg 490 148 500;
#X msg 774 147 0.2;
#X msg 53 119 1 1800 0 0.7 600 0 280 0 600 0 0 0;
#X connect 0 0 4 0;
#X connect 0 0 50 0;
#X connect 2 0 40 0;
#X connect 3 0 13 0;
#X connect 40 0 6 0;
#X connect 41 0 7 0;
#X connect 42 0 9 0;
#X connect 43 0 10 0;
#X connect 44 0 11 0;
#X connect 45 0 15 0;
#X connect 46 0 16 0;
#X connect 47 0 20 0;
#X connect 48 0 21 0;
#X connect 49 0 62 0;
#X connect 49 0 63 0;
#X connect 49 0 56 0;
#X connect 49 0 55 0;
#X connect 49 0 65 0;
#X connect 49 0 61 0;
#X connect 49 0 69 0;
#X connect 49 0 3 0;
#X connect 49 0 68 0;
#X connect 49 0 60 0;
#X connect 49 0 57 0;
#X connect 49 0 67 0;
#X connect 49 0 66 0;
#X connect 49 0 64 0;
#X connect 49 0 2 0;
#X connect 49 0 71 0;
#X connect 49 0 70 0;
#X connect 50 0 49 0;
#X connect 51 0 49 0;
#X connect 52 0 54 0;
#X connect 54 0 2 0;
#X connect 55 0 17 0;
#X connect 56 0 18 0;
#X connect 57 0 43 0;
#X connect 58 0 59 0;
#X connect 59 0 66 0;
#X connect 60 0 44 0;
#X connect 61 0 45 0;
#X connect 62 0 48 0;
#X connect 63 0 19 0;
#X connect 64 0 41 0;
#X connect 65 0 46 0;
#X connect 66 0 8 0;
#X connect 67 0 42 0;
#X connect 68 0 12 0;
#X connect 69 0 14 0;
#X connect 70 0 47 0;
#X connect 71 0 5 0;
#X restore 5 206 pd action-arrangement kick_basic;
#X obj 5 183 *;
#X obj 5 163 bondo;
#X obj 5 289 outlet;
#X obj 16 309 outlet;
#X obj 27 329 outlet~;
#X obj 38 349 outlet~;
#X obj 49 369 outlet;
#X obj 71 409 outlet~;
#X obj 82 429 outlet~;
#X obj 60 389 outlet~;
#X obj 93 449 outlet;
#X obj 105 469 outlet;
#X obj 127 509 outlet~;
#X obj 116 489 outlet;
#X obj 138 529 outlet~;
#X obj 149 549 outlet;
#X obj 160 569 outlet;
#X obj 171 589 outlet;
#X obj 182 609 outlet~;
#X obj 194 629 outlet~;
#X msg 5 141 127;
#X obj 99 183 mtof;
#X obj 99 114 unpack f f;
#X floatatom 99 134 5 0 0 0 - - -;
#X floatatom 156 133 5 0 0 0 - - -;
#N canvas 108 193 929 317 actions 0;
#X obj 5 5 inlet;
#X obj 6 284 outlet;
#X obj 106 283 outlet;
#X obj 188 282 outlet;
#N canvas 9 206 578 506 notes 0;
#X obj 36 199 outlet;
#X obj 418 98 outlet;
#X obj 35 31 loadbang;
#X obj 36 73 t b;
#X obj 44 51 bng 15 250 50 0 empty empty empty 17 7 0 10 -262144 -1
-1;
#X text 63 49 Update bang;
#X obj 36 177 frame-const;
#X msg 99 152 1;
#X msg 67 131 1;
#X msg 36 111 1 3;
#X connect 2 0 3 0;
#X connect 3 0 7 0;
#X connect 3 0 8 0;
#X connect 3 0 9 0;
#X connect 4 0 1 0;
#X connect 4 0 3 0;
#X connect 6 0 0 0;
#X connect 7 0 6 2;
#X connect 8 0 6 1;
#X connect 9 0 6 0;
#X restore 38 103 pd notes;
#X obj 4 125 frame-finder;
#N canvas 9 206 578 506 notes 0;
#X obj 36 199 outlet;
#X obj 418 98 outlet;
#X obj 35 31 loadbang;
#X obj 36 73 t b;
#X obj 44 51 bng 15 250 50 0 empty empty empty 17 7 0 10 -262144 -1
-1;
#X text 63 49 Update bang;
#X obj 36 177 frame-const;
#X msg 99 152 1;
#X msg 36 111 1;
#X msg 67 131 4;
#X connect 2 0 3 0;
#X connect 3 0 7 0;
#X connect 3 0 9 0;
#X connect 3 0 8 0;
#X connect 4 0 1 0;
#X connect 4 0 3 0;
#X connect 6 0 0 0;
#X connect 7 0 6 2;
#X connect 8 0 6 0;
#X connect 9 0 6 1;
#X restore 138 103 pd notes;
#X obj 104 83 r \$0-frame-m1;
#X obj 104 125 frame-finder;
#N canvas 9 206 578 506 notes 0;
#X obj 36 199 outlet;
#X obj 418 98 outlet;
#X obj 35 31 loadbang;
#X obj 36 73 t b;
#X obj 44 51 bng 15 250 50 0 empty empty empty 17 7 0 10 -262144 -1
-1;
#X text 63 49 Update bang;
#X obj 36 177 frame-const;
#X msg 99 152 1;
#X msg 36 111 2;
#X msg 67 131 1;
#X connect 2 0 3 0;
#X connect 3 0 7 0;
#X connect 3 0 9 0;
#X connect 3 0 8 0;
#X connect 4 0 1 0;
#X connect 4 0 3 0;
#X connect 6 0 0 0;
#X connect 7 0 6 2;
#X connect 8 0 6 0;
#X connect 9 0 6 1;
#X restore 238 103 pd notes;
#X obj 204 125 frame-finder;
#N canvas 9 206 578 506 notes 0;
#X obj 36 199 outlet;
#X obj 418 98 outlet;
#X obj 35 31 loadbang;
#X obj 36 73 t b;
#X obj 44 51 bng 15 250 50 0 empty empty empty 17 7 0 10 -262144 -1
-1;
#X text 63 49 Update bang;
#X obj 36 177 frame-const;
#X msg 99 152 1;
#X msg 36 111 2;
#X msg 67 131 4;
#X connect 2 0 3 0;
#X connect 3 0 7 0;
#X connect 3 0 9 0;
#X connect 3 0 8 0;
#X connect 4 0 1 0;
#X connect 4 0 3 0;
#X connect 6 0 0 0;
#X connect 7 0 6 2;
#X connect 8 0 6 0;
#X connect 9 0 6 1;
#X restore 338 103 pd notes;
#X obj 304 125 frame-finder;
#X msg 42 145 43 0.1;
#X msg 142 145 41 0.1;
#X msg 242 145 44 0.1;
#X msg 342 145 46 0.1;
#N canvas 9 206 578 506 notes 0;
#X obj 36 199 outlet;
#X obj 418 98 outlet;
#X obj 35 31 loadbang;
#X obj 36 73 t b;
#X obj 44 51 bng 15 250 50 0 empty empty empty 17 7 0 10 -262144 -1
-1;
#X text 63 49 Update bang;
#X obj 36 177 frame-const;
#X msg 99 152 1;
#X msg 67 131 4;
#X msg 36 111 3;
#X connect 2 0 3 0;
#X connect 3 0 7 0;
#X connect 3 0 8 0;
#X connect 3 0 9 0;
#X connect 4 0 1 0;
#X connect 4 0 3 0;
#X connect 6 0 0 0;
#X connect 7 0 6 2;
#X connect 8 0 6 1;
#X connect 9 0 6 0;
#X restore 438 103 pd notes;
#X obj 404 125 frame-finder;
#X msg 442 145 36 0.1;
#N canvas 9 206 578 506 notes 0;
#X obj 36 199 outlet;
#X obj 418 98 outlet;
#X obj 35 31 loadbang;
#X obj 36 73 t b;
#X obj 44 51 bng 15 250 50 0 empty empty empty 17 7 0 10 -262144 -1
-1;
#X text 63 49 Update bang;
#X obj 36 177 frame-const;
#X msg 99 152 1;
#X msg 36 111 4;
#X msg 67 131 1;
#X connect 2 0 3 0;
#X connect 3 0 7 0;
#X connect 3 0 9 0;
#X connect 3 0 8 0;
#X connect 4 0 1 0;
#X connect 4 0 3 0;
#X connect 6 0 0 0;
#X connect 7 0 6 2;
#X connect 8 0 6 0;
#X connect 9 0 6 1;
#X restore 538 103 pd notes;
#X obj 504 125 frame-finder;
#N canvas 9 206 578 506 notes 0;
#X obj 36 199 outlet;
#X obj 418 98 outlet;
#X obj 35 31 loadbang;
#X obj 36 73 t b;
#X obj 44 51 bng 15 250 50 0 empty empty empty 17 7 0 10 -262144 -1
-1;
#X text 63 49 Update bang;
#X obj 36 177 frame-const;
#X msg 99 152 1;
#X msg 36 111 4;
#X msg 67 131 3;
#X connect 2 0 3 0;
#X connect 3 0 7 0;
#X connect 3 0 9 0;
#X connect 3 0 8 0;
#X connect 4 0 1 0;
#X connect 4 0 3 0;
#X connect 6 0 0 0;
#X connect 7 0 6 2;
#X connect 8 0 6 0;
#X connect 9 0 6 1;
#X restore 638 103 pd notes;
#X obj 604 125 frame-finder;
#X msg 542 145 39 0.1;
#X msg 642 145 41 0.1;
#X obj 5 25 s \$0-frame-h1;
#X obj 4 83 r \$0-frame-h1;
#X obj 4 168 s \$0-trigger-h1;
#X obj 16 190 s \$0-bool-h1;
#X obj 42 211 s \$0-arg-h1;
#X obj 6 262 r \$0-trigger-h1;
#X obj 106 262 r \$0-bool-h1;
#X obj 188 262 r \$0-arg-h1;
#X obj 142 211 s \$0-arg-h1;
#X obj 116 190 s \$0-bool-h1;
#X obj 104 168 s \$0-trigger-h1;
#X obj 242 211 s \$0-arg-h1;
#X obj 216 190 s \$0-bool-h1;
#X obj 204 168 s \$0-trigger-h1;
#X obj 204 83 r \$0-frame-h1;
#X obj 304 83 r \$0-frame-h1;
#X obj 304 168 s \$0-trigger-h1;
#X obj 316 190 s \$0-bool-h1;
#X obj 342 211 s \$0-arg-h1;
#X obj 442 211 s \$0-arg-h1;
#X obj 416 190 s \$0-bool-h1;
#X obj 404 168 s \$0-trigger-h1;
#X obj 404 83 r \$0-frame-h1;
#X obj 504 83 r \$0-frame-h1;
#X obj 504 168 s \$0-trigger-h1;
#X obj 516 190 s \$0-bool-h1;
#X obj 542 211 s \$0-arg-h1;
#X obj 642 211 s \$0-arg-h1;
#X obj 616 190 s \$0-bool-h1;
#X obj 604 168 s \$0-trigger-h1;
#X obj 604 83 r \$0-frame-h1;
#X connect 0 0 26 0;
#X connect 4 0 5 1;
#X connect 4 1 5 2;
#X connect 5 0 13 0;
#X connect 5 0 28 0;
#X connect 5 1 29 0;
#X connect 6 0 8 1;
#X connect 6 1 8 2;
#X connect 7 0 8 0;
#X connect 8 0 14 0;
#X connect 8 0 36 0;
#X connect 8 1 35 0;
#X connect 9 0 10 1;
#X connect 9 1 10 2;
#X connect 10 0 15 0;
#X connect 10 0 39 0;
#X connect 10 1 38 0;
#X connect 11 0 12 1;
#X connect 11 1 12 2;
#X connect 12 0 16 0;
#X connect 12 0 42 0;
#X connect 12 1 43 0;
#X connect 13 0 30 0;
#X connect 14 0 34 0;
#X connect 15 0 37 0;
#X connect 16 0 44 0;
#X connect 17 0 18 1;
#X connect 17 1 18 2;
#X connect 18 0 19 0;
#X connect 18 0 47 0;
#X connect 18 1 46 0;
#X connect 19 0 45 0;
#X connect 20 0 21 1;
#X connect 20 1 21 2;
#X connect 21 0 24 0;
#X connect 21 0 50 0;
#X connect 21 1 51 0;
#X connect 22 0 23 1;
#X connect 22 1 23 2;
#X connect 23 0 25 0;
#X connect 23 0 55 0;
#X connect 23 1 54 0;
#X connect 24 0 52 0;
#X connect 25 0 53 0;
#X connect 27 0 5 0;
#X connect 31 0 1 0;
#X connect 32 0 2 0;
#X connect 33 0 3 0;
#X connect 40 0 10 0;
#X connect 41 0 12 0;
#X connect 48 0 18 0;
#X connect 49 0 21 0;
#X connect 56 0 23 0;
#X restore 5 47 pd actions;
#N canvas 108 193 929 317 actions 0;
#X obj 5 5 inlet;
#X obj 6 284 outlet;
#X obj 116 283 outlet;
#X obj 208 282 outlet;
#N canvas 9 206 578 506 notes 0;
#X obj 36 199 outlet;
#X obj 418 98 outlet;
#X obj 35 31 loadbang;
#X obj 36 73 t b;
#X obj 44 51 bng 15 250 50 0 empty empty empty 17 7 0 10 -262144 -1
-1;
#X text 63 49 Update bang;
#X obj 36 177 frame-const;
#X msg 99 152 1;
#X msg 67 131 1;
#X msg 36 111 1;
#X connect 2 0 3 0;
#X connect 3 0 7 0;
#X connect 3 0 8 0;
#X connect 3 0 9 0;
#X connect 4 0 1 0;
#X connect 4 0 3 0;
#X connect 6 0 0 0;
#X connect 7 0 6 2;
#X connect 8 0 6 1;
#X connect 9 0 6 0;
#X restore 38 103 pd notes;
#X obj 4 125 frame-finder;
#N canvas 9 206 578 506 notes 0;
#X obj 36 199 outlet;
#X obj 418 98 outlet;
#X obj 35 31 loadbang;
#X obj 36 73 t b;
#X obj 44 51 bng 15 250 50 0 empty empty empty 17 7 0 10 -262144 -1
-1;
#X text 63 49 Update bang;
#X obj 36 177 frame-const;
#X msg 99 152 1;
#X msg 36 111 2;
#X msg 67 131 1;
#X connect 2 0 3 0;
#X connect 3 0 7 0;
#X connect 3 0 9 0;
#X connect 3 0 8 0;
#X connect 4 0 1 0;
#X connect 4 0 3 0;
#X connect 6 0 0 0;
#X connect 7 0 6 2;
#X connect 8 0 6 0;
#X connect 9 0 6 1;
#X restore 148 103 pd notes;
#X obj 114 125 frame-finder;
#N canvas 9 206 578 506 notes 0;
#X obj 36 199 outlet;
#X obj 418 98 outlet;
#X obj 35 31 loadbang;
#X obj 36 73 t b;
#X obj 44 51 bng 15 250 50 0 empty empty empty 17 7 0 10 -262144 -1
-1;
#X text 63 49 Update bang;
#X obj 36 177 frame-const;
#X msg 99 152 1;
#X msg 36 111 2;
#X msg 67 131 4;
#X connect 2 0 3 0;
#X connect 3 0 7 0;
#X connect 3 0 9 0;
#X connect 3 0 8 0;
#X connect 4 0 1 0;
#X connect 4 0 3 0;
#X connect 6 0 0 0;
#X connect 7 0 6 2;
#X connect 8 0 6 0;
#X connect 9 0 6 1;
#X restore 258 103 pd notes;
#X obj 224 125 frame-finder;
#X msg 42 145 43 0.1;
#X msg 152 145 44 0.1;
#X msg 262 145 46 0.1;
#N canvas 9 206 578 506 notes 0;
#X obj 36 199 outlet;
#X obj 418 98 outlet;
#X obj 35 31 loadbang;
#X obj 36 73 t b;
#X obj 44 51 bng 15 250 50 0 empty empty empty 17 7 0 10 -262144 -1
-1;
#X text 63 49 Update bang;
#X obj 36 177 frame-const;
#X msg 99 152 1;
#X msg 67 131 4;
#X msg 36 111 3;
#X msg 134 177 1 4 1;
#X connect 2 0 3 0;
#X connect 3 0 7 0;
#X connect 3 0 8 0;
#X connect 3 0 9 0;
#X connect 3 0 10 0;
#X connect 4 0 1 0;
#X connect 4 0 3 0;
#X connect 6 0 0 0;
#X connect 7 0 6 2;
#X connect 8 0 6 1;
#X connect 9 0 6 0;
#X connect 10 0 0 0;
#X restore 368 103 pd notes;
#X obj 334 125 frame-finder;
#X msg 372 145 36 0.1;
#N canvas 9 206 578 506 notes 0;
#X obj 36 199 outlet;
#X obj 418 98 outlet;
#X obj 35 31 loadbang;
#X obj 36 73 t b;
#X obj 44 51 bng 15 250 50 0 empty empty empty 17 7 0 10 -262144 -1
-1;
#X text 63 49 Update bang;
#X obj 36 177 frame-const;
#X msg 99 152 1;
#X msg 36 111 4;
#X msg 67 131 1;
#X connect 2 0 3 0;
#X connect 3 0 7 0;
#X connect 3 0 9 0;
#X connect 3 0 8 0;
#X connect 4 0 1 0;
#X connect 4 0 3 0;
#X connect 6 0 0 0;
#X connect 7 0 6 2;
#X connect 8 0 6 0;
#X connect 9 0 6 1;
#X restore 478 103 pd notes;
#X obj 444 125 frame-finder;
#N canvas 9 206 578 506 notes 0;
#X obj 36 199 outlet;
#X obj 418 98 outlet;
#X obj 35 31 loadbang;
#X obj 36 73 t b;
#X obj 44 51 bng 15 250 50 0 empty empty empty 17 7 0 10 -262144 -1
-1;
#X text 63 49 Update bang;
#X obj 36 177 frame-const;
#X msg 99 152 1;
#X msg 36 111 4;
#X msg 67 131 3;
#X connect 2 0 3 0;
#X connect 3 0 7 0;
#X connect 3 0 9 0;
#X connect 3 0 8 0;
#X connect 4 0 1 0;
#X connect 4 0 3 0;
#X connect 6 0 0 0;
#X connect 7 0 6 2;
#X connect 8 0 6 0;
#X connect 9 0 6 1;
#X restore 588 103 pd notes;
#X obj 554 125 frame-finder;
#X msg 482 145 39 0.1;
#X obj 5 25 s \$0-frame-m12;
#X obj 4 83 r \$0-frame-m12;
#X obj 4 168 s \$0-trigger-m12;
#X obj 16 190 s \$0-bool-m12;
#X obj 42 211 s \$0-arg-m12;
#X obj 6 262 r \$0-trigger-m12;
#X obj 116 262 r \$0-bool-m12;
#X obj 208 262 r \$0-arg-m12;
#X obj 114 83 r \$0-frame-m12;
#X obj 114 168 s \$0-trigger-m12;
#X obj 126 190 s \$0-bool-m12;
#X obj 152 211 s \$0-arg-m12;
#X obj 224 83 r \$0-frame-m12;
#X obj 224 168 s \$0-trigger-m12;
#X obj 236 190 s \$0-bool-m12;
#X obj 262 211 s \$0-arg-m12;
#X obj 334 83 r \$0-frame-m12;
#X obj 334 168 s \$0-trigger-m12;
#X obj 346 190 s \$0-bool-m12;
#X obj 372 211 s \$0-arg-m12;
#X obj 444 83 r \$0-frame-m12;
#X obj 444 168 s \$0-trigger-m12;
#X obj 456 190 s \$0-bool-m12;
#X obj 482 211 s \$0-arg-m12;
#X obj 554 83 r \$0-frame-m12;
#X obj 554 168 s \$0-trigger-m12;
#X obj 566 190 s \$0-bool-m12;
#X obj 592 211 s \$0-arg-m12;
#N canvas 9 206 578 506 notes 0;
#X obj 36 199 outlet;
#X obj 418 98 outlet;
#X obj 35 31 loadbang;
#X obj 36 73 t b;
#X obj 44 51 bng 15 250 50 0 empty empty empty 17 7 0 10 -262144 -1
-1;
#X text 63 49 Update bang;
#X obj 36 177 frame-const;
#X msg 99 152 1;
#X msg 36 111 3;
#X msg 67 131 1;
#X connect 2 0 3 0;
#X connect 3 0 7 0;
#X connect 3 0 9 0;
#X connect 3 0 8 0;
#X connect 4 0 1 0;
#X connect 4 0 3 0;
#X connect 6 0 0 0;
#X connect 7 0 6 2;
#X connect 8 0 6 0;
#X connect 9 0 6 1;
#X restore 698 103 pd notes;
#X obj 664 125 frame-finder;
#X obj 664 83 r \$0-frame-m12;
#X obj 664 168 s \$0-trigger-m12;
#X obj 676 190 s \$0-bool-m12;
#X obj 702 211 s \$0-arg-m12;
#X msg 702 145 48 0.1;
#X msg 592 145 38 0.1;
#X connect 0 0 21 0;
#X connect 4 0 5 1;
#X connect 4 1 5 2;
#X connect 5 0 10 0;
#X connect 5 0 23 0;
#X connect 5 1 24 0;
#X connect 6 0 7 1;
#X connect 6 1 7 2;
#X connect 7 0 11 0;
#X connect 7 0 30 0;
#X connect 7 1 31 0;
#X connect 8 0 9 1;
#X connect 8 1 9 2;
#X connect 9 0 12 0;
#X connect 9 0 34 0;
#X connect 9 1 35 0;
#X connect 10 0 25 0;
#X connect 11 0 32 0;
#X connect 12 0 36 0;
#X connect 13 0 14 1;
#X connect 13 1 14 2;
#X connect 14 0 15 0;
#X connect 14 0 38 0;
#X connect 14 1 39 0;
#X connect 15 0 40 0;
#X connect 16 0 17 1;
#X connect 16 1 17 2;
#X connect 17 0 20 0;
#X connect 17 0 42 0;
#X connect 17 1 43 0;
#X connect 18 0 19 1;
#X connect 18 1 19 2;
#X connect 19 0 56 0;
#X connect 19 0 46 0;
#X connect 19 1 47 0;
#X connect 20 0 44 0;
#X connect 22 0 5 0;
#X connect 26 0 1 0;
#X connect 27 0 2 0;
#X connect 28 0 3 0;
#X connect 29 0 7 0;
#X connect 33 0 9 0;
#X connect 37 0 14 0;
#X connect 41 0 17 0;
#X connect 45 0 19 0;
#X connect 49 0 50 1;
#X connect 49 1 50 2;
#X connect 50 0 55 0;
#X connect 50 0 52 0;
#X connect 50 1 53 0;
#X connect 51 0 50 0;
#X connect 55 0 54 0;
#X connect 56 0 48 0;
#X restore 85 47 pd actions;
#N canvas 72 161 929 317 actions 0;
#X obj 5 5 inlet;
#X obj 6 284 outlet;
#X obj 116 283 outlet;
#X obj 208 282 outlet;
#N canvas 9 206 578 506 notes 0;
#X obj 36 199 outlet;
#X obj 418 98 outlet;
#X obj 35 31 loadbang;
#X obj 36 73 t b;
#X obj 44 51 bng 15 250 50 0 empty empty empty 17 7 0 10 -262144 -1
-1;
#X text 63 49 Update bang;
#X obj 36 177 frame-const;
#X msg 99 152 1;
#X msg 67 131 1;
#X msg 36 111 1;
#X connect 2 0 3 0;
#X connect 3 0 7 0;
#X connect 3 0 8 0;
#X connect 3 0 9 0;
#X connect 4 0 1 0;
#X connect 4 0 3 0;
#X connect 6 0 0 0;
#X connect 7 0 6 2;
#X connect 8 0 6 1;
#X connect 9 0 6 0;
#X restore 38 103 pd notes;
#X obj 4 125 frame-finder;
#X obj 5 25 s \$0-frame-m13;
#X obj 4 83 r \$0-frame-m13;
#X obj 4 168 s \$0-trigger-m13;
#X obj 16 190 s \$0-bool-m13;
#X obj 42 211 s \$0-arg-m13;
#X obj 6 262 r \$0-trigger-m13;
#X obj 116 262 r \$0-bool-m13;
#X obj 208 262 r \$0-arg-m13;
#X msg 42 145 36 0.1;
#X connect 0 0 6 0;
#X connect 4 0 5 1;
#X connect 4 1 5 2;
#X connect 5 0 14 0;
#X connect 5 0 8 0;
#X connect 5 1 9 0;
#X connect 7 0 5 0;
#X connect 11 0 1 0;
#X connect 12 0 2 0;
#X connect 13 0 3 0;
#X connect 14 0 10 0;
#X restore 165 47 pd actions;
#X obj 99 162 + 12;
#X obj 165 24 loopsel 3 3;
#X obj 85 24 loopsel 2 2;
#X obj 5 24 loopsel 1 1;
#X connect 1 0 4 0;
#X connect 1 1 5 0;
#X connect 1 2 6 0;
#X connect 1 3 7 0;
#X connect 1 4 8 0;
#X connect 1 5 11 0;
#X connect 1 6 9 0;
#X connect 1 7 10 0;
#X connect 1 8 12 0;
#X connect 1 9 13 0;
#X connect 1 10 15 0;
#X connect 1 11 14 0;
#X connect 1 12 16 0;
#X connect 1 13 17 0;
#X connect 1 14 18 0;
#X connect 1 15 19 0;
#X connect 1 16 20 0;
#X connect 1 17 21 0;
#X connect 2 0 1 0;
#X connect 3 0 2 0;
#X connect 3 1 2 1;
#X connect 22 0 3 0;
#X connect 23 0 1 1;
#X connect 24 0 25 0;
#X connect 24 1 26 0;
#X connect 25 0 30 0;
#X connect 27 0 22 0;
#X connect 27 1 3 1;
#X connect 27 2 24 0;
#X connect 28 0 22 0;
#X connect 28 1 3 1;
#X connect 28 2 24 0;
#X connect 29 0 22 0;
#X connect 29 1 3 1;
#X connect 29 2 24 0;
#X connect 30 0 23 0;
#X connect 31 0 29 0;
#X connect 32 0 28 0;
#X connect 33 0 27 0;
#X restore 802 67 pd multifacet_harm_2-action;
#X obj 1007 45 r frame;
#N canvas 301 39 1057 592 multifacet_melody-action 0;
#X obj 5 3 inlet;
#X obj 5 237 outlet;
#X obj 16 257 outlet;
#X obj 27 277 outlet~;
#X obj 38 297 outlet~;
#X obj 49 317 outlet;
#X obj 71 357 outlet~;
#X obj 82 377 outlet~;
#X obj 60 337 outlet~;
#X obj 93 397 outlet;
#X obj 105 417 outlet;
#X obj 127 457 outlet~;
#X obj 116 437 outlet;
#X obj 138 477 outlet~;
#X obj 149 497 outlet;
#X obj 160 517 outlet;
#X obj 171 537 outlet;
#X obj 182 437 outlet~;
#X obj 194 457 outlet~;
#N canvas 386 137 927 358 action-arrangement 0;
#X obj 16 26 inlet;
#X text 54 26 vel;
#X obj 16 280 outlet;
#X obj 63 280 outlet;
#X obj 110 280 outlet~;
#X obj 162 279 outlet~;
#X obj 214 278 outlet;
#X obj 261 278 outlet~;
#X obj 311 278 outlet~;
#X obj 361 278 outlet~;
#X obj 411 278 outlet;
#X obj 455 278 outlet;
#X obj 500 278 outlet;
#X obj 544 278 outlet~;
#X obj 596 278 outlet~;
#X obj 648 278 outlet;
#X obj 695 278 outlet;
#X obj 740 278 outlet;
#X obj 784 278 outlet~;
#X obj 836 278 outlet~;
#X text 109 297 freq;
#X text 16 298 vel;
#X text 159 298 oscType;
#X text 261 298 FMRatio;
#X text 312 298 FMQ;
#X text 364 298 FMType;
#X text 417 298 Comp;
#X text 464 297 Hip;
#X text 501 296 Lop;
#X text 545 296 DelT;
#X text 594 297 DelQ;
#X text 651 296 Damp;
#X text 695 296 Room;
#X text 737 297 DW;
#X text 786 297 Vol;
#X text 853 298 Bal;
#X text 212 299 GlissT;
#X text 65 298 env;
#X obj 109 257 sig~;
#X obj 161 257 sig~;
#X obj 261 255 sig~;
#X obj 311 255 sig~;
#X obj 361 254 sig~;
#X obj 544 255 sig~;
#X obj 596 255 sig~;
#X obj 836 254 sig~;
#X obj 831 109 bng 15 250 50 0 empty empty empty 17 7 0 10 -262144
-1 -1;
#X obj 831 85 loadbang;
#X msg 109 218 97.9989;
#X obj 109 25 inlet;
#X text 146 24 freq;
#X msg 109 196 set \$1;
#X obj 22 45 sel 0;
#X obj 109 66 mtof;
#X obj 110 46 unpack f f;
#X obj 784 254 line~;
#X msg 695 198 0.5;
#X msg 161 198 1.5;
#X msg 596 198 0;
#X msg 214 197 0;
#X msg 455 198 2;
#X msg 361 198 0;
#X msg 261 198 1.5;
#X msg 411 198 5;
#X msg 311 198 40;
#X msg 500 198 600;
#X msg 544 198 0;
#X msg 740 197 0.2;
#X msg 648 198 0.5;
#X msg 784 187 0.6;
#X msg 63 169 1 1880 0 0.5 500 0 0 0 900 0 0 0;
#X msg 836 187 0.5;
#X connect 0 0 2 0;
#X connect 0 0 52 0;
#X connect 38 0 4 0;
#X connect 39 0 5 0;
#X connect 40 0 7 0;
#X connect 41 0 8 0;
#X connect 42 0 9 0;
#X connect 43 0 13 0;
#X connect 44 0 14 0;
#X connect 45 0 19 0;
#X connect 46 0 71 0;
#X connect 46 0 67 0;
#X connect 46 0 56 0;
#X connect 46 0 68 0;
#X connect 46 0 58 0;
#X connect 46 0 66 0;
#X connect 46 0 65 0;
#X connect 46 0 60 0;
#X connect 46 0 63 0;
#X connect 46 0 61 0;
#X connect 46 0 64 0;
#X connect 46 0 62 0;
#X connect 46 0 59 0;
#X connect 46 0 57 0;
#X connect 46 0 48 0;
#X connect 46 0 70 0;
#X connect 46 0 69 0;
#X connect 47 0 46 0;
#X connect 48 0 38 0;
#X connect 49 0 54 0;
#X connect 51 0 48 0;
#X connect 52 1 46 0;
#X connect 53 0 51 0;
#X connect 54 0 53 0;
#X connect 55 0 18 0;
#X connect 56 0 16 0;
#X connect 57 0 39 0;
#X connect 58 0 44 0;
#X connect 59 0 6 0;
#X connect 60 0 11 0;
#X connect 61 0 42 0;
#X connect 62 0 40 0;
#X connect 63 0 10 0;
#X connect 64 0 41 0;
#X connect 65 0 12 0;
#X connect 66 0 43 0;
#X connect 67 0 17 0;
#X connect 68 0 15 0;
#X connect 69 0 55 0;
#X connect 70 0 3 0;
#X connect 71 0 45 0;
#X restore 5 154 pd action-arrangement melody-arp;
#X obj 5 111 *;
#X obj 5 91 bondo;
#X msg 5 69 127;
#X obj 5 132 change;
#N canvas 108 193 929 317 actions 0;
#X obj 5 5 inlet;
#X obj 6 284 outlet;
#X obj 106 283 outlet;
#X obj 188 282 outlet;
#N canvas 9 206 578 506 notes 0;
#X obj 36 199 outlet;
#X obj 418 98 outlet;
#X obj 35 31 loadbang;
#X obj 36 73 t b;
#X obj 44 51 bng 15 250 50 0 empty empty empty 17 7 0 10 -262144 -1
-1;
#X text 63 49 Update bang;
#X obj 36 177 frame-const;
#X msg 99 152 1;
#X msg 67 131 1;
#X msg 36 111 1 3;
#X connect 2 0 3 0;
#X connect 3 0 7 0;
#X connect 3 0 8 0;
#X connect 3 0 9 0;
#X connect 4 0 1 0;
#X connect 4 0 3 0;
#X connect 6 0 0 0;
#X connect 7 0 6 2;
#X connect 8 0 6 1;
#X connect 9 0 6 0;
#X restore 38 103 pd notes;
#X obj 4 83 r \$0-frame-m1;
#X obj 4 168 s \$0-trigger-m1;
#X obj 16 190 s \$0-bool-m1;
#X obj 42 211 s \$0-arg-m1;
#X obj 6 262 r \$0-trigger-m1;
#X obj 106 262 r \$0-bool-m1;
#X obj 188 262 r \$0-arg-m1;
#X obj 5 25 s \$0-frame-m1;
#X obj 4 125 frame-finder;
#N canvas 9 206 578 506 notes 0;
#X obj 36 199 outlet;
#X obj 418 98 outlet;
#X obj 35 31 loadbang;
#X obj 36 73 t b;
#X obj 44 51 bng 15 250 50 0 empty empty empty 17 7 0 10 -262144 -1
-1;
#X text 63 49 Update bang;
#X obj 36 177 frame-const;
#X msg 99 152 1;
#X msg 36 111 1;
#X msg 67 131 4;
#X connect 2 0 3 0;
#X connect 3 0 7 0;
#X connect 3 0 9 0;
#X connect 3 0 8 0;
#X connect 4 0 1 0;
#X connect 4 0 3 0;
#X connect 6 0 0 0;
#X connect 7 0 6 2;
#X connect 8 0 6 0;
#X connect 9 0 6 1;
#X restore 138 103 pd notes;
#X obj 104 83 r \$0-frame-m1;
#X obj 104 168 s \$0-trigger-m1;
#X obj 116 190 s \$0-bool-m1;
#X obj 142 211 s \$0-arg-m1;
#X obj 104 125 frame-finder;
#N canvas 9 206 578 506 notes 0;
#X obj 36 199 outlet;
#X obj 418 98 outlet;
#X obj 35 31 loadbang;
#X obj 36 73 t b;
#X obj 44 51 bng 15 250 50 0 empty empty empty 17 7 0 10 -262144 -1
-1;
#X text 63 49 Update bang;
#X obj 36 177 frame-const;
#X msg 99 152 1;
#X msg 36 111 2;
#X msg 67 131 1;
#X connect 2 0 3 0;
#X connect 3 0 7 0;
#X connect 3 0 9 0;
#X connect 3 0 8 0;
#X connect 4 0 1 0;
#X connect 4 0 3 0;
#X connect 6 0 0 0;
#X connect 7 0 6 2;
#X connect 8 0 6 0;
#X connect 9 0 6 1;
#X restore 238 103 pd notes;
#X obj 204 83 r \$0-frame-m1;
#X obj 204 168 s \$0-trigger-m1;
#X obj 216 190 s \$0-bool-m1;
#X obj 242 211 s \$0-arg-m1;
#X obj 204 125 frame-finder;
#N canvas 9 206 578 506 notes 0;
#X obj 36 199 outlet;
#X obj 418 98 outlet;
#X obj 35 31 loadbang;
#X obj 36 73 t b;
#X obj 44 51 bng 15 250 50 0 empty empty empty 17 7 0 10 -262144 -1
-1;
#X text 63 49 Update bang;
#X obj 36 177 frame-const;
#X msg 99 152 1;
#X msg 36 111 2;
#X msg 67 131 4;
#X connect 2 0 3 0;
#X connect 3 0 7 0;
#X connect 3 0 9 0;
#X connect 3 0 8 0;
#X connect 4 0 1 0;
#X connect 4 0 3 0;
#X connect 6 0 0 0;
#X connect 7 0 6 2;
#X connect 8 0 6 0;
#X connect 9 0 6 1;
#X restore 338 103 pd notes;
#X obj 304 83 r \$0-frame-m1;
#X obj 304 168 s \$0-trigger-m1;
#X obj 316 190 s \$0-bool-m1;
#X obj 342 211 s \$0-arg-m1;
#X obj 304 125 frame-finder;
#X msg 42 145 43 0.1;
#X msg 142 145 41 0.1;
#X msg 242 145 44 0.1;
#X msg 342 145 46 0.1;
#N canvas 9 206 578 506 notes 0;
#X obj 36 199 outlet;
#X obj 418 98 outlet;
#X obj 35 31 loadbang;
#X obj 36 73 t b;
#X obj 44 51 bng 15 250 50 0 empty empty empty 17 7 0 10 -262144 -1
-1;
#X text 63 49 Update bang;
#X obj 36 177 frame-const;
#X msg 99 152 1;
#X msg 67 131 4;
#X msg 36 111 3;
#X connect 2 0 3 0;
#X connect 3 0 7 0;
#X connect 3 0 8 0;
#X connect 3 0 9 0;
#X connect 4 0 1 0;
#X connect 4 0 3 0;
#X connect 6 0 0 0;
#X connect 7 0 6 2;
#X connect 8 0 6 1;
#X connect 9 0 6 0;
#X restore 438 103 pd notes;
#X obj 404 83 r \$0-frame-m1;
#X obj 404 168 s \$0-trigger-m1;
#X obj 416 190 s \$0-bool-m1;
#X obj 442 211 s \$0-arg-m1;
#X obj 404 125 frame-finder;
#X msg 442 145 36 0.1;
#N canvas 9 206 578 506 notes 0;
#X obj 36 199 outlet;
#X obj 418 98 outlet;
#X obj 35 31 loadbang;
#X obj 36 73 t b;
#X obj 44 51 bng 15 250 50 0 empty empty empty 17 7 0 10 -262144 -1
-1;
#X text 63 49 Update bang;
#X obj 36 177 frame-const;
#X msg 99 152 1;
#X msg 36 111 4;
#X msg 67 131 1;
#X connect 2 0 3 0;
#X connect 3 0 7 0;
#X connect 3 0 9 0;
#X connect 3 0 8 0;
#X connect 4 0 1 0;
#X connect 4 0 3 0;
#X connect 6 0 0 0;
#X connect 7 0 6 2;
#X connect 8 0 6 0;
#X connect 9 0 6 1;
#X restore 538 103 pd notes;
#X obj 504 83 r \$0-frame-m1;
#X obj 504 168 s \$0-trigger-m1;
#X obj 516 190 s \$0-bool-m1;
#X obj 542 211 s \$0-arg-m1;
#X obj 504 125 frame-finder;
#N canvas 9 206 578 506 notes 0;
#X obj 36 199 outlet;
#X obj 418 98 outlet;
#X obj 35 31 loadbang;
#X obj 36 73 t b;
#X obj 44 51 bng 15 250 50 0 empty empty empty 17 7 0 10 -262144 -1
-1;
#X text 63 49 Update bang;
#X obj 36 177 frame-const;
#X msg 99 152 1;
#X msg 36 111 4;
#X msg 67 131 3;
#X connect 2 0 3 0;
#X connect 3 0 7 0;
#X connect 3 0 9 0;
#X connect 3 0 8 0;
#X connect 4 0 1 0;
#X connect 4 0 3 0;
#X connect 6 0 0 0;
#X connect 7 0 6 2;
#X connect 8 0 6 0;
#X connect 9 0 6 1;
#X restore 638 103 pd notes;
#X obj 604 83 r \$0-frame-m1;
#X obj 604 168 s \$0-trigger-m1;
#X obj 616 190 s \$0-bool-m1;
#X obj 642 211 s \$0-arg-m1;
#X obj 604 125 frame-finder;
#X msg 542 145 39 0.1;
#X msg 642 145 41 0.1;
#X connect 0 0 12 0;
#X connect 4 0 13 1;
#X connect 4 1 13 2;
#X connect 5 0 13 0;
#X connect 9 0 1 0;
#X connect 10 0 2 0;
#X connect 11 0 3 0;
#X connect 13 0 32 0;
#X connect 13 0 6 0;
#X connect 13 1 7 0;
#X connect 14 0 19 1;
#X connect 14 1 19 2;
#X connect 15 0 19 0;
#X connect 19 0 33 0;
#X connect 19 0 16 0;
#X connect 19 1 17 0;
#X connect 20 0 25 1;
#X connect 20 1 25 2;
#X connect 21 0 25 0;
#X connect 25 0 34 0;
#X connect 25 0 22 0;
#X connect 25 1 23 0;
#X connect 26 0 31 1;
#X connect 26 1 31 2;
#X connect 27 0 31 0;
#X connect 31 0 35 0;
#X connect 31 0 28 0;
#X connect 31 1 29 0;
#X connect 32 0 8 0;
#X connect 33 0 18 0;
#X connect 34 0 24 0;
#X connect 35 0 30 0;
#X connect 36 0 41 1;
#X connect 36 1 41 2;
#X connect 37 0 41 0;
#X connect 41 0 42 0;
#X connect 41 0 38 0;
#X connect 41 1 39 0;
#X connect 42 0 40 0;
#X connect 43 0 48 1;
#X connect 43 1 48 2;
#X connect 44 0 48 0;
#X connect 48 0 55 0;
#X connect 48 0 45 0;
#X connect 48 1 46 0;
#X connect 49 0 54 1;
#X connect 49 1 54 2;
#X connect 50 0 54 0;
#X connect 54 0 56 0;
#X connect 54 0 51 0;
#X connect 54 1 52 0;
#X connect 55 0 47 0;
#X connect 56 0 53 0;
#X restore 5 47 pd actions;
#N canvas 108 193 929 317 actions 0;
#X obj 5 5 inlet;
#X obj 6 284 outlet;
#X obj 116 283 outlet;
#X obj 208 282 outlet;
#N canvas 9 206 578 506 notes 0;
#X obj 36 199 outlet;
#X obj 418 98 outlet;
#X obj 35 31 loadbang;
#X obj 36 73 t b;
#X obj 44 51 bng 15 250 50 0 empty empty empty 17 7 0 10 -262144 -1
-1;
#X text 63 49 Update bang;
#X obj 36 177 frame-const;
#X msg 99 152 1;
#X msg 67 131 1;
#X msg 36 111 1;
#X connect 2 0 3 0;
#X connect 3 0 7 0;
#X connect 3 0 8 0;
#X connect 3 0 9 0;
#X connect 4 0 1 0;
#X connect 4 0 3 0;
#X connect 6 0 0 0;
#X connect 7 0 6 2;
#X connect 8 0 6 1;
#X connect 9 0 6 0;
#X restore 38 103 pd notes;
#X obj 4 125 frame-finder;
#N canvas 9 206 578 506 notes 0;
#X obj 36 199 outlet;
#X obj 418 98 outlet;
#X obj 35 31 loadbang;
#X obj 36 73 t b;
#X obj 44 51 bng 15 250 50 0 empty empty empty 17 7 0 10 -262144 -1
-1;
#X text 63 49 Update bang;
#X obj 36 177 frame-const;
#X msg 99 152 1;
#X msg 36 111 2;
#X msg 67 131 1;
#X connect 2 0 3 0;
#X connect 3 0 7 0;
#X connect 3 0 9 0;
#X connect 3 0 8 0;
#X connect 4 0 1 0;
#X connect 4 0 3 0;
#X connect 6 0 0 0;
#X connect 7 0 6 2;
#X connect 8 0 6 0;
#X connect 9 0 6 1;
#X restore 148 103 pd notes;
#X obj 114 125 frame-finder;
#N canvas 9 206 578 506 notes 0;
#X obj 36 199 outlet;
#X obj 418 98 outlet;
#X obj 35 31 loadbang;
#X obj 36 73 t b;
#X obj 44 51 bng 15 250 50 0 empty empty empty 17 7 0 10 -262144 -1
-1;
#X text 63 49 Update bang;
#X obj 36 177 frame-const;
#X msg 99 152 1;
#X msg 36 111 2;
#X msg 67 131 4;
#X connect 2 0 3 0;
#X connect 3 0 7 0;
#X connect 3 0 9 0;
#X connect 3 0 8 0;
#X connect 4 0 1 0;
#X connect 4 0 3 0;
#X connect 6 0 0 0;
#X connect 7 0 6 2;
#X connect 8 0 6 0;
#X connect 9 0 6 1;
#X restore 258 103 pd notes;
#X obj 224 125 frame-finder;
#X msg 42 145 43 0.1;
#X msg 152 145 44 0.1;
#X msg 262 145 46 0.1;
#N canvas 9 206 578 506 notes 0;
#X obj 36 199 outlet;
#X obj 418 98 outlet;
#X obj 35 31 loadbang;
#X obj 36 73 t b;
#X obj 44 51 bng 15 250 50 0 empty empty empty 17 7 0 10 -262144 -1
-1;
#X text 63 49 Update bang;
#X obj 36 177 frame-const;
#X msg 99 152 1;
#X msg 67 131 4;
#X msg 36 111 3;
#X msg 134 177 1 4 1;
#X connect 2 0 3 0;
#X connect 3 0 7 0;
#X connect 3 0 8 0;
#X connect 3 0 9 0;
#X connect 3 0 10 0;
#X connect 4 0 1 0;
#X connect 4 0 3 0;
#X connect 6 0 0 0;
#X connect 7 0 6 2;
#X connect 8 0 6 1;
#X connect 9 0 6 0;
#X connect 10 0 0 0;
#X restore 368 103 pd notes;
#X obj 334 125 frame-finder;
#X msg 372 145 36 0.1;
#N canvas 9 206 578 506 notes 0;
#X obj 36 199 outlet;
#X obj 418 98 outlet;
#X obj 35 31 loadbang;
#X obj 36 73 t b;
#X obj 44 51 bng 15 250 50 0 empty empty empty 17 7 0 10 -262144 -1
-1;
#X text 63 49 Update bang;
#X obj 36 177 frame-const;
#X msg 99 152 1;
#X msg 36 111 4;
#X msg 67 131 1;
#X connect 2 0 3 0;
#X connect 3 0 7 0;
#X connect 3 0 9 0;
#X connect 3 0 8 0;
#X connect 4 0 1 0;
#X connect 4 0 3 0;
#X connect 6 0 0 0;
#X connect 7 0 6 2;
#X connect 8 0 6 0;
#X connect 9 0 6 1;
#X restore 478 103 pd notes;
#X obj 444 125 frame-finder;
#N canvas 9 206 578 506 notes 0;
#X obj 36 199 outlet;
#X obj 418 98 outlet;
#X obj 35 31 loadbang;
#X obj 36 73 t b;
#X obj 44 51 bng 15 250 50 0 empty empty empty 17 7 0 10 -262144 -1
-1;
#X text 63 49 Update bang;
#X obj 36 177 frame-const;
#X msg 99 152 1;
#X msg 36 111 4;
#X msg 67 131 3;
#X connect 2 0 3 0;
#X connect 3 0 7 0;
#X connect 3 0 9 0;
#X connect 3 0 8 0;
#X connect 4 0 1 0;
#X connect 4 0 3 0;
#X connect 6 0 0 0;
#X connect 7 0 6 2;
#X connect 8 0 6 0;
#X connect 9 0 6 1;
#X restore 588 103 pd notes;
#X obj 554 125 frame-finder;
#X msg 482 145 39 0.1;
#X obj 5 25 s \$0-frame-m12;
#X obj 4 83 r \$0-frame-m12;
#X obj 4 168 s \$0-trigger-m12;
#X obj 16 190 s \$0-bool-m12;
#X obj 42 211 s \$0-arg-m12;
#X obj 6 262 r \$0-trigger-m12;
#X obj 116 262 r \$0-bool-m12;
#X obj 208 262 r \$0-arg-m12;
#X obj 114 83 r \$0-frame-m12;
#X obj 114 168 s \$0-trigger-m12;
#X obj 126 190 s \$0-bool-m12;
#X obj 152 211 s \$0-arg-m12;
#X obj 224 83 r \$0-frame-m12;
#X obj 224 168 s \$0-trigger-m12;
#X obj 236 190 s \$0-bool-m12;
#X obj 262 211 s \$0-arg-m12;
#X obj 334 83 r \$0-frame-m12;
#X obj 334 168 s \$0-trigger-m12;
#X obj 346 190 s \$0-bool-m12;
#X obj 372 211 s \$0-arg-m12;
#X obj 444 83 r \$0-frame-m12;
#X obj 444 168 s \$0-trigger-m12;
#X obj 456 190 s \$0-bool-m12;
#X obj 482 211 s \$0-arg-m12;
#X obj 554 83 r \$0-frame-m12;
#X obj 554 168 s \$0-trigger-m12;
#X obj 566 190 s \$0-bool-m12;
#X obj 592 211 s \$0-arg-m12;
#N canvas 9 206 578 506 notes 0;
#X obj 36 199 outlet;
#X obj 418 98 outlet;
#X obj 35 31 loadbang;
#X obj 36 73 t b;
#X obj 44 51 bng 15 250 50 0 empty empty empty 17 7 0 10 -262144 -1
-1;
#X text 63 49 Update bang;
#X obj 36 177 frame-const;
#X msg 99 152 1;
#X msg 36 111 3;
#X msg 67 131 1;
#X connect 2 0 3 0;
#X connect 3 0 7 0;
#X connect 3 0 9 0;
#X connect 3 0 8 0;
#X connect 4 0 1 0;
#X connect 4 0 3 0;
#X connect 6 0 0 0;
#X connect 7 0 6 2;
#X connect 8 0 6 0;
#X connect 9 0 6 1;
#X restore 698 103 pd notes;
#X obj 664 125 frame-finder;
#X obj 664 83 r \$0-frame-m12;
#X obj 664 168 s \$0-trigger-m12;
#X obj 676 190 s \$0-bool-m12;
#X obj 702 211 s \$0-arg-m12;
#X msg 702 145 48 0.1;
#X msg 592 145 38 0.1;
#X connect 0 0 21 0;
#X connect 4 0 5 1;
#X connect 4 1 5 2;
#X connect 5 0 10 0;
#X connect 5 0 23 0;
#X connect 5 1 24 0;
#X connect 6 0 7 1;
#X connect 6 1 7 2;
#X connect 7 0 11 0;
#X connect 7 0 30 0;
#X connect 7 1 31 0;
#X connect 8 0 9 1;
#X connect 8 1 9 2;
#X connect 9 0 12 0;
#X connect 9 0 34 0;
#X connect 9 1 35 0;
#X connect 10 0 25 0;
#X connect 11 0 32 0;
#X connect 12 0 36 0;
#X connect 13 0 14 1;
#X connect 13 1 14 2;
#X connect 14 0 15 0;
#X connect 14 0 38 0;
#X connect 14 1 39 0;
#X connect 15 0 40 0;
#X connect 16 0 17 1;
#X connect 16 1 17 2;
#X connect 17 0 20 0;
#X connect 17 0 42 0;
#X connect 17 1 43 0;
#X connect 18 0 19 1;
#X connect 18 1 19 2;
#X connect 19 0 56 0;
#X connect 19 0 46 0;
#X connect 19 1 47 0;
#X connect 20 0 44 0;
#X connect 22 0 5 0;
#X connect 26 0 1 0;
#X connect 27 0 2 0;
#X connect 28 0 3 0;
#X connect 29 0 7 0;
#X connect 33 0 9 0;
#X connect 37 0 14 0;
#X connect 41 0 17 0;
#X connect 45 0 19 0;
#X connect 49 0 50 1;
#X connect 49 1 50 2;
#X connect 50 0 55 0;
#X connect 50 0 52 0;
#X connect 50 1 53 0;
#X connect 51 0 50 0;
#X connect 55 0 54 0;
#X connect 56 0 48 0;
#X restore 85 47 pd actions;
#N canvas 72 161 929 317 actions 0;
#X obj 5 5 inlet;
#X obj 6 284 outlet;
#X obj 116 283 outlet;
#X obj 208 282 outlet;
#N canvas 9 206 578 506 notes 0;
#X obj 36 199 outlet;
#X obj 418 98 outlet;
#X obj 35 31 loadbang;
#X obj 36 73 t b;
#X obj 44 51 bng 15 250 50 0 empty empty empty 17 7 0 10 -262144 -1
-1;
#X text 63 49 Update bang;
#X obj 36 177 frame-const;
#X msg 99 152 1;
#X msg 67 131 1;
#X msg 36 111 1;
#X connect 2 0 3 0;
#X connect 3 0 7 0;
#X connect 3 0 8 0;
#X connect 3 0 9 0;
#X connect 4 0 1 0;
#X connect 4 0 3 0;
#X connect 6 0 0 0;
#X connect 7 0 6 2;
#X connect 8 0 6 1;
#X connect 9 0 6 0;
#X restore 38 103 pd notes;
#X obj 4 125 frame-finder;
#X obj 5 25 s \$0-frame-m13;
#X obj 4 83 r \$0-frame-m13;
#X obj 4 168 s \$0-trigger-m13;
#X obj 16 190 s \$0-bool-m13;
#X obj 42 211 s \$0-arg-m13;
#X obj 6 262 r \$0-trigger-m13;
#X obj 116 262 r \$0-bool-m13;
#X obj 208 262 r \$0-arg-m13;
#X msg 42 145 36 0.1;
#X connect 0 0 6 0;
#X connect 4 0 5 1;
#X connect 4 1 5 2;
#X connect 5 0 14 0;
#X connect 5 0 8 0;
#X connect 5 1 9 0;
#X connect 7 0 5 0;
#X connect 11 0 1 0;
#X connect 12 0 2 0;
#X connect 13 0 3 0;
#X connect 14 0 10 0;
#X restore 165 47 pd actions;
#X obj 165 24 loopsel 3 3;
#X obj 85 24 loopsel 2 2;
#X obj 5 24 loopsel 1 1;
#X connect 19 0 1 0;
#X connect 19 1 2 0;
#X connect 19 2 3 0;
#X connect 19 3 4 0;
#X connect 19 4 5 0;
#X connect 19 5 8 0;
#X connect 19 6 6 0;
#X connect 19 7 7 0;
#X connect 19 8 9 0;
#X connect 19 9 10 0;
#X connect 19 10 12 0;
#X connect 19 11 11 0;
#X connect 19 12 13 0;
#X connect 19 13 14 0;
#X connect 19 14 15 0;
#X connect 19 15 16 0;
#X connect 19 16 17 0;
#X connect 19 17 18 0;
#X connect 20 0 23 0;
#X connect 21 0 20 0;
#X connect 21 1 20 1;
#X connect 22 0 21 0;
#X connect 23 0 19 0;
#X connect 24 0 22 0;
#X connect 24 1 21 1;
#X connect 24 2 19 1;
#X connect 25 0 22 0;
#X connect 25 1 21 1;
#X connect 25 2 19 1;
#X connect 26 0 22 0;
#X connect 26 1 21 1;
#X connect 26 2 19 1;
#X connect 27 0 26 0;
#X connect 28 0 25 0;
#X connect 29 0 24 0;
#X restore 1007 67 pd multifacet_melody-action;
#X obj 69 -69 s start;
#X obj 208 102 instrument percussive-fx-2;
#X obj 404 100 instrument multifacet-perc;
#X obj 600 100 instrument multifacet-arm-1;
#X obj 1007 100 instrument multifacet-mel-1;
#X obj 802 100 instrument multifacet-arm-2;
#X obj 230 -26 list-random 0 29;
#X obj 230 -49 loadbang;
#X obj 230 -68 bng 15 250 50 0 empty empty empty 17 7 0 10 -262144
-1 -1;
#X obj 121 173 r p1a;
#X obj 106 216 bng 15 250 50 0 empty empty empty 17 7 0 10 -262144
-1 -1;
#X obj 106 195 r tt;
#X obj 230 -5 s placeholder;
#X obj 127 280 r tt;
#X obj 148 301 r placeholder;
#X obj 125 235 r placeholder;
#X obj 106 339 list;
#X obj 9 173 r p1a;
#X obj 17 194 r p2a;
#X obj 26 214 r mra;
#X obj 34 234 r m1a;
#X obj 42 254 r m2a;
#X obj 50 274 r mea;
#X obj 9 295 bng 15 250 50 0 empty empty empty 17 7 0 10 -262144 -1
-1;
#X obj 9 334 s tt;
#X obj 127 359 r tt;
#X obj 127 378 bng 15 250 50 0 empty empty empty 17 7 0 10 -262144
-1 -1;
#X obj 148 378 r placeholder;
#X obj 106 416 list;
#X obj 142 256 r p2a;
#X obj 142 339 r mra;
#X obj 127 436 r tt;
#X obj 127 455 bng 15 250 50 0 empty empty empty 17 7 0 10 -262144
-1 -1;
#X obj 148 455 r placeholder;
#X obj 106 493 list;
#X obj 127 513 r tt;
#X obj 127 532 bng 15 250 50 0 empty empty empty 17 7 0 10 -262144
-1 -1;
#X obj 148 532 r placeholder;
#X obj 106 570 list;
#X obj 142 416 r m1a;
#X obj 142 494 r m2a;
#X obj 127 590 r tt;
#X obj 127 609 bng 15 250 50 0 empty empty empty 17 7 0 10 -262144
-1 -1;
#X obj 148 609 r placeholder;
#X obj 106 647 list;
#X obj 142 571 r mea;
#X obj 73 670 pysend;
#X obj 73 651 tgl 15 0 empty empty empty 17 7 0 10 -262144 -1 -1 0
1;
#X obj 58 628 r start;
#X obj 127 320 l;
#X obj 106 256 l;
#X obj 127 397 l;
#X obj 127 474 l;
#X obj 127 551 l;
#X obj 127 628 l;
#X obj 127 301 bng 15 250 50 0 empty empty empty 17 7 0 10 -262144
-1 -1;
#X text 983 445 master volume;
#X text 282 -56 initialize an empty list as a placeholder for inactive
instruments;
#X floatatom 84 692 5 0 0 0 - - -;
#X floatatom 195 -23 5 0 0 0 - - -;
#X obj 187 484 print;
#X obj 9 313 del 0;
#X obj 334 230 key 32;
#X obj 334 260 == 32;
#X obj 334 281 sel 1;
#X obj 334 303 tgl 15 0 empty empty empty 17 7 0 10 -262144 -1 -1 0
1;
#X obj 790 565 writesf~ 2;
#X msg 752 486 start;
#X msg 714 529 stop;
#X obj 361 368 bng 15 250 50 0 empty empty empty 17 7 0 10 -262144
-1 -1;
#X obj 361 488 click~;
#X obj 372 386 counter;
#X obj 391 346 sel 0;
#X floatatom 372 407 5 0 0 0 - - -;
#X msg 391 367 1;
#X obj 372 427 <= 4;
#X obj 361 449 spigot;
#X obj 402 473 bng 15 250 50 0 empty empty empty 17 7 0 10 -262144
-1 -1;
#X obj 409 427 sel 5;
#X msg 409 447 1;
#X msg 420 366 0;
#X floatatom 945 527 5 0 0 0 - - -;
#X obj 940 373 loadbang;
#X msg 940 394 0.6;
#X text 651 -46 Apoyar los bajos con una senoidal;
#X obj 5 -90 r stop;
#X obj 636 412 bng 15 250 50 0 empty empty empty 17 7 0 10 -262144
-1 -1;
#X obj 915 218 readsf~ 2;
#X msg 929 190 start;
#X msg 972 190 stop;
#X obj 451 427 sel 3;
#X obj 889 165 bng 15 250 50 0 empty empty empty 17 7 0 10 -262144
-1 -1;
#X obj 5 -46 metronome 100 1/4 8 1;
#X obj 361 305 metronome 100 4/4 1 1;
#X obj 361 121 s p1a;
#X obj 163 122 s p2a;
#X msg 915 168 open golpear.wav;
#X msg 683 452 open golpear-eco.wav;
#X connect 1 0 52 0;
#X connect 1 0 144 0;
#X connect 2 0 3 0;
#X connect 2 1 4 0;
#X connect 2 2 5 0;
#X connect 8 0 0 0;
#X connect 8 0 118 0;
#X connect 9 0 0 1;
#X connect 9 0 118 1;
#X connect 10 0 9 1;
#X connect 10 0 8 1;
#X connect 10 0 133 0;
#X connect 13 0 8 0;
#X connect 14 0 9 0;
#X connect 17 0 8 0;
#X connect 18 0 9 0;
#X connect 27 0 8 0;
#X connect 28 0 8 0;
#X connect 29 0 8 0;
#X connect 30 0 8 0;
#X connect 31 0 9 0;
#X connect 32 0 9 0;
#X connect 33 0 9 0;
#X connect 34 0 9 0;
#X connect 35 0 11 0;
#X connect 35 1 12 0;
#X connect 35 2 147 0;
#X connect 40 0 35 0;
#X connect 40 1 35 1;
#X connect 40 2 35 2;
#X connect 40 3 35 3;
#X connect 40 4 35 4;
#X connect 40 5 35 5;
#X connect 40 6 35 6;
#X connect 40 7 35 7;
#X connect 40 8 35 8;
#X connect 40 9 35 9;
#X connect 40 10 35 10;
#X connect 40 11 35 11;
#X connect 40 12 35 12;
#X connect 40 13 35 13;
#X connect 40 14 35 14;
#X connect 40 15 35 15;
#X connect 40 16 35 16;
#X connect 40 17 35 17;
#X connect 41 0 40 0;
#X connect 42 0 43 0;
#X connect 43 0 53 0;
#X connect 43 1 53 1;
#X connect 43 2 53 2;
#X connect 43 3 53 3;
#X connect 43 4 53 4;
#X connect 43 5 53 5;
#X connect 43 6 53 6;
#X connect 43 7 53 7;
#X connect 43 8 53 8;
#X connect 43 9 53 9;
#X connect 43 10 53 10;
#X connect 43 11 53 11;
#X connect 43 12 53 12;
#X connect 43 13 53 13;
#X connect 43 14 53 14;
#X connect 43 15 53 15;
#X connect 43 16 53 16;
#X connect 43 17 53 17;
#X connect 44 0 45 0;
#X connect 45 0 54 0;
#X connect 45 1 54 1;
#X connect 45 2 54 2;
#X connect 45 3 54 3;
#X connect 45 4 54 4;
#X connect 45 5 54 5;
#X connect 45 6 54 6;
#X connect 45 7 54 7;
#X connect 45 8 54 8;
#X connect 45 9 54 9;
#X connect 45 10 54 10;
#X connect 45 11 54 11;
#X connect 45 12 54 12;
#X connect 45 13 54 13;
#X connect 45 14 54 14;
#X connect 45 15 54 15;
#X connect 45 16 54 16;
#X connect 45 17 54 17;
#X connect 46 0 47 0;
#X connect 47 0 55 0;
#X connect 47 1 55 1;
#X connect 47 2 55 2;
#X connect 47 3 55 3;
#X connect 47 4 55 4;
#X connect 47 5 55 5;
#X connect 47 6 55 6;
#X connect 47 7 55 7;
#X connect 47 8 55 8;
#X connect 47 9 55 9;
#X connect 47 10 55 10;
#X connect 47 11 55 11;
#X connect 47 12 55 12;
#X connect 47 13 55 13;
#X connect 47 14 55 14;
#X connect 47 15 55 15;
#X connect 47 16 55 16;
#X connect 47 17 55 17;
#X connect 48 0 49 0;
#X connect 49 0 57 0;
#X connect 49 1 57 1;
#X connect 49 2 57 2;
#X connect 49 3 57 3;
#X connect 49 4 57 4;
#X connect 49 5 57 5;
#X connect 49 6 57 6;
#X connect 49 7 57 7;
#X connect 49 8 57 8;
#X connect 49 9 57 9;
#X connect 49 10 57 10;
#X connect 49 11 57 11;
#X connect 49 12 57 12;
#X connect 49 13 57 13;
#X connect 49 14 57 14;
#X connect 49 15 57 15;
#X connect 49 16 57 16;
#X connect 49 17 57 17;
#X connect 50 0 51 0;
#X connect 51 0 56 0;
#X connect 51 1 56 1;
#X connect 51 2 56 2;
#X connect 51 3 56 3;
#X connect 51 4 56 4;
#X connect 51 5 56 5;
#X connect 51 6 56 6;
#X connect 51 7 56 7;
#X connect 51 8 56 8;
#X connect 51 9 56 9;
#X connect 51 10 56 10;
#X connect 51 11 56 11;
#X connect 51 12 56 12;
#X connect 51 13 56 13;
#X connect 51 14 56 14;
#X connect 51 15 56 15;
#X connect 51 16 56 16;
#X connect 51 17 56 17;
#X connect 53 0 15 0;
#X connect 53 1 16 0;
#X connect 53 2 146 0;
#X connect 54 0 19 0;
#X connect 54 1 20 0;
#X connect 54 2 36 0;
#X connect 55 0 21 0;
#X connect 55 1 22 0;
#X connect 55 2 37 0;
#X connect 56 0 25 0;
#X connect 56 1 26 0;
#X connect 56 2 39 0;
#X connect 57 0 23 0;
#X connect 57 1 24 0;
#X connect 57 2 38 0;
#X connect 58 0 64 0;
#X connect 59 0 58 0;
#X connect 60 0 58 0;
#X connect 61 0 102 1;
#X connect 62 0 102 0;
#X connect 63 0 62 0;
#X connect 65 0 107 0;
#X connect 66 0 101 1;
#X connect 67 0 102 1;
#X connect 68 0 80 0;
#X connect 69 0 75 0;
#X connect 70 0 75 0;
#X connect 71 0 75 0;
#X connect 72 0 75 0;
#X connect 73 0 75 0;
#X connect 74 0 75 0;
#X connect 75 0 113 0;
#X connect 77 0 78 0;
#X connect 78 0 103 0;
#X connect 79 0 103 1;
#X connect 80 0 86 0;
#X connect 81 0 101 1;
#X connect 82 0 103 1;
#X connect 83 0 84 0;
#X connect 84 0 104 0;
#X connect 85 0 104 1;
#X connect 86 0 90 0;
#X connect 87 0 88 0;
#X connect 88 0 105 0;
#X connect 89 0 105 1;
#X connect 90 0 96 0;
#X connect 91 0 104 1;
#X connect 92 0 105 1;
#X connect 93 0 94 0;
#X connect 94 0 106 0;
#X connect 95 0 106 1;
#X connect 96 0 98 1;
#X connect 97 0 106 1;
#X connect 98 0 110 0;
#X connect 99 0 98 0;
#X connect 100 0 99 0;
#X connect 101 0 68 1;
#X connect 102 0 68 0;
#X connect 103 0 80 1;
#X connect 104 0 86 1;
#X connect 105 0 90 1;
#X connect 106 0 96 1;
#X connect 107 0 101 0;
#X connect 113 0 76 0;
#X connect 114 0 115 0;
#X connect 115 0 116 0;
#X connect 116 0 117 0;
#X connect 117 0 124 0;
#X connect 117 0 145 0;
#X connect 119 0 118 0;
#X connect 120 0 118 0;
#X connect 121 0 123 0;
#X connect 121 0 122 0;
#X connect 122 0 8 0;
#X connect 122 0 9 0;
#X connect 123 0 125 0;
#X connect 124 0 126 0;
#X connect 124 0 132 0;
#X connect 124 0 120 0;
#X connect 124 0 141 0;
#X connect 125 0 127 0;
#X connect 125 0 130 0;
#X connect 125 0 142 0;
#X connect 126 0 123 2;
#X connect 127 0 128 1;
#X connect 128 0 129 0;
#X connect 128 0 122 0;
#X connect 130 0 131 0;
#X connect 131 0 1 0;
#X connect 132 0 1 0;
#X connect 134 0 135 0;
#X connect 135 0 10 0;
#X connect 137 0 1 0;
#X connect 138 0 149 0;
#X connect 138 0 119 0;
#X connect 139 0 8 0;
#X connect 139 1 9 0;
#X connect 140 0 139 0;
#X connect 141 0 139 0;
#X connect 142 0 143 0;
#X connect 143 0 148 0;
#X connect 143 0 140 0;
#X connect 144 0 2 0;
#X connect 144 0 6 0;
#X connect 144 1 7 0;
#X connect 144 2 111 0;
#X connect 145 0 121 0;
#X connect 148 0 139 0;
#X connect 149 0 118 0;
