#N canvas 99 23 450 300 10;
#X obj 7 12 inlet;
#X obj 142 112 \$1;
#X obj 142 81 loadbang;
#X obj 258 115 \$2;
#X floatatom 142 134 5 0 0 0 - - -;
#X floatatom 258 136 5 0 0 0 - - -;
#X obj 27 34 list-idx 0;
#X obj 27 54 change;
#X obj 27 74 == 1;
#X obj 27 114 counter;
#X floatatom 27 134 5 0 0 0 - - -;
#X obj 27 95 sel 1;
#X obj 63 96 bng 15 250 50 0 empty empty empty 17 7 0 10 -262144 -1
-1;
#X obj 70 55 r start;
#X obj 63 76 sel 0;
#X obj 7 206 spigot;
#X obj 27 185 tgl 15 0 empty empty empty 17 7 0 10 -262144 -1 -1 0
1;
#X obj 27 157 expr if($f1 >= $f2 && $f1 <= $f3 \, 1 \, 0);
#X obj 7 227 outlet;
#X obj 70 135 outlet;
#X floatatom 116 37 5 0 0 0 - - -;
#X connect 0 0 6 0;
#X connect 0 0 15 0;
#X connect 1 0 4 0;
#X connect 2 0 1 0;
#X connect 2 0 3 0;
#X connect 3 0 5 0;
#X connect 4 0 17 1;
#X connect 5 0 17 2;
#X connect 6 0 7 0;
#X connect 6 0 20 0;
#X connect 7 0 8 0;
#X connect 8 0 11 0;
#X connect 9 0 10 0;
#X connect 9 0 19 0;
#X connect 10 0 17 0;
#X connect 11 0 9 0;
#X connect 12 0 9 3;
#X connect 13 0 14 0;
#X connect 13 0 6 0;
#X connect 14 0 12 0;
#X connect 15 0 18 0;
#X connect 16 0 15 1;
#X connect 17 0 16 0;
