#N canvas 111 110 1137 767 10;
#X text 12 6 ARGUMENT STRUCTURE:;
#X text 12 24 \$0: object's name (metronome);
#X text 12 41 \$1: tempo in bpm (float);
#X text 12 58 \$2: metre in int/int structure (symbol);
#X obj 343 181 \$1;
#X obj 343 130 loadbang;
#X obj 351 152 inlet;
#X obj 434 202 splitfilename /;
#X obj 343 202 expr 60000/$f1;
#X obj 316 353 metro;
#X obj 316 106 inlet;
#X obj 539 179 \$3;
#X obj 444 297 t b f;
#X floatatom 434 370 5 0 0 0 - - -;
#X text 469 368 No. of beats;
#X obj 434 178 symbol \$2;
#X obj 434 258 s2l;
#X obj 434 278 unpack f;
#X obj 316 400 counter;
#X obj 469 532 outlet;
#X obj 434 392 - 1;
#X obj 469 481 + 1;
#X obj 355 304 t b f;
#X obj 275 291 sel 0;
#X obj 275 314 bng 15 250 50 0 empty empty empty 17 7 0 10 -262144
-1 -1;
#X text 12 74 \$3: Subdivision percentage:;
#X obj 539 153 bng 15 250 50 0 empty empty empty 17 7 0 10 -262144
-1 -1;
#X obj 496 480 outlet;
#X text 179 73 1 = original beat \, 2 = half beat \, 0.5 = twice beat
;
#X obj 434 349 *;
#X obj 463 325 t b f;
#X obj 326 292 bng 15 250 50 0 empty empty empty 17 7 0 10 -262144
-1 -1;
#X msg 345 379 0;
#X obj 389 151 inlet;
#X obj 343 328 /;
#X obj 575 179 \$4;
#X obj 575 152 bng 15 250 50 0 empty empty empty 17 7 0 10 -262144
-1 -1;
#X text 12 89 \$4: Number of bars per loop;
#X obj 434 320 *;
#X obj 419 507 %;
#X obj 428 480 t b f;
#X obj 359 442 /;
#X obj 359 420 t b f;
#X obj 359 466 i;
#X obj 434 157 bng 15 250 50 0 empty empty empty 17 7 0 10 -262144
-1 -1;
#X obj 359 509 %;
#X obj 367 487 t b f;
#X obj 359 530 + 1;
#X obj 419 528 + 1;
#X floatatom 359 552 5 0 0 0 - - -;
#X floatatom 419 548 5 0 0 0 - - -;
#X obj 316 484 /;
#X obj 320 463 t b f;
#X obj 316 505 i;
#X obj 316 525 + 1;
#X floatatom 316 548 5 0 0 0 - - -;
#X text 324 565 bars;
#X text 369 567 beats;
#X text 435 563 subdivision;
#X obj 315 587 pack f f f;
#X obj 315 610 outlet;
#X text 513 534 raw;
#X text 544 478 subdivision time in ms;
#X obj 648 138 inlet;
#X msg 648 160 set \$1;
#X msg 648 371;
#X connect 4 0 8 0;
#X connect 5 0 4 0;
#X connect 5 0 11 0;
#X connect 5 0 15 0;
#X connect 5 0 32 0;
#X connect 5 0 24 0;
#X connect 5 0 35 0;
#X connect 6 0 4 0;
#X connect 7 0 16 0;
#X connect 8 0 34 0;
#X connect 9 0 18 0;
#X connect 10 0 9 0;
#X connect 10 0 23 0;
#X connect 10 0 31 0;
#X connect 11 0 22 0;
#X connect 11 0 12 0;
#X connect 11 0 40 0;
#X connect 11 0 42 0;
#X connect 12 0 38 0;
#X connect 12 1 38 1;
#X connect 13 0 20 0;
#X connect 15 0 7 0;
#X connect 16 0 17 0;
#X connect 17 0 38 0;
#X connect 17 0 46 0;
#X connect 18 0 21 0;
#X connect 18 0 41 0;
#X connect 18 0 39 0;
#X connect 18 0 51 0;
#X connect 20 0 18 4;
#X connect 21 0 19 0;
#X connect 22 0 34 0;
#X connect 22 1 34 1;
#X connect 23 0 24 0;
#X connect 24 0 18 2;
#X connect 24 0 65 0;
#X connect 26 0 11 0;
#X connect 29 0 13 0;
#X connect 30 0 29 0;
#X connect 30 1 29 1;
#X connect 31 0 34 0;
#X connect 32 0 18 3;
#X connect 33 0 24 0;
#X connect 34 0 9 1;
#X connect 34 0 27 0;
#X connect 35 0 30 0;
#X connect 36 0 35 0;
#X connect 38 0 29 0;
#X connect 38 0 52 0;
#X connect 39 0 48 0;
#X connect 40 0 39 0;
#X connect 40 1 39 1;
#X connect 41 0 43 0;
#X connect 42 0 41 0;
#X connect 42 1 41 1;
#X connect 43 0 45 0;
#X connect 44 0 15 0;
#X connect 45 0 47 0;
#X connect 46 0 45 0;
#X connect 46 1 45 1;
#X connect 47 0 49 0;
#X connect 48 0 50 0;
#X connect 49 0 59 1;
#X connect 50 0 59 2;
#X connect 51 0 53 0;
#X connect 52 0 51 0;
#X connect 52 1 51 1;
#X connect 53 0 54 0;
#X connect 54 0 55 0;
#X connect 55 0 59 0;
#X connect 59 0 60 0;
#X connect 63 0 64 0;
#X connect 64 0 65 0;
#X connect 65 0 18 3;
