#N canvas 171 50 1086 743 10;
#X obj 101 103 cnv 15 350 154 empty empty empty 20 12 0 14 -191407
-262144 0;
#X obj 110 118 cnv 15 280 70 empty empty empty 20 12 0 14 -262144 -66577
0;
#N canvas 0 22 450 278 (subpatch) 0;
#X array \$0-Envolvente 5 float 1;
#A 0 0 1 0.1 0.1 0;
#X coords 0 1 4 0 280 70 1 0 0;
#X restore 110 118 graph;
#X text 102 212 A;
#X text 101 234 T;
#N canvas 440 256 696 164 tabread 0;
#X obj 3 19 metro 5;
#X obj 3 2 tgl 15 0 empty empty empty 17 7 0 10 -262144 -1 -1 1 1;
#X msg 3 39 0;
#X floatatom 3 79 5 0 0 0 - - -;
#X obj 3 59 tabread \$0-Envolvente;
#X obj 3 98 change;
#X msg 3 117 0;
#X obj 3 137 tabwrite \$0-Envolvente;
#X obj 137 59 tabread \$0-Envolvente;
#X msg 137 39 1;
#X floatatom 137 79 5 0 0 0 - - -;
#X obj 137 98 outlet;
#X obj 270 59 tabread \$0-Envolvente;
#X floatatom 270 79 5 0 0 0 - - -;
#X obj 270 98 outlet;
#X msg 270 39 2;
#X obj 403 59 tabread \$0-Envolvente;
#X floatatom 403 79 5 0 0 0 - - -;
#X obj 403 98 outlet;
#X msg 403 39 3;
#X msg 536 39 4;
#X floatatom 536 79 5 0 0 0 - - -;
#X obj 536 59 tabread \$0-Envolvente;
#X obj 536 98 change;
#X obj 536 137 tabwrite \$0-Envolvente;
#X msg 536 118 0;
#X msg 665 118 4;
#X obj 69 2 loadbang;
#X connect 0 0 2 0;
#X connect 0 0 9 0;
#X connect 0 0 15 0;
#X connect 0 0 19 0;
#X connect 0 0 20 0;
#X connect 1 0 0 0;
#X connect 2 0 4 0;
#X connect 3 0 5 0;
#X connect 4 0 3 0;
#X connect 5 0 6 0;
#X connect 6 0 7 1;
#X connect 6 0 7 0;
#X connect 8 0 10 0;
#X connect 9 0 8 0;
#X connect 10 0 11 0;
#X connect 12 0 13 0;
#X connect 13 0 14 0;
#X connect 15 0 12 0;
#X connect 16 0 17 0;
#X connect 17 0 18 0;
#X connect 19 0 16 0;
#X connect 20 0 22 0;
#X connect 21 0 23 0;
#X connect 22 0 21 0;
#X connect 23 0 25 0;
#X connect 23 0 26 0;
#X connect 25 0 24 0;
#X connect 26 0 24 1;
#X connect 27 0 1 0;
#X restore -124 41 pd tabread;
#X floatatom -124 61 5 0 0 0 - - -;
#X floatatom -96 80 5 0 0 0 - - -;
#X obj 110 195 cnv 15 67 60 empty empty empty 20 12 0 14 -204800 -66577
0;
#X text 113 193 A;
#X floatatom 114 212 5 0 0 0 - - -;
#X floatatom 114 234 5 0 0 0 - - -;
#X obj 181 195 cnv 15 67 60 empty empty empty 20 12 0 14 -261234 -66577
0;
#X floatatom 183 213 5 0 0 0 - - -;
#X text 183 194 D;
#X floatatom 183 233 5 0 0 0 - - -;
#X obj 251 195 cnv 15 67 60 empty empty empty 20 12 0 14 -261682 -66577
0;
#X text 251 194 S;
#X floatatom 252 233 5 0 0 0 - - -;
#X obj 157 210 tgl 15 0 empty empty Lin 0 -6 0 10 -262144 -1 -1 1 1
;
#X obj 156 238 tgl 15 0 empty empty Log 0 -6 0 10 -262144 -1 -1 0 1
;
#X obj 227 210 tgl 15 0 empty empty Lin 0 -6 0 10 -262144 -1 -1 1 1
;
#X obj 226 238 tgl 15 0 empty empty Log 0 -6 0 10 -262144 -1 -1 0 1
;
#X obj 322 195 cnv 15 67 60 empty empty empty 20 12 0 14 -204786 -66577
0;
#X text 324 193 R;
#X floatatom 325 231 5 0 0 0 - - -;
#X obj 367 210 tgl 15 0 empty empty Lin 0 -6 0 10 -262144 -1 -1 1 1
;
#X obj 366 238 tgl 15 0 empty empty Log 0 -6 0 10 -262144 -1 -1 0 1
;
#X obj 295 236 tgl 15 0 empty empty empty 17 7 0 10 -262144 -1 -1 0
1;
#X text 269 214 Note Off;
#N canvas 730 285 295 244 tabwrite 0;
#N canvas 1030 409 450 300 staticVal 0;
#X obj 26 24 inlet;
#X obj 71 23 inlet;
#X msg 26 48 set \$1;
#X msg 26 90 0.1;
#X obj 26 112 outlet;
#X obj 35 70 bng 15 250 50 0 empty empty empty 17 7 0 10 -262144 -1
-1;
#X obj 71 48 change;
#X connect 0 0 2 0;
#X connect 1 0 6 0;
#X connect 2 0 3 0;
#X connect 2 0 5 0;
#X connect 3 0 4 0;
#X connect 5 0 3 0;
#X connect 6 0 5 0;
#X restore -80 82 pd staticVal;
#X floatatom -80 58 5 0 0 0 - - -;
#X floatatom -11 59 5 0 0 0 - - -;
#X floatatom -80 104 5 0 0 0 - - -;
#X obj -50 168 tabwrite \$0-Envolvente;
#X msg 79 147 3;
#X obj -11 0 inlet;
#X obj -80 3 inlet;
#X obj -152 2 inlet;
#X obj 79 124 loadbang;
#X obj -80 147 tabwrite \$0-Envolvente;
#X msg 49 127 2;
#X obj -152 216 tabwrite \$0-Envolvente;
#X msg -23 196 1;
#X connect 0 0 3 0;
#X connect 1 0 0 0;
#X connect 2 0 0 1;
#X connect 3 0 2 0;
#X connect 3 0 4 0;
#X connect 3 0 10 0;
#X connect 5 0 4 1;
#X connect 6 0 2 0;
#X connect 7 0 1 0;
#X connect 8 0 12 0;
#X connect 9 0 5 0;
#X connect 9 0 11 0;
#X connect 9 0 13 0;
#X connect 11 0 10 1;
#X connect 13 0 12 1;
#X restore -125 233 pd tabwrite;
#X obj -124 102 change;
#X obj -96 122 change;
#X obj 26 -86 clip 0 1;
#X obj 26 -106 change;
#X obj 101 103 cnv 15 350 13 empty empty T_|Attack_ATC_|_Decay__ATC_|Sus_TT_|Rel_TC_|_V_|_R
2 8 0 12 -99865 -262144 0;
#X obj 396 121 cnv 15 50 65 empty empty empty 20 16 0 14 -233017 -66577
0;
#X obj 400 130 tgl 15 0 empty empty Vel 17 7 1 15 -262144 -1 -1 0 1
;
#X obj 400 162 tgl 15 0 empty empty Rev 17 7 1 15 -262144 -1 -1 0 1
;
#X obj 564 506 outlet~;
#X obj 40 195 r \$0-raA;
#X obj 40 214 s \$0-saA;
#X obj 40 233 r \$0-rtA;
#X obj 40 252 s \$0-stA;
#X obj 26 -126 r \$0-saA;
#X obj 26 -66 s \$0-raA;
#X obj -35 -166 inlet;
#X text 1 -164 vel;
#X obj 26 -167 inlet;
#X text 63 -167 aA;
#X obj 85 -167 inlet;
#X obj 175 -167 inlet;
#X obj 236 -167 inlet;
#X obj 295 -167 inlet;
#X text 120 -166 tA;
#X text 211 -165 cA;
#X text 273 -167 aD;
#X text 330 -166 tD;
#X obj -35 -86 s \$0-vel;
#X obj 26 -147 s \$0-raA;
#X obj 85 -148 s \$0-rtA;
#X obj 86 -106 change;
#X obj 86 -126 r \$0-stA;
#X obj 86 -66 s \$0-rtA;
#X obj 86 -86 clip 0 10000;
#X obj 175 -130 s \$0-rcA;
#X obj 37 109 r \$0-rcA;
#X obj 32 355 s \$0-scA;
#X obj 175 -147 tgl 15 0 empty empty empty 17 7 0 10 -262144 -1 -1
0 1;
#X obj 175 -111 r \$0-scA;
#X obj 175 -91 tgl 15 0 empty empty empty 17 7 0 10 -262144 -1 -1 0
1;
#X obj 176 -74 change;
#X obj 37 130 sel 0;
#X msg 37 154 1;
#X msg 64 154 0;
#X msg 37 175 1;
#X msg 64 175 0;
#X obj 32 314 sel 1;
#X msg 32 335 0;
#X obj 40 274 sel 1;
#X msg 40 294 1;
#X obj 176 -55 s \$0-rcA;
#X obj 154 57 r \$0-raD;
#X obj 161 77 r \$0-rtD;
#X obj 160 263 s \$0-saD;
#X obj 167 282 s \$0-stD;
#X obj 218 32 sel 0;
#X msg 218 56 1;
#X msg 245 56 0;
#X msg 218 77 1;
#X msg 245 77 0;
#X obj 218 11 r \$0-rcD;
#X obj 227 306 sel 1;
#X msg 227 327 0;
#X obj 235 266 sel 1;
#X msg 235 286 1;
#X obj 236 -148 s \$0-raD;
#X obj 236 -89 clip 0 1;
#X obj 236 -109 change;
#X obj 236 -129 r \$0-saD;
#X obj 236 -69 s \$0-raD;
#X obj 296 -106 change;
#X obj 296 -86 clip 0 10000;
#X obj 295 -148 s \$0-rtD;
#X obj 296 -126 r \$0-stD;
#X obj 296 -66 s \$0-rtD;
#X obj 383 -167 inlet;
#X obj 383 -147 tgl 15 0 empty empty empty 17 7 0 10 -262144 -1 -1
0 1;
#X obj 383 -91 tgl 15 0 empty empty empty 17 7 0 10 -262144 -1 -1 0
1;
#X obj 384 -74 change;
#X text 419 -165 cD;
#X obj 383 -130 s \$0-rcD;
#X obj 383 -111 r \$0-scD;
#X obj 384 -55 s \$0-rcD;
#X obj 227 347 s \$0-scD;
#X obj 274 57 r \$0-rtS;
#X obj 267 288 s \$0-stS;
#X obj 443 -167 inlet;
#X obj 444 -106 change;
#X obj 444 -86 clip 0 10000;
#X text 478 -166 tS;
#X obj 443 -148 s \$0-rtS;
#X obj 444 -126 r \$0-stS;
#X obj 444 -66 s \$0-rtS;
#X obj 280 78 r \$0-rS;
#X obj 273 266 s \$0-sS;
#X obj 538 -167 inlet;
#X text 578 -166 S;
#X obj 538 -128 s \$0-rS;
#X obj 538 -146 tgl 15 0 empty empty empty 17 7 0 10 -262144 -1 -1
0 1;
#X obj 325 -12 r \$0-rtR;
#X obj 325 267 s \$0-stR;
#X obj 366 32 sel 0;
#X msg 366 56 1;
#X msg 393 56 0;
#X msg 366 77 1;
#X msg 393 77 0;
#X obj 372 304 sel 1;
#X msg 372 325 0;
#X obj 380 264 sel 1;
#X msg 380 284 1;
#X obj 599 -167 inlet;
#X text 636 -167 tR;
#X obj 600 -106 change;
#X obj 600 -86 clip 0 10000;
#X obj 599 -148 s \$0-rtR;
#X obj 600 -126 r \$0-stR;
#X obj 600 -66 s \$0-rtR;
#X obj 682 -167 inlet;
#X obj 682 -147 tgl 15 0 empty empty empty 17 7 0 10 -262144 -1 -1
0 1;
#X obj 682 -91 tgl 15 0 empty empty empty 17 7 0 10 -262144 -1 -1 0
1;
#X obj 683 -74 change;
#X text 718 -165 cR;
#X obj 682 -130 s \$0-rcR;
#X obj 682 -111 r \$0-scR;
#X obj 683 -55 s \$0-rcR;
#X obj 366 11 r \$0-rcR;
#X obj 372 345 s \$0-scR;
#X obj 454 109 r \$0-rVel;
#X obj 455 129 s \$0-sVel;
#X obj 455 149 r \$0-rRev;
#X obj 456 169 s \$0-sRev;
#X obj 754 -167 inlet;
#X text 791 -167 veld;
#X obj 754 -147 tgl 15 0 empty empty empty 17 7 0 10 -262144 -1 -1
0 1;
#X obj 754 -129 s \$0-rVel;
#X obj 824 -167 inlet;
#X obj 824 -147 tgl 15 0 empty empty empty 17 7 0 10 -262144 -1 -1
0 1;
#X text 861 -167 rev;
#X obj 824 -129 s \$0-rRev;
#X obj -124 142 s \$0-raA;
#X obj -96 162 s \$0-raD;
#X obj -125 183 r \$0-saA;
#X obj -67 102 change;
#X obj -94 203 r \$0-saD;
#N canvas 350 83 614 627 EnvelopGenerator 0;
#X obj 12 5 inlet;
#X obj 84 148 inlet;
#X obj 93 168 inlet;
#X obj 263 493 change;
#X obj 48 188 f;
#X obj 39 168 f;
#X obj 12 679 +~;
#X obj 12 704 outlet~;
#X floatatom 263 473 15 0 0 0 - - -;
#X obj 263 451 vtof;
#X obj 72 68 inlet;
#X obj 57 88 f;
#X obj 30 148 -;
#X obj 30 108 bondo;
#X obj 30 128 swap;
#X obj 21 68 loadbang;
#X msg 21 89 0;
#X obj 204 208 inlet;
#X obj 213 228 inlet;
#X obj 168 248 f;
#X obj 159 228 f;
#X obj 192 128 inlet;
#X obj 177 148 f;
#X obj 150 208 -;
#X obj 150 168 bondo;
#X obj 150 188 swap;
#X obj 141 128 loadbang;
#X msg 141 149 0;
#X obj 256 270 del;
#X obj 271 245 f;
#X obj 286 218 inlet;
#X msg 256 201 stop;
#X obj 414 208 inlet;
#X obj 423 228 inlet;
#X obj 378 248 f;
#X obj 369 228 f;
#X obj 360 208 -;
#X obj 360 168 bondo;
#X obj 360 188 swap;
#X obj 351 128 loadbang;
#X msg 351 149 0;
#X obj 450 21 inlet;
#X obj 497 56 inlet;
#X obj 323 99 spigot;
#X obj 356 78 != 1;
#X obj 449 114 spigot;
#X obj 482 75 f;
#X obj 449 83 sel 1;
#X obj 461 138 bng 15 250 50 0 empty empty empty 17 7 0 10 -262144
-1 -1;
#X obj 450 41 change;
#X floatatom 498 98 5 0 0 0 - - -;
#X obj 450 62 == 0;
#X floatatom 480 193 5 0 0 0 - - -;
#X obj 227 109 bng 15 250 50 0 empty empty empty 17 7 0 10 -262144
-1 -1;
#X obj 12 40 bng 15 250 50 0 empty empty empty 17 7 0 10 -262144 -1
-1;
#X obj 67 312 bng 15 250 50 0 empty empty empty 17 7 0 10 -262144 -1
-1;
#X obj 110 223 bng 15 250 50 0 empty empty empty 17 7 0 10 -262144
-1 -1;
#X obj 132 268 curveGen;
#X floatatom 201 299 5 0 0 0 - - -;
#X obj 12 268 curveGen;
#X obj 342 268 curveGen;
#X connect 0 0 54 0;
#X connect 1 0 5 1;
#X connect 2 0 4 1;
#X connect 4 0 59 4;
#X connect 5 0 59 3;
#X connect 6 0 7 0;
#X connect 8 0 3 0;
#X connect 9 0 8 0;
#X connect 10 0 11 1;
#X connect 11 0 13 1;
#X connect 11 0 24 0;
#X connect 12 0 59 2;
#X connect 13 0 14 0;
#X connect 13 1 14 1;
#X connect 14 0 12 0;
#X connect 14 1 12 1;
#X connect 15 0 16 0;
#X connect 16 0 13 0;
#X connect 16 0 59 1;
#X connect 17 0 20 1;
#X connect 18 0 19 1;
#X connect 19 0 57 4;
#X connect 20 0 57 3;
#X connect 21 0 22 1;
#X connect 22 0 24 1;
#X connect 22 0 37 0;
#X connect 22 0 52 0;
#X connect 23 0 57 2;
#X connect 24 0 25 0;
#X connect 24 1 25 1;
#X connect 25 0 23 0;
#X connect 25 1 23 1;
#X connect 26 0 27 0;
#X connect 27 0 57 1;
#X connect 28 0 43 0;
#X connect 29 0 28 1;
#X connect 30 0 29 1;
#X connect 31 0 28 0;
#X connect 32 0 35 1;
#X connect 33 0 34 1;
#X connect 34 0 60 4;
#X connect 35 0 60 3;
#X connect 36 0 60 2;
#X connect 37 0 38 0;
#X connect 37 1 38 1;
#X connect 38 0 36 0;
#X connect 38 1 36 1;
#X connect 39 0 40 0;
#X connect 40 0 37 1;
#X connect 40 0 60 1;
#X connect 41 0 49 0;
#X connect 42 0 46 1;
#X connect 43 0 60 0;
#X connect 44 0 43 1;
#X connect 45 0 48 0;
#X connect 45 0 60 0;
#X connect 46 0 45 1;
#X connect 46 0 44 0;
#X connect 46 0 50 0;
#X connect 47 0 45 0;
#X connect 49 0 51 0;
#X connect 51 0 47 0;
#X connect 53 0 22 0;
#X connect 54 0 31 0;
#X connect 54 0 46 0;
#X connect 54 0 34 0;
#X connect 54 0 35 0;
#X connect 54 0 29 0;
#X connect 54 0 19 0;
#X connect 54 0 20 0;
#X connect 54 0 22 0;
#X connect 54 0 4 0;
#X connect 54 0 5 0;
#X connect 54 0 11 0;
#X connect 54 0 57 5;
#X connect 54 0 59 5;
#X connect 54 0 59 0;
#X connect 54 0 60 5;
#X connect 56 0 57 0;
#X connect 57 0 6 0;
#X connect 57 1 28 0;
#X connect 59 0 6 0;
#X connect 59 1 55 0;
#X connect 59 1 57 0;
#X connect 60 0 6 0;
#X restore 564 342 pd EnvelopGenerator;
#X obj 564 -14 r \$0-vel;
#X obj 574 114 r \$0-saA;
#X obj 564 96 bng 15 250 50 0 empty empty empty 17 7 0 10 -262144 -1
-1;
#X obj 584 135 r \$0-stA;
#X obj 594 156 r \$0-scA;
#X obj 604 177 r \$0-saD;
#X obj 614 198 r \$0-stD;
#X obj 624 219 r \$0-scD;
#X obj 564 42 spigot;
#X obj 582 18 > 0;
#X obj 634 239 r \$0-stS;
#X obj 644 259 r \$0-stR;
#X obj 654 280 r \$0-scR;
#X obj 675 322 r \$0-sS;
#X obj 664 301 r \$0-vel;
#X obj 744 114 r \$0-saA;
#X obj 734 96 bng 15 250 50 0 empty empty empty 17 7 0 10 -262144 -1
-1;
#X obj 754 135 r \$0-stA;
#X obj 764 156 r \$0-scA;
#X obj 774 177 r \$0-saD;
#X obj 784 198 r \$0-stD;
#X obj 794 219 r \$0-scD;
#X obj 804 239 r \$0-stS;
#X obj 814 259 r \$0-stR;
#X obj 824 280 r \$0-scR;
#X obj 845 322 r \$0-sS;
#X obj 834 301 r \$0-vel;
#X obj 564 392 +~;
#N canvas 602 279 614 627 ReverseEnvelopee 0;
#X obj 12 45 inlet;
#X obj 84 148 inlet;
#X obj 93 168 inlet;
#X obj 82 758 change;
#X obj 48 188 f;
#X obj 39 168 f;
#X obj 12 679 +~;
#X obj 12 704 outlet~;
#X floatatom 82 738 15 0 0 0 - - -;
#X obj 82 716 vtof;
#X obj 72 28 inlet;
#X obj 57 88 f;
#X obj 30 148 -;
#X obj 30 108 bondo;
#X obj 30 128 swap;
#X obj 21 68 loadbang;
#X msg 21 89 0;
#X obj 204 208 inlet;
#X obj 213 228 inlet;
#X obj 168 248 f;
#X obj 159 228 f;
#X obj 192 98 inlet;
#X obj 177 148 f;
#X obj 150 208 -;
#X obj 150 168 bondo;
#X obj 150 188 swap;
#X obj 141 128 loadbang;
#X msg 141 149 0;
#X obj 256 270 del;
#X obj 271 245 f;
#X obj 286 218 inlet;
#X msg 256 201 stop;
#X obj 414 208 inlet;
#X obj 423 228 inlet;
#X obj 378 248 f;
#X obj 369 228 f;
#X obj 360 208 -;
#X obj 360 168 bondo;
#X obj 360 188 swap;
#X obj 351 128 loadbang;
#X msg 351 149 0;
#X obj 450 21 inlet;
#X obj 497 56 inlet;
#X obj 323 99 spigot;
#X obj 356 78 != 1;
#X obj 449 114 spigot;
#X obj 482 75 f;
#X obj 449 83 sel 1;
#X obj 461 138 bng 15 250 50 0 empty empty empty 17 7 0 10 -262144
-1 -1;
#X obj 450 41 change;
#X floatatom 498 98 5 0 0 0 - - -;
#X obj 450 62 == 0;
#X obj 12 268 curveGen;
#X obj 132 268 curveGen;
#X obj 342 268 curveGen;
#X connect 0 0 4 0;
#X connect 0 0 5 0;
#X connect 0 0 11 0;
#X connect 0 0 19 0;
#X connect 0 0 20 0;
#X connect 0 0 22 0;
#X connect 0 0 29 0;
#X connect 0 0 31 0;
#X connect 0 0 34 0;
#X connect 0 0 35 0;
#X connect 0 0 46 0;
#X connect 0 0 52 5;
#X connect 0 0 52 0;
#X connect 0 0 53 5;
#X connect 0 0 54 5;
#X connect 1 0 35 1;
#X connect 2 0 34 1;
#X connect 4 0 52 4;
#X connect 5 0 52 3;
#X connect 6 0 7 0;
#X connect 6 0 9 0;
#X connect 8 0 3 0;
#X connect 9 0 8 0;
#X connect 10 0 22 1;
#X connect 11 0 13 1;
#X connect 11 0 24 0;
#X connect 12 0 52 2;
#X connect 13 0 14 0;
#X connect 13 1 14 1;
#X connect 14 0 12 0;
#X connect 14 1 12 1;
#X connect 15 0 16 0;
#X connect 16 0 13 0;
#X connect 16 0 52 1;
#X connect 17 0 20 1;
#X connect 18 0 19 1;
#X connect 19 0 53 4;
#X connect 20 0 53 3;
#X connect 21 0 11 1;
#X connect 22 0 24 1;
#X connect 22 0 37 0;
#X connect 23 0 53 2;
#X connect 24 0 25 0;
#X connect 24 1 25 1;
#X connect 25 0 23 0;
#X connect 25 1 23 1;
#X connect 26 0 27 0;
#X connect 27 0 53 1;
#X connect 28 0 43 0;
#X connect 29 0 28 1;
#X connect 30 0 29 1;
#X connect 31 0 28 0;
#X connect 32 0 5 1;
#X connect 33 0 4 1;
#X connect 34 0 54 4;
#X connect 35 0 54 3;
#X connect 36 0 54 2;
#X connect 37 0 38 0;
#X connect 37 1 38 1;
#X connect 38 0 36 0;
#X connect 38 1 36 1;
#X connect 39 0 40 0;
#X connect 40 0 37 1;
#X connect 40 0 54 1;
#X connect 41 0 49 0;
#X connect 42 0 46 1;
#X connect 43 0 53 0;
#X connect 44 0 43 1;
#X connect 45 0 48 0;
#X connect 45 0 53 0;
#X connect 46 0 45 1;
#X connect 46 0 44 0;
#X connect 46 0 50 0;
#X connect 47 0 45 0;
#X connect 49 0 51 0;
#X connect 51 0 47 0;
#X connect 52 0 6 0;
#X connect 52 1 28 0;
#X connect 53 0 6 0;
#X connect 53 1 54 0;
#X connect 54 0 6 0;
#X restore 734 342 pd ReverseEnvelopee;
#X obj 564 75 spigot;
#X obj 734 75 spigot;
#X obj 730 -20 r \$0-sRev;
#X obj 614 43 != 1;
#X obj 678 492 vtof;
#X floatatom 678 512 5 0 0 0 - - -;
#X obj 564 413 spigot~;
#X obj 603 390 r \$0-sVel;
#X obj 603 464 *~;
#X obj 564 483 +~;
#X obj 618 443 / 127;
#X obj 618 422 r \$0-vel;
#X text -71 424 TODO: Invertir la formula exponencial segun la dirección
de la curva;
#X floatatom 524 12 5 0 0 0 - - -;
#X obj 891 -166 loadbang;
#X msg 891 -146 0;
#X floatatom -77 -138 5 0 0 0 - - -;
#X connect 5 0 6 0;
#X connect 5 1 7 0;
#X connect 5 2 173 0;
#X connect 6 0 31 0;
#X connect 7 0 32 0;
#X connect 10 0 41 0;
#X connect 11 0 43 0;
#X connect 13 0 84 0;
#X connect 15 0 85 0;
#X connect 18 0 116 0;
#X connect 19 0 77 0;
#X connect 20 0 79 0;
#X connect 21 0 92 0;
#X connect 22 0 94 0;
#X connect 25 0 131 0;
#X connect 26 0 137 0;
#X connect 27 0 139 0;
#X connect 28 0 125 0;
#X connect 31 0 170 0;
#X connect 32 0 171 0;
#X connect 33 0 45 0;
#X connect 34 0 33 0;
#X connect 37 0 159 0;
#X connect 38 0 161 0;
#X connect 40 0 10 0;
#X connect 42 0 11 0;
#X connect 44 0 34 0;
#X connect 46 0 58 0;
#X connect 48 0 59 0;
#X connect 50 0 60 0;
#X connect 51 0 68 0;
#X connect 52 0 96 0;
#X connect 53 0 103 0;
#X connect 61 0 64 0;
#X connect 62 0 61 0;
#X connect 64 0 63 0;
#X connect 66 0 72 0;
#X connect 68 0 65 0;
#X connect 69 0 70 0;
#X connect 70 0 71 0;
#X connect 71 0 81 0;
#X connect 72 0 73 0;
#X connect 72 0 76 0;
#X connect 72 1 74 0;
#X connect 72 1 75 0;
#X connect 73 0 19 0;
#X connect 74 0 19 0;
#X connect 75 0 20 0;
#X connect 76 0 20 0;
#X connect 77 0 78 0;
#X connect 78 0 67 0;
#X connect 79 0 80 0;
#X connect 80 0 67 0;
#X connect 82 0 13 0;
#X connect 83 0 15 0;
#X connect 86 0 87 0;
#X connect 86 0 90 0;
#X connect 86 1 88 0;
#X connect 86 1 89 0;
#X connect 87 0 21 0;
#X connect 88 0 21 0;
#X connect 89 0 22 0;
#X connect 90 0 22 0;
#X connect 91 0 86 0;
#X connect 92 0 93 0;
#X connect 93 0 114 0;
#X connect 94 0 95 0;
#X connect 95 0 114 0;
#X connect 97 0 100 0;
#X connect 98 0 97 0;
#X connect 99 0 98 0;
#X connect 101 0 102 0;
#X connect 102 0 105 0;
#X connect 104 0 101 0;
#X connect 106 0 107 0;
#X connect 107 0 111 0;
#X connect 108 0 109 0;
#X connect 109 0 113 0;
#X connect 112 0 108 0;
#X connect 115 0 18 0;
#X connect 117 0 121 0;
#X connect 118 0 119 0;
#X connect 119 0 123 0;
#X connect 122 0 118 0;
#X connect 124 0 28 0;
#X connect 126 0 129 0;
#X connect 129 0 128 0;
#X connect 130 0 25 0;
#X connect 132 0 133 0;
#X connect 132 0 136 0;
#X connect 132 1 134 0;
#X connect 132 1 135 0;
#X connect 133 0 26 0;
#X connect 134 0 26 0;
#X connect 135 0 27 0;
#X connect 136 0 27 0;
#X connect 137 0 138 0;
#X connect 138 0 157 0;
#X connect 139 0 140 0;
#X connect 140 0 157 0;
#X connect 141 0 145 0;
#X connect 143 0 144 0;
#X connect 144 0 147 0;
#X connect 146 0 143 0;
#X connect 148 0 149 0;
#X connect 149 0 153 0;
#X connect 150 0 151 0;
#X connect 151 0 155 0;
#X connect 154 0 150 0;
#X connect 156 0 132 0;
#X connect 158 0 37 0;
#X connect 160 0 38 0;
#X connect 162 0 164 0;
#X connect 164 0 165 0;
#X connect 166 0 167 0;
#X connect 167 0 169 0;
#X connect 172 0 30 0;
#X connect 173 0 30 2;
#X connect 174 0 30 1;
#X connect 175 0 203 0;
#X connect 175 0 209 0;
#X connect 176 0 185 0;
#X connect 176 0 184 0;
#X connect 176 0 218 0;
#X connect 177 0 175 1;
#X connect 178 0 175 0;
#X connect 179 0 175 2;
#X connect 180 0 175 3;
#X connect 181 0 175 4;
#X connect 182 0 175 5;
#X connect 183 0 175 6;
#X connect 184 0 205 0;
#X connect 184 0 206 0;
#X connect 185 0 184 1;
#X connect 186 0 175 7;
#X connect 187 0 175 8;
#X connect 188 0 175 9;
#X connect 189 0 175 11;
#X connect 190 0 175 10;
#X connect 191 0 204 1;
#X connect 192 0 204 0;
#X connect 193 0 204 2;
#X connect 194 0 204 3;
#X connect 195 0 204 4;
#X connect 196 0 204 5;
#X connect 197 0 204 6;
#X connect 198 0 204 7;
#X connect 199 0 204 8;
#X connect 200 0 204 9;
#X connect 201 0 204 11;
#X connect 202 0 204 10;
#X connect 203 0 211 0;
#X connect 204 0 203 1;
#X connect 205 0 178 0;
#X connect 206 0 192 0;
#X connect 207 0 208 0;
#X connect 207 0 206 1;
#X connect 208 0 205 1;
#X connect 209 0 210 0;
#X connect 211 0 214 0;
#X connect 211 1 213 0;
#X connect 212 0 211 1;
#X connect 213 0 214 1;
#X connect 214 0 39 0;
#X connect 215 0 213 1;
#X connect 216 0 215 0;
#X connect 219 0 220 0;
#X connect 220 0 167 0;
#X connect 220 0 164 0;
#X connect 220 0 149 0;
#X connect 220 0 129 0;
#X connect 220 0 107 0;
#X connect 220 0 68 0;
#X connect 221 0 58 0;
#X coords 0 -1 1 1 352 160 1 100 100;
