#N canvas 187 56 797 729 10;
#X msg 143 241 roomsize \$1;
#X msg 28 246 damping \$1;
#X msg 415 121 wet \$1;
#X msg 345 121 dry \$1;
#X msg 264 123 freeze \$1;
#X msg 218 216 bypass \$1;
#X obj 345 59 vsl 15 50 0 1 0 0 empty empty empty 0 -9 0 10 -204800
-1 -1 2940 1;
#X obj 415 60 vsl 15 50 0 1 0 0 empty empty empty 0 -9 0 10 -204800
-1 -1 1960 1;
#X obj 150 130 hsl 80 15 0 1 0 0 dry-wet empty Dry/Wet -2 -8 0 10 -159808
-1 -1 3160 1;
#X obj 345 27 expr 1-$f1;
#X obj 206 166 tgl 15 0 empty empty empty 17 7 0 10 -4032 -1 -1 0 1
;
#X obj 344 -45 * 100;
#X floatatom 344 -26 5 0 0 0 - - -;
#X obj 159 167 tgl 15 0 empty empty empty 17 7 0 10 -260097 -1 -1 0
1;
#X obj 125 132 vsl 15 50 0 1 0 0 empty empty empty 0 -9 0 10 -258113
-1 -1 2303 1;
#X obj 104 133 vsl 15 50 0 1 0 0 empty empty empty 0 -9 0 10 -191407
-1 -1 3087 1;
#X obj 263 299 freeverb~;
#X text 103 113 Dm;
#X text 124 112 Rs;
#X text 149 149 Bypass;
#X text 197 150 Freeze;
#X obj 16 27 inlet~;
#X obj 58 27 inlet~;
#X obj 103 27 inlet;
#X obj 141 29 inlet;
#X obj 183 27 inlet;
#X obj 227 27 inlet;
#X obj 270 26 inlet;
#X obj 263 364 outlet~;
#X obj 314 363 outlet~;
#X floatatom 110 260 5 0 0 0 - - -;
#X connect 0 0 16 0;
#X connect 1 0 16 0;
#X connect 2 0 16 0;
#X connect 3 0 16 0;
#X connect 4 0 16 0;
#X connect 4 0 16 1;
#X connect 5 0 16 0;
#X connect 6 0 3 0;
#X connect 7 0 2 0;
#X connect 8 0 11 0;
#X connect 8 0 9 0;
#X connect 8 0 7 0;
#X connect 9 0 6 0;
#X connect 10 0 4 0;
#X connect 11 0 12 0;
#X connect 13 0 5 0;
#X connect 14 0 0 0;
#X connect 14 0 30 0;
#X connect 15 0 1 0;
#X connect 16 0 28 0;
#X connect 16 1 29 0;
#X connect 21 0 16 0;
#X connect 22 0 16 1;
#X connect 23 0 15 0;
#X connect 24 0 14 0;
#X connect 25 0 8 0;
#X connect 26 0 13 0;
#X connect 27 0 10 0;
#X coords 0 -1 1 1 140 90 1 100 100;
