#N canvas 234 142 1210 780 10;
#X obj 811 546 dac~;
#X obj 5 -69 tgl 15 0 empty empty empty 17 7 0 10 -262144 -1 -1 1 1
;
#X obj 57 -22 unpack f f f;
#X floatatom 57 -1 5 0 0 0 - - -;
#X floatatom 91 -1 5 0 0 0 - - -;
#X floatatom 126 -1 5 0 0 0 - - -;
#X obj 5 -22 s frame;
#X floatatom 159 -23 5 0 0 0 - - -;
#X obj 811 520 *~;
#X obj 852 520 *~;
#X obj 940 417 vsl 30 100 0 1 0 0 empty empty empty 0 -9 0 10 -262144
-1 -1 8700 1;
#X obj 10 123 s~ p1l;
#X obj 85 122 s~ p1r;
#X obj 811 216 r~ p1l;
#X obj 852 356 r~ p1r;
#X obj 818 235 r~ p2l;
#X obj 859 375 r~ p2r;
#X obj 825 254 r~ mrl;
#X obj 832 273 r~ m1l;
#X obj 837 292 r~ m2l;
#X obj 843 311 r~ mel;
#X obj 865 394 r~ mrr;
#X obj 871 413 r~ m1r;
#X obj 877 432 r~ m2r;
#X obj 883 451 r~ mer;
#X obj 10 103 instrument percussive-fx-1;
#X obj 163 122 s p1a;
#N canvas 723 254 719 579 percussive-fx-1-actions 1;
#X obj 5 -17 inlet;
#N canvas 450 190 922 292 action-arrangement 0;
#X obj 6 6 inlet;
#X text 44 6 vel;
#X obj 6 230 outlet;
#X obj 53 230 outlet;
#X obj 100 230 outlet~;
#X obj 152 229 outlet~;
#X obj 204 228 outlet;
#X obj 251 228 outlet~;
#X obj 301 228 outlet~;
#X obj 351 228 outlet~;
#X obj 401 228 outlet;
#X obj 445 228 outlet;
#X obj 490 228 outlet;
#X obj 534 228 outlet~;
#X obj 586 228 outlet~;
#X obj 638 228 outlet;
#X obj 685 228 outlet;
#X obj 730 228 outlet;
#X obj 774 228 outlet~;
#X obj 826 228 outlet~;
#X text 99 247 freq;
#X text 6 248 vel;
#X text 149 248 oscType;
#X text 251 248 FMRatio;
#X text 302 248 FMQ;
#X text 354 248 FMType;
#X text 407 248 Comp;
#X text 454 247 Hip;
#X text 491 246 Lop;
#X text 535 246 DelT;
#X text 584 247 DelQ;
#X text 641 246 Damp;
#X text 685 246 Room;
#X text 727 247 DW;
#X text 776 247 Vol;
#X text 843 248 Bal;
#X text 202 249 GlissT;
#X text 55 248 env;
#X obj 99 207 sig~;
#X obj 151 207 sig~;
#X obj 251 205 sig~;
#X obj 301 205 sig~;
#X obj 351 204 sig~;
#X obj 534 205 sig~;
#X obj 586 205 sig~;
#X obj 774 205 sig~;
#X obj 826 204 sig~;
#X obj 826 78 bng 15 250 50 0 empty empty empty 17 7 0 10 -262144 -1
-1;
#X obj 14 27 > 0;
#X obj 826 55 loadbang;
#X msg 638 148 1;
#X msg 685 148 1;
#X msg 774 147 0.18;
#X msg 534 148 800;
#X msg 99 148 739.989;
#X msg 351 148 1;
#X msg 401 148 0;
#X msg 301 148 3;
#X msg 53 119 1 1200 0 1 20 0 200 0 1000 0 0 0;
#X msg 586 148 0.5;
#X obj 78 5 inlet;
#X text 115 4 freq;
#X msg 78 27 set \$1;
#X msg 204 147 80;
#X msg 445 148 0;
#X msg 490 148 20000;
#X msg 730 147 0.7;
#X msg 826 147 0;
#X msg 251 148 0.001;
#X msg 151 148 1.2;
#X connect 0 0 2 0;
#X connect 0 0 48 0;
#X connect 38 0 4 0;
#X connect 39 0 5 0;
#X connect 40 0 7 0;
#X connect 41 0 8 0;
#X connect 42 0 9 0;
#X connect 43 0 13 0;
#X connect 44 0 14 0;
#X connect 45 0 18 0;
#X connect 46 0 19 0;
#X connect 47 0 67 0;
#X connect 47 0 52 0;
#X connect 47 0 66 0;
#X connect 47 0 51 0;
#X connect 47 0 50 0;
#X connect 47 0 59 0;
#X connect 47 0 53 0;
#X connect 47 0 65 0;
#X connect 47 0 64 0;
#X connect 47 0 56 0;
#X connect 47 0 55 0;
#X connect 47 0 57 0;
#X connect 47 0 68 0;
#X connect 47 0 63 0;
#X connect 47 0 69 0;
#X connect 47 0 54 0;
#X connect 47 0 58 0;
#X connect 48 0 47 0;
#X connect 49 0 47 0;
#X connect 50 0 15 0;
#X connect 51 0 16 0;
#X connect 52 0 45 0;
#X connect 53 0 43 0;
#X connect 54 0 38 0;
#X connect 55 0 42 0;
#X connect 56 0 10 0;
#X connect 57 0 41 0;
#X connect 58 0 3 0;
#X connect 59 0 44 0;
#X connect 60 0 62 0;
#X connect 62 0 54 0;
#X connect 63 0 6 0;
#X connect 64 0 11 0;
#X connect 65 0 12 0;
#X connect 66 0 17 0;
#X connect 67 0 46 0;
#X connect 68 0 40 0;
#X connect 69 0 39 0;
#X restore 5 124 pd action-arrangement kick_basic;
#X obj 5 81 *;
#X obj 5 61 bondo;
#X obj 5 207 outlet;
#X obj 16 227 outlet;
#X obj 27 247 outlet~;
#X obj 38 267 outlet~;
#X obj 49 287 outlet;
#X obj 71 327 outlet~;
#X obj 82 347 outlet~;
#X obj 60 307 outlet~;
#X obj 93 367 outlet;
#X obj 105 387 outlet;
#X obj 127 427 outlet~;
#X obj 116 407 outlet;
#X obj 138 447 outlet~;
#X obj 149 467 outlet;
#X obj 160 487 outlet;
#X obj 171 507 outlet;
#X obj 182 527 outlet~;
#X obj 194 547 outlet~;
#X msg 5 39 127;
#N canvas 585 297 578 506 notes 0;
#X obj 26 189 outlet;
#X obj 408 88 outlet;
#X obj 25 21 loadbang;
#X obj 26 63 t b;
#X obj 34 41 bng 15 250 50 0 empty empty empty 17 7 0 10 -262144 -1
-1;
#X text 53 39 Update bang;
#X obj 26 167 frame-const;
#X msg 57 121 1;
#X msg 89 142 1;
#X msg 26 101 1 3 5;
#X msg 124 169 7 3 1;
#X connect 2 0 3 0;
#X connect 3 0 8 0;
#X connect 3 0 7 0;
#X connect 3 0 9 0;
#X connect 3 0 10 0;
#X connect 4 0 1 0;
#X connect 4 0 3 0;
#X connect 6 0 0 0;
#X connect 7 0 6 1;
#X connect 8 0 6 2;
#X connect 9 0 6 0;
#X connect 10 0 0 0;
#X restore 41 -3 pd notes;
#X obj 5 102 change;
#X obj 5 19 frame-finder;
#X obj 194 103 mtof;
#X msg 194 83 78;
#N canvas 720 22 720 799 notes 0;
#X obj 26 189 outlet;
#X obj 408 88 outlet;
#X obj 25 21 loadbang;
#X obj 26 63 t b;
#X obj 34 41 bng 15 250 50 0 empty empty empty 17 7 0 10 -262144 -1
-1;
#X text 53 39 Update bang;
#X msg 128 153 4 1 1;
#X obj 26 160 frame-const;
#X msg 89 137 1;
#X msg 57 137 3;
#X msg 26 137 1 5;
#X msg 176 153 8 1 1;
#X connect 2 0 3 0;
#X connect 3 0 6 0;
#X connect 3 0 8 0;
#X connect 3 0 9 0;
#X connect 3 0 10 0;
#X connect 3 0 11 0;
#X connect 4 0 1 0;
#X connect 4 0 3 0;
#X connect 6 0 0 0;
#X connect 7 0 0 0;
#X connect 8 0 7 2;
#X connect 9 0 7 1;
#X connect 10 0 7 0;
#X connect 11 0 0 0;
#X restore 133 -2 pd notes;
#X obj 97 20 frame-finder;
#X msg 226 83 80;
#X msg 259 83 82;
#N canvas 720 22 720 799 notes 0;
#X obj 26 189 outlet;
#X obj 408 88 outlet;
#X obj 25 21 loadbang;
#X obj 26 63 t b;
#X obj 34 41 bng 15 250 50 0 empty empty empty 17 7 0 10 -262144 -1
-1;
#X text 53 39 Update bang;
#X obj 26 165 frame-const;
#X msg 26 109 2 6;
#X msg 56 124 1;
#X msg 89 144 1;
#X connect 2 0 3 0;
#X connect 3 0 9 0;
#X connect 3 0 8 0;
#X connect 3 0 7 0;
#X connect 4 0 1 0;
#X connect 4 0 3 0;
#X connect 6 0 0 0;
#X connect 7 0 6 0;
#X connect 8 0 6 1;
#X connect 9 0 6 2;
#X restore 218 -2 pd notes;
#X obj 182 20 frame-finder;
#X msg 294 83 85;
#N canvas 720 22 720 799 notes 0;
#X obj 26 189 outlet;
#X obj 408 88 outlet;
#X obj 25 21 loadbang;
#X obj 26 63 t b;
#X obj 34 41 bng 15 250 50 0 empty empty empty 17 7 0 10 -262144 -1
-1;
#X text 53 39 Update bang;
#X msg 26 151 3 3 1;
#X connect 2 0 3 0;
#X connect 3 0 6 0;
#X connect 4 0 1 0;
#X connect 4 0 3 0;
#X connect 6 0 0 0;
#X restore 301 -2 pd notes;
#X obj 265 20 frame-finder;
#X msg 326 83 87;
#N canvas 720 22 720 799 notes 0;
#X obj 26 189 outlet;
#X obj 408 88 outlet;
#X obj 25 21 loadbang;
#X obj 26 63 t b;
#X obj 34 41 bng 15 250 50 0 empty empty empty 17 7 0 10 -262144 -1
-1;
#X text 53 39 Update bang;
#X msg 26 151 7 1 1;
#X connect 2 0 3 0;
#X connect 3 0 6 0;
#X connect 4 0 1 0;
#X connect 4 0 3 0;
#X connect 6 0 0 0;
#X restore 385 -2 pd notes;
#X obj 349 20 frame-finder;
#X connect 0 0 25 0;
#X connect 0 0 29 0;
#X connect 0 0 33 0;
#X connect 0 0 36 0;
#X connect 0 0 39 0;
#X connect 1 0 4 0;
#X connect 1 1 5 0;
#X connect 1 2 6 0;
#X connect 1 3 7 0;
#X connect 1 4 8 0;
#X connect 1 5 11 0;
#X connect 1 6 9 0;
#X connect 1 7 10 0;
#X connect 1 8 12 0;
#X connect 1 9 13 0;
#X connect 1 10 15 0;
#X connect 1 11 14 0;
#X connect 1 12 16 0;
#X connect 1 13 17 0;
#X connect 1 14 18 0;
#X connect 1 15 19 0;
#X connect 1 16 20 0;
#X connect 1 17 21 0;
#X connect 2 0 24 0;
#X connect 3 0 2 0;
#X connect 3 1 2 1;
#X connect 22 0 3 0;
#X connect 23 0 25 1;
#X connect 23 1 25 2;
#X connect 24 0 1 0;
#X connect 25 0 27 0;
#X connect 25 0 22 0;
#X connect 25 1 3 1;
#X connect 26 0 1 1;
#X connect 27 0 26 0;
#X connect 28 0 29 1;
#X connect 28 1 29 2;
#X connect 29 0 30 0;
#X connect 29 0 22 0;
#X connect 29 1 3 1;
#X connect 30 0 26 0;
#X connect 31 0 26 0;
#X connect 32 0 33 1;
#X connect 32 1 33 2;
#X connect 33 0 31 0;
#X connect 33 0 22 0;
#X connect 33 1 3 1;
#X connect 34 0 26 0;
#X connect 35 0 36 1;
#X connect 35 1 36 2;
#X connect 36 0 34 0;
#X connect 36 0 22 0;
#X connect 36 1 3 1;
#X connect 37 0 26 0;
#X connect 38 0 39 1;
#X connect 38 1 39 2;
#X connect 39 0 37 0;
#X connect 39 0 22 0;
#X connect 39 1 3 1;
#X restore 10 66 pd percussive-fx-1-actions;
#X obj 10 44 r frame;
#X obj 29 -69 s start;
#X obj 230 -26 list-random 0 29;
#X obj 230 -49 loadbang;
#X obj 230 -68 bng 15 250 50 0 empty empty empty 17 7 0 10 -262144
-1 -1;
#X obj 121 173 r p1a;
#X obj 106 216 bng 15 250 50 0 empty empty empty 17 7 0 10 -262144
-1 -1;
#X obj 106 195 r tt;
#X obj 230 -5 s placeholder;
#X obj 127 280 r tt;
#X obj 148 301 r placeholder;
#X obj 125 235 r placeholder;
#X obj 106 339 list;
#X obj 9 173 r p1a;
#X obj 17 194 r p2a;
#X obj 26 214 r mra;
#X obj 34 234 r m1a;
#X obj 42 254 r m2a;
#X obj 50 274 r mea;
#X obj 9 295 bng 15 250 50 0 empty empty empty 17 7 0 10 -262144 -1
-1;
#X obj 9 334 s tt;
#X obj 127 359 r tt;
#X obj 127 378 bng 15 250 50 0 empty empty empty 17 7 0 10 -262144
-1 -1;
#X obj 148 378 r placeholder;
#X obj 106 416 list;
#X obj 142 256 r p2a;
#X obj 142 339 r mra;
#X obj 127 436 r tt;
#X obj 127 455 bng 15 250 50 0 empty empty empty 17 7 0 10 -262144
-1 -1;
#X obj 148 455 r placeholder;
#X obj 106 493 list;
#X obj 127 513 r tt;
#X obj 127 532 bng 15 250 50 0 empty empty empty 17 7 0 10 -262144
-1 -1;
#X obj 148 532 r placeholder;
#X obj 106 570 list;
#X obj 142 416 r m1a;
#X obj 142 494 r m2a;
#X obj 127 590 r tt;
#X obj 127 609 bng 15 250 50 0 empty empty empty 17 7 0 10 -262144
-1 -1;
#X obj 148 609 r placeholder;
#X obj 106 647 list;
#X obj 142 571 r mea;
#X obj 73 670 pysend;
#X obj 73 651 tgl 15 0 empty empty empty 17 7 0 10 -262144 -1 -1 1
1;
#X obj 58 628 r start;
#X obj 127 320 l;
#X obj 106 256 l;
#X obj 127 397 l;
#X obj 127 474 l;
#X obj 127 551 l;
#X obj 127 628 l;
#X obj 127 301 bng 15 250 50 0 empty empty empty 17 7 0 10 -262144
-1 -1;
#X text 983 445 master volume;
#X text 282 -56 initialize an empty list as a placeholder for inactive
instruments;
#X floatatom 84 692 5 0 0 0 - - -;
#X floatatom 195 -23 5 0 0 0 - - -;
#X obj 187 484 print;
#X obj 9 313 del 0;
#X obj 5 -46 metronome 50 4/4 8 8;
#X connect 1 0 29 0;
#X connect 1 0 86 0;
#X connect 2 0 3 0;
#X connect 2 1 4 0;
#X connect 2 2 5 0;
#X connect 8 0 0 0;
#X connect 9 0 0 1;
#X connect 10 0 9 1;
#X connect 10 0 8 1;
#X connect 13 0 8 0;
#X connect 14 0 9 0;
#X connect 15 0 8 0;
#X connect 16 0 9 0;
#X connect 17 0 8 0;
#X connect 18 0 8 0;
#X connect 19 0 8 0;
#X connect 20 0 8 0;
#X connect 21 0 9 0;
#X connect 22 0 9 0;
#X connect 23 0 9 0;
#X connect 24 0 9 0;
#X connect 25 0 11 0;
#X connect 25 1 12 0;
#X connect 25 2 26 0;
#X connect 27 0 25 0;
#X connect 27 1 25 1;
#X connect 27 2 25 2;
#X connect 27 3 25 3;
#X connect 27 4 25 4;
#X connect 27 5 25 5;
#X connect 27 6 25 6;
#X connect 27 7 25 7;
#X connect 27 8 25 8;
#X connect 27 9 25 9;
#X connect 27 10 25 10;
#X connect 27 11 25 11;
#X connect 27 12 25 12;
#X connect 27 13 25 13;
#X connect 27 14 25 14;
#X connect 27 15 25 15;
#X connect 27 16 25 16;
#X connect 27 17 25 17;
#X connect 28 0 27 0;
#X connect 30 0 36 0;
#X connect 31 0 30 0;
#X connect 32 0 30 0;
#X connect 33 0 74 1;
#X connect 34 0 74 0;
#X connect 35 0 34 0;
#X connect 37 0 79 0;
#X connect 38 0 73 1;
#X connect 39 0 74 1;
#X connect 40 0 52 0;
#X connect 41 0 47 0;
#X connect 42 0 47 0;
#X connect 43 0 47 0;
#X connect 44 0 47 0;
#X connect 45 0 47 0;
#X connect 46 0 47 0;
#X connect 47 0 85 0;
#X connect 49 0 50 0;
#X connect 50 0 75 0;
#X connect 51 0 75 1;
#X connect 52 0 58 0;
#X connect 53 0 73 1;
#X connect 54 0 75 1;
#X connect 55 0 56 0;
#X connect 56 0 76 0;
#X connect 57 0 76 1;
#X connect 58 0 62 0;
#X connect 59 0 60 0;
#X connect 60 0 77 0;
#X connect 61 0 77 1;
#X connect 62 0 68 0;
#X connect 63 0 76 1;
#X connect 64 0 77 1;
#X connect 65 0 66 0;
#X connect 66 0 78 0;
#X connect 67 0 78 1;
#X connect 68 0 70 1;
#X connect 69 0 78 1;
#X connect 70 0 82 0;
#X connect 71 0 70 0;
#X connect 72 0 71 0;
#X connect 73 0 40 1;
#X connect 74 0 40 0;
#X connect 75 0 52 1;
#X connect 76 0 58 1;
#X connect 77 0 62 1;
#X connect 78 0 68 1;
#X connect 79 0 73 0;
#X connect 85 0 48 0;
#X connect 86 0 2 0;
#X connect 86 0 6 0;
#X connect 86 1 7 0;
#X connect 86 2 83 0;
