#N canvas 85 228 1260 282 10;
#X obj 413 61 osc~;
#X obj 609 61 phasor~;
#X obj 544 61 osc~;
#X obj 544 81 >~ 0;
#X obj 413 172 *~;
#X obj 481 172 *~;
#X obj 609 173 *~;
#X obj 544 193 *~;
#X obj 413 227 +~;
#X obj 481 61 triangulo;
#X text 7 22 This patch allows you to continuously change the signal
waveform between some of the most commonly used waveforms.;
#X text 7 55 0 = Osc;
#X text 7 70 1 = Triangle;
#X text 6 85 2 = Sawtooth/phasor;
#X text 6 100 3 = square;
#X text 5 142 Inlets;
#X obj 413 31 +~;
#X text 5 161 0 - Frequency of the wave;
#X text 5 179 1 - phase;
#X text 5 199 2 - Waveform position;
#X text 8 7 VARIABLE CONTINUOUS SIGNAL GENERATOR;
#X obj 413 8 inlet~;
#X obj 458 8 inlet;
#X obj 413 247 outlet~;
#X obj 779 47 clip~ 0 1;
#X obj 869 46 clip~ 0 2;
#X obj 962 47 clip~ 1 3;
#X obj 779 87 s~ \$0-o;
#X obj 779 67 expr~ 1 - $v1;
#X obj 869 67 -~ 1;
#X obj 869 87 abs~;
#X obj 869 108 expr~ 1 - $v1;
#X obj 869 129 s~ \$0-t;
#X obj 1054 128 s~ \$0-p;
#X obj 962 67 -~ 2;
#X obj 962 87 abs~;
#X obj 962 108 expr~ 1 - $v1;
#X obj 962 129 s~ \$0-s;
#X obj 428 113 r~ \$0-o;
#X obj 496 135 r~ \$0-t;
#X obj 559 134 r~ \$0-s;
#X obj 624 138 r~ \$0-p;
#X obj 779 9 inlet~;
#X obj 687 61 noise~;
#X obj 687 172 *~;
#X obj 702 141 r~ \$0-n;
#X obj 1154 47 clip~ 3 4;
#X obj 1054 47 clip~ 2 4;
#X obj 1054 68 -~ 3;
#X obj 1054 88 abs~;
#X obj 1054 109 expr~ 1 - $v1;
#X obj 1154 67 -~ 3;
#X obj 1154 87 s~ \$0-n;
#X text 6 118 4 = noise;
#X connect 0 0 4 0;
#X connect 1 0 6 0;
#X connect 2 0 3 0;
#X connect 3 0 7 0;
#X connect 4 0 8 0;
#X connect 5 0 8 0;
#X connect 6 0 8 0;
#X connect 7 0 8 0;
#X connect 8 0 23 0;
#X connect 9 0 5 0;
#X connect 16 0 0 0;
#X connect 16 0 1 0;
#X connect 16 0 2 0;
#X connect 16 0 9 0;
#X connect 21 0 16 0;
#X connect 22 0 0 1;
#X connect 22 0 9 1;
#X connect 22 0 2 1;
#X connect 22 0 1 1;
#X connect 24 0 28 0;
#X connect 25 0 29 0;
#X connect 26 0 34 0;
#X connect 28 0 27 0;
#X connect 29 0 30 0;
#X connect 30 0 31 0;
#X connect 31 0 32 0;
#X connect 34 0 35 0;
#X connect 35 0 36 0;
#X connect 36 0 37 0;
#X connect 38 0 4 1;
#X connect 39 0 5 1;
#X connect 40 0 7 1;
#X connect 41 0 6 1;
#X connect 42 0 24 0;
#X connect 42 0 25 0;
#X connect 42 0 26 0;
#X connect 42 0 47 0;
#X connect 42 0 46 0;
#X connect 43 0 44 0;
#X connect 44 0 8 0;
#X connect 45 0 44 1;
#X connect 46 0 51 0;
#X connect 47 0 48 0;
#X connect 48 0 49 0;
#X connect 49 0 50 0;
#X connect 50 0 33 0;
#X connect 51 0 52 0;
